<?xml version="1.0" encoding="UTF-8" standalone="no"?>
<!-- Generator: Adobe Illustrator 16.0.0, SVG Export Plug-In . SVG Version: 6.00 Build 0)  -->

<svg
   xmlns:dc="http://purl.org/dc/elements/1.1/"
   xmlns:cc="http://creativecommons.org/ns#"
   xmlns:rdf="http://www.w3.org/1999/02/22-rdf-syntax-ns#"
   xmlns:svg="http://www.w3.org/2000/svg"
   xmlns="http://www.w3.org/2000/svg"
   xmlns:sodipodi="http://sodipodi.sourceforge.net/DTD/sodipodi-0.dtd"
   xmlns:inkscape="http://www.inkscape.org/namespaces/inkscape"
   version="1.1"
   id="Capa_1"
   x="0px"
   y="0px"
   width="591.48688"
   height="411.68207"
   viewBox="0 0 591.48689 411.68207"
   enable-background="new 0 0 781.605 544.008"
   xml:space="preserve"
   inkscape:version="0.91 r13725"
   sodipodi:docname="batman.svg"><metadata
   id="metadata21"><rdf:RDF><cc:Work
       rdf:about=""><dc:format>image/svg+xml</dc:format><dc:type
         rdf:resource="http://purl.org/dc/dcmitype/StillImage" /><dc:title></dc:title></cc:Work></rdf:RDF></metadata><defs
   id="defs19" /><sodipodi:namedview
   pagecolor="#ffffff"
   bordercolor="#666666"
   borderopacity="1"
   objecttolerance="10"
   gridtolerance="10"
   guidetolerance="10"
   inkscape:pageopacity="0"
   inkscape:pageshadow="2"
   inkscape:window-width="1920"
   inkscape:window-height="1017"
   id="namedview17"
   showgrid="false"
   fit-margin-top="0"
   fit-margin-left="0"
   fit-margin-right="0"
   fit-margin-bottom="0"
   inkscape:zoom="0.37870792"
   inkscape:cx="390.80249"
   inkscape:cy="137.03723"
   inkscape:window-x="-8"
   inkscape:window-y="-8"
   inkscape:window-maximized="1"
   inkscape:current-layer="Capa_1" />
<g
   id="g3"
   transform="matrix(0.75675739,0,0,0.75675739,0,2.0820313e-4)">
	<path
   id="path4"
   connector-curvature="0"
   d="m 216.945,163.541 c -6.025,4.076 -10.563,4.1 -13.121,3.933 -2.554,-0.172 -11.445,-0.262 -17.709,-0.657 -6.266,-0.391 -30.175,3.934 -30.175,3.934 0,0 -0.182,3.778 1.968,5.896 2.15,2.121 1.298,2.401 2.625,13.759 13.605,43.633 28.207,51.105 28.207,51.105 0,0 -4.978,1.224 -7.219,0.654 -2.238,-0.573 -11.544,-2.442 -13.772,-2.621 -2.228,-0.179 -18.368,-0.654 -18.368,-0.654 C 95.433,248.266 77.424,293.9 69.354,309.65 61.281,325.396 1.132,497.688 1.132,497.688 L 0.478,344.373 14.906,329.305 c 0,0 17.845,-27.615 38.704,-50.449 20.858,-22.837 39.359,-29.483 39.359,-29.483 0,0 -1.837,-17.827 3.279,-25.554 5.117,-7.728 38.702,-5.897 38.702,-5.897 0,0 10.9,1.574 11.151,0 C 145.707,210.538 101.473,64.148 99.528,56.747 97.583,49.349 98.871,44.954 98.871,44.954 c 0,0 24.79,23.713 29.52,28.827 20.025,-23.931 27.153,-26.201 43.95,-30.794 16.798,-4.589 45.262,4.586 45.262,4.586 0,0 12.695,-34.852 15.087,-41.932 2.394,-7.078 4.594,-1.964 4.594,-1.964 l 16.397,146.104 c -0.001,0 -30.708,9.686 -36.736,13.76 z m 92.492,91.07 c -1.014,0.582 -11.624,-0.393 -14.432,-1.309 -2.806,-0.919 -7.096,0.354 -3.934,1.309 3.16,0.962 14.383,7.522 15.087,8.52 0.703,0.994 -7.686,4.277 -9.183,4.586 -1.5,0.305 -3.124,1.389 0.655,1.965 3.777,0.576 6.692,2.439 6.559,3.932 -0.131,1.492 -2.035,3.217 -5.903,3.275 -3.866,0.055 -5.097,0.859 -5.248,1.967 -0.15,1.104 4.761,3.9 3.938,4.586 -0.827,0.684 -8.799,1.717 -10.495,1.309 -15.936,-19.832 -60.35,-18.344 -60.35,-18.344 0,0 -0.689,-11.67 -1.315,-19.001 23.86,-7.331 35.425,-30.793 35.425,-30.793 l 3.279,9.826 c 0,0 0.431,1.682 1.968,0.656 1.538,-1.027 15.536,-0.196 19.678,0.655 4.146,0.854 16.421,15.163 20.338,19.655 3.911,4.492 4.95,6.623 3.933,7.206 z m 371.276,136.282 c 2.252,4.102 1.688,10.002 0,15.066 -1.685,5.066 -4.217,7.281 -3.935,10.484 0.282,3.201 3.608,12.873 -3.28,19 -6.885,6.129 -14.808,11.357 -17.053,8.514 -2.247,-2.84 -3.71,-10.256 -3.281,-12.445 0.427,-2.186 -2.626,-2.621 -2.626,-2.621 0,0 -10.101,-9.758 -38.046,-2.621 -27.941,7.137 -102.33,8.518 -102.33,8.518 0,0 -18.311,-5.783 -7.214,-48.482 7.559,-5.414 26.239,-27.52 26.239,-27.52 0,0 49.096,2.865 64.284,14.416 4.567,-2.918 9.394,-9.473 11.809,-13.104 2.413,-3.637 15.603,-10.658 17.054,-12.449 1.451,-1.793 13.153,-9.482 20.332,-9.176 7.184,0.312 20.713,2.66 31.489,10.486 7.231,5.254 8.363,7.355 3.936,10.484 -4.424,3.127 -3.409,3.107 -3.28,4.584 0.13,1.479 2.441,19.735 5.902,26.866 z m 9.84,-228.006 c -7.88,8.108 -13.119,16.381 -13.119,16.381 l -3.28,10.479 -15.744,24.243 c 0,0 -50.051,34.831 -61.002,39.312 -10.954,4.482 -34.112,11.139 -34.112,11.139 l -3.28,-40.623 c 0,0 -1.283,-6.592 1.313,-7.207 -0.941,-8.008 -2.968,-14.576 -20.991,-22.931 l 1.968,-19.656 c 0,0 5.582,-13.784 13.118,-19.657 7.535,-5.872 46.151,-26.81 49.857,-31.448 4.343,-0.779 10.752,1.175 7.871,10.483 -2.884,9.31 -9.841,15.071 -9.841,15.071 0,0 53.884,-13.772 60.349,-15.071 6.467,-1.297 22.643,-4.115 20.991,9.828 -1.329,1.729 3.485,2.619 5.903,4.585 2.419,1.966 7.877,6.96 -10e-4,15.072 l 0,0 z"
   inkscape:connector-curvature="0"
   style="fill:#5ca1ac" />
	<path
   id="path6"
   connector-curvature="0"
   d="m 357.978,310.301 c 0,0 6.57,22.805 15.744,31.451 9.173,8.648 45.626,30.475 48.542,32.76 2.916,2.283 21.927,5.303 32.142,1.965 10.212,-3.336 81.751,-53.709 93.147,-85.174 11.396,-31.464 12.464,-58.966 12.464,-58.966 0,0 -0.595,-10.963 -0.657,-16.381 -0.062,-5.416 3.29,-13.673 -12.463,-17.035 -3.811,-0.588 -8.124,1.335 -7.215,-22.931 2.572,-17.054 4.846,-35.415 -11.151,-39.965 -15.996,-4.552 -25.418,-1.906 -28.207,0.653 -2.792,2.562 -11.151,1.966 -11.151,1.966 0,0 -12.584,-9.962 -13.778,-24.239 2.699,-6.237 3.104,-20.454 -9.184,-13.763 -12.284,6.694 -9.615,17.285 -9.838,20.312 -0.224,3.027 -4.438,4.804 -5.246,6.551 -0.81,1.75 -1.292,7.291 1.31,10.485 2.601,3.192 9.187,7.862 9.187,7.862 l 4.587,0 c 0,0 0.149,5.564 -19.678,6.549 -12.047,-1.785 -19.68,-5.238 -19.68,-5.238 l -5.903,-7.207 c 0,0 -2.346,5.34 -0.654,7.863 1.689,2.518 13.655,12.032 18.364,13.104 4.712,1.064 -5.23,-1.361 -21.645,7.205 -16.417,8.566 -35.327,20.68 -41.983,51.104 -6.653,30.427 1.036,40.407 -6.559,53.728 -7.595,13.315 -10.495,37.341 -10.495,37.341 z"
   inkscape:connector-curvature="0"
   style="fill:#5ca1ac" />
	<g
   id="g8">
		<path
   id="path10"
   connector-curvature="0"
   d="m 360.892,270.975 c -6.678,11.943 -5.903,37.346 -5.903,37.346 0.885,2.875 -7.128,2.256 -10.495,1.309 -8.239,-2.051 -9.7,-14.762 -9.839,-19.654 -0.14,-4.895 2.798,-22.76 3.935,-34.07 1.14,-11.31 3.957,-21.43 11.153,-22.277 7.195,-0.848 15.087,11.796 15.087,11.796 0,0 2.741,13.61 -3.938,25.55 l 0,0 z m 184.982,61.586 c -1.582,7.443 -29.517,44.553 -29.517,44.553 0,0 -12.072,12.877 -20.333,9.828 -8.264,-3.051 -15.09,-10.482 -15.09,-10.482 0,0 42.616,-22.457 53.789,-49.793 3.139,-3.253 12.735,-1.548 11.151,5.894 z m -80.025,74.037 c -5.896,-7.223 -23.246,-15.869 -51.166,-21.621 -27.918,-5.754 -65.597,0.656 -65.597,0.656 0,0 7.391,-46.164 7.213,-57.004 -0.176,-10.836 2.625,-8.518 2.625,-8.518 l 8.528,16.381 c 0,0 15.816,17.965 24.928,24.9 9.108,6.934 40.455,20.088 49.853,18.998 9.396,-1.092 38.048,-3.932 38.048,-3.932 l -14.432,30.14 0,0 z M 250.689,234.284 c -3.254,7.968 -30.81,12.589 -45.26,13.103 -14.452,0.518 -25.558,-12.616 -34.11,-28.828 -8.554,-16.207 -9.965,-32.203 -9.84,-34.069 0.126,-1.865 -5.248,-12.446 -5.248,-12.446 1.828,-1.6 31.487,-3.276 31.487,-3.276 0,0 15.93,1.15 22.301,-0.655 6.372,-1.803 35.425,-14.417 35.425,-14.417 3.155,0.285 9.183,-3.273 9.183,-3.273 l 1.966,3.931 c 0,0 -0.865,-0.426 3.281,30.138 4.356,32.126 -5.927,41.826 -9.185,49.792 l 0,0 z"
   inkscape:connector-curvature="0"
   style="fill:#eebe8e" />
	</g>
	<g
   id="g12">
		<path
   id="path14"
   connector-curvature="0"
   d="m 347.342,385.334 c -8.251,1.766 -17.71,21.621 -17.71,21.621 0,0 -2.311,4.535 -5.25,8.518 -1.999,-0.1 -9.839,0 -9.839,0 0,0 -7.741,-9.371 -19.679,-17.691 -18.792,-14.877 -37.473,-21.922 -99.707,-20.967 -62.231,0.957 -110.202,38.658 -110.202,38.658 0,0 -12.931,-74.699 -14.432,-85.174 -1.502,-10.475 8.929,-37.738 29.519,-64.863 29.159,-27.125 64.256,-26.211 76.09,-24.241 11.834,1.969 40.938,16.251 41.983,25.549 20.835,2.08 55.495,1.686 66.254,14.414 10.757,12.732 64,31.82 73.465,33.414 3.503,21.362 -6.008,51.116 -10.492,70.762 z m 167.929,55.033 c 0,0 -21.153,0.303 -26.896,0 -5.741,-0.299 -5.879,-0.955 -9.183,-1.965 -3.302,-1.01 -5.806,-15.932 -5.904,-20.311 -0.096,-4.379 -5.556,-7.855 -6.561,-12.445 -1.002,-4.596 15.742,-28.832 15.742,-28.832 0,0 18.872,10.52 22.963,10.486 -12.561,37.3 9.839,53.067 9.839,53.067 z"
   inkscape:connector-curvature="0"
   style="fill:#9d9a88" />
	</g>
	<path
   id="path16"
   connector-curvature="0"
   d="m 625.285,543.915 c 0,0 17.504,-74.885 -38.164,-89.749 -29.718,-10.357 -56.896,-17.422 -84.143,-12.203 -8.635,1.189 -27.619,4.871 -29.855,-13.551 -3.877,-17.76 -17.802,-39.992 -58.36,-43.381 -42.984,-3.592 -60.787,-5.094 -77.36,9.49 -9.126,8.031 -13.57,23.045 -13.57,23.045 0,0 -17.285,-0.922 -17.645,-4.068 -0.36,-3.145 -28.041,-43.953 -118.074,-35.244 C 98.081,386.963 58.964,434.67 21.183,482.627 6.516,502.707 0.659,512.917 0.659,512.917 L 0,541.938 l 625.285,1.977 z"
   inkscape:connector-curvature="0"
   style="fill:#f7ff3c" />
	<path
   id="path18"
   connector-curvature="0"
   d="m 625.285,542.598 c 3.195,-7.674 2.292,-59.481 -0.607,-65.284 55.309,11.32 70.407,66.35 70.407,66.35 0,0 -68.71,-0.16 -69.8,-1.066 z m 128.324,-154.75 c -3.243,15.527 -1.121,23.666 4.07,33.889 19.855,31.998 20.36,120.643 20.36,120.643 l -70.574,0 c 0,0 6.978,-44.387 8.14,-59.643 1.167,-15.254 -1.396,-48.967 -2.712,-51.512 -1.315,-2.545 -3.87,-10.527 -4.071,-17.621 -0.202,-7.098 -9.502,-20.17 -12.214,-23.047 -2.715,-2.871 -3.154,-15.152 -2.715,-17.623 0.439,-2.467 -3.824,-11.727 -6.787,-14.908 -2.962,-3.184 -5.384,-12.59 -5.429,-17.623 -0.042,-5.029 -4.919,-14.57 -5.429,-16.268 -0.508,-1.689 -4.907,-6.869 0,-9.49 8.042,-4.289 18.334,1.945 21.715,5.424 3.382,3.482 8.803,24.916 10.859,28.467 2.055,3.553 5.163,6.139 6.783,6.779 1.626,0.641 11.241,-9.879 13.577,-12.199 2.332,-2.322 1.95,-6.244 1.355,-8.135 -0.596,-1.891 -9.784,-10.502 -10.859,-12.201 -1.074,-1.695 -8.854,-2.586 -13.57,-4.066 -4.722,-1.482 -10.171,-10.91 -5.431,-14.91 4.741,-4 12.216,2.709 12.216,2.709 l 6.785,0 c 0,0 -2.986,-5.471 -6.785,-8.131 -3.798,-2.662 -10.19,-11.984 -10.855,-17.623 -0.67,-5.637 5.857,-5.631 9.498,-2.709 11.086,9.455 14.926,9.488 14.926,9.488 0,0 -0.073,-8.354 -2.716,-9.488 -2.639,-1.139 -8.408,-9.004 -9.497,-16.268 -1.087,-7.263 -0.716,-12.57 4.071,-13.558 4.788,-0.986 21.384,24.878 25.788,31.179 1.697,-4.514 -4.179,-22.3 -5.428,-27.11 -1.254,-4.809 1.249,-12.77 6.786,-14.913 5.535,-2.139 7.554,5.298 10.857,13.555 3.302,8.26 10.857,40.667 10.857,40.667 0,0 0.465,13.625 0,33.889 -0.54,23.47 -10.327,46.827 -13.571,62.357 l 0,0 z"
   inkscape:connector-curvature="0"
   style="fill:#a8e89f" />
	<g
   id="g20">
		<path
   id="path22"
   connector-curvature="0"
   d="m 350.367,235.433 c -8.399,0.734 -11.206,13.845 -13.572,39.309 -2.368,25.469 1.53,29.934 4.07,33.891 2.539,3.953 14.93,4.068 14.93,4.068 0,0 -0.371,20.717 -1.357,23.043 -0.572,-1.217 -5.475,-4.824 -6.787,-5.424 -1.31,-0.598 -11.409,4.766 -13.571,5.424 4.926,-11.631 2.371,-10.656 1.357,-10.846 -1.014,-0.188 -13.575,9.488 -13.575,9.488 0,0 0.828,-4.508 2.718,-9.488 1.89,-4.979 0,-4.064 0,-4.064 l -10.859,6.777 c 0,0 6.675,-11.688 8.141,-14.91 1.473,-3.225 -13.571,0 -13.571,0 0,0 1.052,-2.402 1.361,-4.068 -0.318,-1.045 -119.792,23.537 -194.078,36.6 -74.287,13.062 -103.147,6.777 -103.147,6.777 0,0 -7.315,-0.262 -10.855,-2.709 -3.542,-2.449 0.414,-23.172 2.713,-27.113 9.184,-9.98 21.715,-6.777 21.715,-6.777 0,0 -7.165,12.068 -8.143,17.625 25.536,2.006 70.435,-2.01 85.504,-4.07 15.067,-2.057 112.264,-22.742 131.645,-27.111 19.379,-4.365 63.788,-14.908 63.788,-14.908 0,0 0.253,-2.232 -1.356,-2.713 -1.612,-0.48 -2.814,-2.645 -1.356,-4.066 1.454,-1.424 6.634,-0.191 9.499,-1.357 2.865,-1.162 1.128,-3.359 0,-4.066 -1.13,-0.701 -8.143,-2.709 -8.143,-2.709 0,0 4.909,-2.793 8.143,-4.064 3.231,-1.279 1.666,-1.469 1.356,-2.715 -0.312,-1.246 -13.499,-6.834 -16.285,-8.134 2.607,-1.726 16.057,1.035 17.641,1.358 1.587,0.32 3.597,-0.815 2.718,-2.714 -0.883,-1.896 -10.86,-12.196 -10.86,-12.196 0,0 1.812,-0.991 5.43,0 3.618,0.986 3.072,-0.668 4.073,-1.358 -2.131,-6.184 -2.717,-10.844 -2.717,-10.844 0,0 5.383,3.988 6.786,5.424 1.402,1.434 2.482,2.015 2.714,0 0.233,-2.016 -3.468,-9.519 -2.714,-14.911 4.638,7.537 8.634,8.625 9.503,8.134 0.758,-16.339 4.069,-17.624 4.069,-17.624 0,0 1.21,12.142 2.716,16.267 1.502,4.124 2.058,4.435 4.071,2.711 2.013,-1.727 8.14,-10.842 8.14,-10.842 0,0 3.715,5.845 6.788,9.488 3.072,3.638 3.081,4.265 1.357,5.417 z M 173.933,19.899 l 0,0 z m 47.504,183.002 c -8.221,1.7 -23.152,2.193 -24.432,-1.358 0,0 5.839,-9.661 16.287,-8.131 2.625,0.108 7.904,-2.046 9.5,-2.711 1.595,-0.669 9.089,0.317 9.499,1.354 0.411,1.037 -2.637,9.144 -10.854,10.846 z m 24.426,-66.424 c -3.697,-0.535 -25.783,6.778 -25.783,6.778 -0.668,-4.433 3.078,-13.334 10.855,-16.267 7.774,-2.931 12.857,2.486 14.928,4.068 2.071,1.579 0.814,5.734 0,5.421 z m -85.501,18.98 c 0,0 4.003,-13.793 16.286,-14.912 12.281,-1.12 14.929,9.487 14.929,9.487 -0.444,3.325 -31.215,5.425 -31.215,5.425 z"
   inkscape:connector-curvature="0"
   style="fill:#ffffff" />
	</g>
	<g
   id="g24">
		<path
   id="path26"
   d="m 236.125,0.001 c -0.305,0.011 -0.623,0.084 -0.948,0.229 -2.146,0.944 -4.964,9.505 -5.429,12.198 -0.466,2.694 -12.215,33.892 -12.215,33.892 0,0 -20.586,-9.601 -46.142,-4.069 -25.556,5.532 -42.072,29.824 -42.072,29.824 C 119.266,61.391 99.461,40.893 99.461,40.893 c 0,0 -4.447,-2.832 -4.071,4.068 0.375,6.904 41.873,138.278 42.071,142.333 0.128,2.61 3.352,18.322 6.428,29.8 -3.608,-0.234 -34.087,-2.098 -41.716,1.381 -7.283,3.318 -7.157,8.552 -10.857,32.534 -6.406,1.32 -27.035,6.49 -66.79,59.694 -4.814,0.256 -18.837,1.773 -22.782,10.793 -0.225,0.992 1.358,2.711 1.358,2.711 0,0 7.144,-9.217 19.329,-10.664 -1.883,2.559 -3.792,5.182 -5.758,7.953 -2.218,3.047 -1.289,5.539 0.054,7.207 -13.077,-0.615 -14.648,-2.074 -14.982,-3.141 0.189,3.143 0,5.42 0,5.42 0,0 43.699,7.826 107.216,-4.068 63.519,-11.889 221.108,-44.873 219.866,-51.506 0,0 -10.008,2.59 -26.207,6.617 -0.869,-0.344 -2.985,-1.236 -5.012,-2.553 6.217,-0.006 12.437,-2.344 10.859,-5.422 -1.579,-3.078 -7.307,-3.732 -9.5,-4.066 5.726,-1.1 11.225,-4.287 9.5,-6.779 -1.728,-2.492 -14.928,-8.133 -14.928,-8.133 0,0 19.843,3.961 20.355,1.356 0.51,-2.605 -9.863,-12.668 -12.215,-14.911 7.87,2.605 10.364,1.321 9.5,-1.353 -0.861,-2.677 -4.07,-9.492 -4.07,-9.492 0,0 10.329,10.061 10.86,6.78 0.525,-3.283 -4.074,-16.271 -4.074,-16.271 6.389,10.687 11.237,10.177 10.858,8.139 -0.379,-2.044 1.354,-16.271 1.354,-16.271 1.333,11.417 4.577,20.161 6.79,18.98 2.212,-1.179 7.425,-8.77 8.139,-10.848 4.179,3.521 7.184,7.424 8.845,10.743 -0.232,0.032 -0.459,0.057 -0.7,0.104 -10.278,2.096 -12.117,21.661 -12.213,25.755 -0.098,4.092 -4.657,24.083 -4.07,32.536 0.577,8.352 5.465,25.049 21.184,20.479 0.422,2.35 0.547,4.688 0.531,6.629 -0.016,1.807 -0.409,7.547 -1.083,14.615 -1.452,-2.1 -4.039,-5.436 -5.705,-5.129 -2.42,0.455 -13.573,6.779 -13.573,6.779 0,0 2.993,-7.164 4.071,-9.486 0.732,-1.574 2.37,-5.635 -4.071,-2.711 l -12.215,10.846 5.428,-12.203 c 0,0 0.843,-4.316 -2.713,-2.711 -3.557,1.609 -9.503,6.779 -9.503,6.779 l 6.788,-10.844 c 0,0 3.507,-5.971 -1.359,-5.422 -4.864,0.547 -10.854,1.354 -10.854,1.354 l 2.051,-3.072 c 3.119,-0.68 5.914,-1.297 8.334,-1.846 9.225,-2.092 8.613,-3.217 8.613,-3.217 0,0 -170.341,34.92 -206.288,39.312 -35.95,4.395 -105.404,14.74 -119.433,5.422 -3.243,3.533 -1.358,4.068 -1.358,4.068 0,0 15.057,2.861 45.92,1.951 -3.303,8.984 -43.641,119.039 -47.276,148.518 -0.87,22.467 0,24.399 0,24.399 0,0 58.687,-116.583 147.932,-138.264 70.746,-14.393 125.544,-11.688 156.073,24.4 -9.92,-1.189 -25.553,-0.559 -41.405,5.402 3.282,-2.045 5.953,-3.918 7.478,-5.402 -16.75,-0.598 -43.429,24.396 -43.429,24.396 0,0 6.761,-3.205 15.026,-7.438 -13.772,10.572 -25.647,27.018 -31.312,52.17 -4.339,27.25 6.785,63.713 6.785,63.713 l 5.429,0 c 0,0 -17.149,-42.247 13.573,-96.245 10.533,-16.678 27.923,-34.645 74.252,-32.682 -4.308,1.064 -9.577,2.793 -15.892,5.57 -21.493,9.443 -45.593,20.643 4.622,98.35 -7.901,-12.51 -34.054,-57.631 -16.84,-82.081 5.997,-8.148 25.01,-21.547 39.359,-18.982 0.11,-0.119 0.228,-0.24 0.342,-0.357 -2.689,5.75 -4.411,9.848 -4.411,9.848 6.245,-1.574 13.458,-24.035 17.641,-29.822 4.182,-5.791 22.211,-17.639 66.502,-12.201 35.53,5.928 62.217,11.359 67.857,36.604 5.643,19.406 7.193,22.584 24.428,24.4 17.235,1.812 62.071,15.967 61.072,46.088 -0.999,30.116 -3.263,41.506 -13.57,50.155 6.242,0.869 12.216,0 12.216,0 0,0 27.593,-45.03 -1.358,-77.268 -18.245,-16.191 -47.501,-23.043 -47.501,-23.043 48.73,0.045 82.857,10.473 95,20.332 12.147,9.855 33.442,23.193 20.359,79.979 1.522,2.328 10.859,1.355 10.859,1.355 0,0 11.993,-34.278 -3.978,-63.188 11.713,2.068 45.172,12.258 60.978,61.833 1.33,1.355 6.786,0 6.786,0 0,0 -3.048,-55.266 -71.108,-67.202 -6.176,-8.834 -15.381,-16.885 -28.836,-22.934 1.786,-2.428 8.107,-11.033 10.371,-14.242 2.644,-3.752 3.416,0.883 6.786,2.709 3.37,1.83 7.479,11.555 4.071,17.623 13.502,-2.857 14.898,-14.986 14.931,-21.686 0.033,-6.703 4.114,-7.324 8.142,-5.426 4.029,1.902 5.915,3.266 13.571,1.357 -0.164,1.514 -0.011,2.785 0.278,3.764 -1.066,9.027 4.073,11.221 6.508,11.146 2.845,-0.088 4.093,-1.812 14.931,-9.488 8.749,-6.203 6.023,-17.41 4.65,-21.498 9.827,-19.787 4.882,-24.932 3.714,-25.797 -0.359,-1.855 -1.047,-3.527 -1.578,-4.215 -1.254,-1.627 -4.071,-23.045 -4.071,-23.045 4.588,-1.617 6.44,-4.553 5.26,-7.852 0.462,0.85 0.968,1.668 1.523,2.428 4.767,6.49 7.464,15.107 6.786,21.688 -0.677,6.578 5.928,15.973 9.499,18.98 3.573,3.008 4.234,7.928 4.072,9.49 -0.162,1.555 2.238,1.334 2.716,9.484 0.476,8.154 4.678,11.686 5.429,17.623 0.749,5.936 -1.256,85.301 -8.145,107.09 l 6.789,0 c 0,0 11.433,-64.024 5.427,-103.024 -1.645,-11.193 -5.849,-13.352 -5.427,-16.266 0.417,-2.914 4.168,-7.176 -6.789,-24.398 -7.81,-12.277 -6.687,-20.096 -8.141,-24.402 -1.456,-4.305 -6.801,-20.418 -9.501,-21.689 -2.699,-1.27 -2.472,-6.109 -2.715,-10.842 -0.24,-4.736 -7.091,-19.836 -8.142,-20.334 -1.052,-0.502 -1.495,-7.691 6.785,-6.777 8.278,0.912 15.65,11.705 18.999,23.043 3.35,11.342 15.325,24.484 24.43,27.111 -2.661,-2.482 -9.499,-8.133 -9.499,-8.133 0,0 7.555,0.795 9.499,2.709 3.48,-1.146 -3.511,-5.426 -5.429,-5.42 8.829,-5.102 19.001,-18.977 19.001,-18.977 -3.441,1.531 -6.787,2.709 -6.787,2.709 0,0 14.08,-18.533 13.571,-20.334 -0.505,-1.797 -4.071,0 -4.071,0 7.403,-15.34 6.114,-25.918 4.071,-36.598 -2.04,-10.68 -7.791,-28.636 -5.426,-35.244 2.363,-6.607 8.604,-9.748 10.857,0 2.249,9.741 7.894,23.212 8.144,24.398 0.246,1.186 4.983,18.172 5.427,21.689 0.448,3.516 -1.114,24.387 -1.359,27.111 -0.242,2.723 1.68,12.023 1.359,14.908 -0.32,2.891 -4.554,18.828 -6.786,24.402 -2.233,5.57 -11.139,37.803 -9.5,46.09 1.64,8.289 5.279,17.201 6.787,21.688 1.502,4.482 15.364,44.82 17.643,73.201 2.272,28.293 3.557,42.897 3.557,42.897 l 4.073,-1.354 -3.558,-21.213 c 0,0 0.775,-65.182 -23.074,-108.44 0.135,-21.922 4.83,-48.828 9.5,-58.293 4.672,-9.465 4.011,-28.391 4.071,-33.887 0.06,-5.5 2.105,-21.119 -1.355,-33.891 -3.793,-14.004 -4.276,-16.543 -5.428,-21.689 -1.156,-5.146 -8.145,-23.041 -8.145,-23.041 0,0 -3.55,-8.615 -10.857,-4.068 -7.308,4.545 -5.499,20.838 -2.714,25.755 1.774,3.129 2.937,9.402 3.551,13.557 -4.307,-6.211 -14.725,-21.202 -17.124,-24.399 -3.041,-4.062 -10.644,-8.142 -13.57,-1.358 -2.926,6.781 -3.063,21.185 10.854,31.179 0.431,1.117 0.812,2.818 1.258,4.707 -2.703,-1.371 -8.43,-4.498 -10.757,-7.42 -3.096,-3.895 -11.385,-8.303 -13.572,-1.355 -2.186,6.945 2.928,19.773 10.861,23.047 3.178,1.293 4.904,2.828 5.427,5.42 0.011,0.051 0.042,0.117 0.06,0.174 -1.651,0.131 -4.562,0.078 -6.847,-1.527 -3.376,-2.379 -11.157,-4.795 -12.214,1.354 -1.055,6.152 -2.833,12.885 17.644,17.619 2.045,2.479 10.212,12.436 13.863,14.508 -0.75,1.416 -1.333,2.527 -1.648,3.117 -1.77,3.344 -12.215,12.199 -12.215,12.199 0,0 -5.905,-6.469 -6.788,-10.842 -0.879,-4.379 -6.629,-28.807 -20.356,-29.824 -13.727,-1.018 -18.848,3.549 -16.285,8.133 2.558,4.584 7.325,14.248 6.784,17.623 -0.432,2.732 0.27,10.102 3.077,16.254 -1.45,-2.248 -4.236,-4.594 -8.505,-6.764 -11.781,-5.994 -20.221,-11.979 -36.646,-8.135 -8.802,3.389 -13.616,7.621 -18.997,10.846 -5.385,3.223 -16.011,12.139 -19.002,17.623 -1.145,2.096 -2.014,3.467 -2.95,4.482 -6.576,-3.752 -32.809,-17.492 -61.573,-15.617 8.146,-10.875 15.033,-21.426 14.305,-25.465 -1.264,-7.031 -6.963,-7.828 -11.376,-6.965 0.63,-1.258 1.254,-2.555 1.879,-3.883 8.169,-12.879 20.112,-25.131 25.582,-47.055 15.562,0.338 60.445,-29.527 92.491,-49.19 33.994,-20.856 30.359,-32.977 23.073,-36.6 15.823,-11.373 13.151,-19.427 11.553,-22.084 1.676,-1.365 3.221,-2.956 4.734,-5.025 4.761,-11.697 -4.256,-14.22 -7.985,-14.763 -0.009,-0.761 -0.049,-1.691 -0.16,-2.86 1.268,-16.013 -23.604,-10.801 -28.501,-9.487 -4.152,1.111 -35.853,9.364 -49.994,13.285 4.696,-4.636 6.724,-12.521 5.207,-21.418 -1.917,-11.271 -13.699,0.617 -17.641,4.065 -3.943,3.444 -37.708,21.069 -40.714,23.044 -2.151,1.41 -7.468,10.499 -10.327,15.566 0.263,-10.471 -0.804,-20.819 -5.962,-25.056 -9.666,-7.941 -18.548,-17.728 -48.858,-4.066 -6.529,-3.509 -17.879,-20.927 4.073,-44.732 1.104,-2.252 -14.076,1.501 -17.644,9.488 -1.739,-8.818 -19.898,-2.525 -23.073,9.488 -3.172,12.017 -1.357,12.202 -1.357,12.202 0,0 -8.307,0.895 -5.427,9.486 2.88,8.594 4.237,16.112 17.641,14.913 -12.199,3.548 -36.135,9.182 -23.071,-23.047 -7.785,-0.078 -14.661,12.767 -10.859,21.688 -8.632,-7.152 -7.827,-27.435 0,-31.179 -15.215,6.489 -35.743,31.831 5.431,44.735 -31.254,1.579 -48.312,16.764 -59.716,39.313 -8.212,8.994 -14.285,28.542 -15.017,38.996 -1.729,-3.06 -5.052,-7.396 -10.138,-7.973 -2.124,-4.331 -8.387,-16.515 -11.492,-16.117 -2.536,4.188 -5.354,14.875 -9.5,12.201 -2.088,-3.081 -2.714,-20.332 -2.714,-20.332 0,0 -4.731,-8.556 -6.785,16.266 0.003,4.682 -1.311,5.274 -9.5,-10.845 -3.663,7.718 4.977,22.099 2.713,21.689 -2.26,-1.229 -8.919,-6.729 -9.499,-12.2 -3.049,5.63 2.716,17.626 2.716,17.626 -1.9,-1.229 -4.349,-2.923 -6.583,-3.048 -2.737,-5.674 -11.26,-16.76 -34.883,-10.659 -2.054,-16.124 -4.679,-40.519 -4.679,-40.519 0,0 -18.589,-152.813 -19,-162.668 -0.384,-9.223 -2.62,-23.416 -7.195,-23.26 z m 0.41,4.295 c 0,0 8.877,84.083 9.499,88.108 0.497,3.217 6.933,29.145 7.58,57.948 -1.475,-4.519 -5.31,-16.726 -4.864,-19.99 0.549,-4.031 1.293,-26.935 -12.215,-40.667 0.098,-1.785 0,-5.421 0,-5.421 l -2.715,2.708 -2.714,-12.198 c 0,0 -0.869,10.169 -2.716,8.134 -1.845,-2.036 -4.453,-15.973 -6.784,-16.268 -0.923,-0.06 3.402,11.573 1.356,12.201 -2.045,0.624 -4.958,-8.595 -6.785,-9.491 -1.828,-0.895 2.532,7.091 0,8.134 -2.531,1.043 -6.786,-13.555 -6.786,-13.555 -1.143,1.012 -0.503,8.631 0,12.199 -0.439,1.933 -4.424,2.487 -4.071,-2.712 0.35,-5.195 -1.979,-13.56 -2.715,-13.555 -0.737,0.003 -1.818,-1.313 -1.359,4.067 0.46,5.38 1.944,12.46 0,12.199 -1.943,-0.256 -3.785,-13.89 -5.428,-13.555 -1.641,0.336 0.673,6.791 1.358,10.843 0.685,4.055 -2.739,5.533 -4.071,2.712 -1.333,-2.817 -2.968,-9.279 -4.071,-9.488 -1.105,-0.212 -0.817,3.694 0,5.424 0.816,1.725 1.916,7.666 -1.357,6.777 -1.189,-1.368 -4.075,-9.491 -4.075,-9.491 0,0 -2.23,-1.246 -1.355,1.357 0.873,2.602 2.64,8.69 1.355,9.487 -1.283,0.799 -2.843,0.871 -5.428,-9.487 -0.822,-3.957 -3.324,-3.244 -2.713,0 0.609,3.242 3.854,11.071 2.713,12.2 -1.945,1.924 -3.382,3.072 -5.429,-5.424 0.356,-1.771 -2.269,-5.268 -1.355,0 0.912,5.268 0.452,8.92 -1.359,8.135 -1.492,0.495 -3.135,-5.24 -2.712,-8.135 0.431,-2.961 -2.319,-2.886 -2.714,2.711 -0.39,5.517 1.35,13.215 0,10.845 -1.351,-2.367 -2.79,-6.358 -4.073,-10.845 -1.285,-2.082 -1.912,-0.023 -1.358,4.069 0.553,4.09 2.799,12.14 1.358,13.553 -1.445,1.419 -3.805,-0.7 -5.429,-10.845 -0.339,-1.5 -1.41,-1.075 -1.358,2.713 0.056,3.791 2.18,12.76 1.358,13.556 -0.821,0.797 -2.839,1.942 -4.074,-2.71 -1.235,-4.654 -0.035,-6.032 -1.357,-5.424 -1.32,0.607 0.04,14.955 0,17.622 -0.038,2.671 -1.392,0.882 -1.355,-4.067 -0.606,-5.104 -0.347,-7.809 -1.358,-6.778 -1.65,5.353 0.69,13.248 0,17.622 -0.689,4.374 -1.882,20.252 1.358,25.756 2.92,4.062 6.786,5.424 6.786,5.424 -2.87,16.172 -1.402,24.598 4.436,32.381 1.532,9.74 8.408,44.953 29.494,59.798 -4.518,-0.627 -9.075,-0.156 -12.216,-2.71 -1.145,-0.933 -21.709,-26.488 -21.714,-35.249 0,0 -3.166,11.466 11.302,29.489 -3.308,-1.948 -7.867,-4.208 -13.618,-6.064 l -8.541,-32.911 c 2.951,4.426 4.071,4.065 4.071,4.065 0,0 -40.106,-118.09 -42.071,-128.776 -1.967,-10.688 -4.075,-21.688 -4.075,-21.688 5.172,7.259 25.275,29.25 27.146,29.822 2.891,-0.11 21.583,-32.967 50.216,-33.891 28.632,-0.92 47.5,9.488 47.5,9.488 -2.178,-4.289 -5.429,-5.42 -5.429,-5.42 7.001,-22.339 14.931,-44.732 14.931,-44.732 z m 109.931,6.777 c -4.738,-0.077 -6.788,91.114 -6.788,109.8 10e-4,0 10.611,-102.888 6.788,-109.8 z m -24.067,16.242 c -0.116,-0.026 -0.236,-0.02 -0.362,0.025 -4.037,1.436 2.259,32.51 2.715,35.244 0,0 1.242,-34.421 -2.353,-35.269 z m -9.863,20.358 c -5.032,-1.124 9.919,105.173 13.57,117.933 0,0 -8.538,-116.81 -13.57,-117.933 z m 43.237,4.009 c -4.015,-0.508 -4.329,44.4 -3.878,52.927 0,0 8.269,-50.87 4.071,-52.871 -0.066,-0.031 -0.13,-0.051 -0.193,-0.056 z m -60.67,9.526 c -0.072,-0.013 -0.14,-0.006 -0.207,0.021 -4.272,1.728 15.816,76.786 17.641,79.978 -10e-4,0.001 -12.958,-79.173 -17.434,-79.999 z m -182.072,8.153 c 6.766,11.125 10.923,18.574 10.858,23.044 -0.065,4.471 -1.31,11.346 2.717,9.489 0,0 7.529,-13.346 -13.575,-32.533 z m 249.93,3.983 c -1.461,-0.246 -2.137,6.868 -2.924,13.639 -0.968,8.335 -9.51,69.067 -8.143,77.271 0,0 14.516,-84.479 12.213,-89.469 -0.431,-0.936 -0.81,-1.385 -1.146,-1.441 z m 7.711,25.814 c -2.384,0.528 -7.92,25.62 -7.92,37.983 0,0 10.386,-36.826 8.143,-37.957 -0.071,-0.035 -0.145,-0.041 -0.223,-0.026 z m 103.233,1.344 c 1.417,-0.068 2.202,1.681 2.849,5.459 -11.581,19.743 8.143,29.824 8.143,29.824 2.71,0 4.073,4.064 4.073,4.064 0,0 -13.172,12.709 -28.5,20.335 -15.331,5.935 -36.854,-6.615 -38.001,-16.271 5.29,9.638 18.429,13.721 25.788,14.912 0,0 -7.696,-3.564 -8.144,-5.421 6.667,6.267 27.896,-2.204 31.217,-8.134 -6.169,0.501 -17.558,-4.223 -16.29,-13.556 0.249,4.546 16.354,8.317 20.357,6.779 -14.634,-9.663 -14.506,-25.538 -8.142,-32.534 3.183,-3.495 5.233,-5.386 6.65,-5.457 z m -238.017,8.279 c 4.813,-0.254 8.789,5.313 8.789,5.313 -2.302,-1.021 -6.635,-2.25 -9.5,-1.354 -2.867,0.896 -11.466,7.029 -13.571,9.487 -2.105,2.462 -7.875,4.696 -10.859,0 -2.985,-4.693 1.359,-4.064 1.359,-4.064 0,0 2.394,2.116 4.071,2.71 1.678,0.593 10.095,-6.474 16.284,-10.845 1.161,-0.819 2.317,-1.187 3.427,-1.247 z m -40.112,14.315 c 0.742,0.039 1.273,0.693 1.401,1.846 0,0 -1.272,8.242 -16.287,6.774 -15.01,-1.47 -20.995,-1.184 -21.714,1.358 -0.719,2.541 -2.714,5.421 -2.714,5.421 0,0 -4.764,0.819 0.302,-7.934 4.073,-7.035 20.362,-2.759 24.126,-2.909 4.442,-0.182 10.269,-0.099 12.216,-2.711 0.974,-1.307 1.927,-1.884 2.67,-1.845 z m 413.135,1.809 c 0.305,-0.022 0.589,-0.011 0.847,0.037 10.054,9.872 -3.382,20.208 -9.479,24.117 -43.038,11.74 -40.736,20.613 -40.736,20.613 0.819,0 16.178,-5.567 35.288,-13.556 19.108,-7.984 69.014,-20.263 81.43,-20.331 12.416,-0.073 7.665,8.668 5.429,10.846 -2.239,2.173 -39.159,12.559 -42.074,12.195 -2.914,-0.358 -3.231,-4.346 -1.355,-9.485 0.644,-1.048 -9.464,12.101 -9.502,13.555 -0.04,1.453 -13.689,7.549 -20.357,16.266 20.685,-13.665 74.078,-29.431 79.58,-31.034 8.918,1.269 5.602,11.228 3.208,13.412 -2.575,2.349 -37.183,18.53 -38.002,18.976 -0.817,0.452 -3.073,-4.949 -2.711,-9.485 -9.068,5.286 -10.86,13.554 -10.86,13.554 0,0 -18.476,9.812 -21.712,13.557 -3.242,3.745 0,4.063 0,4.063 0,0 27.085,-15.38 32.572,-17.62 3.003,-1.226 11.504,-4.938 19.344,-8.395 -3.15,2.064 -5.793,4.065 -7.132,5.687 -9.557,12.446 1.356,9.486 1.356,9.486 0,0 3.284,-0.445 9.502,-2.711 0,0 -20.974,14.548 -24.431,17.621 0,0 0.586,-4.299 0,-10.843 0,0 -5.562,14.319 -9.499,16.267 -17.055,8.088 -15.735,13.199 -13.571,13.557 2.164,0.354 -2.983,10.901 -9.502,16.265 0,0 2.83,-7.409 2.715,-9.487 0,0 -12.388,11.902 -23.075,17.621 -1.46,-0.015 3.515,-4.488 5.432,-8.134 0,0 -6.221,4.463 -8.144,4.069 -8.044,-2.249 -20.398,8.33 -26.376,14.091 0.452,-4.354 0.667,-9.034 0.592,-14.091 l 0,-0.003 c 0.494,-8.954 -4.624,-25.15 -8.049,-27.041 0.107,3.165 0.356,6.976 -0.095,9.418 -4.112,-12.789 -14.929,-14.911 -14.929,-14.911 -2.053,-5.641 -8.24,-14.575 -12.215,-9.485 -3.973,5.085 -5.126,5.646 -8.142,6.774 1.344,-0.665 4.068,-8.135 4.068,-8.135 -4.009,3.623 -8.138,4.068 -8.138,4.068 3.101,-1.213 2.71,-4.068 2.71,-4.068 -6.029,1.315 -12.216,-2.709 -12.216,-2.709 3.878,0.178 -4.07,-6.778 -4.07,-6.778 6.665,3.366 12.216,4.067 12.216,4.067 -6.834,-6.855 -9.5,-10.845 -9.5,-10.845 7.802,5.014 9.5,8.135 9.5,8.135 0.099,-11.325 0.815,-33.927 -8.146,-36.599 2.08,-1.907 10.861,0 10.861,0 3.547,-0.884 4.85,-5.241 -5.429,-6.779 -10.283,-1.542 -19,-1.354 -19,-1.354 6.667,-3.007 23.926,-2.748 31.211,1.354 -2.212,-5.385 -24.428,-8.134 -24.428,-8.134 0,0 14.235,-4.263 23.483,-0.724 -6.442,-3.156 -13.983,-4.697 -13.983,-4.697 8.823,-1.166 25.131,2.556 27.144,13.555 -4.087,-1.861 -5.429,-2.713 -5.429,-2.713 0,0 5.453,5.947 5.429,10.844 -2.391,-2.21 -8.142,-8.131 -8.142,-8.131 7.443,13.706 8.496,27.019 5.429,43.378 0.659,6.204 6.052,8.186 9.5,8.13 3.719,-0.059 11.809,2.129 12.568,11.379 -0.338,0.897 -0.331,2.761 -0.258,4.933 4.994,1.877 13.476,24.359 13.476,24.359 -1.271,-12.901 -3.866,-36.652 -16.284,-40.671 4.773,-4.014 13.571,8.135 13.571,8.135 0.711,-14.341 -24.12,-19.229 -25.786,-18.977 0.29,-3.708 0.98,-9.307 1.449,-15.45 3.681,-5.886 10.217,-15.804 14.837,-19.795 6.766,-5.843 38.354,-24.612 40.714,-27.109 2.063,-2.187 5.164,-3.947 7.296,-4.104 z m -232.588,0.037 c -3.11,0.001 -8.596,22.527 -8.142,29.82 0,0 11.25,-29.826 8.142,-29.82 z m -141.358,1.197 c 5.469,0.048 8.433,2.92 11.069,6.936 -10.038,0.239 -23.66,3.963 -24.428,6.775 0,0 1.694,-12.14 10.855,-13.556 0.89,-0.113 1.724,-0.162 2.504,-0.155 z m -30.588,11.52 c 1.524,0.031 2.3,2.191 2.3,2.191 0,0 2.448,14.681 4.071,20.335 1.622,5.655 2.715,1.354 2.715,1.354 0,0 -1.78,-9.744 -2.715,-14.908 -0.938,-5.17 -0.342,-5.392 1.359,-5.424 1.699,-0.034 12.215,18.978 12.215,18.978 l -12.215,6.775 -17.644,0 c 0,0 -0.18,-15.241 0,-17.619 0.177,-2.378 5.452,-8.357 8.143,-10.846 0.672,-0.621 1.264,-0.847 1.771,-0.836 z m 97.459,0.801 c -0.052,0.001 -0.105,0.014 -0.157,0.035 -3.3,1.489 5.862,39.275 8.145,43.38 0,0 -4.695,-43.477 -7.988,-43.415 z m -123.231,1.254 c 8.574,-0.097 11.787,8.269 11.787,8.269 -3.069,0 -20.673,2.203 -27.144,4.068 0.695,-5.802 5.001,-11.002 13.571,-12.201 0.62,-0.085 1.215,-0.129 1.786,-0.136 z m 348.776,2.126 c 1.286,0.63 2.53,1.318 3.66,2.077 -1.075,-0.882 -2.316,-1.562 -3.66,-2.077 z m -273.725,10.427 c 0.087,6.659 -0.141,13.446 -0.836,20.119 2.351,-0.426 4.075,-10.847 4.075,-10.847 2.562,31.838 3.747,45.724 0,55.575 -3.75,9.854 -10.876,19.651 -29.859,24.398 2.694,-2.67 2.713,-8.129 2.713,-8.129 -4.667,6.698 -11.314,12.281 -31.213,9.49 -11.079,-2.449 -19.718,-7.293 -35.98,-56.287 3.988,3.835 8.844,7.509 7.478,3.419 0,0 -13.022,-16.314 -10.857,-17.621 4.759,0.986 25.047,-2.416 30.539,-2.692 -4.82,10.387 -7.249,30.162 -4.751,29.802 -0.418,-2.741 3.972,-24.19 5.144,-29.819 0.098,-0.001 0.203,-0.003 0.285,-0.003 4.632,0.033 11.873,2.45 20.355,0 3.196,-0.923 38.238,-15.465 42.907,-17.405 z m -48.335,2.495 c 0,0 -4.64,3.089 -5.431,5.423 3.559,-1.247 5.431,-5.423 5.431,-5.423 z m 314.867,5.423 c 5.414,9.229 10.854,21.579 10.854,24.398 0,0 14.063,-9.012 1.358,-24.398 -0.636,1.795 0,5.421 0,5.421 l -6.786,-5.421 c 1.529,2.82 2.712,8.135 2.712,8.135 -3.237,-4.547 -8.138,-8.135 -8.138,-8.135 z m -52.448,3.177 c 2.625,-0.076 5.089,0.598 6.302,2.244 2.427,3.296 -3.388,7.48 -8.146,8.134 -4.756,0.654 -8.143,2.711 -8.143,2.711 1.201,-2.395 -1.244,-3.364 -4.071,-2.711 -2.826,0.654 3.064,-5.442 6.787,-8.134 1.858,-1.346 4.645,-2.169 7.271,-2.244 z m -235.279,9.024 c 0,0 6.556,9.858 8.144,13.553 3.758,-8.983 -8.144,-13.553 -8.144,-13.553 z m 366.44,1.354 c 0,0 -7.401,5.307 -9.5,6.775 -2.103,1.476 -6.507,5.491 -2.714,6.779 3.791,1.292 12.214,-13.554 12.214,-13.554 z m -158.109,6.536 c 3.2,-0.192 5.442,3.529 3.391,8.375 -2.735,6.225 -25.788,18.978 -25.788,18.978 0,0 11.738,-11.792 14.93,-16.267 3.189,-4.477 -0.551,-5.342 4.073,-9.486 1.156,-1.04 2.327,-1.539 3.394,-1.6 z m -280.975,3.16 c 0.37,0.477 0.754,0.957 1.157,1.435 -0.509,-0.111 -0.883,-0.713 -1.157,-1.435 z m 66.187,3.981 c -2.674,0.08 -5.604,0.766 -8.47,2.591 -4.528,1.208 -9.609,-0.66 -13.571,1.354 -3.962,2.016 -13.571,10.842 -13.571,10.842 0,0 0.939,1.716 5.427,0 7.588,2.617 31.09,3.319 35.288,-6.774 1.717,-3.286 5.429,-5.422 5.429,-5.422 0,0 -4.647,-2.765 -10.532,-2.591 z m 0.788,2.35 c 2.457,-0.032 4.315,0.24 4.315,0.24 -1.878,2.577 -20.041,6.606 -29.859,6.778 2.849,-4.983 13.103,-4.392 17.645,-5.424 2.386,-1.219 5.44,-1.559 7.899,-1.594 z m 357.181,2.951 c -6.764,1.435 -12.966,8.022 -9.502,8.135 3.464,0.106 9.502,-8.135 9.502,-8.135 z m 24.428,0 c 0,0 -3.171,5.364 -5.428,5.422 -2.261,0.058 -6.348,5.265 -2.717,5.424 10.599,-1.069 8.145,-10.846 8.145,-10.846 z m -378.652,1.356 c -6.099,7.264 -22.907,8.161 -29.859,5.421 20.49,-1.103 29.859,-5.421 29.859,-5.421 z m 223.48,4.04 c 1.025,-0.031 2.083,-0.025 3.17,0.026 -11.878,4.164 -27.144,9.488 -27.144,9.488 0,0 8.586,-9.051 23.974,-9.514 z m -0.903,6.802 c -14.999,5.771 -35.287,16.267 -35.287,16.267 0,0 12.163,-15.09 35.287,-16.267 z m -219.71,0.255 c -0.842,0.071 -1.867,0.43 -2.867,1.101 -16.08,7.948 -25.786,2.711 -25.786,2.711 -1.548,0.311 -1.484,2.642 1.358,4.066 2.534,2.355 16.044,4.452 24.428,-1.354 6.286,-4.355 5.395,-6.739 2.867,-6.524 z m 367.205,3.484 c -5.805,0.39 -21.741,8.308 -22.637,11.173 l 24.431,-10.845 c -0.344,-0.288 -0.965,-0.385 -1.794,-0.328 z m -145.072,1.658 c 0.578,-0.021 1.131,-0.012 1.649,0.025 0,0 -3.965,3.459 -8.143,5.421 0,0 5.376,-1.481 8.143,-1.353 0,0 -5.405,2.743 -6.79,5.421 0,0 6.661,-2.679 9.505,-4.068 0,0 -4.523,2.828 -5.431,6.779 0,0 3.064,-3.232 6.787,-2.711 0,0 -3.722,1.155 -4.071,5.425 0.127,-1.483 5.866,-2.83 8.142,-2.714 0,0 -4.194,3.475 -5.427,6.782 0,0 5.309,-2.828 8.142,-2.714 0,0 -4.991,3.718 -8.142,6.777 0,0 6.985,-4.017 10.855,-4.063 0,0 -6.028,3.158 -6.784,8.132 7.154,-5.808 15.384,-9.763 20.356,-9.492 -1.5,0.273 -4.973,7.391 -5.429,12.204 0,0 2.373,-4.332 4.071,-4.068 0,0 -0.643,1.974 0,6.778 0,0 0.514,-2.486 2.714,-6.778 0,0 0.705,3.134 1.357,8.132 0,0 0.798,-3.263 2.716,-5.421 0,0 0.403,8.244 2.713,8.134 -0.882,-7.068 1.461,-8.581 2.714,-8.134 0.963,0.735 10.933,21.287 10.859,29.824 -0.076,2.736 -5.146,-9.115 -9.5,-10.846 0,0 0.58,5.784 -1.359,9.487 0,0 -1.251,-7.755 -4.068,-9.487 0,0 1.946,10.713 0,14.909 0.663,-1.889 -3.278,-12.598 -4.074,-13.552 -7.47,50.048 -29.855,77.269 -29.855,77.269 16.064,-33.291 19.292,-43.104 27.14,-78.625 0,0 -4.731,7.262 -6.784,9.487 0,0 0.852,-5.098 2.714,-10.843 0,0 -4.736,5.507 -8.139,9.488 0,0 -1.393,-4.697 -1.361,-10.844 0,0 -3.15,4.23 -5.428,6.776 -0.602,-1.516 -1.797,-5.66 -1.355,-9.486 0,0 -3.08,2.627 -5.431,4.066 0,0 0.914,-4.313 1.36,-8.135 0,0 -4.284,4.78 -6.788,5.423 0,0 2.263,-4.713 2.714,-6.775 0,0 -3.807,3.501 -5.431,5.421 0,0 1.146,-4.075 2.717,-6.775 0,0 -5.884,4.618 -8.143,5.423 0,0 5.612,-7.753 10.857,-12.202 0,0 -10.519,4.927 -13.57,6.779 0,0 9.523,-10.474 9.498,-13.557 0,0 -1.412,1.168 -2.711,1.354 -10.411,-0.293 -11.89,-7.131 -8.144,-10.846 0,0 -5.903,2.037 -6.787,2.714 0,0 2.804,-5.465 6.787,-6.777 0,0 -5.424,0.592 -10.857,2.707 1.87,-4.077 16.807,-10.578 25.492,-10.871 z m -56.574,0.88 c 1.017,-0.088 1.221,1.856 1.221,1.856 0,0 0.289,12.245 2.716,12.203 2.427,-0.045 8.121,-9.298 14.928,-12.203 0,0 -5.367,6.738 -12.215,14.911 -6.846,8.177 4.071,21.69 4.071,21.69 0,0 -9.453,8.451 -10.858,12.201 -1.405,3.748 -5.069,6.309 -8.144,6.779 -3.073,0.463 -1,-9.328 4.073,-16.269 5.075,-6.938 1.401,-8.389 0,-9.487 -1.399,-1.102 0.441,-4.168 1.358,-5.422 0.916,-1.255 -0.918,-4.017 -2.715,-5.423 -1.798,-1.41 -2.758,-3.621 -1.355,-5.423 1.401,-1.801 0.518,-5.864 4.071,-12.2 1.332,-2.375 2.236,-3.161 2.849,-3.213 z m 145.078,3.214 c 5.949,1.086 13.577,14.914 13.577,14.914 -1.914,0 -14.73,-13.452 -13.577,-14.914 z m 72.774,0.809 c -1.014,-0.042 -2.536,0.774 -3.556,1.902 -2.04,2.25 -10.193,8.465 -8.145,9.488 0,0 10.207,-3.501 12.216,-8.132 1.006,-2.315 0.5,-3.218 -0.515,-3.258 z m -75.486,4.612 c 8.016,1.73 12.216,13.557 12.216,13.557 -1.596,-0.319 -11.938,-10.824 -12.216,-13.557 z m -414.419,1.836 c 8.756,0.016 17.193,0.317 19.308,0.831 0.508,1.654 0.991,3.081 1.439,4.206 -7.84,-1.833 -17.35,-2.744 -28.407,-1.448 -5.217,1.666 -4.258,5.623 2.713,4.068 6.969,-1.56 42.165,4.303 48.857,10.844 -10.454,-3.062 -48.049,-7.779 -73.286,6.776 1.782,-12.432 1.253,-23.135 8.142,-24.402 3.401,-0.625 12.478,-0.894 21.234,-0.875 z m 136.199,0.875 2.715,46.092 c -1.549,-1.549 -23.543,-5.045 -35.288,-4.07 7.763,-3.662 5.863,-10.251 4.072,-13.551 22.054,-4.541 28.501,-28.471 28.501,-28.471 z m 337.518,2.669 c -4.688,0.003 -20.901,14.161 -21.297,14.957 0,0 17.355,-5.961 21.714,-14.912 -0.126,-0.033 -0.265,-0.045 -0.417,-0.045 z m -59.298,0.044 c 1.955,-0.179 9.502,10.844 9.502,10.844 0,0 -4.436,-1.424 -6.79,-1.357 l 0,4.068 c 0,0 -5.939,-7.002 -10.854,-9.486 2.428,-0.258 6.187,-2.62 8.142,-4.069 z m -264.753,3.462 c 6.278,-0.144 14.667,1.928 21.819,11.45 3.154,3.629 14.133,13.958 12.217,14.907 -1.917,0.952 -19.729,-5.019 -24.431,-1.353 4.145,2.985 22.623,9.187 20.356,10.841 -2.265,1.654 -13.652,3.416 -13.573,5.424 0.081,2.01 14.487,1.361 12.215,5.424 -2.267,4.061 -11.954,-0.34 -12.215,2.709 -0.183,2.156 2.893,4.303 5.465,5.143 -2.51,0.623 -5.131,1.266 -7.875,1.939 L 278.605,274.05 c 6.2,-20.446 -8.168,-30.325 -9.5,-33.886 -0.334,-0.89 -0.918,-4.705 -1.615,-9.93 1.526,-0.55 4.531,-1.433 8.298,-1.52 z m 259.324,6.025 c 7.054,7.077 10.86,23.046 10.86,23.046 0,0 -4.833,-5.587 -6.786,-8.134 0,0 -0.917,3.504 -2.716,4.068 0.437,-2.307 -5.859,-7.255 -9.5,-9.491 0,0 6.193,-4.138 6.786,-5.421 0.595,-1.283 -0.593,-3.5 1.356,-4.068 z m -183.755,0.542 c 1.47,0.015 3.03,0.635 4.608,2.172 3.756,3.656 5.918,6.789 7.057,8.737 0.839,7.157 -0.271,12.951 -0.271,12.951 0,0 -12.435,26.052 -10.857,36.599 -3.91,-7.354 -6.178,-22.551 1.355,-47.447 -0.511,-4.436 -3.028,-1.464 -5.426,2.716 -2.4,4.176 -11.714,38.77 1.356,50.151 2.179,1.734 3.492,4.322 4.294,7.086 -3.394,0.74 -13.39,1.555 -15.152,-13.863 -2.133,-18.631 2.82,-48.512 4.07,-51.508 0.94,-2.246 4.554,-7.634 8.966,-7.594 z m 148.517,4.227 c 0.404,2.651 3.59,6.935 6.737,10.143 1.528,-5.42 5.431,-4.067 5.431,-4.067 l 6.785,0 c 0,0 -0.981,-1.668 -2.714,-4.066 15.493,4.618 21.715,24.399 21.715,24.399 0,0 -5.94,-8.616 -13.571,-10.844 0,0 1.887,5.415 0,8.133 0,0 0.292,-2.398 -4.07,-4.064 2.333,2.794 3.086,7.4 1.355,10.841 0,0 -1.784,-7.586 -5.429,-8.135 0,0 3.967,8.52 1.355,9.492 -4.205,-12.092 -9.497,-4.068 -9.497,-4.068 0,0 -0.972,-6.469 -1.36,-10.843 -0.378,-4.29 -6.07,-4.875 -6.737,-16.921 z m -358.34,0.657 c -23.841,7.001 -48.754,10.032 -83.997,88.392 -16.744,0.494 -28.474,0.533 -36.65,0.301 6.55,-9.211 33.343,-46.02 54.142,-61.586 24.019,-17.976 31.83,-21.454 66.505,-27.107 z m 25.725,2.496 c 2.879,-0.013 5.923,0.053 9.159,0.199 18.286,7.053 38.073,20.023 38.402,23.056 -3.36,1.689 -13.892,3.205 -19.001,6.777 10.373,-0.449 38.51,-3.412 57.001,-1.354 14.049,1.562 28.19,11.029 33.291,14.756 -59.078,14.447 -163.769,38.756 -211.022,41.785 0.721,-4.715 9.242,-55.115 46.086,-74.162 13.753,-7.008 25.921,-10.962 46.084,-11.057 z m 255.209,1.567 c 0,0 0.233,2.381 -4.071,5.423 -4.303,3.044 -16.077,16.355 -25.788,31.179 3.235,-18.705 29.859,-36.602 29.859,-36.602 z m 295.441,5.423 c 0.135,-0.014 0.276,-0.014 0.423,0 4.705,0.458 13.673,15.81 14.928,17.621 1.168,1.686 10.63,14.975 12.033,29.33 -0.254,1.535 -0.623,3.072 -1.175,4.559 -3.62,9.75 -4.071,16.268 -4.071,16.268 0,0 -0.763,1.441 -1.909,3.602 -0.819,-4.873 -2.25,-14.096 -2.162,-18.51 0.124,-6.16 -6.175,-11.074 -6.786,-13.559 -0.609,-2.484 -0.861,-15.477 -2.716,-14.91 -1.855,0.567 -8.043,-3.449 -9.499,-6.779 -1.413,-3.224 -3.229,-17.17 0.934,-17.622 z m -309.013,14.91 c 2.02,-0.006 2.776,7.67 1.357,9.49 -1.417,1.818 -10.857,13.555 -10.857,13.555 0,0 3.404,-7.947 5.429,-12.197 0,0 -3.224,4.01 -5.429,5.422 0.909,-4.336 5.802,-10.994 6.786,-12.199 0.986,-1.214 0.693,-4.064 2.714,-4.071 z m 6.554,8.585 c 0.298,0.037 0.404,0.338 0.234,0.904 -0.547,1.82 1.262,6.803 1.355,9.486 0.094,2.688 4.071,1.357 4.071,1.357 0,0 -1.286,4.344 0,6.779 1.526,-4.029 3.749,-4.834 4.071,-2.713 -2.074,1.402 -0.562,4.586 1.358,6.779 0,0 0.476,-3.629 2.716,-5.42 -0.883,2.994 0.397,4.426 2.712,6.777 0.637,-2.918 2.726,-3.551 2.716,-1.357 -0.008,2.195 3.365,4.271 4.072,5.42 0.708,1.152 3.848,-6.178 5.428,-6.777 1.58,-0.596 1.535,7.785 2.716,9.492 1.177,1.703 2.71,-2.715 2.71,-2.715 0,0 -1.733,6.516 0,6.781 1.738,0.264 2.717,-5.422 2.717,-5.422 l 0,6.775 c 0,0 2.503,-1.379 4.073,-5.42 2.765,6.973 -9.5,23.039 -9.5,23.039 -1.199,-1.193 -3.099,-6.307 -1.357,-12.195 0,0 -3.9,3.016 -4.071,5.42 0,0 -1.025,-3.361 0,-9.488 0,0 -3.423,3.49 -5.431,6.777 0,0 -0.15,-3.047 1.359,-9.486 0,0 -5.108,4.285 -8.143,10.844 0,0 -0.078,-5.357 1.357,-13.557 0,0 -2.155,4.123 -2.716,6.777 0,0 -1.357,-4.57 -1.357,-8.131 0,0 -1.92,3.322 -2.716,6.775 0,0 -1.124,-5.611 0,-9.49 -0.072,-1.002 -3.281,3.641 -5.428,5.424 0,0 -0.25,-2.736 1.358,-6.775 0,0 -4.485,4.514 -5.43,6.775 0,0 -0.492,-4.895 1.361,-8.135 -3.183,1.312 -4.493,3.957 -6.789,8.135 0,0 0.375,-6.33 1.357,-10.844 0,0 -2.657,4.992 -2.712,5.42 0.661,-1.723 0,-6.777 0,-6.777 0,0 -1.864,1.799 -2.716,2.715 0,0 2.051,-6.188 4.071,-8.137 2.02,-1.949 -3.458,1.951 -5.427,1.359 0.665,-2.512 5.805,-9.943 8.145,-13.559 1.605,-2.481 3.181,-3.69 3.836,-3.612 z m 291.749,4.514 c 1.306,-0.07 3.151,1.008 4.349,3.17 1.386,2.498 11.449,8.855 15.102,10.463 0.654,1.766 1.465,3.359 2.54,4.447 3.346,3.385 2.083,13.73 2.714,16.266 0.512,2.053 2.865,10.562 3.74,13.723 -1.176,2.219 -2.446,4.615 -3.625,6.84 l -13.686,-12.43 c -5.979,-0.459 -19.413,-3.727 -17.645,-13.555 1.375,-2.717 5.586,-3.439 9.5,0 2.57,2.254 6.427,2.133 8.784,1.783 2.797,3.375 7.503,7.707 7.503,7.707 0.521,4.396 1.292,8.986 4.071,10.84 0.408,-7.631 -0.237,-11.908 -4.071,-14.908 -3.834,-3 -10.857,-14.908 -10.857,-14.908 0,0 -13.36,-8.365 -9.5,-18.98 0.273,-0.284 0.645,-0.434 1.081,-0.458 z m -163.946,4.526 c 0.028,2.367 -20.355,29.82 -20.355,29.82 -0.679,-8.123 11.522,-27.791 20.355,-29.82 z m -23.065,14.912 c -0.057,0.49 -0.205,0.947 -0.39,1.396 -1.064,3.664 -4.201,13.203 -7.755,12.156 -3.519,2.479 -14.929,13.557 -14.929,13.557 0,0 -1.378,-6.33 -5.431,-4.068 -4.05,2.26 -4.071,4.068 -4.071,4.068 0,0 -2.416,-7.486 -16.283,-4.068 0.925,-5.852 4.068,-12.197 4.068,-12.197 l 4.071,4.064 c 0,0 5.991,4.303 6.786,2.713 0.796,-1.59 1.358,-4.068 1.358,-4.068 1.47,0.447 2.716,4.068 2.716,4.068 0,0 18.062,-13.639 18.999,-13.559 0.932,0.086 2.938,-0.062 1.355,4.068 0.147,-0.195 7.33,-2.439 9.116,-6.734 0.25,-0.863 0.39,-1.396 0.39,-1.396 z m -237.51,1.351 c 0,0 -197.305,48.562 -280.934,37.961 -0.225,2.24 0,2.707 0,2.707 0,0 82.174,13.215 280.934,-40.668 z m -4.072,5.426 C 104.229,351.16 1.744,341.83 1.744,341.83 c 78.01,16.578 272.399,-33.019 276.862,-37.955 z m 29.748,3.105 c -1.405,1.697 -3.395,4.135 -3.962,5.025 0,0 13.044,-1.34 13.576,-1.355 1.163,-0.176 2.326,0.93 0,4.068 -2.326,3.135 -9.502,16.264 -9.502,16.264 l 16.286,-10.844 -5.432,16.271 14.932,-12.203 c 0,0 2.601,-1.627 1.358,1.355 -1.242,2.984 -4.074,10.848 -4.074,10.848 0,0 12.908,-6.33 14.931,-6.779 2.019,-0.447 5.181,1.699 6.771,5.393 -1.215,11.955 -3.146,26.477 -5.413,32.562 -2.876,7.705 -3.724,14.447 -3.969,17.395 -2.152,1.104 -3.977,2.389 -5.414,3.873 -14.347,4.729 -37.137,4.723 -44.906,4.564 -16.361,-11.852 -44.05,-23.566 -88.214,-20.412 -69.984,5 -73.289,13.559 -73.289,13.559 0,0 -9.793,-10.217 -14.928,-10.846 2.167,5.201 5.43,8.129 5.43,8.129 0,0 -13.455,4.26 -14.93,4.068 8.744,0.785 18.324,-0.43 10.858,4.068 -7.468,4.5 -31.217,17.621 -31.217,17.621 l -5.426,-24.4 10.857,17.625 c 0,0 -14.076,-43.152 -16.052,-52.645 15.369,-1.35 33.148,-3.535 53.405,-6.961 4.994,5.586 34.956,18.646 34.577,14.871 0,0 -23.626,-11.658 -32.406,-15.244 2.763,-0.475 5.564,-0.971 8.418,-1.492 3.534,5.006 25.506,13.451 29.413,12.67 0,0 -19.905,-10.41 -27.679,-12.996 3.093,-0.572 6.234,-1.174 9.43,-1.801 4.114,5.713 22.413,12.846 27.751,12.082 0,0 -18.082,-8.752 -26.02,-12.422 1.884,-0.373 3.742,-0.736 5.66,-1.131 66.632,-13.678 120.242,-24.547 149.18,-30.78 z m 55.892,0.264 c 2.015,7.453 21.576,34.586 21.576,34.586 -4.707,-1.178 -19.375,-22.795 -21.576,-34.586 z m 100.294,0.697 c 1.318,7.688 -14.932,25.752 -14.932,25.752 0,-4.306 11.216,-24.099 14.932,-25.752 z m -101.788,6.778 c 0.232,3.205 10.858,18.975 10.858,18.975 -2.399,-0.001 -10.858,-12.128 -10.858,-18.975 z m -4.07,6.777 c 1.371,2.502 2.56,5.02 3.782,7.574 -0.056,2.604 0.182,6.447 1.448,10.787 -1.384,7.604 13.186,26.369 19.197,26.369 0,0 -19.613,-17.77 -19.14,-26.178 3.159,10.621 12.532,24.127 38.964,29.832 16.97,9.186 34.134,13.463 43.965,11.26 8.411,-1.887 20.573,-1.812 30.215,-3.18 -0.144,0.143 -0.299,0.318 -0.446,0.482 -6.638,0.518 -25.077,6.209 -29.939,7.742 4.702,-1.115 21.654,-3.475 28.566,-6.086 -4.066,5.33 -9.408,15.566 -10.539,21.576 -0.072,-0.066 -0.144,-0.143 -0.216,-0.201 -7.915,-6.455 -22.695,-17.199 -51.575,-20.334 -20.094,-2.184 -44.49,-3.328 -60.625,0.768 1.881,-8.352 8.963,-41.805 6.343,-60.411 z m 88.047,64.69 c -0.633,0.145 -1.055,0.277 -1.188,0.379 0,-10e-4 0.427,-0.143 1.188,-0.379 z m 93.946,-59.909 c 0.811,0.045 1.672,0.24 2.578,0.637 3.717,1.703 1.163,7.973 -5.425,17.625 -6.588,9.65 -28.661,42.453 -36.643,40.666 -5.881,-1.316 -13.27,-6.746 -18.479,-8.307 2.479,-0.627 4.629,-1.439 6.263,-2.537 7.69,-5.174 27.399,-11.064 46.115,-46.053 1.203,-0.999 3.16,-2.177 5.591,-2.031 z m -4.269,5.661 c -0.288,-0.037 -0.705,0.074 -1.294,0.404 -3.142,1.758 -11.153,24.773 -18.999,29.818 -6.926,4.453 -22.87,16.006 -16.287,14.914 0,0 18.587,-4.734 27.144,-24.402 7.823,-11.998 9.5,-17.623 9.5,-17.623 0,0 1.179,-2.951 -0.064,-3.111 z m -237.44,0.404 c 4.525,5.213 15.135,6.301 17.642,2.707 -4.11,0.928 -17.642,-2.707 -17.642,-2.707 z m -9.502,2.707 c 5.222,6.609 20.462,8.117 23.072,5.424 -4.351,0.787 -23.072,-5.424 -23.072,-5.424 z m -112.645,2.713 c 0,0 11.011,9.18 12.216,6.777 1.201,-2.4 -12.216,-6.777 -12.216,-6.777 z m 109.931,0 c 2.877,6.531 15.375,8.84 19,6.777 -4.48,0.031 -19,-6.777 -19,-6.777 z m 100.431,0 c 0,0 5.311,2.297 5.429,4.068 0.119,1.77 -4.949,-0.232 -5.429,-4.068 z m 374.581,0 c 0,0 -9.107,9.406 -9.5,12.201 -0.394,2.789 3.689,2.145 4.071,0 0.377,-2.149 5.429,-12.201 5.429,-12.201 z m -595.8,1.355 c 0,3.73 19.383,11.141 21.716,9.49 l -21.716,-9.49 z m 118.073,1.356 c 5.494,7.836 12.863,7.955 14.932,6.779 -3.685,0.129 -14.932,-6.779 -14.932,-6.779 z m 84.617,0.08 c 4.024,6.23 9.807,12.871 19.887,20.254 4.657,3.41 9.515,6.432 14.385,9.066 -6.41,-1.598 -27.225,-8.32 -34.272,-29.32 z m -87.33,1.277 c -0.522,4.439 5.897,8.426 9.501,6.777 -3.72,-0.343 -9.501,-6.777 -9.501,-6.777 z m 364.539,0.279 c 4.213,0.078 8.833,0.514 11.397,1.074 5.131,1.117 22.777,9.42 23.073,12.199 0.232,2.193 0.407,9.061 -17.645,4.066 -4.487,-1.104 -5.082,-6.859 -8.14,-9.486 0,0 0.185,5.18 0,6.777 -0.188,1.602 -8.749,3.498 -13.577,4.066 0,0 -2.832,-5.988 -9.497,-5.424 0,0 3.473,2.623 5.426,5.424 -5.064,-0.707 -8.33,4.529 -10.855,8.135 0,0 -4.178,-0.418 -6.787,0 0,0 4.52,3.088 9.5,4.064 0,0 -10.403,0.615 -14.928,1.355 -4.529,0.74 -10.474,2.131 -10.858,4.068 -0.389,1.938 -4.718,1.246 -9.502,5.418 0,0 2.838,-0.678 5.797,-1.721 l -0.367,0.369 c 0,0 -0.675,9.895 2.714,9.488 -2.252,-2.758 -1.722,-8.277 -1.46,-10.18 0.968,-0.365 1.922,-0.764 2.761,-1.189 -0.118,2.074 -0.26,7.434 1.412,8.66 -0.789,-2.27 -0.43,-6.967 -0.177,-9.365 0.733,-0.477 1.291,-0.973 1.536,-1.48 1.368,-2.844 14.902,-2.254 24.428,-2.711 7.542,-0.361 6.772,3.93 5.947,8.557 -1.938,2.752 -6.606,5.145 -10.016,6.352 -2.806,0.992 -17.644,4.068 -17.644,4.068 0,0 4.447,1.02 14.928,-1.354 5.548,-1.26 9.811,-3.037 12.187,-5.258 -0.759,5.613 -21.651,10.088 -24.401,10.68 -2.774,0.598 -5.842,6.092 -10.859,9.486 5.195,0.207 11.081,-3.08 10.859,-4.066 -0.22,-0.99 6.603,-7.297 8.143,-2.709 1.541,4.586 -11.431,11.986 -19.002,13.555 -0.245,0.408 -0.549,0.762 -0.881,1.084 -3.814,-1.242 -18.784,-6.857 -19.477,-18.707 -0.788,-13.586 6.867,-15.762 8.146,-16.266 1.278,-0.508 13.583,-8.918 14.929,-12.199 1.344,-3.285 6.809,-10.281 12.212,-12.201 5.403,-1.92 19.84,-11.807 21.715,-13.557 0.942,-0.874 4.748,-1.15 8.963,-1.072 z m -281.753,3.786 c -0.232,0.484 -0.323,1.061 -0.297,1.703 0.072,-0.59 0.167,-1.164 0.297,-1.703 z m -0.297,1.703 c -0.935,7.582 2.851,19.086 12.512,19.988 0,0 -12.255,-13.506 -12.512,-19.988 z m -230.42,2.365 c -1.163,2.363 18.168,12.805 19,9.486 0,0 -13.276,-8.125 -19,-9.486 z m 525.225,10.844 c 3.082,1.041 5.469,1.787 7.308,2.309 2.066,0.762 4.673,1.361 7.494,1.209 -0.385,5.582 6.08,25.236 6.914,29.018 0.791,3.598 -9.754,1.809 -11.833,1.426 -0.41,-3.406 -3.783,-7.135 -5.811,-9.562 -2.576,-3.076 -5.724,-18.916 -4.072,-24.4 z m -124.828,2.547 c 12.98,0.086 38.675,1.688 56.415,12.047 -0.257,0.104 -0.524,0.209 -0.804,0.318 -3.044,1.188 -6.578,4.135 -9.059,8.107 -6.186,-0.143 -42.536,-0.93 -47.944,0.021 5.148,2.549 39.045,1.664 47.121,1.416 -0.663,1.262 -1.208,2.605 -1.609,4.018 -6.047,0.1 -53.81,0.951 -60.439,2.703 8.486,2.268 52.066,0.406 59.867,0.057 -0.112,0.863 -0.17,1.75 -0.151,2.654 0.01,0.441 0.044,0.896 0.087,1.355 -1.087,0 -2.843,0.002 -5.083,0.012 -0.145,-0.455 -0.291,-0.908 -0.432,-1.367 0,0 -0.06,0.508 -0.142,1.371 -15.288,0.072 -51.023,0.486 -56.858,2.697 7.889,1.229 41.805,-0.258 56.707,-0.992 -0.072,0.865 -0.145,1.912 -0.211,3.025 -16.352,1.523 -54.99,5.17 -60.569,6.1 12.995,2.277 44.919,-1.271 60.453,-3.664 -0.067,1.752 -0.095,3.641 -0.057,5.535 -21.809,3.451 -66.937,10.121 -67.18,6.262 -0.292,-4.717 -0.539,-20.676 4.201,-28.174 2.297,-1.264 4.541,-3.123 6.657,-5.715 3.625,-4.438 8.945,-10.891 14.308,-17.75 1.272,-0.027 2.869,-0.048 4.722,-0.036 z m -200.892,2.873 c 0,0 -8.354,4.076 -13.577,4.07 -5.219,-0.008 -14.928,-2.711 -14.928,-2.711 6.58,12.09 23.281,10.465 28.505,-1.359 z m 61.071,1.359 c 4.284,6.449 29.856,12.197 29.856,12.197 -1.058,-0.097 -29.856,-12.197 -29.856,-12.197 z m 51.919,3.973 c 3.43,0 6.828,0.078 9.153,0.092 -0.99,1.951 -21.715,1.355 -21.715,1.355 1.05,-1.195 6.848,-1.438 12.562,-1.447 z m 6.44,1.447 c -4.902,5.699 -23.071,2.713 -23.071,2.713 0,0 18.142,-1.467 23.071,-2.713 z m 92.111,3.791 c -4.854,0.047 -9.319,0.482 -12.037,1.633 6.467,2.135 32.811,1.547 35.287,0 0,0 -12.569,-1.742 -23.25,-1.633 z m -62.254,2.986 c 5.5,6.072 13.103,10.223 20.625,8.941 -3.226,6.998 -11.344,29.795 8.192,49.641 -7.692,0.094 -15.489,0.445 -23.391,1.062 -5.184,0.812 -11.171,-6.178 -10.855,-9.488 0.25,-2.613 -2.582,-14.799 -7.678,-22.998 1.834,-5.084 8.71,-23.535 13.107,-27.158 z m 237.507,0 c -0.368,2.033 2.569,10.594 4.068,10.844 0,0 -0.452,-10.383 -4.068,-10.844 z m -4.073,2.713 c 1.207,3.566 5.288,11.094 6.786,10.846 0,0 -3.994,-11.168 -6.786,-10.846 z m -5.43,1.352 c 0.035,5.709 5.646,15.521 8.145,16.271 0,0 -0.53,-1.576 -1.347,-3.74 0.954,1.41 1.924,2.385 2.705,2.385 0,0 -3.961,-12.701 -6.786,-12.199 -0.006,0.205 0.034,0.492 0.095,0.811 -0.976,-1.757 -1.952,-3.118 -2.812,-3.528 z m 6.788,4.068 c -0.254,1.893 3.93,11.098 5.428,10.848 0,0 -3.174,-10.739 -5.428,-10.848 z m -382.947,7.289 c -3.541,5.797 -6.973,12.441 -9.747,18.184 -1.944,-0.178 -5.497,-0.191 -10.806,0.887 -0.973,-1.676 -3.762,-6.09 -8.984,-11.445 8.348,-0.993 24.464,-6.005 29.537,-7.626 z m 347.661,2.201 c 1.072,2.713 -6.191,24.229 -10.86,24.402 -3.138,0.115 -5.725,-3.592 -7.093,-6.041 0.612,-6.139 2.812,-14.682 4.176,-17.889 5.686,2.329 10.594,1.552 13.777,-0.472 z m -104.226,0.059 c 0.141,0.879 0.352,1.781 0.613,2.695 -0.698,0.062 -2.218,0.207 -4.357,0.406 -0.337,-0.938 -0.671,-1.891 -0.991,-2.855 2.121,-0.107 3.75,-0.193 4.735,-0.246 z m 168.01,4.01 c 0,0 -13.852,3.303 -19,6.775 8.374,-0.807 19,-4.141 19,-6.775 z m -166.844,0.418 c 0.637,1.77 1.489,3.547 2.557,5.242 -1.013,0.168 -2.537,0.42 -4.466,0.73 -0.768,-1.609 -1.504,-3.352 -2.21,-5.18 1.793,-0.308 3.194,-0.578 4.119,-0.792 z m 157.473,6.638 c -4.517,0.1 -10.101,1.682 -16.412,6.498 11.532,-1.33 24.543,-3.701 28.501,-2.715 0,0 -4.56,-3.951 -12.089,-3.783 z m -153.768,0.26 c 3.282,4.4 8.153,7.949 14.675,8.758 -3.296,1.223 -7.963,0.764 -11.681,0.189 -2.729,-0.424 -5.325,-3.529 -7.684,-8.016 1.983,-0.347 3.575,-0.658 4.69,-0.931 z m -11.187,1.979 c 0.1,1.971 0.283,3.898 0.608,5.611 0,0 -33.981,8.189 -64.938,5.445 l -1.562,-2.732 c 10e-4,0 43.511,-4.942 65.892,-8.324 z m -327.827,1.544 c -16.635,2.711 -48.857,39.314 -48.857,39.314 0,0 42.612,-32.784 48.857,-39.314 z m 10.859,1.36 c -16.001,0.658 -46.146,29.822 -46.146,29.822 0,0 30.018,-20.271 46.146,-29.822 z m 485.867,1.355 c 0,0 -19.256,1.172 -24.43,14.91 6.699,-3.719 13.596,-5.629 14.928,-8.131 1.334,-2.505 9.502,-6.779 9.502,-6.779 z m -513.01,2.709 c -10.403,1.105 -43.432,31.432 -43.432,40.668 0,0 32.902,-32.052 43.432,-40.668 z m -10.858,1.356 c -5.979,1.031 -15.36,8.131 -23.609,15.869 5.153,-6.539 9.265,-11.859 10.038,-13.154 -17.131,10.168 -35.285,40.354 -35.285,44.732 0,0 4.639,-5.746 10.558,-13.129 8.493,-8.029 36.674,-34.519 38.298,-34.318 z m 525.094,2.629 c -11.409,-0.311 -16.154,5.506 -16.154,5.506 0,0 23.249,-1.668 29.855,-2.709 -5.354,-1.909 -9.897,-2.694 -13.701,-2.797 z m -64.144,0.111 c 1.585,3.588 0.128,9.477 -2.225,12.17 -1.519,1.74 -11.235,9.564 -14.931,9.492 -3.452,-0.07 -3.75,-5.33 -3.432,-9.584 1.452,-3.561 5.067,-7.996 7.368,-11.873 1.257,1.344 2.796,2.848 4.208,3.834 2.532,1.766 6.043,1.207 9.012,-4.039 z m -333.233,3.004 c -8.737,-0.016 -17.094,0.68 -24.575,2.391 8.299,6.207 45.339,3.461 57.003,6.775 11.663,3.318 52.932,9.492 52.932,9.492 -12.062,2.092 -29.587,4.299 -36.646,2.713 8.517,8.133 33.91,4.99 47.502,0 13.591,-4.994 39.356,-1.359 39.356,-1.359 0,0 -10.392,-13.246 -40.716,-4.066 -11.98,-2.419 -56.996,-15.878 -94.856,-15.946 z m -43.574,3.746 c -2.883,2.416 -13.558,44.602 5.429,52.867 0,0 -8.386,-48.482 -5.429,-52.867 z m -111.286,1.355 c -6.48,0.576 -33.062,32.195 -32.573,43.377 0,0 27.367,-39.576 32.573,-43.377 z m 543.643,3.186 c -0.69,-0.055 -1.51,0.197 -2.133,0.879 -1.993,2.191 -12.212,4.07 -12.212,4.07 0,0 8.932,1.322 13.571,-1.354 3.191,-1.841 2.295,-3.468 0.774,-3.595 z m -555.859,0.879 c -18.117,1.373 -33.93,50.156 -33.93,50.156 0,0 28.195,-47.635 33.93,-50.156 z m -19.001,12.205 c -13.722,1.328 -24.427,48.797 -24.427,48.797 0,0 17.216,-45.75 24.427,-48.797 z m -10.857,8.133 c -9.679,9.238 -22.098,41.889 -23.072,50.154 0,0 21.07,-45.299 23.072,-50.154 z m 343.367,1.351 c 0,0 10.556,32.828 8.142,48.803 -2.414,15.971 -9.5,39.311 -9.5,39.311 0,0 26.871,-25.732 13.571,-61 -6.974,-17.284 -12.213,-27.114 -12.213,-27.114 z m -181.862,2.713 c -5.669,9.549 4.07,39.311 4.07,39.311 0,0 -5.216,-35.244 -4.07,-39.311 z m 177.788,0 c -13.564,6.145 -26.729,30.814 -32.571,48.803 0,0 32.019,-38.416 32.571,-48.803 z m -348.793,2.711 c -16.731,10.24 -19.281,44.703 -21.714,51.508 0,0 20.918,-46.191 21.714,-51.508 z m -14.927,14.912 c -19.33,6.027 -18.058,63.401 -12.217,67.778 0,0 -6.427,-31.502 12.217,-67.778 z m 191.36,1.352 c -6.718,10.992 7.553,38.549 9.5,36.604 0,0 -11.059,-32.52 -9.5,-36.604 z m 10.858,23.049 c -1.512,12.743 3.762,29.055 8.145,27.11 l -8.145,-27.11 z"
   inkscape:connector-curvature="0"
   style="fill:#2e0e35" />
	</g>
</g>
</svg>