<?xml version="1.0" encoding="UTF-8" standalone="no"?>
<svg
   xmlns:dc="http://purl.org/dc/elements/1.1/"
   xmlns:cc="http://creativecommons.org/ns#"
   xmlns:rdf="http://www.w3.org/1999/02/22-rdf-syntax-ns#"
   xmlns:svg="http://www.w3.org/2000/svg"
   xmlns="http://www.w3.org/2000/svg"
   version="1.1"
   id="svg2"
   viewBox="0 0 259.60801 574.20428"
   height="162.05321mm"
   width="73.267151mm">
  <defs
     id="defs4" />
  <metadata
     id="metadata7">
    <rdf:RDF>
      <cc:Work
         rdf:about="">
        <dc:format>image/svg+xml</dc:format>
        <dc:type
           rdf:resource="http://purl.org/dc/dcmitype/StillImage" />
        <dc:title></dc:title>
      </cc:Work>
    </rdf:RDF>
  </metadata>
  <g
     transform="translate(-12.000566,-52.884506)"
     id="layer1">
    <path
       id="rect4186"
       d="m 157.90546,52.889548 c -69.490337,-0.4665 -138.687997,31.50597 -145.591795,68.210932 -1.38,7.33658 1.34318,14.41404 17.484378,45.42969 8.7076,16.73178 30.30403,60.23438 47.99023,96.67188 17.68631,36.4375 56.767877,116.87501 86.847657,178.75 30.07981,61.875 63.82704,131.34375 74.99609,154.375 5.08826,10.49231 10.29818,21.20253 14.95508,30.76172 l 17.02148,0 c -0.74572,-16.18168 -1.91501,-40.8158 -3.19726,-67.01172 -1.63211,-33.34375 -7.27252,-150.625 -12.53516,-260.625 -5.26262,-110 -10.12622,-202.948262 -10.80664,-206.550782 -4.47138,-23.67395 -33.62046,-38.11841 -80.43945,-39.86328 -2.24015,-0.08349 -4.48299,-0.13339 -6.72461,-0.14844 z m -30.55469,9.69141 c 0.80923,-0.002 -0.47499,3.23047 -2.85547,7.18359 -11.23133,18.65126 -12.0622,41.850882 -1.68945,47.214842 4.60645,2.38211 12.86136,2.36312 17.92773,-0.041 7.39941,-3.51125 10.861,-10.89316 18.32227,-39.074212 l 2.73633,-10.33984 2.33398,4.71484 c 2.96367,5.98677 6.30226,8.04688 13.04102,8.04688 6.02046,0 9.62,-1.52891 14.65039,-6.22071 1.89063,-1.76338 3.4375,-2.76236 3.4375,-2.2207 0,0.54166 -1.65979,6.69429 -3.68946,13.67188 -4.79034,16.468142 -5.68118,22.317092 -3.90039,25.644522 1.83515,3.429 8.00564,3.54656 13.40235,0.25586 8.18358,-4.99004 16.6875,-22.533592 16.6875,-34.425772 0,-3.11545 0.42188,-5.66125 0.9375,-5.65626 2.49018,0.0222 17.16755,12.56186 19.80664,16.92188 9.16732,15.145272 -3.53661,36.539522 -31.03906,52.269522 l -5.92188,3.38672 2.6543,-4.49805 c 1.936,-3.28127 2.2805,-4.86988 1.27343,-5.87695 -2.08699,-2.08699 -10.30503,0.80206 -17.1582,6.0332 -5.5032,4.20069 -5.9137,4.31807 -8.14062,2.30274 -2.21741,-2.00673 -2.71879,-1.94087 -9.22071,1.24023 -3.7821,1.85041 -8.886,5.71299 -11.34179,8.58203 -3.62836,4.23892 -4.68549,4.86882 -5.63868,3.36133 -0.64512,-1.02031 -1.1809,-2.28482 -1.1914,-2.81055 -0.0358,-1.78437 -8.12645,-5.91101 -11.59961,-5.91601 -2.19328,-0.002 -5.15476,1.55155 -8.10352,4.2539 l -4.64648,4.25782 -5.20703,-3.05078 c -9.51181,-5.5743 -23.597567,-5.51326 -29.685547,0.1289 -4.19517,3.88794 -4.15208,7.24461 0.14649,11.23047 l 3.42578,3.17578 -5.61328,-0.15234 c -3.08672,-0.0838 -8.98633,-0.6395 -13.11133,-1.23438 -18.0504,-2.60305 -35.94646,-10.41867 -44.54883,-19.45703 -6.6881,-7.02685 -9.08649,-12.45185 -9.02148,-20.40625 0.1938,-23.73328 31.20773,-44.832522 86.416007,-58.789052 8.05986,-2.03751 15.31579,-3.70503 16.125,-3.70703 z"
       style="color:#000000;clip-rule:nonzero;display:inline;overflow:visible;visibility:visible;opacity:1;isolation:auto;mix-blend-mode:normal;color-interpolation:sRGB;color-interpolation-filters:linearRGB;solid-color:#000000;solid-opacity:1;fill:#ffffff;fill-opacity:1;fill-rule:nonzero;stroke:none;stroke-width:0.9375px;stroke-linecap:butt;stroke-linejoin:miter;stroke-miterlimit:4;stroke-dasharray:none;stroke-dashoffset:0;stroke-opacity:1;color-rendering:auto;image-rendering:auto;shape-rendering:auto;text-rendering:auto;enable-background:accumulate" />
  </g>
</svg>
