<?xml version="1.0" encoding="UTF-8" standalone="no"?>
<svg
   xmlns:dc="http://purl.org/dc/elements/1.1/"
   xmlns:cc="http://creativecommons.org/ns#"
   xmlns:rdf="http://www.w3.org/1999/02/22-rdf-syntax-ns#"
   xmlns:svg="http://www.w3.org/2000/svg"
   xmlns="http://www.w3.org/2000/svg"
   viewBox="0 0 2268.8567 2268.8572"
   height="2268.8572"
   width="2268.8567"
   version="1.1"
   id="svg2">
  <metadata
     id="metadata8">
    <rdf:RDF>
      <cc:Work
         rdf:about="">
        <dc:format>image/svg+xml</dc:format>
        <dc:type
           rdf:resource="http://purl.org/dc/dcmitype/StillImage" />
        <dc:title></dc:title>
      </cc:Work>
    </rdf:RDF>
  </metadata>
  <defs
     id="defs6" />
  <path
     id="path4189-9"
     d="M 1129.8359 -9.4648438 L 1063.9727 -8.1679688 C 1023.9817 -3.4621985 983.73259 -0.69585928 943.99219 5.3378906 C 907.05359 13.505991 869.65681 19.743282 833.09961 29.414062 C 800.66501 40.087494 767.68771 49.250488 735.56641 60.767578 C 743.55551 62.218868 746.51442 73.98694 756.04492 109.23438 C 761.98172 131.19117 772.67168 170.39457 779.80078 196.35352 C 794.83708 251.10494 806.27779 323.03848 810.61719 390.11523 C 813.17849 429.70661 811.59699 447.27959 800.80469 499.1543 L 787.93945 560.99609 L 744.88281 605.9707 C 721.20151 630.70712 686.41934 665.47884 667.58984 683.24023 C 640.84334 708.4695 632.38608 719.93969 628.92578 735.67578 C 623.47728 760.45408 609.20508 953.06244 609.20508 1001.8145 C 609.20508 1036.2487 610.06512 1038.7667 635.98242 1080.1602 C 650.71022 1103.6825 667.31456 1132.0199 672.88086 1143.1328 C 687.15006 1171.6204 694.50638 1176.0983 728.33008 1176.8848 L 758.16992 1177.5781 L 758.21094 1237.5527 C 758.25094 1299.9211 765.94698 1336.7638 781.67578 1349.916 C 785.96298 1353.5009 802.00763 1360.9067 817.33203 1366.373 L 845.19531 1376.3105 L 847.67969 1423.168 L 850.16406 1470.0234 L 864.77148 1473.9121 C 872.80598 1476.0511 881.25041 1481.1444 883.53711 1485.2305 C 885.82381 1489.3166 895.33071 1494.0928 904.66211 1495.8438 C 919.04081 1498.5409 925.8294 1496.1092 949.1875 1479.8965 C 964.3461 1469.3751 980.11617 1453.7436 984.23047 1445.1602 C 988.34487 1436.5768 995.07385 1428.2633 999.18555 1426.6855 C 1010.1478 1422.4789 1008.5371 1427.0356 990.00195 1452.6484 C 962.59595 1490.5197 948.51209 1518.1544 934.67969 1561.207 C 921.74879 1601.4536 921.30555 1602.0664 903.25195 1604.625 C 794.28105 1620.0683 664.30172 1658.0497 642.48242 1680.8242 C 635.10932 1688.5201 629.07812 1698.4643 629.07812 1702.9219 C 629.07812 1707.3796 650.62172 1764.2677 676.95312 1829.3398 C 703.28445 1894.4119 730.11267 1963.1373 736.57227 1982.0625 C 743.03187 2000.9878 751.65462 2021.5636 755.73242 2027.7871 C 774.76112 2056.8285 848.78073 2082.1544 963.89453 2099.0117 C 1019.7903 2107.1971 1058.0439 2109.1169 1165.1074 2109.1055 C 1342.0585 2109.0855 1411.4495 2099.884 1490.2285 2065.9902 C 1526.3062 2050.4682 1526.2172 2050.6024 1553.4121 1972.4941 C 1561.0231 1950.6339 1576.5228 1907.0373 1587.8574 1875.6133 C 1599.192 1844.1893 1617.0168 1791.6497 1627.4688 1758.8594 C 1637.9203 1726.0692 1649.0172 1692.7794 1652.127 1684.8828 C 1656.8077 1672.9975 1656.3401 1668.9347 1649.4121 1661.2793 C 1626.7749 1636.2649 1534.7421 1607.8061 1443.8652 1597.7207 C 1414.829 1594.4984 1389.9983 1589.2885 1387.8633 1585.9688 C 1385.7536 1582.6882 1375.3671 1565.4723 1364.7812 1547.7109 L 1345.5352 1515.416 L 1371.1016 1512.4551 C 1385.163 1510.8257 1405.6109 1504.9536 1416.541 1499.4082 C 1427.471 1493.8628 1455.95 1480.97 1479.8281 1470.7559 L 1523.2422 1452.1836 L 1540.2637 1467.1289 C 1586.3126 1507.5604 1634.1894 1496.5099 1649.0254 1442.0273 C 1652.9157 1427.741 1658.9209 1400.8225 1662.3691 1382.207 C 1665.8173 1363.5916 1673.2522 1338.9989 1678.8926 1327.5566 C 1684.8287 1315.5144 1690.0346 1293.1514 1691.2539 1274.459 L 1693.3613 1242.1641 L 1735.0488 1199.332 L 1776.7363 1156.5 L 1777.8359 1087.5469 C 1779.6811 971.80083 1778.1699 957.16305 1761.582 930.07812 C 1751.6811 913.9117 1746.9277 899.59713 1746.9277 885.95117 C 1746.9277 864.85749 1737.14 844.99663 1709.4668 809.92969 C 1700.8412 798.9996 1679.4714 762.34643 1661.9785 728.47852 C 1638.2435 682.52506 1624.7421 662.35457 1608.7637 648.98633 C 1596.9875 639.1339 1578.6388 619.55977 1567.9902 605.48828 C 1542.4134 571.69008 1429.2141 494.14799 1346.0957 453.48828 C 1266.365 414.48584 1248.9034 394.83992 1225.7422 318.07617 C 1216.586 287.72927 1214.78 264.78331 1211.5625 137.97266 L 1207.9219 -5.5214844 C 1181.9097 -7.4323744 1155.9016 -9.3840634 1129.8359 -9.4648438 z M 16.275391 1166.8672 C 16.721591 1175.7965 17.322094 1184.7128 18.183594 1193.6152 C 17.443794 1184.705 16.806591 1175.7886 16.275391 1166.8672 z M 28.867188 1281.3164 C 30.113187 1289.9902 31.543394 1298.6351 33.308594 1307.2246 C 33.383894 1307.5444 33.454397 1307.8655 33.529297 1308.1855 C 31.869697 1299.2444 30.313187 1290.288 28.867188 1281.3164 z M 52.351562 1392.0195 C 54.218663 1399.5666 56.186766 1407.0842 58.322266 1414.5566 C 58.871166 1416.1587 59.401259 1417.7683 59.943359 1419.373 C 57.298159 1410.2816 54.768262 1401.1637 52.351562 1392.0195 z M 85.998047 1498.1328 C 88.700247 1505.8124 91.498025 1513.4573 94.453125 1521.043 C 95.411025 1523.1343 96.344816 1525.237 97.291016 1527.334 C 93.385416 1517.646 89.629947 1507.9082 85.998047 1498.1328 z M 128.41406 1597.543 C 132.58526 1606.5957 136.87718 1615.59 141.39258 1624.4727 C 143.15118 1627.4854 144.88309 1630.5131 146.61719 1633.541 C 141.69049 1624.2143 136.87656 1614.8108 132.19336 1605.3223 C 130.91666 1602.7357 129.67016 1600.1378 128.41406 1597.543 z M 179.14062 1691.0566 C 185.33183 1701.7647 191.66232 1712.3887 198.32422 1722.8066 C 201.23422 1726.824 204.11542 1730.8616 206.98242 1734.9121 C 197.39202 1720.5335 188.11052 1705.9103 179.14062 1691.0566 z M 237.89258 1779.0039 C 246.58448 1791.2507 255.43652 1803.3745 264.72852 1815.1641 C 269.24962 1820.2638 273.71647 1825.4122 278.16797 1830.5742 C 264.28727 1813.7954 250.85238 1796.6024 237.89258 1779.0039 z M 305.56641 1862.4941 C 316.74121 1875.4339 328.06006 1888.2392 339.91016 1900.5605 C 345.57426 1905.8048 351.17928 1911.1183 356.76758 1916.4492 C 339.15468 1899.0403 322.07911 1881.0447 305.56641 1862.4941 z M 1937.7285 1935.7344 C 1936.5068 1936.9186 1935.2858 1938.1028 1934.0586 1939.2812 C 1935.1076 1938.2882 1936.1592 1937.2977 1937.2012 1936.2969 C 1937.3756 1936.1082 1937.5539 1935.923 1937.7285 1935.7344 z M 384.02344 1942.5312 C 396.80264 1954.6968 409.7123 1966.713 423.125 1978.1602 C 428.8116 1982.469 434.45208 1986.8442 440.08008 1991.2363 C 420.90068 1975.6131 402.20204 1959.3724 384.02344 1942.5312 z M 1856.8223 2006.7949 C 1849.497 2012.6185 1842.0964 2018.3533 1834.6172 2023.9941 C 1840.8118 2019.4658 1846.9496 2014.8617 1852.9941 2010.1348 C 1854.2635 2009.0144 1855.5478 2007.9098 1856.8223 2006.7949 z M 475.38867 2018.8867 C 487.91037 2028.5983 500.54742 2038.1458 513.54102 2047.1855 C 517.88532 2049.8484 522.20969 2052.5452 526.52539 2055.2578 C 509.16199 2043.5993 492.10987 2031.4702 475.38867 2018.8867 z M 1770.127 2069.1172 C 1757.1941 2077.4982 1744.0727 2085.6284 1730.7598 2093.4883 C 1741.1854 2087.5606 1751.5284 2081.4955 1761.6719 2075.1035 C 1764.4789 2073.0928 1767.3026 2071.105 1770.127 2069.1172 z M 580.88867 2089.6172 C 590.57617 2095.5774 600.33808 2101.4086 610.26758 2106.9512 C 612.84118 2108.1986 615.4018 2109.4711 617.9668 2110.7363 C 605.4773 2103.9251 593.11697 2096.8813 580.88867 2089.6172 z M 1677.8262 2122.8281 C 1659.8995 2132.1423 1641.6707 2140.9952 1623.1562 2149.3789 C 1636.9836 2143.3866 1650.7227 2137.2107 1664.2168 2130.5078 C 1668.7356 2127.919 1673.2756 2125.3651 1677.8262 2122.8281 z M 701.34766 2151.9473 C 704.98756 2153.6095 708.63684 2155.2504 712.30664 2156.8477 C 712.83694 2157.0427 713.36453 2157.2456 713.89453 2157.4414 C 709.70103 2155.6341 705.51816 2153.8038 701.34766 2151.9473 z M 1577.3516 2168.9219 C 1559.6938 2176.0013 1541.7961 2182.6601 1523.6738 2188.8926 C 1536.3867 2184.8001 1549.0346 2180.5307 1561.5273 2175.832 C 1566.7847 2173.4902 1572.0643 2171.1978 1577.3516 2168.9219 z M 1463.1523 2207.8633 C 1453.4963 2210.6024 1443.785 2213.2243 1434.0156 2215.7246 C 1440.924 2214.1173 1447.8104 2212.4256 1454.666 2210.6035 C 1457.4888 2209.6743 1460.3221 2208.772 1463.1523 2207.8633 z M 1256.2305 2244.7363 C 1224.9418 2246.8963 1192.1989 2247.7565 1156.6973 2247.4355 C 1133.4675 2247.2255 1110.571 2246.8521 1091.873 2246.418 C 1112.9142 2247.9262 1133.9592 2249.2716 1155.0352 2249.4766 C 1188.8549 2248.7986 1222.6718 2249.3296 1256.2305 2244.7363 z "
     style="color:#000000;clip-rule:nonzero;display:inline;overflow:visible;visibility:visible;opacity:1;isolation:auto;mix-blend-mode:normal;color-interpolation:sRGB;color-interpolation-filters:linearRGB;solid-color:#000000;solid-opacity:1;fill:#ffffff;fill-opacity:1;fill-rule:nonzero;stroke:none;stroke-width:1.06993353px;stroke-linecap:butt;stroke-linejoin:miter;stroke-miterlimit:4;stroke-dasharray:none;stroke-dashoffset:0;stroke-opacity:1;color-rendering:auto;image-rendering:auto;shape-rendering:auto;text-rendering:auto;enable-background:accumulate" />
  <path
     id="rect4481"
     d="m 1187.8379,-9.578125 c -4.9071,-0.2983364 -8.6103,0.6875841 -6.9471,6.4394231 0.1342,77.3182639 -1.7466,154.6736919 0.8143,231.9668219 1.5125,43.7599 9.0507,86.99632 16.4366,130.05563 4.7966,21.09342 11.5578,42.38783 25.6284,59.28173 6.4377,8.82978 14.4778,16.35349 23.9115,21.85014 17.839,15.40127 37.5717,30.43042 61.0059,36.23829 29.9895,10.96863 57.0526,28.42425 86.0898,41.40429 27.6394,17.2938 52.8126,38.2042 79.3128,57.14939 15.6716,12.38093 32.0394,24.12531 47.7302,36.29397 19.293,15.93838 28.1507,41.53868 48.9492,56.40039 10.5596,9.30068 22.2585,17.73195 31.5059,28.43164 3.7779,5.42081 5.624,12.13725 10.543,16.71094 12.751,23.33785 24.6855,47.17779 38.5806,69.89662 11.6065,19.2283 23.2218,38.71558 38.6955,55.13187 9.291,12.23613 18.9597,24.18508 28.6223,36.11018 5.8157,8.94449 4.0116,20.66563 3.4707,30.50391 -11.7824,-11.77144 -18.5815,-27.67714 -30.4178,-39.50001 -11.1542,-10.74593 -23.353,-20.58932 -32.5002,-33.21288 -4.2674,-3.69787 -9.3333,-6.41434 -12.4336,-11.38672 -12.251,-15.91759 -23.4504,-32.62521 -35.4735,-48.68989 -16.7934,-18.14218 -34.014,-36.0343 -52.6554,-52.29253 -2.6697,-3.2076 -7.8919,-0.60147 -6.9531,3.47265 -0.2284,13.19281 10.0396,23.20138 17.8418,32.66407 7.2729,7.92553 17.085,13.20479 23.6328,21.74023 6.7783,7.9952 13.8704,15.74937 21.7783,22.59799 23.0272,27.14305 44.1267,56.02224 69.4366,81.17936 18.7995,19.67774 32.3096,43.68965 48.9911,64.95372 3.6715,5.60906 8.5012,12.96094 10.1182,18.38807 -5.3314,-1.24192 -8.4028,4.63374 -13.1612,5.83114 -13.8514,6.64604 -27.2954,14.7357 -42.1395,19.09269 -7.8559,2.67307 -18.3947,-0.22735 -24.795,6.27734 -4.5007,5.48126 -0.1834,14.00646 6.6563,14.52146 20.8264,3.0417 41.5015,-6.4039 57.8847,-18.55466 7.3396,-5.87716 14.226,-12.84025 18.2149,-21.4707 3.997,11.78446 4.4323,24.74675 7.6601,36.87696 5.7936,34.3068 2.882,69.4692 2.9323,104.2125 -0.8728,15.4716 0.6998,31.2824 -2.776,46.4535 -2.0616,4.233 -3.8873,8.5772 -5.5586,12.9785 -13.3134,0.4318 -26.9576,-1.7257 -40.1152,0.6426 -3.8557,2.2936 0.406,6.4538 3.541,6.5156 9.1349,2.4566 19.2874,0.9164 28.1816,2.2266 -8.3838,3.7054 -18.2278,1.6721 -27.2577,2.3346 -5.7881,0.7932 -13.408,-1.3465 -18.0177,3.1341 -1.749,5.2915 4.1856,9.7415 8.5938,11.418 5.185,2.368 11.3938,1.9822 16.5898,2.9258 -8.3695,10.318 -19.4322,18.2248 -28.7082,27.7403 -8.8475,7.7454 -16.6817,17.4478 -28.1551,21.2812 -3.4109,1.214 -8.274,5.7485 -10.6953,5.3027 3.5723,-8.5842 0.392,-18.2685 0.2163,-27.2052 -1.4246,-13.9477 -2.6271,-27.9686 -6.1886,-41.5413 -2.7226,-5.6797 3.3367,-8.6838 5.902,-12.7535 3.4467,-4.321 6.6156,-8.8652 10.2324,-13.0488 2.1318,6.5347 5.7477,14.005 12.3536,16.791 4.7234,-0.1358 6.018,-6.1353 3.6523,-9.5742 -10.2136,-22.2962 -10.99,-47.1624 -11.9588,-71.2147 -0.3354,-12.7477 -2.0304,-25.3438 -4.4241,-37.8356 -1.989,-12.9778 -2.4307,-26.5567 -7.1132,-38.9126 -2.1329,-3.1236 -5.8549,-4.9713 -6.5976,-8.9297 -8.7504,-12.14005 -21.3228,-20.94625 -28.7911,-34.04883 -10.1054,-12.72853 -23.9684,-21.78504 -35.3096,-33.33799 -6.4199,-5.67551 -14.3202,-9.24194 -20.1435,-15.70107 -11.0899,-10.57223 -22.7255,-20.87723 -32.7815,-32.32203 -14.7323,-25.21013 -27.8306,-51.48598 -44.4548,-75.53344 -1.6826,-3.5765 -7.4028,-6.23962 -9.6328,-1.69922 -1.6935,7.62399 3.3779,14.93852 5.6087,21.95599 18.3314,43.86373 37.5862,87.33389 58.6602,129.95617 15.2955,31.40172 29.9467,63.25472 48.8704,92.69202 8.7189,14.9514 14.308,31.7018 24.0814,46.2357 11.1925,19.3268 16.1658,41.7181 15.8008,63.9492 2.2451,26.4893 5.7028,52.771 7.1266,79.3521 0.8008,21.3478 6.0656,42.2277 5.8421,63.5737 -13.8099,1.8536 -27.7243,1.7216 -41.5583,-0.2674 -5.2231,0.2191 -12.5311,-1.5966 -16.2894,3.0252 -1.1545,5.0566 5.9751,6.1661 9.3933,7.3059 14.8778,3.7834 30.5619,3.4389 45.5794,0.657 -1.0423,19.9775 -3.3469,39.8925 -5.707,59.7929 -7.3999,4.9791 -16.8075,3.7792 -24.4942,7.8125 -15.7023,3.9952 -31.8972,4.5413 -47.957,4.5137 -6.1348,-0.1603 -9.2035,6.1048 -9.0742,11.4688 -1.3825,19.2688 -1.7887,39.6609 -3.5703,58.164 -11.8493,-11.0043 -22.4377,-24.5635 -26.209,-40.5781 -0.014,-29.7231 3.8563,-59.4115 7.9648,-88.877 1.9603,-20.8405 2.5158,-42.0076 -0.014,-62.8144 -5.1817,-28.3842 -12.1818,-56.4859 -21.5625,-83.7793 -1.7933,-5.6304 -2.8978,-11.5314 -6.8738,-16.2339 -15.1495,-22.175 -21.592,-48.6647 -32.0266,-73.1899 -7.9551,-16.6727 -18.9237,-31.7342 -24.4375,-49.5137 -7.7288,-17.8979 -21.0354,-32.6995 -31.3764,-49.0328 -7.1903,-9.94963 -13.4985,-20.31782 -19.1256,-31.18987 -12.222,-16.67993 -25.4808,-32.59059 -36.1191,-50.33593 -2.5353,-4.52214 -8.1597,-11.52614 -13.916,-7.86524 -3.6767,3.67873 0.9951,9.0709 1.7196,13.08433 25.2996,59.84339 44.3294,122.12491 69.5817,182.02441 3.9462,7.1283 6.9362,14.5229 6.7287,22.8082 4.8962,52.0849 11.9765,103.9647 21.9504,155.3251 2.1807,17.1039 2.2922,34.5967 0.9883,51.6896 -2.6425,10.5387 -4.4672,21.2701 -5.8125,32.0566 -18.4525,0.2686 -36.7274,-4.1251 -54.8848,-7.2695 -6.4615,5.9276 -10.6111,13.9691 -10.9687,22.7793 -1.6184,13.8636 -1.7009,29.4831 -3.3926,42.2734 -5.5014,-16.5501 -6.9045,-34.2911 -7.5854,-51.7204 -1.2389,-17.9487 -1.0951,-35.8677 -0.69,-53.8401 -1.4352,-25.9069 -13.981,-49.299 -18.5234,-74.541 -6.1978,-29.4391 -12.8573,-58.9143 -15.836,-88.9043 0.6618,-9.0298 -9.482,-12.8367 -13.3828,-19.6192 -12.9119,-16.0393 -23.4273,-34.1306 -34.008,-51.9274 -15.814,-24.4552 -32.5785,-48.6442 -54.3125,-68.285 -8.7603,-9.5902 -20.5484,-15.3815 -32.7173,-19.3805 -25.5458,-10.34256 -50.699,-22.50788 -72.3547,-39.6883 -16.2411,-10.8132 -28.4854,-26.53466 -44.0176,-38.29622 -21.7566,-18.72014 -40.0569,-41.72533 -64.4453,-57.24089 -15.17522,-8.25872 -32.25055,-12.30672 -48.43052,-18.14212 -21.37815,-6.26013 -42.53772,-15.32967 -65.17997,-15.28631 -27.01847,-0.39422 -55.44406,-1.00398 -80.61024,10.30147 -19.3243,9.26352 -34.16469,26.50074 -43.27539,45.6211 -4.32774,12.8028 -14.95739,22.2062 -18.92894,35.18443 -6.92578,18.5877 -15.00187,37.40306 -15.23157,57.57399 -0.55084,12.18874 -2.11372,24.58875 -1.59028,36.66505 16.12395,42.6548 18.38511,88.916 16.97587,134.195 -0.30806,4.441 -3.09734,10.9039 -6.90282,12.0847 0.0659,-18.603 -3.26107,-37.6475 -10.72426,-54.9416 -3.69705,-9.0141 -8.85743,-17.4537 -12.1566,-26.5604 -4.28875,-6.7673 -13.45662,-2.8468 -19.7679,-3.1734 -21.91011,1.7368 -44.0317,0.4504 -65.82585,3.3843 -1.53485,1.0113 -2.95807,1.7077 -4.21289,-0.3945 -6.5968,-8.0418 -12.48594,-16.7905 -18.09961,-25.5117 -3.24055,-9.3586 -7.22547,-19.1427 -6.81445,-29.1797 0.23561,-6.1294 8.05509,-2.3655 11.57031,-2.9219 16.82349,1.5453 33.9449,2.4956 49.83822,8.7843 3.95586,0.6176 10.79901,4.7404 13.08561,-0.6436 0.98622,-6.2443 -5.66759,-10.6284 -10.00391,-13.9239 -16.72849,-9.2778 -37.0087,-7.1621 -55.17024,-9.6559 -1.66292,-0.8068 -8.00446,0.4353 -6.68913,-2.6702 10.79139,-3.1917 22.61178,-0.8959 33.71679,-1.2676 10.73641,-0.2081 21.31579,1.4816 31.46062,4.923 5.52407,0.7688 11.86037,3.5235 17.21712,1.1922 3.00847,-4.7482 -3.09226,-9.2302 -6.93945,-11.00195 -22.17805,-11.19074 -47.78448,-9.40459 -71.71875,-8.2207 -5.41871,1.64106 -2.91765,-3.82115 -2.82077,-7.09323 3.32179,-21.74683 5.49253,-43.74264 5.26708,-65.71276 1.27645,-28.9992 5.92544,-58.10615 6.27634,-87.12956 1.32448,-9.69544 5.10997,-18.90622 5.75586,-28.75781 2.69243,-21.05085 3.94537,-42.60729 12.60547,-62.24609 12.13898,-13.54798 26.32873,-25.21743 38.36,-38.93154 14.39047,-15.70176 29.01349,-31.44111 40.52867,-49.40635 20.54689,-24.16542 47.45097,-41.79236 70.32031,-63.65821 5.48552,-7.80945 11.23489,-15.63444 13.97461,-24.95117 9.36507,-30.16401 14.38554,-61.47626 21.63008,-92.18088 1.76182,-14.05721 0.32408,-28.46504 0.80723,-42.65896 0.0242,-21.55596 -0.64743,-43.59442 -2.64434,-64.78907 4.63509,5.31021 12.99451,3.65323 18.9574,6.54053 19.64179,5.13045 38.44018,13.73191 58.56213,16.87354 5.55876,-0.22593 12.34532,1.43387 17.08789,-2.08203 2.40737,-4.71165 -4.33705,-6.75657 -7.68554,-7.7793 -24.78519,-7.01393 -48.98812,-16.42664 -74.31055,-21.36914 -4.72493,-0.92668 -10.91156,0.12935 -12.92187,5.07226 -4.13682,-34.9873 -9.84781,-69.79032 -15.67981,-104.53015 -2.27825,-13.03154 -5.51047,-26.12069 -9.08973,-38.6925 27.56261,2.47308 53.75986,14.69361 81.41407,18.18359 3.49433,0.90286 10.28421,-1.83231 7.25586,-6.16797 -7.54367,-5.46022 -17.20767,-7.17903 -25.8086,-10.48828 -20.36476,-6.5452 -41.38744,-11.3167 -62.79492,-12.41797 -5.15032,-0.0449 -3.299,-7.73923 -5.48812,-10.97136 -1.07707,-4.91595 -3.95815,-12.03553 -4.23258,-15.68293 11.60651,3.1493 23.837,3.03015 35.45508,6.16211 17.37137,2.99965 34.19058,9.7934 51.89062,10.87695 5.64849,-0.77648 12.94709,1.36996 17.60352,-2.65235 1.27958,-5.09123 -6.34542,-5.56736 -9.5,-7.08007 -25.17139,-6.72703 -50.31119,-14.5049 -76.28907,-17.38282 -6.80053,0.0283 -15.80308,-1.45972 -20.76757,4.29883 -1.45947,-1.06457 -2.45928,-7.8222 -3.78516,-10.8125 -10.08256,-31.05646 -18.12328,-63.19401 -34.55921,-91.709075 -2.86628,-4.543407 -4.38923,-10.10583 -6.94274,-14.701079 -5.30559,-2.577666 -11.14703,1.920844 -16.15039,3.488282 -3.3552,0.884239 -6.43219,4.619993 -3.31641,7.636718 7.71664,17.824889 15.1515,36.183754 17.01437,55.581604 6.27587,27.63901 17.18454,53.96458 24.04032,81.44965 5.68318,24.15402 12.97408,47.93364 16.68992,72.52846 4.293,24.40769 6.42454,49.12242 10.68611,73.54066 4.9684,36.92252 5.84555,74.34528 4.61541,111.57888 -6.28915,32.79107 -14.45793,65.22845 -19.85088,98.18128 -0.78885,7.93221 -2.08952,17.3163 -10.03314,21.55158 -23.04688,21.35198 -44.58909,44.35311 -65.44922,67.83593 -20.20897,23.291 -42.33233,44.98959 -66.81836,63.70899 -10.38527,9.13873 -16.72208,22.15697 -20.67969,35.20312 -5.88026,38.59255 -9.20592,77.60283 -10.93402,116.57822 -2.01801,37.32965 -6.88715,74.57124 -6.31152,112.0366 -0.1143,22.86282 -3.1936,45.80352 -2.29743,68.69772 2.5217,12.4836 11.66907,22.3256 17.75094,33.1777 19.77404,29.616 39.48658,59.5119 53.89555,92.2266 3.51558,8.1037 9.27668,16.5359 18.85351,17.5039 17.74079,3.5777 36.09903,3.8872 54.10743,2.705 6.39178,-2.9273 3.17924,5.1223 3.60825,9.1715 -0.78766,15.7751 -1.82455,31.914 2.40542,47.2739 2.85543,18.7608 -2.07155,37.61 -1.3453,56.3531 2.8063,20.4646 10.14173,40.5398 21.57381,57.768 10.03025,12.5809 27.19828,14.9929 41.76023,19.1584 9.13886,2.5387 19.88241,4.7036 26.02688,12.529 2.03116,29.3407 -0.1832,59.0356 2.02344,88.4356 0.5358,6.9154 8.83971,7.1772 14.12486,6.999 6.36706,0.4366 13.56765,-0.7097 19.52748,1.0381 0.38278,5.3071 0.98688,12.1286 6.81836,14.3887 3.2381,1.3587 7.10962,0.2042 9.4375,3.3515 6.43362,3.3876 14.60518,8.9801 21.80274,4.3457 11.98453,-7.6235 23.32298,-16.1131 35.13122,-24.0461 10.93307,-7.9171 23.63862,-15.9121 28.25354,-29.3347 1.42783,-4.0941 -2.71051,-10.0219 3.22022,-11.1949 6.41251,-2.7535 12.21785,-7.9622 19.13916,-9.0864 2.87658,0.8627 4.10138,2.8709 1.32031,4.9356 -14.17516,17.749 -27.91384,35.9354 -39.53031,55.4251 -18.28237,27.1218 -30.16222,58.1608 -38.02183,89.7044 -2.6536,8.5106 -6.0077,17.0925 -7.7877,25.8138 -7.77239,5.3548 -17.93285,4.1982 -26.90261,5.546 -23.44738,0.9384 -46.0057,7.7442 -69.04053,11.5198 -22.36627,5.0086 -44.8249,9.7185 -67.00413,15.5104 -26.42021,7.7289 -52.03798,17.9808 -78.63476,25.1524 -10.86049,4.0038 -22.90103,6.8253 -31.82813,14.5214 -1.60529,4.4677 -5.35305,8.1047 -9.92578,9.4629 -6.94643,5.786 -13.20587,14.4868 -12.70508,23.8907 27.59852,65.5777 53.9265,131.7911 80.31363,197.8868 11.6058,29.9807 24.84345,59.3972 33.58958,90.4014 3.3371,11.1529 8.33189,21.6452 14.15734,31.6649 3.04493,10.799 15.05073,14.7621 23.0214,21.1329 29.97067,20.671 66.05685,29.0432 100.90246,37.4667 42.51902,9.4925 86.02441,13.1735 128.97799,20.0019 21.66173,5.7445 44.73683,4.2386 67.04343,5.1524 49.2913,0.7906 98.7465,-0.558 147.9375,0.9355 28.592,1.0091 57.2821,0.9961 85.8692,-0.1328 2.5307,-0.4166 5.8385,-1.4086 6.4511,-4.1777 44.7001,-3.9609 89.5056,-10.2632 132.3117,-24.2152 18.6135,-5.7116 36.6661,-13.2009 53.6297,-22.7477 7.3332,-3.858 18.01,-2.2677 22.418,-10.7129 2.9016,-5.485 3.6161,-11.9961 6.6762,-17.5359 2.5026,-6.7872 6.1283,-12.9671 10.1109,-18.886 2.9229,-10.2041 4.5444,-20.8599 8.3418,-30.7695 11.8783,-36.7337 27.6723,-71.9998 40.8399,-108.2715 2.8695,-6.0007 -0.4531,-12.7424 2.995,-18.5977 7.5401,-17.8614 17.4872,-35.1991 20.962,-54.4589 1.4981,-11.0804 6.9787,-21.5052 10.2715,-32.2188 8.1285,-23.0092 15.4745,-46.3236 21.832,-69.8593 3.5804,-10.3765 12.7927,-20.7221 8.4844,-32.377 -8.8,-12.3158 -23.8183,-17.8758 -36.6912,-24.8196 -30.3136,-14.7456 -63.0548,-23.7026 -95.7072,-31.5808 -39.605,-7.3114 -79.624,-12.737 -119.8028,-15.5898 -4.1226,-0.7225 -9.6959,1.1556 -12.8061,-1.0107 -11.9641,-27.2107 -27.5667,-52.5653 -44.4126,-76.9835 -2.0307,-3.1696 5.7903,-1.1092 7.9101,-1.8457 17.4695,0.6635 35.2776,-1.6572 51.0096,-9.6861 22.909,-11.7531 46.9827,-20.6381 70.4377,-31.1694 16.8568,-7.6038 33.7321,-15.6315 51.2617,-21.3476 4.9007,2.756 7.6467,8.7472 12.082,12.3828 15.2799,15.8411 36.137,27.7422 58.4922,28.4238 14.6329,-1.0159 27.0637,-10.215 38.4024,-18.7304 11.4579,-8.8055 11.4482,-24.5218 16.1221,-36.999 5.8345,-16.3363 8.7788,-33.5142 9.5165,-50.796 0.8081,-11.0153 6.2765,-21.1549 7.2481,-32.2734 1.2175,-8.4543 7.6367,-14.7749 10.3386,-22.7539 5.4486,-12.0909 9.7135,-24.6644 14.3587,-37.0156 1.3692,-18.0791 -0.647,-36.2525 -0.7676,-54.3574 12.8118,-4.0111 18.2846,-17.7609 28.234,-25.659 12.6862,-13.2827 27.4087,-24.4333 40.1614,-37.6065 5.9237,-7.9877 13.1649,-15.6149 16.4229,-25.1623 3.237,-21.5967 2.0028,-43.6117 2.7217,-65.3866 0.2866,-41.3583 0.4247,-82.8308 -0.087,-124.11729 -7.2117,-17.11522 -17.4074,-32.65305 -28.584,-47.40429 -3.1212,-3.84521 -5.6956,-8.44967 -3.7969,-13.45899 1.4747,-14.40158 3.1512,-30.05255 -4.7615,-43.04969 -8.6413,-16.37897 -19.1982,-31.7519 -31.7033,-45.37023 -20.5312,-22.82459 -31.8924,-51.64868 -44.216,-79.40829 -8.323,-19.39368 -21.7883,-36.17197 -31.1219,-54.82609 -5.4946,-12.29339 -17.268,-20.22327 -26.334,-29.71175 -9.5787,-9.18167 -22.0033,-15.20113 -28.8105,-26.84489 -13.0879,-17.77975 -24.3629,-38.37106 -43.833,-50.19493 -23.9306,-16.93359 -49.8979,-30.58334 -72.5635,-49.16639 -14.6163,-9.7665 -28.1908,-21.03694 -43.0659,-30.39503 -31.4805,-17.18686 -62.5111,-35.70454 -96.3335,-48.02194 -8.8204,-5.13648 -17.9682,-9.7209 -27.0166,-14.04983 -18.3409,-10.84609 -32.4351,-28.03175 -44.4571,-45.35938 -20.418,-31.83934 -28.5162,-69.70065 -38.2929,-105.89843 -1.6314,-90.06936 -1.5594,-180.19228 -5.1964,-270.211444 -1.1112,-10.264847 -0.1179,-21.2639772 -4.0263,-30.9760598 -1.5257,-2.1112728 -4.6045,-2.1935959 -6.957,-2.2382812 z M 789.43945,42.121094 c -3.71895,-0.408791 -10.95722,2.071865 -8.4082,6.853515 6.25567,3.92914 14.48689,2.942419 21.45313,4.875231 26.83842,4.139911 53.50601,10.124038 80.58007,12.355238 3.70436,-0.446303 4.63055,-5.951544 0.76172,-7.02539 -17.61329,-6.476616 -36.59131,-8.233565 -54.91671,-11.886626 -13.0924,-2.000401 -26.18726,-4.907663 -39.47001,-5.171968 z m -13.58007,33.197265 c -3.93988,-0.489828 -12.4297,2.169246 -9.25,7.394532 7.31258,4.748129 17.05599,3.152555 25.11965,5.543701 27.93048,5.817794 55.7344,12.597188 83.96042,16.803958 5.41289,-0.4022 12.47107,0.9152 16.58203,-3.375 2.55545,-4.302247 -3.51184,-6.702293 -6.8644,-6.909644 -33.8006,-7.594485 -67.73231,-15.24918 -102.18735,-19.178658 -2.44724,-0.201265 -4.904,-0.335908 -7.36035,-0.278889 z m 16.42968,45.582031 c -3.86463,-0.71504 -9.2213,3.15418 -6.06054,7.04297 4.68698,4.08723 11.74611,1.7756 17.19531,4.20898 24.5782,4.95826 48.58214,14.96526 73.98633,14.44336 4.42648,1.49531 9.83322,-3.95063 4.99023,-7.10937 -14.43258,-4.67376 -29.66842,-6.38071 -44.33203,-10.33203 -15.11201,-3.2811 -30.2127,-7.96002 -45.7793,-8.25391 z m 45.41992,150.71289 c -5.16434,0.60805 -13.12488,-0.65198 -15.83203,4.96289 -1.43477,5.397 5.94888,6.05935 9.56477,6.31225 20.42684,0.76922 40.26916,6.18332 60.61883,7.41236 4.05499,0.45597 11.44762,-0.74056 10.00976,-6.38867 -3.99355,-5.72835 -12.37828,-5.4128 -18.47588,-7.28734 -15.11918,-2.84276 -30.47032,-5.05969 -45.88545,-5.01149 z m 0.49805,47.95899 c -3.21813,-0.56741 -9.50164,1.86662 -6.45898,5.79687 8.00031,4.49004 17.89896,3.89506 26.58645,6.53045 19.27702,3.66459 38.4325,10.79844 58.29441,9.77619 3.62918,0.22601 5.17442,-5.13208 1.22851,-6.05273 -16.47332,-5.40558 -33.79368,-7.89105 -50.56784,-12.25941 -9.56876,-1.94972 -19.2797,-3.83479 -29.08255,-3.79137 z m 24.14063,105.78711 c -4.93751,0.50946 -2.92188,7.32799 -3.98838,10.63053 -1.66184,19.73087 -2.26633,39.58335 -7.80342,58.67895 -0.67892,6.2676 -3.29795,13.56924 -0.0715,19.45028 3.96409,3.14327 10.03196,0.0592 10.0957,-4.98047 4.02401,-18.19872 9.51525,-36.38739 8.60752,-55.25577 -0.68836,-8.94391 0.39593,-18.58904 -3.06065,-27.00985 -0.8394,-1.19118 -2.4044,-1.53134 -3.77929,-1.51367 z m 452.34964,132.91015 c -4.1257,-0.6222 -6.2763,5.44171 -1.8653,6.89844 15.1663,10.63376 32.9893,17.6286 46.4844,30.49023 18.6017,11.76832 39.1452,20.12341 58.4886,30.58151 23.0307,11.22658 45.4529,23.95965 69.2731,33.43412 4.209,0.76725 5.512,-5.27467 1.6211,-6.73438 -2.7303,-1.7736 4.202,1.3017 5.2149,1.93555 4.3834,1.36043 7.3489,7.36253 12.2675,6.41797 4.1592,-3.37794 0.8724,-9.9576 -3.1113,-12.10156 -19.9672,-12.58609 -42.1274,-21.264 -63.5362,-31.06262 -34.9253,-15.78676 -69.5251,-32.46838 -103.0068,-51.13465 -5.6212,-3.99881 -12.4461,-5.14973 -18.539,-8.17187 -1.0671,-0.32066 -2.1732,-0.54701 -3.291,-0.55274 z m -77.502,23.85156 c -4.4344,1.8974 0.2375,7.06732 2.3605,9.04497 50.621,52.70664 101.9624,104.74014 154.0364,156.01255 1.7125,2.76462 5.9991,4.27459 7.2086,0.32334 1.3589,-5.1091 -5.4307,-7.89234 -7.6778,-11.73242 -45.6143,-47.6345 -91.6471,-94.92025 -139.1406,-140.68945 -5.4787,-4.16509 -9.8664,-10.80734 -16.5527,-13.00196 l -0.2344,0.043 z m -159.3594,16.87305 c -4.072,-0.55943 -5.2077,4.46832 -2.6347,6.94922 12.7725,15.70851 27.4312,29.85117 40.0023,45.76919 15.236,17.61637 28.5082,37.24197 45.1969,53.44175 15.386,14.6684 26.8342,33.25088 41.4577,48.86943 26.4086,29.39781 52.1348,59.40985 78.5599,88.78486 2.8904,3.77633 7.9085,8.4436 12.6679,4.72461 5.4355,1.78094 9.7012,8.8969 15.9375,7.55664 3.7571,-3.02502 -0.7767,-7.85804 -2.1328,-11.07031 -4.2441,-6.79436 -11.1255,-11.48188 -16.0015,-17.87232 -42.7153,-49.01928 -90.1527,-93.61842 -132.0297,-143.38498 -13.9912,-15.59884 -26.7809,-32.40657 -41.9707,-46.8677 -13.8232,-11.07899 -24.1386,-26.15098 -38.2832,-36.79687 -0.2567,-0.0297 -0.5066,-0.14912 -0.7696,-0.10352 z m 150.2676,12.50391 c -4.741,0.58507 -1.6808,6.19588 0.4707,8.08593 24.624,27.87457 50.3802,54.79467 76.9856,80.78714 3.0243,1.87665 5.9176,7.67465 9.9754,5.73826 1.6817,-4.36703 -4.0797,-7.65205 -6.067,-11.01021 -25.7334,-28.22862 -51.8444,-56.19545 -79.3198,-82.73784 -0.5765,-0.47282 -1.2631,-0.94737 -2.0449,-0.86328 z m 353.1934,96.96093 c -4.3022,-0.3747 -6.4676,5.33173 -2.8692,7.84375 5.2244,4.76165 12.9079,10.24177 20.2481,7.50196 5.0127,-4.41013 -1.4082,-12.44743 -6.9297,-12.33399 -3.6484,-0.47699 -6.6373,-3.31185 -10.4492,-3.01172 z m -850.48831,19.76368 c -18.36885,0.57623 -36.59324,3.19992 -54.53711,7.01367 -3.79482,-0.0186 -11.44879,2.4553 -9.14843,7.42773 7.65868,8.08133 19.97853,4.4431 29.66601,3.79688 13.08205,-1.77607 26.50301,-3.49936 39.53711,-0.99219 9.20336,10.13587 15.24193,23.20669 25.79688,32.04297 3.94809,1.67292 4.515,-3.86681 2.85742,-6.25781 -5.82148,-13.25487 -9.73544,-28.24454 -20.00781,-38.92579 -3.78965,-3.75139 -9.04035,-4.68301 -14.16407,-4.10546 z m 750.02151,36.91406 c -4.7528,0.70336 -3.1366,7.22769 -0.01,9.11133 9.9946,8.91213 21.3842,16.84763 34.086,21.30664 3.9449,0.92407 11.9507,2.28367 12.4765,-3.50781 -2.7536,-5.59965 -10.3713,-6.19086 -15.1894,-9.44141 -10.6599,-4.85641 -19.4773,-13.19226 -30.377,-17.41016 -0.3267,-0.051 -0.6597,-0.0866 -0.9902,-0.0586 z m -28.0274,13.88086 c -5.3317,0.98385 -3.7343,8.02657 -2.8965,11.74609 3.7801,11.9131 1.3844,25.10232 6.127,36.75391 1.9199,4.49835 9.9986,3.77268 9.3633,-1.80664 0.5255,-14.4658 -3.2676,-28.83093 -7.5879,-42.51758 -0.8692,-2.036 -2.562,-4.24291 -5.0059,-4.17578 z m -65.7656,63.8789 c -5.5399,1.39945 -3.785,8.96586 -1.3574,12.51172 10.1162,15.27594 25.4577,26.14854 40.0156,36.85742 2.5378,2.51332 8.2325,1.17758 6.5723,-3.04296 -2.1207,-5.09632 -7.6408,-8.11178 -8.8633,-13.63672 -4.3928,-4.51598 -10.1125,-7.71447 -14.3479,-12.52289 -7.3171,-6.06965 -12.7579,-14.32712 -20.4626,-19.85016 -0.4887,-0.20725 -1.0241,-0.34231 -1.5567,-0.31641 z m -529.41601,14.00586 c 21.95722,0.41952 44.01303,1.22469 65.92037,2.52609 27.16317,8.3757 55.15827,15.09703 80.62654,28.07743 22.3706,16.61849 40.0159,38.67621 61.6894,56.16992 13.4722,11.60155 26.206,23.94961 38.9942,36.27344 -1.1607,1.0286 -1.7482,7.59818 -3.4434,6.15625 -4.6385,-8.75354 -13.3277,-13.92309 -22.3437,-17.23244 -11.8485,-5.11184 -24.4403,-8.11144 -37.0645,-10.46092 2.7349,-6.01996 10.2575,-13.19113 5.3418,-20.06836 -2.1677,-3.47023 -7.6956,-9.68127 -11.6113,-4.88086 -1.8996,6.07188 -6.8231,10.62219 -13.0899,12.09961 -10.75,2.81346 -21.9549,3.52182 -32.9023,5.26461 -13.44761,0.43198 -27.09326,1.84464 -40.50002,0.0127 -4.42043,-1.76973 -1.48329,-7.99066 -2.78906,-11.57812 -2.08044,-10.77408 -3.41315,-22.96045 -11.09766,-31.39844 -8.83893,-7.45349 -18.83947,-13.89781 -28.35156,-20.11914 -12.9102,0.6127 -26.10159,-1.19269 -38.86719,1.09375 -5.61198,1.59882 -7.70706,11.69597 -0.89648,12.98438 13.01285,2.62955 26.74185,-0.44807 39.21484,4.2207 9.91755,6.92902 19.6949,16.86613 20.20508,29.73437 1.93223,12.5008 1.39755,28.48122 -9.83398,36.93946 -7.64835,6.67277 -16.55275,12.17401 -22.27904,20.70081 -11.72221,12.61429 -23.71436,25.87159 -30.36745,41.95739 -0.52007,1.7224 0.29537,5.6472 -2.16992,2.8398 -10.76872,-9.1796 -21.57785,-21.0312 -36.35742,-22.8769 -2.13153,-0.063 -4.38436,0.6207 -5.87305,2.1621 -8.57654,-15.2997 -26.39345,-21.70126 -42.71694,-24.43305 -5.31422,-1.24584 -10.44879,-3.11333 -15.50962,-5.13531 0.42275,-25.74162 11.33452,-49.37299 19.93359,-73.16406 1.20816,-1.44604 2.13385,-8.62891 3.92383,-6.40039 1.82548,6.82044 0.68729,14.34686 4.33594,20.76953 4.83054,10.84745 13.69711,19.9188 24.76172,24.375 -3.70029,3.59823 -10.85815,5.25886 -11.69727,10.9668 1.47012,7.12956 11.27119,7.29659 16.69922,4.79492 14.52799,-7.36182 27.62613,-20.73179 30.15039,-37.36719 1.17054,-4.93379 -4.56166,-10.48374 -9.01758,-6.67187 -5.82504,4.17955 -7.70547,11.79204 -12.38476,16.7871 -7.85496,-3.14439 -15.05049,-8.8227 -19.84961,-15.79492 -2.77654,-15.38067 -1.40089,-31.11127 -2.23242,-46.6875 5.97962,-6.90361 12.99713,-13.25438 21.67968,-16.19922 9.46043,-4.14066 19.65392,-6.73164 29.76953,-6.4375 z m 474.90431,53.39063 c -5.0904,-0.10023 -7.1963,5.42185 -6.7949,9.75195 -0.4191,14.13168 -1.4265,28.59233 1.0859,42.54883 2.5386,4.9793 10.8224,2.69883 10.2305,-2.95313 1.0509,-15.36648 2.1342,-30.96838 0.5566,-46.30664 -0.7778,-1.98252 -3.019,-3.10867 -5.0781,-3.04101 z m -107.9512,38.2168 c -4.5106,0.41975 -3.0959,6.36688 -0.4079,8.32325 10.539,13.89111 21.6648,29.09798 38.1775,36.17675 4.3534,2.17344 12.7499,0.93341 11.6523,-5.48243 -1.3663,-5.10003 -7.6981,-6.02145 -10.2422,-10.26757 -10.8493,-6.84951 -21.1651,-14.22557 -30.2051,-23.3086 -2.6867,-2.10073 -5.3857,-5.14529 -8.9746,-5.4414 z m 335.9492,0.29101 c 17.437,16.28052 36.5193,30.61494 53.3051,47.64805 8.017,8.35677 17.3079,15.79577 23.5367,25.59997 1.7616,6.1398 3.3502,14.3289 2.4258,19.836 -7.6483,-3.4685 -14.3557,-9.8617 -22.7402,-11.3438 -4.5687,1.8859 -6.5822,9.3282 -3.4453,13.2168 8.4441,6.8526 17.8448,13.1897 28.0078,16.9766 7.6825,19.5409 7.6171,40.8355 9.099,61.5754 -0.073,6.6894 1.5574,13.613 -0.011,20.1043 -4.4114,2.1569 -4.0902,8.0856 -5.2168,11.4238 -0.1429,-6.9323 -5.8498,-12.1798 -5.5625,-19.25 -0.8593,-14.6372 -12.1057,-25.6538 -15.8164,-39.4356 -1.9605,-7.1511 -6.1237,-13.1731 -9.7665,-19.472 -9.2204,-20.3061 -13.4323,-42.5139 -23.2208,-62.6224 -9.6961,-21.78323 -20.4822,-43.05645 -30.8623,-64.51688 l 0.2675,0.25976 z m -521.0097,24.50195 c 15.3951,0.0126 31.3889,4.12778 42.7246,15.09162 6.9873,3.84328 11.2247,10.70271 12.6723,18.41255 5.0772,14.2866 4.7674,29.7942 1.4722,44.5896 -0.7444,4.2144 -2.2295,12.436 4.1738,12.8164 7.5338,0.7345 10.893,-7.7917 10.9668,-14.0254 2.1122,-10.2503 4.7982,-20.4151 9.0235,-29.9473 15.9897,-2.5335 32.3506,-1.6565 48.4883,-2.6172 19.3147,6.7635 40.1695,12.0062 55.5267,26.4132 12.4777,9.8941 24.0291,21.1666 32.1588,34.9501 11.3284,17.754 22.9094,35.7267 30.7129,55.25 -0.8501,1.8428 -3.2002,6.5023 -5.1211,2.9981 -10.2047,-12.6368 -22.0174,-24.4093 -36.9936,-31.2544 -7.0909,-3.2513 -14.6183,-7.4086 -17.2837,-15.437 -4.4053,-10.6267 -0.6041,-22.8524 -4.6036,-33.5176 -3.4258,-3.4931 -7.1511,2.0142 -7.6777,5.2715 -3.1879,10.8964 -3.4359,22.3606 -4.6836,33.5722 -37.3778,0.6016 -74.7995,-2.0785 -112.1445,-0.033 -10.1089,0.9443 -21.1055,2.7582 -30.6493,-0.3377 -13.8883,-20.2539 -32.1485,-40.016 -56.7413,-46.383 -14.27409,-2.2181 -28.84365,0.4395 -43.10579,1.702 -4.3943,-0.2635 -13.79674,2.2932 -9.57003,8.2336 7.41904,4.8338 17.18111,3.6562 25.3789,6.2031 11.67216,3.0489 24.42202,3.8 34.95122,9.793 18.0855,12.8911 30.6876,32.6068 38.2031,53.2754 1.0567,8.0718 -1.9509,16.1303 -1.7481,24.0918 2.7468,4.2603 7.727,-0.2903 9.5528,-3.1348 6.4753,-8.3619 12.6205,-17.6274 13.5449,-28.4492 1.0469,-4.3434 7.4842,-1.2562 10.4304,-2.5624 33.1161,-1.064 66.2624,-3.3512 99.3963,-2.0902 12.5269,1.8441 25.3692,1.755 37.4975,5.7229 15.716,2.808 32.8847,10.2716 39.4043,25.834 5.5983,13.3867 11.8625,26.4975 16.377,40.2793 6.4912,14.1248 3.6374,30.0172 5.4863,45.0527 1.2295,12.6784 2.537,25.8004 7.6152,37.5859 2.7799,4.9888 8.5606,0.4182 9.332,-3.6132 2.3341,-16.5506 0.7572,-33.4393 1.1656,-50.1152 0.3727,-10.2281 -0.8194,-20.4955 -5.1156,-29.882 -2.657,-7.6784 -4.9833,-15.4646 -7.3,-23.2509 3.0033,-2.4825 5.6466,-6.9493 9.293,-8.0234 9.9199,8.6683 9.2421,23.2911 13.3047,34.832 8.2361,33.278 17.2471,66.4479 25.1307,99.7617 -0.4327,9.0769 0.6894,19.108 -1.0604,27.6563 -27.2645,2.5436 -55.0028,2.3609 -82.416,1.0078 -14.0014,-1.7347 -28.7125,-5.0733 -40.8144,-12.8984 -6.9809,-6.7543 -11.3256,-15.9449 -11.8715,-25.6339 -3.3153,-14.3578 -4.1395,-28.8589 -4.4176,-43.454 -1.1794,-17.625 -8.9086,-35.3789 -23.8848,-45.5508 -13.6139,-10.1625 -31.8391,-6.0978 -47.1609,-3.135 -13.8553,3.9315 -28.0379,5.5878 -42.4542,4.7275 -20.2624,-1.0085 -42.1174,1.9737 -60.4591,-8.7527 -20.3788,-12.4759 -38.85235,-27.8177 -59.05377,-40.6986 -21.79265,-15.0504 -43.78838,-29.9091 -67.35686,-42.0661 -10.40553,-5.0342 -14.98483,-16.827 -19.68702,-26.7353 -0.8308,-4.8884 2.13506,-9.7335 1.91716,-14.7697 0.915,-8.7658 0.18874,-18.3835 6.11869,-25.6594 7.23983,-13.9992 19.88193,-24.0962 30.58949,-35.40836 12.4775,-13.97453 30.83004,-19.46139 48.64419,-21.41056 23.96263,-2.45445 48.05932,-2.93532 72.12112,-4.27735 z m 697.7304,16.98438 c -9.3139,4.11467 -15.9411,13.67289 -26.6523,14.35349 -7.354,2.6487 -14.1181,6.8017 -21.9004,8.2871 -4.3361,1.1007 -11.0864,5.7168 -7.168,10.6563 6.0086,5.6682 15.1015,1.0981 21.5332,-1.3047 13.4179,-6.4473 25.7272,-15.5264 35.9258,-26.35547 2.0758,-1.95014 1.9849,-6.08712 -1.7383,-5.63672 z m -613.6191,2.4707 c 4.3855,2.76203 10.4992,7.03326 14.0098,8.91409 -4.7568,0.5664 -9.7174,1.2864 -14.4278,0.957 -0.2118,-3.13316 -0.4699,-7.18099 0.418,-9.87109 z m 273.3066,12.62499 c 15.576,27.0253 34.2658,52.3148 47.6332,80.5681 11.5359,27.765 23.449,55.53 37.2536,82.3264 -0.1647,26.6051 -9.9077,51.9654 -11.8887,78.4004 0.304,4.482 6.2852,3.998 7.9238,0.6348 7.612,-13.6796 11.7667,-29.0852 15.6836,-44.1699 0.9232,-3.4419 0.9673,-8.6344 1.7715,-10.9219 4.2763,20.04 5.885,40.5992 11.0957,60.4766 2.7464,13.6878 7.9503,27.0307 10.0281,40.6864 -1.9127,16.2999 -2.9335,32.737 -1.8074,49.0675 -16.52,2.8507 -33.8107,2.8921 -50.6758,1.334 -3.5295,0.1071 -4.5233,-2.7912 -3.5176,-5.6875 3.0323,-12.6951 2.8959,-25.8271 1.0059,-38.6348 -1.4457,-20.3165 -3.1022,-40.6294 -6.9792,-60.7026 -5.8337,-37.2816 -13.1073,-74.4936 -17.0853,-111.9498 -0.4872,-20.3767 -10.0425,-39.0337 -16.1503,-58.1015 -8.0365,-21.912 -16.4135,-43.7035 -25.4415,-65.2285 0.3835,0.6341 0.767,1.2682 1.1504,1.9023 z m -629.77144,1.125 c 12.99157,0.484 26.45179,6.0857 34.74414,16.1973 5.2382,8.5374 7.38901,18.3711 8.21875,28.2226 0.37185,5.86 6.39362,11.9348 12.33398,8.709 6.84361,-3.7421 5.46478,-13.1471 5.27735,-19.6582 -0.13174,-2.7148 -1.17622,-5.9531 -1.50391,-8.1816 7.28159,5.1786 17.37812,5.9756 22.61914,13.9961 6.60623,8.9285 11.98556,19.682 10.87666,30.9677 0.7687,7.2167 -0.55704,15.3886 3.11943,21.917 5.48413,7.4471 14.23928,12.4195 19.6875,19.3946 -4.34273,13.3414 -8.37611,26.9277 -8.33345,41.108 -0.6757,17.4242 -3.27437,35.3528 2.3315,52.2943 0.9972,5.1542 3.47057,10.7746 4.18945,15.4629 -8.15448,-0.5673 -14.49704,-7.9385 -22.68164,-7.6133 -5.67929,1.6635 -8.24371,10.3716 -2.75,13.8965 7.75793,6.0859 16.2154,11.5969 26.10938,13.3164 4.1088,0.7777 8.52851,2.1873 9.49804,6.8125 4.94413,8.8192 9.8538,17.739 14.26368,26.7754 7.09372,7.1602 16.62299,11.6759 23.49228,19.0231 11.04972,9.9296 19.07368,22.5818 29.07803,33.4808 -3.7739,6.0863 -8.13328,15.4342 -2.58203,21.7441 3.73979,4.1283 9.27835,1.185 12.31423,-2.1833 5.03991,-4.1975 9.89013,-10.6544 17.33798,-9.2117 5.76376,0.5007 12.97563,-2.3 13.08216,-9.0112 0.35139,-4.7897 0.59437,-12.7051 -5.77539,-13.375 -6.7902,-0.9855 -13.53352,1.1066 -20.02539,2.8262 -8.94253,-14.595 -22.03381,-26.1671 -34.66797,-37.5059 -5.7942,-5.0955 -13.93636,-8.7967 -15.91211,-16.8359 -4.04155,-6.8972 -9.79413,-12.7301 -12.4375,-20.4707 -9.50173,-18.874 -10.06932,-39.8801 -12.10937,-60.6035 -0.51204,-13.7173 1.05054,-27.3356 1.65234,-41.0332 5.30088,-6.7698 13.6123,-12.6934 22.61719,-10.2188 23.54752,5.9481 39.00103,26.2826 58.7168,38.9707 10.86806,8.6972 21.04409,18.3343 32.94729,25.6699 -7.1247,4.2598 -12.4012,10.8361 -17.543,17.0782 -10.74845,2.256 -21.36155,-1.5188 -31,-6.0293 -3.93762,-2.2974 -10.24251,-2.2205 -11.33593,3.2031 -0.73107,5.3855 4.18561,9.722 6.98828,13.8242 3.71582,3.5286 9.14683,4.7007 13.27753,7.8259 4.19034,2.2815 8.56019,4.3374 13.25567,5.3303 0.69696,11.8554 -1.35362,24.0673 1.19336,35.7442 7.17386,14.2746 20.98799,23.6982 33.06599,33.5569 9.4558,8.1091 21.7173,15.2349 25.6371,27.8064 2.0137,13.4148 -5.6564,25.9434 -12.4355,36.8359 -4.3289,7.2067 -11.5366,12.3695 -20.1383,12.7636 -18.80883,3.2904 -38.69228,4.2912 -57.62148,0.6876 -15.11295,-5.2941 -25.56221,-18.3509 -38.02915,-27.7978 -17.76992,-16.177 -39.68429,-26.3594 -58.78921,-40.71 -8.8043,-6.2926 -19.1388,-12.323 -22.45312,-23.3418 -7.69985,-18.1764 -4.19032,-38.4969 -5.31768,-57.6675 -0.59691,-15.3486 -0.61883,-31.1307 -5.10029,-45.8892 -1.45141,-13.1219 -0.53162,-26.967 -7.00195,-38.9843 -3.8366,-7.5146 -6.1352,-16.7671 -13.12305,-22.0411 -8.56888,-2.9874 -18.07845,-0.6806 -26.96289,-1.4668 -1.8988,-21.0501 -0.87902,-42.3004 -5.00774,-63.2016 -2.59208,-18.0916 -7.93392,-35.9277 -12.80867,-53.2671 -0.64255,-3.7025 -2.93731,-11.3577 3.34889,-9.2472 0.7242,0.035 1.4484,0.07 2.1726,0.1046 z m 615.28514,80.0606 c -17.2467,0.2749 -35.9444,3.325 -49.4922,14.7793 -4.2745,3.1771 -6.0812,12.014 -0.033,14.1367 5.5886,0.5808 5.8022,-7.1518 10.6856,-8.4356 15.2592,-8.5008 33.0301,-9.4975 49.9804,-11.2461 4.4124,0.034 5.8544,-6.4755 1.4825,-7.8222 -3.9826,-1.5529 -8.4241,-1.3482 -12.6231,-1.4121 z m -699.8496,7.1132 c 12.58073,0.021 25.16146,0.042 37.74219,0.062 10.79376,23.2804 16.76231,48.9047 16.61328,74.3692 -13.77061,0.6082 -28.34762,1.2216 -42.24414,-1.3594 -4.15486,0.1011 -10.25399,-0.055 -10.41015,-5.5957 -1.52783,-18.0957 -14.45291,-32.2207 -23.47009,-47.091 -4.47264,-6.6936 -9.02816,-13.3337 -13.47523,-20.0457 11.74376,-0.3498 23.49626,-0.3279 35.24414,-0.3399 z m 902.3926,4.2598 c -10.0559,1.09 -18.5533,7.5684 -27.211,12.3047 -3.35,1.2156 -6.6808,6.6767 -2.0546,8.5527 8.3313,1.5692 15.7919,-4.7749 23.3984,-7.1054 5.0609,-3.132 12.3529,-2.1503 16.4746,-6.6875 2.2904,-3.9382 -2.0496,-7.4219 -5.8828,-6.877 -1.5719,-0.1159 -3.147,-0.2414 -4.7246,-0.1875 z m -197.9512,12.4199 c -16.3811,1.1881 -32.7406,8.0958 -44.5332,19.6055 -4.0154,3.4173 -5.4403,12.0894 0.4473,14.2051 6.8641,0.1852 11.2704,-6.6632 17.5117,-8.6914 11.3249,-5.7868 23.7823,-7.8488 36.2324,-9.3535 4.4285,-0.2572 9.8626,-4.8091 6.2539,-9.2793 -3.559,-5.101 -10.1664,-6.7073 -15.9121,-6.4864 z m 220.5938,25.7676 c -13.1418,0.613 -26.5897,2.8469 -38.6875,8.1152 -4.5774,2.25 -3.2164,8.7159 1.0957,10.418 7.0329,2.0742 14.27,-2.2816 21.1894,-3.2461 7.8116,-2.6969 17.2387,-3.4237 23.4356,-9.3379 2.596,-4.7094 -3.4695,-6.5567 -7.0332,-5.9492 z m -824.16606,14.5527 c 4.26032,0.5741 9.92985,-0.2211 13.15665,2.0655 3.45536,8.8557 10.09788,17.044 8.11233,27.0387 -0.5962,31.17 -1.3084,62.5293 1.38141,93.558 -12.19693,-12.1175 -24.06694,-24.6231 -37.45312,-35.4649 0.18225,-17.9759 -1.57527,-36.0738 -0.0566,-53.9863 7.42716,-8.7325 5.14288,-21.3974 9.81641,-31.3086 1.05289,-1.7217 3.22283,-1.896 5.04296,-1.9024 z m 370.09566,57.3789 c 11.0977,-1.1005 18.5319,9.348 21.125,18.8653 5.1757,12.6901 0.5929,26.3182 2.7891,39.4824 1.8438,14.5105 2.7181,29.9992 10.1484,42.9434 7.6598,12.5649 21.7615,18.6939 35.2497,22.8096 16.6084,6.0866 34.6668,5.2195 51.805,9.0048 3.9389,0.9551 9.051,1.0551 12.3243,2.7695 -2.7737,12.5624 -8.6673,25.293 -20.2286,31.9922 -8.3276,5.8468 -17.7071,10.8579 -28.1952,10.1871 -9.7872,1.3451 -19.4396,-0.5697 -28.5568,-4.0672 -6.7096,-2.5003 -14.8991,-0.9045 -20.1386,-6.7644 -11.4867,-11.9801 -21.2965,-25.5322 -33.1914,-37.1797 -9.2139,-9.3704 -17.4435,-19.525 -22.214,-31.9188 -2.5759,-7.0459 -7.4166,-14.1461 -7.4266,-21.6906 9.637,-5.4599 24.7701,-5.6316 29.3945,-17.7089 1.1516,-6.0499 -6.1195,-12.8983 -11.9062,-9.0957 -14.4961,9.1018 -31.8595,12.1457 -48.7857,12.5593 -4.3216,0.5297 -13.1804,0.3327 -12.4995,6.8235 1.7464,6.4254 10.2344,6.2012 15.4805,7.3632 4.9561,0.7066 10.0528,0.6169 14.8847,2.0469 5.93,20.0959 12.3784,40.8751 26.3106,57.0547 7.9289,11.1211 18.5797,19.7593 27.5279,29.9426 12.6308,19.2006 35.2796,27.5328 55.3627,36.2586 10.3535,0.4486 20.707,0.8972 31.0606,1.3457 20.036,20.7765 44.7278,40.0619 74.1933,43.8906 9.7655,1.6265 20.0913,-1.0201 27.1366,-8.1722 3.0153,-4.4225 3.8177,2.1005 5.4494,4.0765 7.2719,14.5913 20.5554,26.4388 36.4355,30.6016 8.1823,1.1479 17.4516,-0.03 24.9414,-1.0625 -17.457,4.7794 -34.6967,10.3128 -52.0453,15.4755 -17.9331,4.5471 -36.753,3.1033 -54.9664,0.8428 -1.9882,-0.3664 -5.3301,-0.3172 -3.4043,-3.1894 4.9087,-9.7773 4.5812,-21.216 2.3359,-31.6543 -2.4376,-5.1924 -5.1534,-12.856 -11.75,-13.5235 -6.0062,-0.4533 -5.2986,7.2852 -5.7564,11.2496 -0.3647,10.0322 -3.4027,20.6989 -9.7846,28.7094 -7.2001,1.8099 -14.4029,-3.0192 -21.3184,-4.5549 -26.7104,-8.4985 -52.7129,-19.0221 -78.2206,-30.5837 6.7176,-5.7959 13.438,-11.6896 19.8828,-17.7618 3.1779,-2.4427 3.4613,-9.9705 -2.0176,-8.7988 -12.8318,4.9862 -25.8342,10.8756 -39.8809,9.9023 -15.3881,-0.601 -29.7367,-7.1786 -45.0156,-8.7773 -8.1326,-1.3034 -16.6189,-2.9169 -22.5195,-9.1875 -11.7143,-10.1911 -24.2228,-19.9366 -33.795,-32.2285 -2.9738,-7.2895 -2.7869,-15.5676 -0.8066,-23.2109 8.5766,-14.3658 6.0567,-33.8285 -5.1758,-46.0762 -13.6337,-16.566 -33.1141,-27.0381 -47.1191,-43.1563 -4.7167,-8.848 -2.4137,-19.7822 -0.6367,-28.9668 3.1489,-9.4659 4.5015,-21.473 13.7636,-27.1699 4.2011,-1.4454 8.8044,-2.7546 11.9688,-5.8965 21.7029,3.8856 43.9492,4.5561 65.9746,4.4844 17.6012,-0.8896 34.3369,-7.4935 51.8105,-8.2852 z m 511.7207,62.1426 c 0.5837,6.376 -5.6049,9.9002 -8.6953,14.6446 0.2191,-5.6842 -2.7883,-13.2483 4.8862,-14.6588 1.5818,-0.5185 4.8583,-3.879 3.8091,0.014 z m -898.17182,-1.8496 c 9.68494,9.5732 18.79161,19.6219 27.14648,30.3809 -5.11799,1.3105 -12.33868,-1.6722 -16.24609,2.7656 -1.58782,5.9793 6.04385,7.9211 10.51562,7.625 7.49264,0.676 16.64365,-1.9239 22.01563,4.9922 1.83075,2.0374 -5.05843,0.1888 -6.77149,0.4707 -6.51223,0.1497 -13.41435,-2.9579 -19.71875,-1.0195 -3.41032,3.3991 2.01975,6.4455 5.06055,6.8964 10.31617,3.4099 21.301,3.1613 31.89844,4.4532 4.47812,2.1235 8.13855,5.6239 11.96289,8.7168 -12.92445,0.9956 -26.10257,-1.294 -38.89454,0.7968 -4.38302,1.8509 -1.7056,7.7993 2.07422,8.5957 17.20524,5.9077 35.87197,4.7748 53.79357,5.8071 7.28846,0.3908 12.79292,6.8028 19.24662,9.9302 1.26866,1.1861 8.80896,4.6268 3.31138,3.6534 -27.3653,-2.3894 -54.7268,-6.0543 -80.79107,-14.7462 -10.36239,-5.205 -15.16492,-16.9763 -19.31831,-27.08 -6.57318,-16.6666 -5.03719,-34.7724 -5.38281,-52.3262 l 0.0977,0.088 z m 654.60942,20.291 c -9.882,0.6461 -20.4104,0.01 -29.7364,3.711 -4.1504,1.6941 -3.6838,8.6231 1.1778,8.6621 14.491,0.3895 29.1869,1.305 43.5839,-0.6582 4.8117,-1.2034 3.3621,-7.9068 -0.6679,-9.2207 -4.3546,-2.4184 -9.5781,-2.5589 -14.3574,-2.4942 z m 242.3066,1.9551 c -0.2144,11.3555 -2.7644,22.5537 -4.8262,33.6719 -0.8084,-10.9498 -2.1897,-23.4512 -2.0801,-33.5918 2.1148,1.7263 5.9754,-0.5943 6.9063,-0.08 z m -256.7734,12.2617 c -3.7484,-0.7702 -8.5592,1.9405 -6.6348,6.2051 3.02,4.4148 9.8225,2.102 14.2565,3.135 5.185,-0.6609 11.4058,2.3656 16.0482,-0.6409 2.7756,-4.6762 -3.3799,-8.2734 -7.4805,-8.1093 -5.3673,-0.6412 -10.7926,-0.602 -16.1894,-0.5899 z m 181.1679,30.2598 c -5.9405,0.4493 -5.6075,10.2456 0.3672,10.6836 3.5582,0.1799 6.7095,1.0707 9.7695,2.8242 9.8,2.4168 20.2811,4.9042 30.3555,3.0156 4.4088,-1.0309 8.5912,-7.9647 3.2695,-10.6679 -6.7453,-2.3816 -14.2741,-1.1096 -21.2091,-2.9684 -7.4306,-1.0752 -15.3787,-2.7716 -22.5526,-2.8871 z m -248.3906,11.1113 c 0.5626,14.7213 -0.5618,29.7151 3.5841,44.051 2.9074,14.9326 4.5986,30.3596 9.9764,44.7576 -15.0874,7.0439 -33.6201,9.7689 -48.7031,1.1465 -14.5429,-7.0239 -28.3539,-15.8354 -40.0273,-27.0625 12.684,-13.9106 26.4231,-27.0141 38.4004,-41.4961 2.4705,-6.6049 2.1112,-13.8453 2.7714,-20.7559 11.3069,-0.2175 22.7177,0.5582 33.9571,-0.9609 l 0.041,0.3203 z m 116.7695,19.1153 c 18.8014,2.1522 38.0225,1.4164 56.7774,2.4179 -1.4962,20.8874 -7.1435,41.569 -6.4894,62.7582 1.6911,6.3098 -2.6256,9.8717 -7.1319,13.3267 -3.9813,3.2738 -8.4021,7.6138 -12.7088,9.5323 -0.5613,-11.4113 -0.1439,-23.095 -4.5313,-33.918 -3.5985,-9.0027 -4.7864,-19.8269 -11.7421,-27.0332 -6.3263,-4.0172 -14.2538,3.3118 -12.92,10.1153 4.225,18.85 2.628,38.3446 3.4767,57.5457 2.0966,6.0335 -2.2379,7.5194 -7.0163,8.8807 -6.7793,2.6772 -13.856,6.0695 -20.2201,8.7728 6.1323,-4.9734 6.2534,-13.2935 7.3762,-20.2895 5.0178,-23.3453 11.4124,-46.584 12.3783,-70.6229 0.8775,-7.086 0.5481,-14.6335 2.7513,-21.486 z m -603.207,6.4492 c 12.70406,1.7153 25.79784,1.5003 38.336,3.3098 7.03195,4.2617 15.50575,8.5532 21.63861,13.0593 -13.91267,0.4611 -27.83228,-0.1679 -41.7461,-0.2871 -5.60541,-5.9946 -11.73007,-11.5293 -18.54492,-16.123 l 0.31641,0.041 z m 541.9121,11.0293 c 14.6889,3.5467 29.4132,8.569 44.7637,7.3515 -0.747,21.084 -6.6153,41.8197 -10.4727,62.5879 -1.4723,3.8039 -1.0538,10.1175 -5.3125,11.9199 -11.4393,-2.989 -23.3049,-7.5357 -32.1777,-15.5625 0.014,-13.6254 2.2937,-27.3053 2.1161,-41.0115 0.1943,-8.4842 0.099,-16.9716 0.1495,-25.4572 l 0.9336,0.1719 z m -348.9004,14.8926 c 11.3224,14.6313 25.758,26.6647 39.4961,38.996 -18.4598,0.3353 -37.1445,1.2077 -55.2363,-2.1543 -4.4011,-1.2878 -7.8438,-5.6766 -12.9336,-4.6464 -11.7152,-0.6039 -22.38599,-6.5254 -32.01564,-12.7676 18.01254,-3.6615 38.43834,-2.1634 53.96874,-13.5274 2.4405,-1.7225 4.0912,-4.4855 6.7207,-5.9003 z m -165.1992,0.2714 c 16.57802,1.4413 33.23515,1.6456 49.85547,2.3262 8.57781,5.557 4.43145,6.2756 -3.69516,5.4831 -14.43921,-0.6029 -29.15615,-0.078 -42.95328,-4.5163 -0.73001,-0.5669 -4.32017,-3.1957 -3.20703,-3.293 z m 751.9863,11.2012 c -4.5074,18.2585 -9.7144,36.364 -12.7839,54.9619 -0.6604,6.7336 -5.4845,14.3866 -13.2239,12.9502 -10.1508,-1.0131 -20.4641,-3.4104 -28.8984,-9.3398 -3.5294,-2.3198 -8.8864,-3.0438 -11.3457,-6.3711 -1.1602,-16.5296 0.2609,-32.949 1.3769,-49.4395 21.9502,1.6185 43.5369,-3.7918 65.3203,-5.4179 -0.1484,0.8854 -0.2968,1.7708 -0.4453,2.6562 z m -737.48826,5.7383 c 19.85957,2.4902 39.90042,2.7233 59.89258,2.5625 3.79248,2.2811 10.81345,5.1027 12.81055,7.2695 -21.82311,-2.6358 -44.17438,-2.6727 -66.19336,-4.1074 -1.74023,-1.678 -5.90558,-4.3467 -6.50977,-5.7246 z m -38.14257,1.8437 c 7.95714,8.1221 14.08397,17.9276 23.46016,24.6578 5.78567,5.2433 12.5365,9.6102 18.85234,13.8774 -2.65732,8.3748 -7.94623,16.8242 -15.55665,21.5625 -1.85094,0.7491 -2.88985,-2.1895 -5.0664,-1.5606 -6.62864,-0.8438 -13.33029,-0.4846 -19.99219,-0.5683 3.37064,-19.338 0.95791,-39.2211 -2.18359,-58.4375 l 0.48633,0.4687 z m 166.78513,36.5215 c 36.5978,7.2364 74.3392,5.1401 111.2227,3.0235 10.5666,0.9402 19.5684,7.7699 29.2422,11.5878 26.6508,12.3981 51.5005,28.1899 77.7461,41.3926 20.6519,10.4502 43.5679,14.8588 65.7031,20.7403 10.7786,12.2281 17.1167,27.7106 25.1074,41.7875 23.1311,41.4405 34.3679,88.0833 51.2051,132.2613 3.5178,6.0511 12.2344,9.1777 18.1094,4.4492 5.8275,-3.2736 5.7982,-10.8738 3.4531,-16.3183 -0.8473,-2.8707 0.2538,-6.7758 3.8591,-4.8224 15.0266,2.0617 29.5431,7.3374 44.5862,9.3966 5.7615,0.376 11.9565,-1.7994 16.9746,2.0996 15.6189,5.749 31.4432,11.488 47.7559,14.8496 3.2978,0.9013 6.4286,-3.1959 3.0566,-5.3906 -13.9163,-8.8439 -29.9097,-13.9792 -43.8379,-22.8907 -24.3819,-11.8151 -51.6201,-15.4518 -77.0957,-24.0586 -5.4307,-2.4393 -5.5692,-9.9421 -8.3379,-14.5097 -1.9952,-6.2842 -5.5049,-13.7049 -6.6308,-19.3653 27.592,1.3766 54.896,6.3028 82.2869,9.8159 36.0121,4.9044 71.7564,10.7834 106.9103,20.1197 13.8348,6.1631 27.8099,12.1462 41.417,18.818 7.8678,3.266 11.5387,11.7885 11.3682,19.6742 1.8664,6.2153 -0.4881,11.0537 -5.2305,15.1133 -12.7148,15.8298 -27.8815,30.0438 -46.5469,38.5332 -41.9254,21.9408 -87.7486,34.4386 -133.8379,44.0371 -39.9338,9.2239 -81.1113,12.0846 -121.6127,17.526 -14.8865,2.0575 -29.9773,0.2347 -44.9107,1.7982 -4.576,1.8009 -5.9525,7.5474 -9.7481,10.4874 -9.8654,10.2509 -18.9292,21.4232 -24.5292,34.6298 -2.1992,3.0259 -3.8442,8.7428 -8.2032,8.9922 -15.8871,-8.2866 -31.1906,-17.9683 -45.2714,-29.0489 -9.5202,-10.758 -22.3307,-19.8709 -37.188,-20.2642 -36.0747,-3.0067 -72.2919,-2.1068 -108.4019,-4.5478 -33.958,-1.2121 -67.77473,-4.0858 -101.35317,-9.4863 -23.13009,-2.7059 -46.0617,-6.8871 -69.15267,-9.6841 -16.8719,-5.3594 -34.88775,-4.9871 -52.13257,-8.6182 -11.36258,-1.5441 -22.4603,-4.4754 -33.51095,-7.4507 -23.44048,-3.8917 -45.42145,-13.0722 -68.83937,-17.56 -16.38205,-3.5136 -32.52056,-8.6849 -46.6629,-17.8916 -9.45779,-5.7715 -19.62285,-10.1785 -29.73312,-14.5615 -5.57355,-4.8769 -2.87785,-12.4724 0.66211,-17.7539 3.26736,-5.3855 9.57066,-7.8281 13.34766,-12.8867 6.6259,-6.0656 16.52548,-5.0091 24.55642,-8.0848 30.01431,-7.777 59.90447,-16.1264 89.23264,-26.1906 19.08609,-5.4055 39.44187,-4.0794 58.19726,-11.1524 25.81611,-6.4384 52.68372,-8.1229 79.23633,-7.834 -1.35483,14.3363 -2.99335,28.9924 -7.26367,42.7305 -6.35904,7.936 -18.05223,6.1456 -26.99435,7.4613 -23.05373,0.8788 -46.19554,2.8359 -68.43924,9.3239 -28.50339,7.8019 -57.46226,15.454 -83.86329,29.0312 -4.12334,2.0213 -11.06579,6.856 -6.92968,11.9785 5.00552,2.9839 10.67064,-2.1714 15.60547,-3.2343 25.57897,-10.0138 52.357,-16.3245 79.38979,-21.1569 11.78429,-3.1767 24.05163,-3.9164 35.8724,-6.9478 18.60003,-2.951 37.48063,-2.9694 56.11085,-5.2684 7.2704,-1.4666 8.04109,-10.479 12.86328,-14.8828 8.21466,-8.5039 12.02177,-19.9036 13.72709,-31.3676 3.98749,-23.4029 9.70758,-46.5588 17.40559,-69.0856 7.64314,-30.7299 20.80013,-60.0642 38.77553,-86.2616 8.40921,-14.459 18.12036,-28.0568 29.24836,-40.5597 3.7325,-4.128 6.9369,-9.2423 11.3161,-12.5634 l 0.707,0.041 z m -68.69138,6.084 c -9.75683,10.5121 -22.58566,17.3447 -33.32618,26.6504 -6.47441,3.0122 -11.89071,8.0086 -18.19922,11.0664 -2.63484,-0.1432 -4.63057,-2.402 -2.22796,-4.4959 5.93824,-10.4901 10.86393,-21.5124 16.14203,-32.34 12.5122,-0.2926 25.1948,-0.7673 37.61133,-0.8809 z M 1075.4082,1459 c -6.8017,2.2567 -10.5686,9.504 -15.2712,14.4754 -36.4629,47.4886 -60.5364,103.6839 -75.19283,161.4877 -5.1031,19.5413 -8.58204,39.5597 -8.80745,59.7791 -0.95417,4.4879 -7.32513,4.4962 -10.84961,6.082 -6.66515,1.2972 -14.48253,3.3185 -20.67969,0.018 -3.03891,-2.8852 -3.69032,-6.8516 -3.70898,-10.7344 -1.96903,-3.4836 -6.24448,-7.7666 -10.53516,-6.457 -6.1037,4.1748 -4.43101,13.4473 -1.26953,19.0234 4.7359,6.2652 10.8846,13.9505 19.74023,12.7852 11.70186,0.4268 24.069,-2.1233 33.70313,-8.9121 4.21411,-10.5451 2.86616,-22.4589 5.10156,-33.4864 7.2836,-44.8802 22.85283,-88.3093 42.52963,-129.1694 13.5281,-27.2278 29.0632,-53.4028 47.3512,-77.6489 2.2824,-2.5152 2.4334,-7.6115 -2.1113,-7.2422 z m 14.3066,32.627 c -8.1245,6.9298 -11.3044,17.8475 -15.9296,27.1347 -13.5646,33.7009 -19.9442,69.8571 -24.3965,105.7617 -2.4272,23.3639 -3.9476,47.0349 -2.127,70.4727 0.02,3.4305 5.2449,2.8592 4.2969,6.5098 2.4188,11.0278 11.8334,18.8256 19.0605,26.8906 8.006,8.6661 20.1736,12.1304 31.5782,13.164 7.0409,0.7061 12.1922,-4.8247 14.8906,-10.7109 3.584,-7.43 8.9542,-14.8754 9.3633,-23.3027 -0.6561,-4.7261 -7.3916,-8.3941 -10.3438,-3.3672 -5.272,6.1121 -10.446,13.2965 -16.6914,17.8186 -5.945,-0.4856 -12.7271,1.0787 -18.1872,-0.5984 -6.9355,-6.9998 -15.0982,-13.6386 -18.1663,-23.3706 -0.9545,-3.9098 -7.0357,-3.7171 -6.3301,-8.1914 -1.0193,-53.6673 7.1505,-107.2451 22.9022,-158.5573 3.6021,-12.8626 9.873,-24.7519 14.3693,-37.2435 1.1094,-2.6246 -3.8267,-4.7194 -4.2891,-2.4101 z m 37.2325,1.1562 c -6.1385,1.574 -5.8631,9.7714 -6.0637,14.8119 -1.1314,60.074 -0.6925,120.1927 0.9934,180.2526 0.5173,4.2964 -0.8678,12.998 5.2968,13.5507 4.2252,-2.418 2.4622,-8.7971 3.3555,-12.8379 1.4529,-61.0194 1.1232,-122.0785 0.9072,-183.1131 -0.4445,-3.8995 1.4072,-11.9759 -4.4892,-12.6642 z m 35.4843,1.2188 c -5.057,1.3663 -2.9313,8.3008 -2.914,12.0625 4.6327,28.4336 9.4217,56.9325 10.8994,85.7132 3.1251,39.3813 5.1714,78.8426 7.5185,118.2555 0.5997,7.8653 8.8262,12.0012 13.4493,17.4414 6.7435,6.0458 13.5759,13.24 23.1767,13.975 15.3008,4.6611 32.2173,-3.857 40.0264,-17.2582 2.1689,-3.8281 3.7088,-12.2085 -2.6367,-12.6211 -8.3265,1.464 -12.1065,10.8384 -20.0039,13.5313 -7.4408,3.5332 -16.8256,4.0748 -23.4121,-1.4746 -9.8437,-3.9044 -16.8176,-13.1555 -20.711,-22.6739 -4.365,-39.4721 -4.4716,-79.6082 -8.3704,-119.2654 -2.7205,-28.3613 -6.4568,-56.8044 -13.7272,-84.385 -0.5203,-1.4747 -1.3958,-3.4777 -3.295,-3.3007 z m 43.7383,3.8398 c -5.2882,1.5952 -1.7177,8.4476 -0.6552,11.9104 10.5279,24.49 22.4081,48.6837 28.1944,74.8132 8.7025,32.4558 7.7234,66.4306 10.5341,99.7979 1.1324,7.3939 -0.3419,15.7053 2.9306,22.5762 3.7801,2.8113 5.8024,-2.9641 5.2227,-5.9375 1.3793,-36.7884 2.2538,-74.2518 -7.2821,-110.1492 -5.6795,-25.1502 -14.3256,-49.5314 -25.8245,-72.6097 -3.7017,-6.6229 -5.8995,-14.5749 -11.1356,-20.1181 -0.6388,-0.1993 -1.3112,-0.3696 -1.9844,-0.2832 z m -205.8808,12.7949 c -5.63341,2.8613 -8.5424,9.4791 -12.33012,14.334 -11.5593,20.4347 -18.60713,43.0929 -25.94609,65.2954 -6.76554,23.4528 -13.09061,47.2782 -15.46016,71.6284 -0.84074,3.0113 1.2306,9.5557 5.14063,6.2813 3.78985,-7.0705 2.99681,-15.7593 5.36347,-23.3503 9.40462,-44.5092 22.89213,-88.576 44.54207,-128.7915 1.0538,-1.8406 2.0604,-5.4579 -1.3098,-5.3973 z m 250.4297,8.3438 c -5.4208,0.4686 -4.5155,7.4172 -2.709,10.8672 9.7914,26.3443 19.3988,52.6084 26.7627,79.7422 5.8182,19.479 10.1129,39.384 14.4677,59.2324 3.8453,11.5859 7.8731,24.9406 19.6211,30.9082 7.2002,3.7398 14.7367,10.5936 23.4063,8.9863 3.1794,-1.9307 4.5404,-6.0086 8.3828,-7.3945 2.8225,-2.8739 7.1591,-2.2823 9.9668,-4.7852 6.5105,-8.0724 8.8579,-19.3351 5.4844,-29.2519 -10.6718,-42.9194 -27.0089,-84.1525 -43.7398,-124.9991 -1.161,-3.7431 -2.5642,-11.1348 -8.1587,-9.4091 -5.3676,3.2546 -1.0305,10.1829 0.1864,14.5509 15.7251,39.9903 30.8314,80.2764 42.298,121.7596 -2.9242,8.5556 -5.7895,17.1918 -8.8027,25.6641 -8.7691,-0.1008 -17.1327,-3.9649 -22.2852,-11.1485 -5.9815,-7.8099 -13.4436,-15.1882 -18.1523,-23.5722 -5.5761,-17.3958 -8.3022,-35.6017 -13.6193,-53.0994 -7.9568,-29.457 -18.3372,-58.2739 -29.9139,-86.4436 -0.7677,-0.9631 -1.9471,-1.6215 -3.1953,-1.6074 z m 184.1562,188.7754 c -4.9481,-0.4164 -12.3631,1.0974 -12.0684,7.4648 -0.7007,7.4472 7.8455,10.6329 13.3633,13.0898 15.2751,0.8136 30.7671,0.2576 45.918,-1.8867 4.1646,-0.9728 11.5353,-4.163 9.0723,-9.6426 -3.6603,-4.2972 -10.4385,-3.5713 -15.4571,-5.0957 -13.4955,-2.1275 -27.1435,-3.9333 -40.8281,-3.9296 z m -28.3809,28.8828 c -4.9815,-0.8488 -10.8031,6.5061 -5.5039,9.9062 11.1768,5.7312 23.9153,7.7871 36.071,10.6226 8.4198,1.0671 18.173,3.7846 25.9212,-0.9273 3.1989,-2.0719 3.3232,-6.8892 -0.373,-8.4453 -8.8257,-5.5101 -19.5942,-3.9029 -29.1992,-6.7832 -8.9378,-1.5336 -17.8167,-4.0536 -26.9161,-4.373 z m -540.40035,6.1738 c -18.10339,1.158 -36.37575,2.9134 -53.97656,7.4531 -5.43471,0.7161 -10.43839,6.8269 -6.76758,11.8985 5.24312,5.3745 13.91388,2.6477 20.46094,2.1152 16.90434,-3.1229 33.58537,-7.5016 50.4707,-10.6211 4.69496,-0.847 5.38832,-7.2845 1.25,-9.3848 -3.49658,-1.7247 -7.65697,-1.4209 -11.4375,-1.4609 z m 737.63475,8.5781 c -16.1502,48.6584 -33.2105,97.154 -51.9362,144.8205 -4.7154,10.8003 -6.3254,22.6046 -10.89,33.5057 -5.5312,17.6106 -13.4015,34.7977 -15.7929,53.2227 -0.2348,15.6488 -8.4172,29.7479 -13.1401,44.3361 -3.1887,6.9237 -4.8688,14.9021 -9.2857,20.9549 -21.3761,12.9984 -45.267,21.0624 -69.0176,28.7715 -69.2389,21.3002 -141.9165,26.2906 -213.9774,27.0082 -5.6196,0.8934 -12.682,-0.988 -17.3878,2.8023 -0.6443,1.6849 -0.013,3.5395 -2.7852,2.9551 -39.7011,0.8946 -79.3506,-2.6369 -119.0664,-1.0399 -35.9151,-0.8754 -71.7134,-4.9347 -107.33787,-9.0402 -60.72446,-8.8543 -121.02057,-23.1677 -178.58399,-44.6973 -9.1643,-4.2007 -19.63961,-6.6558 -27.42578,-13.2363 -2.44313,-4.2206 -4.60405,-9.0068 -8.80859,-11.6601 -9.09675,-21.2203 -14.90474,-44.2837 -23.86322,-65.8721 -26.25283,-68.7349 -55.6756,-136.2879 -81.62116,-205.1026 -0.3447,-2.1287 -4.2904,-8.889 0.32422,-6.2773 31.04906,15.8453 64.0823,30.1703 99.25586,33.2988 23.45682,4.3527 46.36336,11.9634 69.93176,16.3443 57.66171,11.7847 115.84302,21.324 174.3706,27.5841 43.51257,4.8612 87.60547,0.8848 130.98477,4.9642 18.2923,4.5861 38.6057,3.8551 54.3984,15.5684 10.6426,6.3414 18.8778,15.578 28.3125,23.4785 9.6247,6.1283 19.9957,12.4853 31.5235,13.8672 8.9094,0.6295 12.4407,-9.1611 16.3268,-15.3033 8.3879,-15.8998 19.0823,-30.6925 31.3997,-43.7299 3.4061,-1.8098 10.3707,-2.0728 12.3477,-1.8477 -3.8974,3.6535 -2.7368,9.6859 -5.8875,13.8852 -16.482,34.5157 -34.3249,68.6684 -49.0285,104.0777 -1.6722,3.8233 0.8052,11.157 5.916,8.5176 5.3344,-4.8909 7.0526,-12.7309 10.9804,-18.711 16.153,-30.3995 30.4295,-61.9358 49.0606,-90.9375 3.7894,-3.9012 8.8446,-10.478 4.1914,-15.6855 -0.6509,-1.5862 -5.2758,-3.2914 -1.3019,-3.0488 20.4388,-2.2331 40.7569,-5.146 61.2726,-5.543 15.6419,-2.6271 31.4827,-2.8043 47.084,-5.4824 29.6669,-9.3643 60.4885,-14.8126 89.9597,-24.9728 31.2156,-9.8517 61.0114,-23.6609 89.5579,-39.5858 1.4334,-1.253 -0.2613,1.7164 -0.061,1.8105 z m -666.67772,3.8711 c -6.37409,0.4151 -11.48212,5.3605 -17.53949,6.8809 -6.94857,3.5964 -16.09231,4.7998 -21.11676,11.2519 -2.5407,4.7148 2.36619,9.8626 7.33203,8.6075 12.42357,-1.884 24.59471,-6.3339 35.53321,-12.4942 5.04832,-2.1266 7.87277,-9.9353 2.15039,-12.9668 -2.02469,-0.9777 -4.25662,-1.3339 -6.35938,-1.2793 z m 365.82222,7.4805 c -4.4248,-0.4168 -5.577,5.2475 -2.916,8.0312 8.1861,11.971 23.5275,15.0347 35.9955,20.6445 4.6018,2.1163 11.9126,5.0054 15.0104,-0.9589 2.785,-4.7896 -2.1319,-9.6122 -6.7667,-10.3075 -13.7875,-5.6806 -27.1133,-12.911 -41.3232,-17.4093 z m -283.5312,9.3769 c -9.2004,1.7033 -16.8537,7.9509 -25.04198,12.1823 -4.10213,2.4566 -11.94728,6.2059 -9.0088,12.2709 4.10585,5.7319 11.58158,0.4517 16.34568,-1.4043 7.9051,-4.5379 17.7184,-7.5761 23.1992,-15.2715 2.2851,-3.9559 -1.0795,-8.4251 -5.4941,-7.7774 z m 184.8398,2.5547 c -4.2531,-0.1604 -4.8987,5.3271 -2.2597,7.791 6.8546,10.4312 13.4711,21.4295 22.373,30.2188 3.6885,2.4118 10.3711,-0.3488 8.4317,-5.2578 -5.5027,-12.0054 -11.4496,-25.9658 -24.2461,-31.7578 -1.6202,-0.6237 -2.4301,-1.2203 -4.2989,-0.9942 z m -77.5957,1.9668 c -5.6649,-0.8175 -9.7005,3.584 -11.5837,8.4194 -2.1006,5.2973 -8.1698,11.6146 -4.6233,17.5045 4.0027,5.9415 12.4109,1.0445 14.4883,-4.2071 2.625,-6.0449 6.7406,-12.1964 6.6387,-18.9492 -0.5063,-2.2289 -2.9124,-2.9058 -4.92,-2.7676 z m -397.41598,45.5508 c -3.49045,-0.9844 -6.48618,3.9214 -2.51562,5.5274 17.29673,5.9856 35.72651,8.1005 53.5394,12.1579 35.79203,6.7096 72.25147,15.0523 108.86685,11.3421 3.99253,0.093 5.48712,-5.5605 1.46875,-6.9278 -12.17961,-2.9475 -25.07158,-2.2397 -37.4954,-3.879 -41.1979,-3.7124 -81.40987,-13.9553 -122.53976,-18.205 -0.44097,0.039 -0.88299,-0.031 -1.32422,-0.016 z m 439.84378,34.4922 c -4.4388,2.6461 -2.0369,9.2911 -0.9961,13.2852 7.7317,19.6475 21.3139,36.3176 34.1466,52.8409 5.2095,5.5001 9.4768,12.907 16.5858,16.0399 4.5731,-0.019 1.9779,-5.1198 0.1152,-7.0742 -14.6997,-22.0596 -33.1832,-42.295 -43.1406,-67.0449 -0.4733,-3.3856 -3.4503,-5.9577 -4.0976,-8.8887 -0.8711,0.2806 -1.7422,0.5612 -2.6133,0.8418 z m -406.21682,11.457 c -5.17289,-1.5469 -10.40182,5.2691 -4.30274,7.9219 17.89669,5.7409 36.76533,8.0708 55.16211,11.8203 31.99145,5.5222 64.42317,11.9721 97.03516,9.377 3.43335,0.1352 6.6624,-4.4588 2.71484,-6.3907 -10.87623,-3.9227 -22.91587,-3.0118 -34.21323,-5.1279 -37.00834,-4.0222 -73.47421,-11.5863 -110.25943,-17.2451 -2.0386,-0.207 -4.08578,-0.381 -6.13671,-0.3555 z m -5.88477,32.4961 c -4.52577,-1.2514 -8.77297,5.3062 -3.33008,7.2129 21.62517,8.4746 44.699,12.6006 67.35266,17.411 17.49992,3.7663 35.3381,5.8189 53.25254,4.8374 6.2725,-0.8194 14.54641,1.1694 19.34402,-3.9769 2.41519,-4.372 -3.32069,-6.7589 -6.8418,-6.6856 -24.61409,-2.1247 -49.4471,-3.0321 -73.59811,-8.4662 -18.70162,-3.0454 -37.20597,-9.0022 -56.17923,-10.3326 z m 6.33789,33.4082 c -3.62351,-1.0105 -8.96029,3.497 -4.60547,6.3555 14.27931,5.4933 29.62952,7.876 44.43945,11.6465 27.57633,6.1108 55.99394,9.593 84.2461,7.7812 4.27224,0.8075 9.60893,-6.1731 3.71875,-7.6816 -28.61791,-3.1386 -57.42859,-3.5748 -85.54643,-10.103 -14.01745,-2.6347 -28.05414,-7.5333 -42.2524,-7.9986 z m 10.95703,27.9766 c -4.21827,-1.2141 -10.82623,4.3447 -5.00781,7.1152 21.9702,7.65 44.54839,13.6892 67.22266,18.918 23.1475,4.4962 46.56041,10.8682 70.33398,9.1543 3.1582,0.4126 8.01616,-3.1852 4.2793,-5.9688 -12.86194,-4.8078 -26.96913,-5.3799 -40.34001,-8.3021 -31.57392,-5.018 -62.37993,-13.519 -93.52327,-20.7584 -0.98268,-0.1216 -1.97447,-0.1829 -2.96485,-0.1582 z m 10.40039,36.3594 c -4.13091,0.796 -3.6942,6.3904 -0.11719,7.7265 20.27328,10.2109 42.83336,15.0825 65.01015,19.2862 18.00179,2.6276 36.67559,5.8132 54.74962,2.2334 5.57186,-0.6406 4.15583,-8.1769 -1.02539,-7.8868 -21.11614,-2.0902 -42.37013,-2.9078 -63.16797,-7.5254 -18.02278,-3.1634 -35.30038,-9.4736 -53.13086,-13.6503 0.48125,-1.3702 -1.79773,0.053 -2.31836,-0.1836 z m 4.01172,23.6796 c -5.63146,1.5962 -3.11792,10.097 2.11133,10.4336 27.33182,8.843 54.88219,17.5088 83.14403,22.8551 9.48398,1.1345 20.04109,2.7272 29.01417,-1.3512 3.81399,-3.1581 -0.82754,-7.8002 -4.625,-7.5351 -23.65555,-2.9188 -46.80753,-7.9899 -69.77587,-14.6424 -13.14719,-3.3129 -26.81576,-7.9839 -39.86866,-9.76 z"
     style="color:#000000;clip-rule:nonzero;display:inline;overflow:visible;visibility:visible;opacity:1;isolation:auto;mix-blend-mode:normal;color-interpolation:sRGB;color-interpolation-filters:linearRGB;solid-color:#000000;solid-opacity:1;fill:#000000;fill-opacity:1;fill-rule:nonzero;stroke:none;stroke-width:0.9375px;stroke-linecap:butt;stroke-linejoin:miter;stroke-miterlimit:4;stroke-dasharray:none;stroke-dashoffset:0;stroke-opacity:1;color-rendering:auto;image-rendering:auto;shape-rendering:auto;text-rendering:auto;enable-background:accumulate" />
</svg>
