<?xml version="1.0" encoding="UTF-8" standalone="no"?>
<!-- Created with Inkscape (http://www.inkscape.org/) -->

<svg
   xmlns:dc="http://purl.org/dc/elements/1.1/"
   xmlns:cc="http://creativecommons.org/ns#"
   xmlns:rdf="http://www.w3.org/1999/02/22-rdf-syntax-ns#"
   xmlns:svg="http://www.w3.org/2000/svg"
   xmlns="http://www.w3.org/2000/svg"
   xmlns:sodipodi="http://sodipodi.sourceforge.net/DTD/sodipodi-0.dtd"
   xmlns:inkscape="http://www.inkscape.org/namespaces/inkscape"
   id="svg2"
   version="1.1"
   inkscape:version="0.91 r13725"
   width="2268.8567"
   height="2268.8572"
   viewBox="0 0 2268.8567 2268.8572"
   sodipodi:docname="cultura.svg">
  <metadata
     id="metadata8">
    <rdf:RDF>
      <cc:Work
         rdf:about="">
        <dc:format>image/svg+xml</dc:format>
        <dc:type
           rdf:resource="http://purl.org/dc/dcmitype/StillImage" />
        <dc:title />
      </cc:Work>
    </rdf:RDF>
  </metadata>
  <defs
     id="defs6" />
  <sodipodi:namedview
     pagecolor="#dcdcdc"
     bordercolor="#666666"
     borderopacity="1"
     objecttolerance="10"
     gridtolerance="10"
     guidetolerance="10"
     inkscape:pageopacity="0"
     inkscape:pageshadow="2"
     inkscape:window-width="1920"
     inkscape:window-height="1017"
     id="namedview4"
     showgrid="false"
     fit-margin-top="0"
     fit-margin-left="0"
     fit-margin-right="0"
     fit-margin-bottom="0"
     inkscape:zoom="0.20127932"
     inkscape:cx="1971.1742"
     inkscape:cy="363.83355"
     inkscape:window-x="-8"
     inkscape:window-y="-8"
     inkscape:window-maximized="1"
     inkscape:current-layer="svg2" />
  <path
     style="color:#000000;clip-rule:nonzero;display:inline;overflow:visible;visibility:visible;opacity:1;isolation:auto;mix-blend-mode:normal;color-interpolation:sRGB;color-interpolation-filters:linearRGB;solid-color:#000000;solid-opacity:1;fill:#ffffff;fill-opacity:1;fill-rule:nonzero;stroke:none;stroke-width:1.06993353px;stroke-linecap:butt;stroke-linejoin:miter;stroke-miterlimit:4;stroke-dasharray:none;stroke-dashoffset:0;stroke-opacity:1;color-rendering:auto;image-rendering:auto;shape-rendering:auto;text-rendering:auto;enable-background:accumulate"
     d="m 1377.9438,501.75871 c -25.6899,-0.0513 -49.3528,0.66811 -68.0488,2.28515 -32.8505,2.84129 -35.1297,4.52318 -58.2246,42.94531 -13.2195,21.99291 -33.1611,63.59695 -44.3145,92.45508 l -20.2773,52.47071 -32.4375,-4.82813 c -40.7692,-6.06714 -45.1966,-9.87605 -64.6465,-55.60351 -24.1243,-56.717 -31.4229,-62.4004 -80.1192,-62.4004 -102.57876,0 -251.05686,25.12554 -335.76356,56.81836 -97.7217,36.56239 -267.4972,176.82126 -331.9141,274.20896 -14.9719,22.6353 -29.8114,41.1543 -32.9785,41.1543 -9.9943,0 15.2886,72.55096 47.9394,137.56246 l 31.4336,62.5899 -47.5234,37.3476 c -34.6641,27.2415 -52.08,47.1288 -64.3555,73.4903 -19.3136,41.4763 -21.8118,88.3226 -6.3105,118.2988 11.2632,21.7807 17.6376,24.9006 66.3769,32.4824 34.7198,5.4009 41.0112,13.7276 48.5899,64.2949 4.0393,26.9507 11.3445,41.7666 29.582,60.0078 23.4381,23.4429 25.6465,24.1037 68.7051,20.5821 24.4689,-2.0012 77.9879,-14.2907 118.9316,-27.3106 73.6718,-23.4273 74.6736,-23.5382 96.625,-10.709 60.5741,35.4018 149.8681,76.7755 177.4004,82.1954 42.2268,8.3126 45.6897,8.3233 100.9707,0.33 26.74526,-3.8671 60.79436,-13.2382 75.66406,-20.8242 45.6018,-23.2642 107.0374,-78.0181 127.3535,-113.5019 10.6169,-18.5434 20.388,-35.1056 21.7148,-36.8047 1.3266,-1.6992 12.8317,6.9934 25.5665,19.3164 30.9534,29.9526 77.2854,49.4888 140.7148,59.3301 57.916,8.9861 96.1363,5.3326 154.5644,-14.7696 39.5247,-13.5985 119.4943,-61.8689 171.6309,-103.5976 27.4353,-21.9586 30.7684,-22.7783 79.9219,-19.6953 36.1943,2.2702 61.9163,-0.312 87.3808,-8.7696 35.8782,-11.9168 36.2676,-11.8804 67.4317,6.3828 45.4107,26.6126 60.9313,23.901 120.1933,-20.9961 28.5784,-21.651 55.0392,-39.3652 58.8008,-39.3652 13.9135,0 -0.5074,-62.9884 -21.498,-93.9043 -11.7069,-17.242 -30.5135,-48.5119 -41.793,-69.4883 -12.5802,-23.3952 -28.9428,-42.3943 -42.3262,-49.1484 -11.9996,-6.0557 -28.4164,-17.0293 -36.4824,-24.3848 l -14.666,-13.373 48.6641,-97.15036 c 26.7645,-53.4331 48.6621,-103.6054 48.6621,-111.4922 0,-16.8225 -127.4794,-150.74612 -186.0899,-195.49609 -92.2393,-70.42614 -175.6082,-106.74131 -297.4492,-129.57226 -43.0579,-8.06832 -121.9475,-13.2323 -187.5996,-13.36328 z m 33.7695,289.80663 c 11.6979,0.1921 16.1449,4.9597 28.4883,16.1172 14.5601,13.1609 18.6527,18.8583 15.7207,21.8887 -6.1299,6.3358 -40.7769,7.7886 -57.2383,2.4004 -8.0727,-2.6424 -24.5889,-10.2524 -36.7031,-16.9122 l -22.0254,-12.1093 24.1778,-4.3828 c 24.9974,-4.5318 38.4817,-7.1514 47.58,-7.002 z m -453.46676,73.8984 23.5762,0 -16.8437,18.3633 c -27.2918,29.7533 -54.8546,43.6188 -94.6797,47.625 -16.6666,1.6766 -20.5782,1.0683 -20.5782,-3.1972 0,-9.0555 27.4552,-32.1571 56.7969,-47.7911 24.8625,-13.2473 30.906,-15 51.7285,-15 z m 692.96286,39.6641 c 2.4654,0.0169 5.7214,0.2977 9.9766,0.8008 49.392,5.8394 63.5755,9.3954 69.9277,17.5332 3.5236,4.5141 12.8723,15.8577 20.7754,25.207 l 14.3692,16.9981 -20.7754,-0.3086 c -11.4268,-0.1692 -24.8019,-1.5349 -29.7227,-3.0371 -27.3583,-8.3523 -71.5723,-41.1157 -71.5723,-53.0352 0,-2.956 1.5977,-4.1953 7.0215,-4.1582 z M 656.60594,1019.3466 c 7.7993,0 14.1816,0.9175 14.1816,2.039 0,5.4931 -23.1391,34.6551 -34.1796,43.0762 -6.8815,5.2487 -28.9182,15.7651 -48.9707,23.3691 -40.9834,15.5412 -38.5254,14.8489 -38.5254,10.8614 0,-6.2414 22.3251,-36.277 37.0625,-49.8614 17.4824,-16.1147 49.4198,-29.4843 70.4316,-29.4843 z M 1896.143,1135.7509 c 0.6774,-0.038 1.3002,0.094 1.8945,0.3593 3.0821,1.3776 9.7843,2.6425 14.8946,2.8125 12.6276,0.42 19.6512,6.938 37.5722,34.8653 9.3365,14.5494 21.7877,28.2936 31.9922,35.3144 15.2386,10.4845 16.5116,12.4638 14.4981,22.5313 -2.895,14.4747 -15.4277,27.4843 -26.4766,27.4843 -5.3129,0 -14.9904,-5.6891 -24.3476,-14.3144 -12.4632,-11.4881 -18.1951,-14.2993 -29.0293,-14.2363 -17.7132,0.1032 -40.7209,10.8122 -60.3516,28.0918 -15.5056,13.6485 -37.0845,21.9316 -57.1406,21.9316 l -9.5664,0 11.4922,-13.4199 c 6.3211,-7.381 23.3338,-31.9411 37.8046,-54.5762 38.651,-60.4576 50.2162,-76.4803 56.7637,-76.8437 z m -815.3008,29.2324 c 6.7235,0.3178 6.2922,15.8794 6.2871,49.4023 -0.01,59.6127 -5.2263,73.4476 -40.0332,106.1914 -32.8336,30.8874 -56.1191,44.1043 -108.45496,61.5528 -60.621,20.2106 -98.7676,24.491 -127.7559,14.3378 -8.5662,-3.0003 -23.1881,-10.1383 -32.4922,-15.8632 -9.3041,-5.7249 -24.7003,-13.852 -34.2148,-18.0606 -19.4765,-8.6155 -17.6208,-11.5615 9.7734,-15.5156 38.5238,-5.5606 107.3881,-33.5316 130.6133,-53.0508 9.2957,-7.8123 20.8314,-13.6992 29.8144,-15.2168 8.3386,-1.4088 19.7414,-6.9444 26.4649,-12.8476 6.4975,-5.7049 14.2225,-10.3731 17.166,-10.3731 2.9437,0 7.1403,-2.1552 9.3262,-4.789 2.1859,-2.6339 10.5457,-6.7574 18.5781,-9.1641 10.78626,-3.2316 25.22006,-14.6596 55.21086,-43.7129 22.2803,-21.5839 33.7843,-33.1711 39.7168,-32.8906 z m 321.8008,35.9043 29.9219,15.0449 c 16.4571,8.2744 35.5223,20.9739 42.3672,28.2207 12.042,12.7491 33.2559,51.427 33.2617,60.6426 0,2.487 2.0138,7.7397 4.4707,11.6738 3.6487,5.8425 3.4635,8.949 -1.0137,16.9512 -8.6052,15.3805 -17.5183,13.9613 -40.914,-6.5117 -11.5669,-10.122 -26.7919,-22.1396 -33.834,-26.7051 -19.3193,-12.5248 -56.5682,-22.4949 -101.3906,-27.1387 -56.1288,-5.815 -56.3497,-5.9292 -56.3497,-29.5234 0,-11.7669 1.8706,-20.8872 4.7813,-23.3028 11.2362,-9.3252 38.6509,-15.4594 77.5352,-17.3496 l 41.164,-2.0019 z m -962.04096,32.455 c 8.2587,0.099 10.9241,2.9637 19.6914,15.1778 42.4486,59.1366 128.6423,168.8232 140.1426,178.3398 3.2643,2.7013 5.9355,6.0778 5.9355,7.5039 0,2.5294 -68.0508,12.6172 -107.3613,15.9161 -10.8255,0.9084 -25.2404,0.277 -32.0332,-1.4043 -18.6463,-4.6153 -22.6372,-12.2847 -20.0625,-38.5469 3.4205,-34.889 -6.4332,-48.271 -48.1074,-65.3379 -39.7298,-16.2708 -53.6355,-43.986 -33.8613,-67.4863 16.7808,-19.9429 52.5,-42.685 68.9023,-43.8692 2.6453,-0.191 4.8481,-0.3157 6.7539,-0.293 z"
     id="path4189-5"
     inkscape:connector-curvature="0" />
  <path
     style="fill:#000000"
     d="m 1386.2617,512.92773 c -32.7388,-0.19986 -65.6289,4.5647 -97.4726,10.88086 -1.1851,-5.03473 -8.2406,-3.60469 -10.5059,0.14258 -32.3805,38.73828 -52.0845,86.01243 -71.043,132.29688 -5.5933,14.28506 -10.8308,28.70984 -15.9707,43.16015 -8.0512,0.0833 -18.3136,-3.16533 -24.539,3.46289 -13.614,-7.25621 -29.5932,-8.39708 -44.3575,-12.33984 -4.2563,-0.38899 -10.1444,-0.49762 -10.5551,-6.05727 -12.0435,-23.46865 -21.6064,-48.12493 -31.6876,-72.37065 -4.7957,-7.58329 -9.9454,-15.12499 -14.7924,-22.54474 -7.098,-5.46912 -16.7293,-5.29745 -25.1856,-6.67382 -47.10851,-3.24579 -94.07661,3.20151 -140.97899,6.56045 -67.34456,6.76694 -134.68447,18.85185 -198.05222,43.27548 -24.6743,8.28568 -49.31563,17.45247 -71.16303,31.87142 -43.32418,25.36087 -85.15892,53.44904 -123.31376,86.15636 -31.47942,26.6017 -60.23028,56.23907 -89.33375,85.35504 -30.75702,33.7392 -59.1903,70.0806 -80.57765,110.54587 -0.88578,2.85 -1.84209,4.45381 -3.78563,1.13772 -2.65042,-3.73798 -10.7648,-4.98383 -10.69532,1.18359 0.48512,5.28143 6.90358,7.72758 6.38086,13.50977 5.66622,24.62827 13.34963,48.75803 23.77523,71.80003 15.51067,35.9359 34.52476,70.219 54.10368,104.0652 -5.80955,5.2529 -13.65911,10.7457 -13.63281,19.4746 -25.41726,13.8067 -45.97112,34.5991 -69.10566,51.637 -16.51876,15.2827 -25.33566,36.6421 -34.64748,56.6215 -6.29482,17.4007 -12.08895,35.6821 -11.77616,54.3626 1.26368,16.9413 5.67674,33.7574 12.62097,49.2278 7.97349,14.9235 24.47495,23.1207 40.87132,24.5453 18.99239,3.0631 39.97273,2.6477 56.38076,14.0238 9.72869,10.8327 12.31135,26.3114 14.36821,40.3853 3.05987,20.7625 6.4429,42.0862 15.7978,61.0776 8.3134,13.0322 22.81293,20.2829 36.06055,27.2402 17.11893,6.8087 36.21064,6.9456 54.25586,5.0176 33.4241,-6.1429 66.72942,-13.4599 98.80583,-24.8446 26.30478,-8.9398 52.69888,-17.6736 79.4637,-24.9816 3.01594,-1.7595 5.70504,-4.0436 8.65394,-0.7573 24.32071,15.6467 49.10883,30.5421 74.72692,43.9839 33.68021,17.9047 68.07257,35.0452 104.46094,46.7461 32.25371,7.6473 66.05264,9.2954 98.74487,3.4554 16.2877,-2.259 32.65762,-4.3731 48.81752,-6.7117 24.8117,-5.8669 47.821,-17.9062 67.6577,-33.8092 17.6227,-11.9906 34.705,-24.8521 49.544,-40.2299 14.7048,-14.2788 30.0324,-28.4802 41.5621,-45.4832 7.2103,-16.0204 17.7133,-30.2739 24.9368,-46.3648 3.0348,-0.084 7.1735,6.0371 10.591,8.4557 21.7838,19.7946 42.8266,42.4524 71.272,52.5309 19.0655,7.2255 39.177,11.0158 58.876,16.0454 29.6869,5.9991 60.0248,8.8099 90.2806,9.34 9.6475,0.024 18.2374,-4.9549 27.842,-5.412 20.2942,-3.0875 40.2945,-8.25 59.2914,-15.9475 12.1574,-3.8976 23.5867,-9.5338 35.2774,-14.5137 24.8756,-14.1802 48.4742,-30.3731 72.8565,-45.4589 29.6394,-18.4367 55.7942,-41.9259 83.163,-63.254 0.9889,-2.4446 2.9273,-4.7549 5.2539,-5.8457 12.178,12.0806 30.9688,10.1258 46.6502,10.6082 25.4292,-0.582 51.3574,0.3447 76.2639,-5.4773 12.8951,-4.1209 24.8886,-10.9987 37.3593,-15.7598 15.7456,1.3257 29.4701,10.8807 42.366,19.553 9.5914,5.8672 19.1229,12.2865 29.2688,16.9607 14.7958,-0.077 32.0946,1.9156 43.9769,-8.9487 15.9316,-12.6673 33.8283,-23.0745 48.1267,-37.7905 12.2909,-10.3316 25.2658,-20.5197 39.955,-27.0752 8.7884,-2.4707 17.852,-9.225 17.4336,-19.3047 0.9131,-18.1529 -7.3777,-35.0435 -13.8574,-51.5078 -13.7166,-28.7569 -39.4714,-50.4776 -49.4922,-81.1954 -9.2806,-20.9257 -21.3206,-42.0765 -40.5802,-55.2752 -13.8911,-8.729 -30.2328,-13.4635 -42.5546,-24.4357 0.4609,-4.2565 -0.8791,-8.7419 -5.1191,-10.5566 -4.3069,-2.8971 -9.233,-4.6857 -13.6309,-7.4239 32.6487,-47.5946 53.6756,-101.67595 79.5826,-152.92788 6.7026,-12.0374 13.5969,-24.37719 16.1186,-38.01544 3.0493,-5.99634 5.8979,-13.64649 1.4957,-19.75732 -14.0652,-28.85539 -38.2587,-50.63785 -60.1223,-73.4488 -32.621,-32.37592 -64.3678,-65.75203 -99.8848,-95.0368 -34.1921,-29.10857 -71.4287,-54.47979 -110.647,-76.30902 -21.0048,-12.77581 -43.0823,-23.93243 -66.6761,-31.07126 -42.8298,-15.36127 -86.7,-27.93299 -131.5249,-35.92368 -47.5694,-8.85604 -95.95,-12.46228 -144.1955,-15.27244 -11.2709,-0.46783 -22.5528,-0.68139 -33.8338,-0.58303 z m -9.4004,15.03711 c 60.8422,0.59407 121.5468,8.67659 181.4532,19.16993 52.2718,10.50225 103.3962,27.09811 153.0546,46.22265 34.7173,15.43961 66.5549,36.28526 98.2233,57.08917 45.8858,32.22309 86.6064,70.87152 129.7942,106.56454 20.9701,17.48464 41.101,36.18047 57.5255,58.13535 8.7593,10.54431 19.7634,21.27559 22.9277,34.77149 -5.6937,5.80171 -13.3467,11.34118 -13.7482,20.24793 -8.3815,24.82452 -21.6361,47.63333 -33.7335,70.7614 -21.9705,40.62864 -44.1543,81.2939 -70.9771,118.9908 -10.6668,16.2052 -20.5582,32.8753 -31.5529,48.8631 -14.2546,4.1313 -29.5106,6.7376 -42.5801,14.0469 -3.9416,3.866 2.428,9.3063 6.4024,6.6543 9.8954,-2.2859 19.4483,-6.6663 29.2344,-8.248 -3.4972,7.4269 -7.724,14.4712 -12.6953,20.9062 -10.7773,1.3246 -23.8611,0.1256 -32.0645,8.6035 -3.3843,5.2254 5.4422,11.2193 8.8633,5.8282 5.5468,-2.0236 11.1984,-2.7814 17.0644,-3.0996 -3.318,6.0552 -9.4556,9.8362 -16.2648,10.4544 -9.2786,2.6811 -20.1153,2.7304 -28.325,7.7428 -2.7164,3.862 1.8468,7.6852 5.709,6.7285 8.2218,-0.9785 16.6741,-3.19 24.6152,-4.2754 -5.0947,13.5176 -13.8009,25.5388 -21.5569,37.8739 -7.3178,10.2369 -15.9686,19.5417 -21.6853,30.7883 -16.6957,26.2315 -36.4169,50.6438 -57.7597,73.3183 -3.2476,-5.3869 -10.1441,-1.1758 -14.9336,-1.8027 -24.6459,1.8839 -49.789,-0.447 -74.2696,3.2226 -5.3607,2.6768 -0.2061,10.0367 4.5547,8.5039 25.0428,0.4318 50.2987,1.1875 75.191,-1.7238 3.9356,-1.3139 -2.6699,3.0697 -3.439,4.1457 -2.7634,1.9836 -5.9751,5.5499 -8.8321,6.2051 -4.5412,-3.9168 -10.491,1.4281 -15.4707,1.4336 -5.1178,0.7104 -10.4938,1.9105 -14.957,4.3086 -3.3462,-0.9646 -8.2366,-1.9033 -10.4473,1.6426 -4.312,-1.7257 -11.8119,-2.5925 -13.539,3.0664 -0.4103,5.8949 7.5086,5.1196 11.457,4.6992 2.2626,-0.5085 3.1962,-2.7043 5.5469,-1.1777 3.0825,1.08 6.4188,-0.6313 8.9316,-1.3653 4.2621,1.0772 8.7097,-0.84 12.8164,-1.3633 -9.69,6.9637 -18.2749,16.0068 -29.1386,21.0235 -9.5345,1.7637 -19.5779,1.3118 -28.8438,4.1601 -4.8599,-1.5553 -11.8568,-2.6368 -15.5078,1.8164 -1.808,4.5036 3.8514,6.7728 7.4785,6.098 3.3299,0.6288 6.9866,-0.182 9.6387,-1.9026 5.6959,1.5461 11.6294,0.4315 17.4043,0.1308 -10.1192,7.4644 -20.6814,15.2827 -30.9453,21.959 -0.9887,-5.9933 -8.1742,-3.2809 -12.1387,-3.2023 -27.0286,2.1033 -54.2018,1.2991 -81.25,2.6027 -3.8274,0.154 -6.551,5.7835 -1.8965,7.0703 10.288,2.7111 21.096,0.046 31.5917,1.0368 18.1383,0.2134 36.3434,0.753 54.4161,-1.1599 -8.7441,5.2143 -16.9885,12.1651 -26.4843,15.7422 -27.4369,4.8906 -55.7108,5.077 -83.0977,9.3321 -3.9753,2.3785 -1.2556,7.6965 2.7246,7.8593 21.7449,0.3675 43.5623,-2.0819 65.2129,-4.2793 -5.1311,3.0341 -10.4428,7.6941 -15.6816,9.3887 -5.5537,-2.9019 -9.8915,3.9727 -14.0235,6.5703 -15.3984,11.4877 -34.5654,16.028 -52.6289,21.5 -12.6134,2.2792 -25.2335,5.2703 -37.6639,8.4073 -16.9056,2.8837 -33.6732,-2.012 -50.6114,-2.8687 -25.4794,-2.3045 -50.7594,-6.5098 -75.4337,-13.3823 -24.5828,-5.0967 -49.4136,-14.4309 -67.6953,-32.4199 -14.8848,-12.7848 -29.3045,-26.097 -43.6953,-39.4317 5.801,-13.6282 9.4117,-28.075 13.8457,-42.1738 3.4155,-16.8359 4.2025,-34.0941 7.3657,-50.978 4.9974,-31.8046 8.5354,-63.9185 8.7426,-96.0682 0.3502,-14.3329 1.5618,-28.8276 1.5714,-43.0456 -3.5879,-7.7454 -0.5948,-16.5927 -2.3322,-24.7609 -2.0249,-27.7397 -7.9187,-54.9836 -13.035,-82.2665 7.5566,-0.9841 15.1214,-1.2184 22.7207,-2.0136 -7.4579,-7.2435 -14.1173,-17.341 -25.1816,-19.0996 -0.3177,-7.8688 -2.582,-17.4618 4.6855,-23.045 8.6239,-10.66229 3.468,-25.4485 8.0309,-37.53764 4.3615,-18.88519 10.9739,-37.07775 18.3837,-54.94538 5.9287,-16.90084 11.6278,-35.02772 9.021,-53.10678 -4.4829,-24.33911 -22.1811,-45.97502 -45.5782,-54.38281 -3.8579,-2.99733 -7.8438,-5.31998 -12.9316,-5.20703 -8.0689,-1.01994 -16.4468,0.34514 -23.709,-2.72656 -2.1891,-7.86419 3.3225,-15.21484 4.6678,-22.83481 26.4441,-81.26567 54.775,-162.44775 94.6388,-238.18082 3.9907,-4.9939 11.4293,-2.98225 16.9401,-4.98987 25.1103,-4.26376 50.4816,-6.31007 75.89,-6.62146 z m -51.6933,39.20704 c -4.4979,1.27917 -11.3637,3.83065 -11.0235,9.22851 2.605,5.71492 9.5728,2.0882 13.0059,-0.66601 4.7487,-1.9328 3.5934,-9.53232 -1.9824,-8.5625 z m 4.8281,21.95507 c -19.5104,7.38778 -37.2696,19.11416 -53.957,31.50196 -3.1133,2.83397 -9.7079,7.50374 -4.9786,11.59179 5.577,2.56651 10.0848,-4.28965 14.5844,-6.43856 15.332,-10.94759 32.9864,-18.49359 48.0153,-29.86222 2.0561,-2.80473 -0.1042,-7.14233 -3.6641,-6.79297 z m -323.1856,7.77539 c 16.0102,0.68718 32.4383,-0.78381 47.8165,4.13282 3.6093,4.85503 0.5231,11.79847 3.8359,17.08984 4.5563,9.79317 11.3073,18.41287 15.1141,28.60378 19.133,41.34634 34.5019,84.23061 49.8644,127.07786 14.8895,46.69795 27.6427,94.26354 44.6738,140.35547 4.2767,11.52351 7.3513,23.47202 9.4727,35.52344 2.958,6.71257 7.531,12.6175 9.2648,19.87714 9.4857,25.61056 14.4434,52.57551 22.6965,78.53881 8.5671,32.3486 15.3706,65.3009 15.6735,98.8633 -1.9958,17.7297 -3.1149,35.8626 -3.3979,53.8506 -0.8529,31.7483 -3.3418,63.2798 -7.2764,94.6903 -1.6188,15.1739 -2.0308,31.1166 -5.5601,45.6388 -5.5893,3.1511 -1.9079,10.6596 -3.8637,15.6354 -3.9568,28.4018 -18.2886,53.8068 -31.3141,79.1322 -5.8295,15.7925 -20.23,24.8723 -31.2359,36.9354 -20.3433,20.4821 -41.8538,39.9679 -65.9926,55.8986 -18.4028,14.4118 -38.9311,27.0283 -62.6024,30.2913 -26.8221,5.0299 -54.19182,8.4977 -81.30322,11.2219 -19.6608,-4.1846 -40.13508,-2.2178 -59.5807,-6.5621 -2.38252,-0.8863 -5.42289,-1.4825 -7.55466,0.3165 -63.73119,-24.8924 -124.32405,-57.918 -180.66275,-96.6954 -12.03832,-8.9055 -24.50085,-17.963 -34.3021,-29.2636 -2.16363,-3.9909 -7.7494,-3.7857 -9.94395,-7.9158 -46.59522,-42.8164 -80.26266,-96.8611 -116.10488,-148.4547 -59.4437,-88.7734 -116.35949,-179.5915 -162.32941,-276.2357 -6.71179,-14.37194 -13.10004,-28.9901 -18.97332,-43.7278 13.51024,-25.90052 30.36693,-49.9963 48.56114,-72.7253 36.161,-42.87352 78.02801,-80.46461 119.82888,-117.68218 45.32901,-37.63005 95.57421,-69.17379 146.72521,-98.32103 31.54815,-15.8621 65.79754,-25.2898 99.26954,-36.25391 46.14988,-13.32805 94.21622,-18.87324 141.40857,-27.6603 35.73764,-5.52771 71.50917,-12.8908 107.79255,-12.17564 z m 310.8321,21.38086 c -16.4212,6.65672 -29.1362,19.81636 -43.3731,30.00977 -6.7758,4.79488 -13.115,10.66774 -16.1172,18.62305 15.3032,-2.64142 25.9401,-14.89255 38.4124,-22.97932 8.5195,-6.65091 18.6081,-12.09753 25.5681,-20.33123 0.8847,-2.75848 -1.6414,-5.68899 -4.4902,-5.32227 z m -325.17971,15.74024 c -4.92212,0.10193 -5.36323,6.58583 -1.5918,8.75 4.44364,2.69023 9.44301,4.44641 13.45311,7.96094 3.3264,2.57641 10.3488,5.36852 11.5,-0.60352 -0.8377,-6.24056 -8.5243,-8.15484 -13.123,-11.05078 -3.6331,-1.29918 -6.13678,-5.12426 -10.23831,-5.05664 z m -23.61328,6.70508 c -4.68146,-0.10585 -5.42984,6.06913 -1.76758,8.18359 21.8579,13.43552 43.61967,27.40032 66.32027,39.36719 5.1815,1.50714 8.2269,-6.2996 3.5,-8.83594 -21.6952,-14.02243 -43.96248,-27.41327 -67.20699,-38.63477 -0.27826,-0.051 -0.56243,-0.0888 -0.8457,-0.0801 z m 345.64839,8.1914 c -10.9127,2.0255 -19.2286,10.48766 -27.9818,16.84068 -10.6402,9.21185 -22.1136,17.47353 -32.9205,26.38002 -3.1652,3.19445 -0.4634,8.74783 4.0664,7.46094 7.105,-2.83399 12.5949,-8.65211 18.9766,-12.88074 13.2886,-10.59025 27.1338,-20.81347 39.1308,-32.79504 1.7245,-1.67629 2.0637,-5.21953 -1.2715,-5.00586 z m -344.99995,9.43555 c -3.8898,8.10467 8.33272,10.79095 12.38807,15.28176 1.89634,1.58084 9.53729,6.13914 7.78185,5.89597 -5.49833,-2.22383 -8.25398,5.18451 -3.42188,7.90821 4.5187,3.50139 9.95301,5.56378 14.36701,9.30498 14.2837,9.08799 27.5996,20.57878 43.1389,27.40009 5.3441,0.42365 6.2805,-7.92934 1.4609,-9.41796 -2.7221,-2.01313 -7.7608,-4.78719 -9.1016,-6.4336 4.5034,0.47784 6.8142,-5.92977 2.6311,-8.1383 -20.1457,-15.01789 -41.6798,-28.08048 -62.82834,-41.516 -1.82918,-0.59399 -5.73108,-2.84169 -6.41601,-0.28515 z m 330.44335,28.08008 c -8.3762,3.79217 -15.2891,11.01911 -23.0508,16.20117 -8.0379,6.43744 -17.3292,11.08504 -25.4101,17.39062 -2.0043,2.15996 -6.3896,7.77292 -0.9278,7.46289 8.2704,1.00678 14.3632,-6.11458 21.2835,-9.39196 11.4711,-7.62449 24.1879,-14.88617 32.0564,-26.48304 0.9649,-2.64308 -1.197,-5.32631 -3.9512,-5.17968 z m -322.57031,9.77343 c -4.91823,0.31071 -4.94298,7.2177 -1.1914,9.33985 21.62951,15.50323 43.78191,30.85672 67.86911,42.25586 4.2996,1.52012 9.9611,-3.53543 6.0606,-7.4961 -23.6047,-14.69627 -47.5795,-29.164 -71.21487,-43.82421 -0.48838,-0.17091 -1.00536,-0.27366 -1.52344,-0.2754 z m 147.26761,12.1504 c 11.6857,1.72024 24.4699,3.13518 34.9843,7.95117 -8.5589,13.93543 -11.1073,30.4539 -14.6835,46.16015 -6.648,-18.38111 -14.2225,-36.4101 -21.9942,-54.33984 l 0.991,0.13374 0.7024,0.0948 z m 464.6425,-0.1836 c -6.8659,0.072 -6.7208,8.22355 -9.3417,12.625 -8.9311,16.30673 -26.8957,28.55893 -28.8008,48.20899 -0.2684,4.84718 5.4575,10.40518 9.7246,6.03711 12.0698,-12.04277 24.0582,-24.63568 32.9043,-39.24805 3.356,-8.15673 6.1033,-19.41092 -0.6738,-26.52149 -1.1099,-0.75842 -2.4666,-1.16713 -3.8126,-1.10156 z m 33.125,0.31836 c -5.2093,2.48747 -8.4147,8.22484 -11.9218,12.72266 -5.6796,8.60971 -10.7209,18.09636 -10.437,28.69968 -0.7898,12.31344 -1.4909,24.95425 0.6596,37.11282 2.2297,4.73745 9.4628,1.24862 8.5,-3.4043 2.809,-19.26668 -1.0252,-40.79596 10.3614,-57.60938 2.9838,-5.16213 8.2221,-10.10437 7.08,-16.73242 -1.5958,0.45655 -2.7313,-0.89109 -4.2422,-0.78906 z m -328.4316,3.16992 c -11.9747,6.29637 -20.6322,17.68591 -31.5581,25.64502 -9.4045,8.27383 -20.9364,13.71114 -30.7056,21.3667 -3.0989,4.17606 2.3296,8.31671 6.3633,6.75391 22.7608,-9.03997 40.6082,-26.78913 57.6621,-43.77735 3.1236,-2.98469 4.3039,-10.09798 -1.7617,-9.98828 z m -110.1269,4.50977 c 2.1761,0.78106 -1.2742,4.49168 -0.9102,6.59765 -6.2199,19.53208 -12.4923,40.14519 -19.0293,58.8711 -5.5302,-5.98384 -0.5129,-13.80817 -0.037,-20.63024 2.8473,-15.38399 6.8405,-31.39442 16.5582,-43.9225 0.9658,-0.7468 2.2156,-1.02148 3.418,-0.91601 z m 454.789,4.98047 c -8.1363,0.13196 -9.5651,9.74415 -9.6426,16.05468 -0.1662,15.74553 -2.3813,32.04702 1.0645,47.54883 2.9261,5.2322 0.7792,14.85426 8.1465,16.47852 6.5048,0.69271 10.8095,-6.84413 8.6368,-12.59836 -2.5833,-16.90295 -5.2481,-33.66891 -4.5841,-50.82352 0.3201,-4.72782 5.6884,-9.81949 1.6152,-14.34961 -1.269,-1.52912 -3.2563,-2.38383 -5.2363,-2.31054 z m -648.32225,0.35742 c -4.611,1.13948 -3.60812,7.02814 -0.0547,8.82226 20.01323,11.64815 38.63223,25.52232 58.84573,36.86914 2.3162,4.01321 8.463,8.43416 12.2441,3.53126 4.1193,-5.25531 0.9033,-16.4073 -6.9238,-14.77735 -14.6515,-6.2262 -26.9612,-17.06837 -41.2969,-23.97461 -7.2303,-3.94863 -14.63758,-9.45615 -22.81445,-10.4707 z m 16.49215,29.01758 c -4.9052,0.54195 -4.8133,6.92265 -1.0839,9.04687 15.5806,10.31241 30.281,22.44249 47.2871,30.52149 5.3785,1.7871 8.244,-6.25642 3.7519,-8.98828 -16.2138,-10.63321 -32.1801,-22.01676 -49.5586,-30.63672 l -0.3965,0.0566 z m 259.5293,15.48047 c -5.4473,1.67374 -3.5689,8.5756 -0.3437,11.52148 5.5003,6.60437 11.5397,13.69127 19.9629,16.51367 5.3565,-0.93102 4.7702,-7.56458 1.6445,-10.58789 -6.239,-6.39722 -11.9987,-15.07228 -21.0273,-17.50195 l -0.2364,0.0547 z m 237.0625,5.74023 c -11.3619,1.37656 -20.5863,10.86761 -32.5644,8.93164 -22.7724,0.43042 -45.4164,-5.82179 -68.1934,-2.07226 -17.8868,2.20463 -33.6644,11.83281 -51.2695,15.03515 -16.5321,4.06035 -34.2473,4.50906 -50.5723,8.6582 -0.182,-6.64661 -8.8865,-6.89331 -13.5825,-7.43351 -5.9219,-0.38126 -11.5267,-3.1356 -17.3061,-3.06453 -5.7551,2.09258 -2.1311,9.78788 2.496,10.76562 5.8307,3.23495 13.3727,4.7928 19.4336,4.91602 -1.5578,5.83667 6.4584,7.03485 10.494,5.97913 8.1013,-1.06182 18.097,-1.77335 23.342,6.13024 20.7313,20.60715 46.3277,37.59793 75.1465,44.02344 13.9823,2.68159 28.4005,1.70932 42.4746,0.32227 12.0577,-1.39051 22.0182,-8.88166 31.789,-15.41016 4.3396,-2.9844 6.5194,-8.37571 3.8887,-13.25195 -5.7136,-11.04017 -15.869,-19.01937 -24.251,-27.96221 -4.0837,-3.38212 -5.8861,-5.66569 0.4756,-4.3249 11.3375,0.27045 23.0394,0.61902 34.1302,-1.14757 11.1003,-5.42604 21.813,-11.8439 33.6452,-15.61024 4.03,-4.9213 -1.9091,-9.96195 -6.4473,-11.2461 -4.1322,-1.77307 -8.5716,-3.34365 -13.1289,-3.23828 z m -495.7949,7.98438 c -5.1835,0.22003 -4.9913,6.9053 -1.418,9.22265 15.7319,8.87355 30.2503,20.74744 47.6465,26.43555 4.6328,1.03391 10.4908,-4.66407 6.0215,-8.63477 -16.4097,-9.99472 -33.0179,-20.38435 -51.1152,-27 -0.3749,-0.0269 -0.7623,-0.0951 -1.1348,-0.0234 z m -100.7285,8.72656 c -26.81723,0.98605 -53.64981,5.12807 -79.42188,12.49023 -7.3781,3.02802 -17.0188,5.3237 -20.75585,13.03516 -1.02465,5.31853 5.94405,8.20287 9.89439,5.33812 27.4764,-9.58072 56.90593,-13.53181 85.61605,-16.7675 22.70716,-1.41979 45.5485,4.40966 67.75323,8.42157 4.99386,-1.52992 2.85135,-7.84778 -0.94532,-9.42969 C 950.69251,789.66847 928.08369,788.2876 906.875,788.46094 Z m 508.3887,9.68945 c 3.9131,0.89028 6.0453,5.16478 9.8847,6.23438 2.0011,6.36312 10.1861,7.2399 14.179,11.81777 7.0659,5.47492 13.8311,11.84272 17.7605,20.01035 -17.0811,6.57153 -36.0534,7.99871 -53.9137,4.17249 -22.2798,-5.69655 -42.3672,-18.0742 -61.7074,-30.29944 2.3148,-0.91717 8.4211,-0.81938 12.1055,-1.4478 15.0498,-1.07645 29.577,-5.14678 44.1425,-8.70455 5.7845,-1.07834 11.6562,-1.82711 17.5489,-1.7832 z m -259.8008,1.21289 c 6.0367,4.90098 9.7169,12.11228 15.9453,16.81445 6.583,15.08266 10.7108,31.02069 9.9844,47.55274 1.2381,2.9133 -1.2454,6.48436 -3.9258,6.79883 -7.436,-23.70705 -19.0656,-46.43346 -22.166,-71.29102 l 0.1621,0.125 z m 774.4473,6.2793 c -5.5743,1.09234 -4.1213,8.61312 -2.8887,12.55664 4.5779,23.29826 6.0932,47.39026 12.875,70.24609 2.5058,4.44605 9.7254,0.7183 8.0918,-3.91992 -2.9058,-25.51267 -7.1028,-50.99346 -13.6602,-75.81055 -0.8117,-1.68264 -2.4256,-3.22534 -4.4179,-3.07226 z m -277.0313,8.2539 c -8.8592,0.55483 -10.4164,11.99703 -6.7656,18.38868 12.5882,25.17277 31.2916,47.44514 54.1875,63.85351 -18.6365,-3.05306 -37.6429,-1.70299 -56.4121,-1.22461 -7.9644,0.71046 -14.9571,5.62198 -18.9375,12.4375 -4.8865,4.65435 -10.062,12.66603 -4.6491,18.93184 12.7555,20.55894 33.4134,34.53588 55.022,44.47144 10.8162,5.94908 23.0191,10.73769 35.0704,11.8975 2.5173,5.54928 10.0973,4.30933 14.9903,5.92578 4.2848,0.7896 11.9033,2.42185 13.3652,-2.8457 -1.4511,-4.39288 4.8696,-1.38016 7.4706,-2.18648 10.2839,0.682 21.6341,-1.59819 30.4872,4.93016 10.8294,5.62562 20.2074,13.5484 30.1477,20.4458 4.1417,2.8188 12.5222,2.4762 12.1172,-4.1231 -1.318,-7.12462 -7.6825,-11.57163 -13.2754,-15.35739 10.0502,-0.81344 20.4548,-2.04452 29.2089,-7.49414 -11.129,-7.78456 -25.1698,-6.97349 -38.039,-7.16993 -4.241,-1.27841 -4.9256,-6.55736 -8.3906,-9.08984 -15.977,-17.92612 -33.2149,-34.59803 -48.2961,-53.2775 -16.9244,-17.20565 -36.2038,-32.12091 -51.0222,-51.34233 -11.7375,-13.48591 -21.4965,-28.45973 -30.2911,-43.90556 -1.4882,-1.77749 -3.5833,-3.27054 -5.9883,-3.26563 z m -462.7519,0.55664 c 12.1399,3.10108 24.2943,7.7839 34.452,15.14513 9.6534,7.20472 17.215,17.13725 19.3331,29.23964 3.834,15.87196 -2.9354,31.67463 -7.4824,46.62891 -10.1263,25.81612 -20.8859,52.38099 -22.9434,80.4375 -4.0481,-15.7189 -10.487,-31.01513 -13.8066,-46.7461 4.5215,-13.42235 13.1972,-25.87616 12.8691,-40.56445 1.2443,-12.71444 -10.0857,-22.74999 -8.6012,-35.54149 -0.337,-8.60816 0.984,-18.89248 -5.8206,-25.38429 -2.7757,-7.78254 -6.2355,-15.32472 -8.5293,-23.28906 l 0.5293,0.0742 z m 761.332,7.73243 c -5.6366,0.70586 -4.8621,7.90602 -3.0879,11.60547 -0.2919,3.62092 2.0085,6.56155 1.4863,10.1875 0.012,4.57259 6.6261,6.34261 8.3379,1.81054 1.8253,-3.30239 -0.1588,-6.8379 -0.5566,-9.9414 -0.054,-3.31444 -1.9282,-6.11852 -1.5957,-9.47657 -0.3936,-2.2054 -2.1509,-4.38203 -4.584,-4.18554 z m -30.5684,1.03906 c -5.9404,1.4823 -4.2622,9.33766 -3.664,13.74023 -0.2811,4.60971 1.301,11.74042 0.8535,14.80274 -2.9694,-4.35941 -9.0632,-0.0672 -8.0625,4.41406 0.3844,3.23369 2.225,5.81072 1.4531,9.16602 -0.091,2.87358 2.7095,4.51335 1.1953,7.27734 1.4929,15.21963 1.5329,30.89045 5.4766,45.74414 2.7004,5.29327 10.7892,0.61557 8.6328,-4.47461 -0.1683,-3.27984 -1.7461,-9.5544 -0.9824,-11.18555 3.8855,3.38348 9.5033,-1.36656 7.6797,-5.97265 -1.6577,-22.38554 -5.1501,-44.60384 -7.7735,-66.87891 -0.5839,-2.93072 -1.3184,-6.40395 -4.8086,-6.63281 z m -896.5468,12.31641 c -6.0962,1.8134 -6.9729,9.95328 -11.2989,13.90234 -4.7482,6.1573 -12.3735,10.3757 -19.81641,11.62405 -14.02144,-3.38829 -28.74614,-5.07596 -42.90996,-1.53477 -29.33725,4.83413 -56.46743,18.72949 -80.78728,35.34236 -10.49104,9.15901 -21.43231,19.39257 -26.30664,32.75391 -1.18294,7.59075 3.37119,14.82138 3.00586,22.24218 4.88017,8.17329 16.1517,7.30312 24.3457,7.2168 17.5867,-0.556 35.27858,-3.97243 50.94686,-12.22086 10.29904,-3.91263 21.19216,-8.07037 29.53947,-15.11898 6.02224,0.84529 9.66472,-5.52056 14.36133,-8.14258 5.5653,-4.89323 13.4285,-9.40502 15.69531,-16.55274 0.22673,-2.80562 -4.895,-3.44318 -1.17187,-5.49804 7.58864,-8.43045 13.63929,-19.84793 25.55153,-22.70334 11.2074,-4.47952 23.2249,-6.16124 34.5774,-10.03494 4.6841,-2.39517 7.96,-6.68641 11.8789,-10.06446 -8.7735,-3.73153 -18.6825,-3.58838 -27.7383,-1.00781 3.5851,-5.42025 6.9565,-13.71007 2.4883,-19.36523 -0.685,-0.49444 -1.51,-0.82759 -2.3613,-0.83789 z m 868.4277,12.10742 c -5.6193,1.54238 -4.1341,9.27272 -3.4688,13.5957 2.7399,24.34007 5.1043,48.99626 11.3223,72.74024 1.6369,4.39948 9.1679,5.86597 10.3203,0.33593 -3.911,-22.60463 -7.9448,-45.38159 -10.748,-68.26701 -1.4501,-5.73606 -1.1967,-12.568 -4.5254,-17.52596 -0.8179,-0.62623 -1.8714,-0.95367 -2.9004,-0.8789 z m -391.1289,18.17773 c -5.0066,0.24941 -6.4909,6.83095 -4.2246,10.48438 -4.041,1.61255 -4.9955,6.60736 -4.9512,10.2832 -7.1411,9.65761 -10.9212,21.31868 -17.0899,31.4258 -5.3418,10.56245 -12.6395,20.70448 -15.664,32.15037 0.5078,5.81326 8.8394,3.87287 9.5996,-0.80469 10.8643,-19.62193 22.7482,-39.20526 30.4492,-60.20703 0.016,-2.56533 3.6545,-4.83626 3.416,-8.16211 0.094,-1.80299 -1.1551,-3.15311 0.9825,-4.0332 3.1223,-3.19073 3.6767,-11.29874 -2.5176,-11.13672 z m 23.7539,2.15235 c -5.2813,1.48518 -8.283,7.41346 -12.2844,10.98691 -5.6197,7.08068 -12.5976,13.37377 -17.323,20.97012 -1.9848,3.18547 1.8003,6.86099 4.8398,4.38672 8.2431,-5.23567 14.0602,-13.41788 21.2168,-19.95313 3.0997,-4.07914 8.1235,-8.77738 7.1973,-14.19141 -0.6508,-1.37077 -2.1485,-2.21356 -3.6465,-2.19921 z m -556.94338,2.45117 c 6.36621,0.10636 13.77038,0.31356 19.53711,1.63476 -14.33773,12.18212 -24.31751,28.80927 -39.87204,39.71358 -16.18265,11.82649 -35.26147,19.91641 -54.93033,23.51539 -11.44012,1.02437 -23.05368,1.04067 -34.50622,1.4351 -3.73467,-6.82778 4.24993,-11.96665 7.74609,-16.78711 19.77975,-21.51767 47.48257,-32.65988 72.74219,-46.0625 9.29158,-3.50616 19.57209,-3.14333 29.2832,-3.44922 z m 481.70118,3.125 c -15.7196,1.98505 -32.038,0.2012 -47.6777,3.32226 -5.254,2.62611 -1.4318,10.53819 3.7988,9.94922 15.9582,2.16678 32.4893,0.20983 47.8125,-4.42773 4.6097,-1.7573 3.2243,-9.1877 -1.8164,-8.80274 -0.7038,-0.0397 -1.4138,-0.0781 -2.1172,-0.041 z m 432.5664,3.80273 c -6.0093,3.31107 -1.7383,10.89775 -1.7177,16.01855 3.6228,19.47171 4.226,39.47336 8.2431,58.82715 2.5282,5.40236 11.6357,2.41692 10.2045,-3.53256 -1.0987,-22.70388 -5.7236,-45.1287 -10.517,-67.25259 -0.8585,-2.50205 -3.51,-4.91088 -6.2129,-4.06055 z m -694.0156,4.3418 c 3.0056,0.45368 8.5534,0.10936 7.2969,4.77539 0.2733,6.338 2.3647,13.33665 0.4277,19.40625 -2.8527,2.52767 -5.2786,5.58405 -6.8652,9.0625 -3.1655,-6.96625 -7.5681,-13.28082 -9.8497,-20.60742 -1.0387,-2.38876 -4.5188,-4.5339 -0.4726,-6.06641 3.7843,-2.34627 8.3606,-1.23614 9.4629,-6.57031 z m 419.6211,0.91016 c -4.6691,1.3986 -6.456,7.15362 -8.8379,10.99804 -9.745,24.1638 -16.3277,49.504 -23.3106,74.57813 -4.0297,16.30112 -8.1696,32.75015 -9.7949,49.47065 -0.4174,3.8844 3.8655,7.5978 7.3106,4.711 4.8758,-10.2725 5.2402,-22.74592 8.3593,-33.82814 8.9239,-34.08306 17.318,-68.46488 30.6602,-101.10937 0.3239,-2.4979 -1.7894,-5.05303 -4.3867,-4.82031 z m -492.6778,1.06445 c -6.6266,0.35204 -6.5881,8.6322 -4.3886,13.1289 14.0656,33.4211 28.5729,67.46979 32.1601,103.84377 4.8517,34.4284 5.4095,69.3189 6.1699,104.043 0.6158,4.3011 7.1974,6.0352 8.5704,1.2343 4.0424,-38.9356 3.7132,-78.5239 -1.5957,-117.34763 -3.6492,-26.40861 -12.3845,-51.75012 -23.2915,-75.97569 -4.3676,-9.70769 -8.0545,-20.41832 -15.2691,-28.34657 -0.718,-0.39097 -1.5336,-0.62231 -2.3555,-0.58008 z m 405.3789,10.60156 c -10.94,6.12618 -20.0973,15.48931 -29.2591,24.11018 -2.9221,2.89202 0.8099,7.58772 3.9662,6.56951 -8.2738,7.93648 -18.7232,13.95064 -25.3282,23.47461 -1.0273,2.40342 -5.1229,8.58508 0.013,5.69586 13.6316,-3.92116 22.9148,-15.44606 34.0873,-23.42368 4.5054,-4.19065 11.1636,-7.46806 13.3271,-13.40109 0.4786,-3.57526 -5.0345,-5.07496 -6.1914,-3.64844 4.857,-4.57741 11.0282,-8.76402 13.832,-14.85546 0.213,-2.4372 -1.9781,-4.7514 -4.4473,-4.52149 z m -889.64253,13.51563 c -17.60168,6.58846 -29.48317,22.35616 -43.27539,34.38086 -31.2377,29.84505 -62.03908,62.71262 -76.83204,104.13862 -1.84185,6.6325 -4.82184,13.6314 -3.99414,20.5274 2.12098,4.7559 8.85898,1.4664 9.25586,-2.7539 10.87944,-30.2325 27.64423,-58.3362 49.47041,-81.86751 17.95082,-19.7163 37.27918,-38.16723 56.49189,-56.61558 4.38599,-4.34341 11.32155,-7.48795 13.30723,-13.55989 0.004,-2.31463 -2.08009,-4.4106 -4.42382,-4.25 z m 1240.38283,0.95507 c -5.9547,1.67264 -4.1772,9.6322 -3.6133,14.14649 1.5992,15.07063 1.5141,30.6161 5.5762,45.30078 2.7387,5.85015 11.6123,1.20194 9.873,-4.43164 -3.602,-17.52599 -3.2651,-36.20532 -8.4101,-53.4707 -0.8477,-0.96889 -2.1208,-1.622 -3.4258,-1.54493 z m -229.6738,1.1836 c 9.8527,0.67342 20.4557,-0.61197 29.543,4.18654 15.462,3.52514 31.3295,4.39552 46.9277,6.90525 11.8556,17.60531 24.0059,35.29248 39.5078,49.94141 -18.9523,-0.6273 -38.3294,0.31421 -56.3184,-6.38672 -20.9236,-8.24862 -40.805,-20.47097 -55.0898,-38.13672 -3.1681,-3.68551 -8.7362,-7.0972 -8.795,-12.34375 0.6787,-1.76178 1.8983,-4.416 4.2247,-4.16601 z m 207.2421,16.01758 c -6.487,1.45961 -4.3209,9.6685 -3.3691,14.23046 3.304,15.42344 3.3037,31.95355 9.7266,46.5293 2.6251,3.73496 10.5684,4.45245 10.8359,-1.39648 -4.0033,-19.05139 -5.8078,-38.92731 -13.0859,-57.125 -0.9176,-1.32798 -2.451,-2.3163 -4.1075,-2.23828 z m -344.6191,8.16211 c -14.2848,8.13322 -26.2189,20.09314 -39.1934,30.16406 -6.6403,5.0157 -13.0931,10.68854 -16.5605,18.45508 4.7596,-1.07821 9.5818,-2.21522 13.8984,-4.57813 -6.8184,6.23882 -15.9128,9.09984 -23.2441,14.69531 -3.6232,3.09684 0.8197,8.625 4.9531,7.02344 18.5178,-6.02502 33.2512,-19.93748 46.3965,-33.78516 2.7704,-2.69969 -0.1583,-7.07418 -2.0625,-7.5332 6.6529,-6.63583 16.2114,-11.40298 20.3223,-20.0625 0.1779,-2.41488 -2.0831,-4.66587 -4.5098,-4.3789 z m -686.30078,4.37695 c -7.19353,4.62194 0.90487,13.22153 3.01281,18.56738 19.43829,34.24838 41.67938,67.05349 67.2782,97.00099 3.59944,2.9671 7.21691,9.6584 12.44922,7.6777 4.90439,-3.3258 -0.22216,-9.2895 -3.09141,-12.0904 -26.48954,-32.0559 -49.26105,-66.98331 -71.02187,-102.32755 -1.55339,-3.68659 -3.90953,-9.19366 -8.62695,-8.82812 z m 802.18558,1.33984 c -6.6046,1.15669 -5.802,9.71295 -2.8575,13.98242 11.7222,18.82009 28.2874,35.9092 49.4121,43.65039 4.2329,1.25088 8.0969,-3.03578 5.3438,-6.83203 -4.1775,-5.51369 -10.846,-8.56647 -15.6953,-13.4707 -12.589,-10.28485 -22.5252,-23.05418 -32.375,-35.84961 -1.058,-0.90506 -2.4081,-1.55863 -3.8281,-1.48047 z M 415.08008,958.05664 c -6.50238,2.50348 -5.41295,11.32602 -7.5957,16.75195 -3.83998,17.30796 -7.94492,35.12891 -5.42188,52.94531 3.15367,3.1137 8.11227,0.6218 8.05078,-3.6113 1.30358,-21.1055 7.37777,-41.77099 9.31641,-62.82815 -0.46001,-1.90581 -2.35574,-3.44854 -4.34961,-3.25781 z m 523.29687,0.16797 c -16.78608,3.05754 -33.6145,6.20334 -50.70507,5.39258 -6.83937,-0.10235 -13.88285,-0.45524 -20.46485,1.76367 -3.29602,5.39841 2.79778,10.09225 7.73828,10.58594 22.30439,3.31507 46.94614,2.31117 66.54102,-9.9668 2.83876,-2.67258 1.0583,-8.08533 -3.10938,-7.77539 z m -545.93359,1.01367 c -4.71645,0.0334 -5.19105,5.97926 -4.12695,8.99414 -4.39068,3.41762 -0.43881,13.0251 5.25586,9.57813 2.91057,-1.72219 2.34663,-5.992 1.98632,-8.35938 2.96677,-3.16743 2.14581,-10.25563 -3.11523,-10.21289 z m 361.30273,32.33594 c -5.70541,1.44564 -4.03937,9.10318 -2.78906,13.24608 2.13386,8.8807 0.53101,18.8179 6.10352,26.6856 6.95192,-11.5793 5.57349,-26.3221 0.43164,-38.21684 -0.90537,-1.08941 -2.30815,-1.82738 -3.7461,-1.71484 z m -325.86132,1.34766 c -5.29351,1.45161 -4.85696,8.79652 -5.12305,13.23632 -0.44064,13.1376 -1.9862,26.3411 -0.86328,39.5391 1.83188,3.6055 7.21906,2.9721 7.77344,-1.1153 1.78427,-14.4567 2.74903,-29.1928 2.60014,-43.8196 0.18306,-3.36331 -0.18278,-7.56218 -4.38725,-7.84052 z M 1371.5,1001.5645 c -20.6846,6.6949 -36.4716,23.8735 -58.0821,28.3176 -16.4162,4.9075 -33.8945,5.4933 -50.8906,6.407 -4.5098,0.7521 -7.2828,7.3731 -2.373,9.7109 12.9385,3.9201 26.6641,0.9414 39.8376,0.2562 23.8643,-2.8336 46.2067,-13.5589 64.7836,-28.5637 4.2446,-3.4032 10.7632,-6.8584 11.1132,-12.8019 -0.437,-1.9645 -2.3896,-3.4116 -4.3887,-3.3261 z m -694.66406,2.5058 c -26.47639,1.1801 -50.98874,13.3284 -73.41666,26.498 -19.65928,13.5817 -34.27945,33.0601 -47.67319,52.5215 -5.26643,8.4579 -7.72294,18.8764 -8.52929,28.3223 -8.84472,1.2416 -16.63977,6.3445 -25.58008,7.375 -5.22396,1.5895 -12.19081,-0.1026 -16.19922,4.0391 -2.67343,4.7272 3.39332,9.1756 7.82617,8.1328 8.97868,0.3808 18.68882,-1.2825 26.68555,-4.2363 -6.85173,6.1642 -15.04421,11.0554 -19.95117,19.1347 16.22537,-0.6171 32.05803,-9.6363 39.56054,-24.2226 4.84628,-4.7077 12.14636,-6.5488 18.66602,-8.0918 12.98088,-2.177 26.37872,-2.1101 38.94979,-6.7419 19.31993,-5.7539 38.92241,-12.8708 53.86814,-26.9428 18.63538,-16.0473 32.89759,-39.4851 32.05316,-64.7138 -0.2083,-6.7552 -6.86079,-10.2684 -12.88476,-10.416 -4.42672,-0.608 -8.9126,-0.7258 -13.375,-0.6582 z m 731.98246,1.2285 c -11.438,3.5377 -17.5681,15.0471 -24.0039,24.2461 -4.3828,6.5209 -4.5065,14.8565 -1.1133,21.8106 6.427,14.7759 23.6019,18.858 36.1426,26.625 5.9978,4.4083 7.0404,12.5479 12.4079,17.6386 10.8411,13.1514 26.5443,23.8498 43.9241,24.9004 8.7023,0.018 16.053,-5.5957 24.0703,-7.6894 8.2162,2.227 15.0369,8.0687 23.1797,10.7031 15.784,6.5809 37.6675,-1.9449 41.1211,-19.6094 1.4061,-8.5935 -2.7007,-17.391 -8.1465,-23.8203 -3.5913,-4.3259 -12.3179,-5.3122 -14.0957,1.1758 -2.3464,7.0859 5.1585,12.5028 5.1953,19.2051 -4.6098,7.2147 -14.9447,9.4682 -21.8555,4.1562 -9.0087,-3.7576 -17.5976,-10.5666 -27.6523,-10.6406 -8.8137,1.5609 -16.1704,8.9784 -25.2422,8.4043 -15.3378,-5.2358 -28.8183,-16.5313 -34.9121,-31.752 -7.3948,-11.5872 -23.0723,-11.7457 -32.7774,-20.5625 -4.324,-3.4157 -11.6809,-8.5321 -7.5839,-14.7265 2.98,-8.4179 8.2659,-15.8641 15.3066,-21.2422 3.7044,-3.7002 1.6782,-9.5223 -3.9648,-8.8223 z m -671.42582,0.418 c -6.05892,0.6799 -4.87279,8.5778 -1.47461,11.7012 2.24512,4.6763 9.51742,2.0449 8.23047,-2.8985 -0.5831,-3.3917 -2.74189,-8.5059 -6.75586,-8.8027 z m 34.21484,11.5156 c -5.01901,1.2043 -3.65752,8.1734 -4.17383,12.1074 0.77296,4.7129 -1.46778,11.2398 2.73047,14.5606 4.71624,1.752 7.30009,-4.8118 6.14258,-8.5488 -0.44908,-5.2911 2.59217,-16.1686 -4.69922,-18.1192 z m -324.0332,1.2539 c -5.1271,0.8546 -4.46988,7.9084 -4.91602,11.8575 0.0303,16.9443 -2.43135,34.1823 -0.0391,50.957 1.83482,4.0782 7.13901,1.8216 7.60938,-1.9141 1.46822,-17.1845 2.13551,-34.6313 1.72616,-51.9328 -0.13742,-3.4582 0.61745,-9.0625 -4.38046,-8.9676 z m 220.94922,3.3809 c 4.44276,0.5248 9.98422,-0.9239 13.72461,1.2558 -2.47924,11.2704 -10.91716,20.0136 -17.44727,29.1504 -9.80045,12.5033 -23.18027,21.5552 -37.76953,27.5625 -16.48115,8.246 -34.36386,12.9207 -51.64753,18.9958 -4.45266,1.9234 -8.73389,4.2283 -12.86028,6.7738 3.51702,-19.6481 19.21437,-33.374 31.23828,-48.0332 10.67791,-12.3213 24.11549,-22.6304 40.06092,-26.9193 11.18179,-4.0264 22.56265,-9.1619 34.7008,-8.7858 z m 78.5664,3.0957 c -5.54942,1.2714 -3.29649,8.6485 -1.02539,11.9648 8.39879,17.6622 14.03934,36.7989 23.05274,54.1407 3.38844,3.3598 8.04318,-0.8057 6.98828,-4.8028 -6.28035,-18.1386 -13.20153,-36.2927 -21.63281,-53.6191 -1.66404,-3.1244 -3.00189,-7.8401 -7.38282,-7.6836 z m 33.43946,15.0547 c -6.07376,1.096 -5.12543,9.1395 -4.97852,13.7597 1.03537,6.697 -1.78619,14.006 1.27734,20.2852 1.5864,2.1821 6.0924,5.4216 6.17969,0.6719 2.88245,-9.6888 0.79446,-19.9673 1.0586,-29.8906 -0.14229,-2.0591 -1.02526,-4.8411 -3.53711,-4.8262 z m -68.13282,6.5664 c -6.73756,3.0095 -10.18325,10.8696 -14.43481,16.6397 -5.86816,10.6658 -15.69274,18.2215 -22.29956,28.2939 0.80719,6.3846 8.86252,6.1254 12.66016,2.6504 12.78638,-11.8741 23.52564,-26.8718 28.46289,-43.666 -0.1389,-2.1971 -2.18165,-4.0428 -4.38868,-3.918 z m -242.75195,0.3301 c -5.73032,1.471 -4.98112,9.1872 -5.08594,13.8496 -0.55279,12.1775 -1.8041,24.7412 -1.97265,36.7207 -4.80179,3.1996 -0.88286,13.3248 4.97265,9.8008 3.10341,-1.8304 2.17019,-6.2705 1.98243,-8.7227 3.6548,-6.2209 2.59778,-14.168 4.23437,-21.0391 0.89871,-9.4143 2.58993,-19.5232 -0.3457,-28.664 -0.85247,-1.1971 -2.29559,-2.0171 -3.78516,-1.9453 z m 321.92774,3.5859 c -6.41775,0.8541 -5.08508,8.7899 -5.40625,13.3184 -0.12421,13.8679 -1.20862,27.8518 0.6875,41.6601 1.68835,2.4776 5.86049,3.0988 7.27539,0.039 0.20219,11.2228 -1.34475,22.7472 -4.60743,33.5859 -0.20396,4.712 7.0961,6.5505 8.47266,1.6641 8.30363,-17.621 5.77701,-37.7423 5.74024,-56.5762 0.15033,-3.7461 -4.69235,-7.3785 -7.53516,-3.9375 -0.11207,-9.2993 0.85323,-19.2061 -1.78516,-28.0879 -0.63734,-0.9356 -1.66783,-1.6981 -2.84179,-1.666 z m 1140.58203,14.2422 c 1.5508,1.3512 6.4934,1.8661 3.2707,4.346 -10.8387,16.9102 -19.6196,36.7616 -36.9719,48.072 -2.3328,0.7043 -7.6019,-0.793 -3.6049,-3.6486 10.8712,-17.0837 21.6867,-34.2073 32.9858,-51.0136 1.4401,0.7481 2.8802,1.4961 4.3203,2.2442 z m -346.6426,2.666 c -7.0667,1.9847 -5.1115,11.0708 -4.0228,16.1926 7.6015,31.6289 20.416,62.1822 38.1773,89.4463 6.5058,9.3411 14.0746,18.1032 23.3201,24.8338 4.4072,0.7025 6.6629,-4.4428 4.0938,-7.67 -16.8772,-21.9811 -31.4771,-46.0776 -41.733,-71.994 -5.8992,-15.1446 -11.7091,-30.7236 -14.3139,-46.8497 -0.7683,-2.2632 -3.069,-4.3034 -5.5215,-3.959 z m -1099.69529,0.6387 c -6.61287,1.529 -4.49355,9.9104 -5.00093,14.7167 -0.0503,20.4958 0.43899,40.9743 -3.37407,61.0899 0.19818,4.8269 7.88062,5.7507 8.94726,0.8926 8.50077,-19.3328 4.71717,-40.9938 4.93501,-61.4063 -0.32814,-4.8215 0.81094,-14.1935 -5.50727,-15.2929 z m 460.05273,3.9668 c -5.69478,0.7562 -5.21737,8.2429 -1.4707,11.123 12.8835,9.2946 28.2261,14.7112 43.18214,19.7856 23.12062,7.4017 46.90012,14.3307 71.44092,13.4722 5.7801,-0.6896 12.3607,0.8619 17.6816,-1.7578 3.6897,-3.135 -0.033,-9.1683 -4.5223,-8.1862 -23.4129,-1.976 -46.8496,-3.9624 -69.151,-11.8708 -19.15344,-5.5361 -38.26329,-12.1514 -55.53371,-22.3961 -0.52884,-0.1389 -1.0808,-0.2053 -1.62695,-0.1699 z m 892.29296,3.3183 c -8.3015,2.75 -9.914,12.7793 -14.2744,19.2528 -14.666,29.7741 -31.2783,58.9609 -55.0772,82.4699 -23.9782,26.1477 -50.7679,49.3113 -77.3886,72.6074 -2.7804,4.4365 4.1579,9.1092 7.4629,5.2344 39.004,-26.3596 75.0155,-57.7965 104.0424,-94.9753 16.9155,-23.5042 30.5767,-49.4026 40.7408,-76.4876 1.296,-3.867 -0.7201,-8.9134 -5.5059,-8.1016 z m 112.2031,7.8008 c 13.9514,9.7446 30.134,16.1662 43.0352,27.1856 12.2187,13.3846 17.7968,31.1791 24.3926,47.6894 6.8832,21.6069 20.5783,39.8808 34.1079,57.7045 9.1967,11.7807 15.3583,25.2122 19.5082,39.463 2.6367,7.6333 5.1628,15.3101 4.9815,23.4692 -20.3434,13.1971 -40.5749,26.9766 -57.6935,44.2617 -14.0203,9.5727 -27.3293,20.2856 -41.4783,29.5821 -9.5851,3.0809 -20.7006,2.0515 -29.0556,-3.7337 -17.3525,-9.2705 -32.4063,-23.7068 -51.8175,-28.6765 -9.5027,-1.7959 -19.7521,-2.8336 -29.0996,-0.2168 -14.1064,6.5871 -28.1113,14.6347 -43.9356,15.7754 -23.104,2.2482 -46.5708,1.8492 -69.6621,2.5176 -6.1789,-0.2834 -12.5246,-0.6407 -18.2207,-3.3984 12.5305,-13.9602 25.0465,-27.9328 37.3028,-42.1348 16.9998,2.1762 34.5731,4.974 51.3789,-0.037 12.3543,-2.2713 24.2706,-7.8374 32.5153,-17.5446 12.499,-12.1107 27.6219,-23.7257 45.8733,-23.6124 4.3665,-1.0393 9.4757,-0.3762 11.385,4.2381 10.2642,11.3663 22.6183,24.5679 39.2381,24.1806 9.5371,0.8697 20.7115,1.5762 27.9375,-6.0391 6.9808,-5.6731 12.9539,-12.5523 17.8555,-20.082 7.3,13.4329 0.7159,29.5578 5.9179,43.4492 4.053,5.5188 13.0939,0.3381 11.574,-5.9664 1.8885,-24.9734 -0.3524,-50.7095 -10.3181,-73.8969 -2.6005,-10.2618 -11.0232,-17.6518 -20.3712,-21.8652 -11.1043,-5.9495 -20.638,-14.7354 -26.4007,-26.0252 -9.6421,-16.224 -19.0597,-33.3016 -34.3472,-44.9689 -2.9571,-1.9008 2.0676,-4.2878 2.2658,-6.5774 7.0175,-12.0066 13.1012,-24.7254 21.9256,-35.5535 l 0.8291,0.559 0.3759,0.2535 z M 1115.0664,1104 c -6.5905,-0.3494 -14.9452,6.1622 -10.8809,13.1387 4.3971,6.9713 14.6538,2.5012 19.4,9.0488 6.0762,3.9656 10.5921,9.9277 16.3364,13.918 6.6233,1.1256 7.9696,-7.6731 5.6621,-12.1856 -4.1245,-11.7355 -14.7907,-21.7498 -27.1778,-23.8164 -1.1116,-0.084 -2.2265,-0.081 -3.3398,-0.1035 z m -183.02929,0.4727 c -6.39372,-0.1729 -12.25142,8.8026 -6.19336,13.3183 4.81169,4.9777 15.04231,2.2661 17.39063,9.6699 1.51123,10.5242 -9.02609,16.2894 -17.51936,18.9477 -9.04142,3.2568 -20.04694,7.5394 -22.87127,17.9566 -2.76411,7.0229 -2.07955,16.9065 -10.65625,19.9141 -9.86671,5.8438 -21.44456,8.6773 -32.86728,6.3814 -9.68689,-1.3242 -20.42345,-2.9845 -29.0878,2.8413 -9.71429,4.347 -20.61011,10.8962 -31.45312,7.5449 -5.59281,-6.3061 -8.09356,-14.8099 -10,-22.8047 0.89149,-3.9457 1.89636,-10.7584 -3.83203,-11.3594 -7.27375,1.7 -7.64443,11.2805 -6.49219,17.3926 2.62542,10.6332 3.66387,23.9257 13.52734,30.6601 9.48109,5.9549 21.45448,5.1762 31.34673,0.7276 7.3358,-2.1863 14.00158,-6.8554 21.19111,-8.7555 16.2704,2.7698 34.02595,4.9155 49.21661,-3.2039 11.05006,-4.3223 23.12506,-12.4413 24.01313,-25.4049 0.62208,-6.029 3.60227,-12.2182 10.20117,-13.3906 10.45299,-4.0173 23.15349,-7.4387 28.1836,-18.6367 5.87468,-8.7123 7.41257,-20.6252 1.28906,-29.6524 -5.08399,-8.8557 -15.6648,-12.3771 -25.38672,-12.1464 z m 515.75979,14.8007 c -10.4054,4.5614 -14.0609,17.0882 -17.2949,26.9239 -1.3059,4.3622 -2.8008,12.4722 2.916,13.8261 6.6471,-0.065 6.1613,-8.6304 7.5273,-13.1621 1.8616,-8.7678 9.7492,-15.061 11.6563,-23.5918 -0.22,-2.342 -2.4256,-4.2901 -4.8047,-3.9961 z m 26.3086,12.7774 c -6.7724,2.6964 -6.8192,11.8322 -9.7246,17.5781 -1.514,6.2221 -6.4921,13.1852 -3.9356,19.4473 4.255,4.4113 9.2161,-1.6965 10.5215,-5.7012 3.6347,-9.1067 9.2715,-18.8959 7.3418,-28.9668 -0.825,-1.4772 -2.496,-2.476 -4.2031,-2.3574 z m 409.8125,4.2344 c 5.0579,0.7999 10.1066,2.8449 13.7871,6.3281 4.3415,1.6595 7.9841,-2.6524 11.041,-4.1914 17.1811,9.8699 25.5016,28.9994 35.3047,45.2558 9.0926,15.7724 24.9948,25.7496 40.1836,34.7715 1.7187,5.0297 0.398,10.8046 -0.066,16.002 -2.6413,9.9548 -10.5459,17.4018 -18.7227,23.1152 -8.5668,0.443 -18.4808,0.8593 -24.4707,-6.5371 -8.8846,-8.0835 -16.5622,-21.0824 -30.0664,-21.1758 -25.8752,-1.6091 -50.0634,12.5634 -67.2676,30.9356 -8.6519,8.496 -19.9423,13.8677 -31.9792,15.2927 -9.4533,1.7119 -21.0593,3.5785 -29.3821,3.2952 7.0416,-10.1072 16.6306,-18.3253 24.1367,-28.0723 2.959,-4.7635 3.3586,-10.6139 7.7461,-14.4805 10.8202,-15.0638 19.72,-31.4177 30.8555,-46.2695 8.4421,-12.7234 13.7756,-27.6035 25.1582,-38.1367 4.4746,-5.1235 8.0312,-10.9822 11.8476,-16.5528 l 0.9763,0.2164 0.9183,0.2036 z m -796.6856,0.1093 c -11.1231,4.1736 -18.4341,14.3241 -27.5497,21.4677 -23.3993,21.2097 -44.3709,45.2174 -69.22168,64.7395 -8.17484,4.8725 -17.03978,11.148 -27.08016,10.787 -6.09373,-1.9275 -13.96326,-3.6175 -18.69141,2.082 -6.83217,6.5511 -10.6992,17.039 -21.01757,18.918 -9.9062,3.1634 -22.49611,-0.5497 -30.12408,8.456 -14.63739,12.9472 -29.41538,25.6533 -48.00952,32.5047 -35.949,16.0281 -72.61054,30.5464 -111.02962,39.4336 -6.06283,1.4192 -14.20215,0.9879 -18.27233,6.4397 -1.69934,3.5119 1.29505,7.1639 3.97461,8.7304 1.35832,10.8266 13.62345,14.9653 20.93023,21.0582 21.86749,14.5746 42.75931,31.3276 67.10201,41.669 17.46081,6.7224 35.86151,12.0192 54.73534,11.4584 14.07649,0.1534 28.42131,1.2194 41.95414,-3.4687 33.79575,-8.0874 66.83011,-19.1104 98.73634,-32.8666 21.8085,-8.309 44.6144,-18.1983 58.9314,-37.5401 11.2672,-12.6396 22.2969,-25.8278 29.2288,-41.4116 11.2353,-19.9575 15.0394,-42.9332 21.2821,-64.6837 0.7396,-3.1817 -0.107,-8.2116 -3.9843,-8.6797 1.1608,-31.5492 -0.1054,-64.6111 -13.9668,-93.5684 -1.5421,-2.8886 -4.3633,-5.9785 -7.9278,-5.5254 z m -667.54685,24.7032 c 10.80003,16.8792 21.45536,33.8502 32.05273,50.8574 -7.3045,1.5634 -9.77257,-7.5526 -14.26836,-11.3598 -10.59471,-13.0282 -20.79008,-27.1863 -25.02265,-43.6695 3.55518,-6.5465 4.18181,1.0766 7.23828,4.1719 z m 666.92185,-0.7774 c 6.4045,30.7018 7.0947,62.7638 2.9166,93.9115 -3.1746,14.6558 -5.8572,30.681 -15.1049,43.0806 -21.0136,23.6019 -45.501,44.2729 -73.2525,59.5475 -27.16003,13.5722 -56.30111,22.7802 -85.29315,31.3157 -31.05246,7.9146 -64.76282,15.364 -96.20543,4.8496 -18.96102,-6.1221 -34.34239,-19.4585 -52.25823,-27.8346 -10.69797,-5.841 -22.24512,-9.8836 -32.96057,-15.6789 36.15494,-2.6075 71.0469,-13.4831 104.50984,-26.9198 24.40616,-9.1404 48.11532,-21.6115 66.27952,-40.6492 5.04652,-5.1683 12.66972,-2.444 18.94111,-4.5599 12.44639,-2.3873 25.30987,-8.1773 31.64648,-19.7773 2.28088,-4.8308 7.58134,-1.352 11.4668,-3.3047 4.74037,-1.3085 8.6515,-4.8109 11.17773,-8.8555 11.19347,-3.1615 23.9143,-4.4566 32.2766,-13.5435 27.1032,-21.9095 49.3384,-49.0666 75.8601,-71.5815 z m -688.64256,12.8281 c 6.41602,13.0954 13.819,25.6847 23.39553,36.7457 1.63714,2.6817 5.28957,5.7785 5.20213,8.5043 -20.76528,17.0399 -45.55454,29.2127 -63.26562,49.8789 -8.76322,9.1255 -13.18812,21.1558 -16.5572,33.0989 -5.80245,17.2321 -12.28313,36.6338 -5.74749,54.5379 3.11409,4.6761 9.87592,0.025 9.23828,-4.6465 0.96525,-14.3571 2.95112,-28.7088 7.7207,-42.1817 3.14245,13.5718 9.77294,27.1683 22.12305,34.5606 18.17644,12.663 41.59889,15.0769 59.08203,28.791 7.85856,6.4714 12.68661,17.4955 8.22461,27.2949 -3.10997,13.3054 -4.18819,28.1623 2.97265,40.4208 4.41875,9.7028 13.31459,16.7174 23.63803,19.1887 22.68021,7.6558 47.03,4.5783 70.00663,0.1614 29.5452,-3.9633 58.33508,-14.0066 88.28699,-13.6849 5.76011,2.2829 9.53834,8.1141 15.71679,9.6191 8.42697,5.8067 15.66301,13.1107 23.80078,19.2891 -18.96816,3.0897 -36.77878,10.7717 -55.07832,16.3499 -26.34355,9.6576 -52.78677,18.9958 -80.49144,23.578 -25.11707,5.4231 -52.69749,13.6552 -77.03666,1.3425 -10.59431,-5.3159 -22.28997,-12.4686 -25.58693,-24.7333 -7.07818,-17.3261 -8.47,-36.1708 -11.01172,-54.5508 -2.78914,-14.4785 -7.67909,-29.1732 -16.97657,-40.8086 -9.96534,-10.1424 -24.45204,-14.2072 -37.9897,-17.0938 -14.7995,-3.3017 -30.3969,-2.5315 -44.85405,-7.2324 -9.89024,-3.2354 -14.88791,-12.9735 -16.99879,-22.5184 -4.6387,-14.9243 -7.82165,-30.8839 -3.32427,-46.0452 5.88168,-26.2888 17.04633,-51.4006 31.72057,-73.9254 10.62595,-13.95 25.64989,-23.1817 37.37984,-36.177 8.28607,-7.2034 16.55026,-14.8297 26.18554,-20.1426 l 0.22461,0.3789 z m 985.28126,2.4825 c -34.0436,0.2138 -68.8523,4.383 -99.7791,19.4908 -6.9036,3.0177 -16.1871,5.113 -19.7111,12.2826 -2.8269,6.0332 -9.761,8.8874 -12.7194,14.9859 -6.7844,11.0718 -5.4395,24.805 -5.4193,37.1762 2.7922,12.4887 15.2382,19.1617 24.9551,25.834 15.4193,8.1186 33.1759,9.4304 49.9047,13.3129 22.6897,3.2099 46.9561,-0.7044 68.1109,10.0094 12.8908,6.3297 24.8885,14.393 37.5,21.375 8.2709,5.6219 15.5003,12.6146 24.4277,17.1523 9.7784,7.7341 18.2045,17.8938 30.6016,21.5918 12.5299,4.6575 28.4035,3.3857 37.3945,-7.5078 7.8016,-7.4779 15.1374,-17.2011 14.0435,-28.6452 0.6687,-14.9625 1.4009,-30.599 -3.524,-44.9466 -2.0476,-3.2145 -5.9663,-4.7 -6.2753,-8.9277 -5.9035,-14.0933 -13.2046,-27.7337 -21.9356,-40.2774 -9.8363,-12.3594 -21.1082,-23.9519 -34.2908,-32.7184 -14.0729,-8.3899 -28.8342,-15.454 -42.9611,-23.5824 -12.5576,-5.8363 -26.6693,-6.8135 -40.3223,-6.6054 z m -884.03321,3.0898 c -5.69211,0.9624 -4.38858,8.1992 -2.05664,11.5898 24.82061,56.2818 63.46978,108.373 116.58008,140.7286 20.37333,11.4282 43.24557,18.6831 66.30859,21.6113 2.7866,-2.7148 5.08851,1.4512 7.78913,2.7855 8.41221,5.6991 16.09373,12.9746 25.21673,17.3727 5.58148,0.709 7.03468,-7.4426 2.70508,-10.0391 -5.62797,-7.27 -15.92532,-11.575 -18.27344,-20.8183 2.05218,-7.6367 11.73507,-12.2799 11.39063,-20.3907 -3.8622,-5.8131 -11.97457,-2.555 -17.36719,-1.4746 -8.7679,3.2158 -17.52803,11.6552 -16.63281,21.6055 -0.93017,1.6808 -7.25099,-2.5889 -10.17969,-3.1328 -26.38841,-9.7521 -51.60749,-23.6091 -72.7728,-42.2705 -34.74412,-29.2519 -60.90112,-67.4468 -82.60963,-107.1524 -2.78681,-3.5068 -5.23795,-9.8116 -10.09804,-10.415 z m 257.00195,13.041 c -4.701,1.7935 -4.24814,8.4937 -5.71289,12.5449 -4.40768,21.9029 -6.89829,44.7001 -18.51067,64.2442 -6.58163,12.892 -17.00596,23.395 -24.12995,35.789 -1.05871,5.7238 7.42929,6.4473 9.80078,2.3301 31.4053,-27.4309 48.84402,-71.5099 41.31641,-112.8222 -0.40552,-1.1577 -1.4583,-2.2098 -2.76368,-2.086 z m 166.42383,7.6738 c -5.778,0.047 -5.75329,7.8928 -2.21484,10.8418 6.23136,7.506 8.83288,18.4576 16.91015,24.1485 5.41798,1.5393 6.86623,-5.7535 4.60157,-9.3145 -5.01426,-8.932 -9.15561,-19.7032 -17.83594,-25.5801 -0.48087,-0.1137 -0.97032,-0.1053 -1.46094,-0.096 z m 467.32423,1.8711 c 19.6948,-0.1362 35.6714,13.1779 53.0449,20.459 21.5785,9.7192 37.5691,28.7409 48.7554,49.206 6.9839,12.3085 10.5887,26.0499 14.7388,39.4307 1.2108,4.141 6.7957,6.3794 4.7949,11.0235 -1.5981,9.5273 -8.5173,22.0311 -19.7403,20.3535 -11.2391,-3.0417 -17.7668,-13.8516 -26.7037,-20.5685 -17.2104,-15.9155 -36.5355,-30.9789 -59.7552,-36.5858 -26.3688,-9.0262 -54.1884,-12.4186 -81.8497,-14.377 -13.7608,-1.7884 -27.9308,-2.1586 -41.0722,-6.3886 -2,-7.3858 -1.6089,-15.5048 -2.4746,-23.1895 0.2599,-7.3292 -2.585,-17.4125 5.584,-21.5293 10.1495,-5.9075 21.7611,-9.0359 33.0577,-11.9621 23.4538,-5.054 47.5965,-4.9191 71.62,-5.8719 z M 896.70508,1210 c -6.27449,0.4959 -6.31911,8.3287 -4.54492,12.7793 3.41799,10.9962 8.46148,23.7662 19.24218,29.1211 5.24766,0.3231 5.70801,-6.2962 2.79688,-9.3145 -7.38234,-8.4483 -11.34983,-19.4193 -13.41797,-30.3086 -0.89016,-1.3469 -2.43523,-2.3067 -4.07617,-2.2773 z m 767.48832,4.3008 c -7.7419,0.043 -10.0553,11.415 -3.7735,15.3027 5.0444,6.8115 1.3592,15.7063 2.6133,23.5059 0.4445,5.5119 -2.1452,12.3398 2.1992,16.8867 11.4963,-8.7954 18.0695,-23.6145 15.5547,-38.0313 -1.2312,-8.4204 -7.4554,-17.2891 -16.5937,-17.664 z M 464.29883,1230.875 c 33.72434,50.5772 71.39981,98.3752 109.77104,145.4716 15.56282,19.2428 29.71764,39.7531 47.7563,56.8468 -44.24672,1.2093 -87.66968,16.2323 -131.84375,12.3261 -10.467,-0.8654 -22.88142,-4.6726 -26.24219,-15.8925 -4.4377,-10.5486 -2.60988,-22.2947 0.80469,-32.8204 3.08023,-16.9934 -8.03926,-33.387 -22.37122,-41.5935 -16.33208,-11.4269 -36.50973,-15.4675 -53.18347,-26.1428 -9.00997,-6.9832 -14.5846,-18.0566 -16.16992,-29.1777 -0.15602,-10.4383 6.24749,-19.6634 12.23852,-27.7104 11.07207,-13.793 28.48598,-20.1596 41.72438,-31.6196 4.01588,-2.5554 7.83517,-6.8708 12.21288,-7.9376 8.36163,2.8975 17.14029,1.2902 25.30274,-1.75 z m 1309.30667,4.334 c -4.9716,-0.038 -9.1623,8.4625 -3.0586,10.2187 5.3392,1.9335 12.1041,-6.7301 5.6386,-9.7109 -0.8158,-0.3172 -1.6954,-0.5926 -2.58,-0.5078 z m -34.0723,48.998 c -21.1098,2.4327 -41.8393,8.6076 -63.1973,8.3653 -3.7119,-0.1118 -8.2919,5.0178 -4.0039,7.5742 7.7349,2.2314 16.2063,0.8616 24.1953,0.7871 15.6392,-1.3525 31.4176,-4.1438 46.2012,-9.2539 3.2377,-2.568 0.7551,-7.8241 -3.1953,-7.4727 z m -1127.83398,62.666 c -5.77797,0.4669 -3.13995,8.2382 0.91992,9.3711 31.595,12.8376 64.01187,23.7889 96.42969,34.2247 4.29095,1.3499 11.28392,1.5898 12.15429,-4.2481 -3.66685,-6.8423 -12.86049,-5.9993 -18.96611,-9.2351 -30.25524,-9.7497 -59.98797,-21.4838 -90.53779,-30.1126 z m 707.91018,1.8379 c -5.1876,-0.3872 -18.1346,-0.4384 -14.4922,8.0684 4.6522,5.2931 13.0354,2.9426 19.1929,3.8764 17.4616,-0.1549 34.9536,3.6409 50.3461,12.6529 16.1888,8.5835 29.8494,21.3019 45.6934,30.2207 6.0145,0.8529 5.9125,-7.616 1.832,-9.9531 -20.296,-20.0695 -45.3377,-36.3961 -73.2631,-43.2007 -9.6859,-1.519 -19.531,-1.6332 -29.3091,-1.6646 z m 288.6386,22.543 c -4.8626,-0.197 -7.0735,7.8207 -1.6816,8.8887 3.9255,1.4541 12.1548,-0.092 10.0391,-5.7832 -1.4665,-3.3596 -5.3439,-2.9104 -8.3575,-3.1055 z m -961.14448,12.1836 c -5.49701,0.6909 -3.89481,8.0934 0.51171,9.1563 24.05798,7.7241 48.01436,17.8532 73.4668,19.7265 4.81753,0.6437 7.52832,-6.8957 2.47461,-8.3594 -13.47258,-4.3247 -27.6628,-5.5691 -40.83533,-10.393 -11.68778,-3.4566 -23.49315,-8.2365 -35.61779,-10.1304 z m 429.70698,29.2461 c -42.6076,1.4031 -84.77959,18.8908 -115.39644,48.625 -4.49594,3.8032 -13.23686,14.082 -3.5039,16.8984 6.04612,0.3064 9.38302,-6.5496 14.29126,-9.0595 20.77012,-16.8408 43.97598,-31.4214 70.19678,-37.8751 17.3521,-5.118 35.3685,-7.2348 53.2659,-9.7197 3.6241,-0.5435 3.2118,-5.5099 -0.2364,-6.0488 -5.9057,-2.1883 -12.346,-2.9263 -18.6172,-2.8203 z m -400.94527,2.623 c -4.92899,-0.087 -5.19664,6.6327 -1.19531,8.3243 16.95009,4.2973 33.89891,9.476 50.72701,14.5154 10.89152,2.711 21.75719,6.7687 32.98588,7.465 4.34213,0.3455 6.97487,-5.4378 3.21875,-8.0215 -16.50731,-7.9794 -35.00557,-10.2038 -52.33422,-15.5764 -10.95713,-2.9492 -22.01351,-6.1254 -33.40211,-6.7068 z m 839.14067,32.586 c -4.5707,1.2673 -11.7229,-2.1462 -14.5606,3.0019 -1.7315,3.9085 2.8486,6.9498 6.3945,5.8067 5.684,0.2657 11.9155,1.1484 16.9707,-2.1641 -0.3633,-4.6356 -4.4515,-7.1214 -8.8046,-6.6445 z m -779.83793,2.1504 c -4.50148,1.3831 -3.26956,7.2839 0.70703,8.4062 19.46277,6.643 38.85208,14.435 59.03516,18.5 6.02349,-0.4905 4.63741,-9.9111 -0.9043,-9.9004 -19.33333,-6.3384 -38.86,-13.7806 -58.83789,-17.0058 z m 23.50781,31.1562 c -4.91301,-0.098 -5.59081,6.5517 -1.49805,8.418 10.32758,4.3154 21.31051,7.4033 32.00977,10.8437 11.53101,3.0627 23.67751,6.347 35.59961,5.1153 4.9037,-2.2388 1.17823,-9.3062 -3.35547,-8.8516 -21.23483,-3.8341 -41.76554,-10.851 -62.75586,-15.5254 z m 72.59375,56.5879 c -5.20194,-0.6788 -6.15366,8.278 -0.76172,8.8828 30.09387,5.0124 60.68885,11.5921 91.32813,8.4922 3.96522,-0.2783 8.2503,-5.0335 3.90429,-7.9473 -5.22598,-3.3408 -12.03884,-1.5293 -17.81835,-2.5234 -25.64874,-0.7445 -51.06073,-4.8359 -76.65235,-6.9043 z m -658.82812,206.0527 c -7.22081,0.3345 -5.64132,11.4126 0.61328,12.0372 5.12353,1.6531 9.81285,-4.5215 6.58593,-8.8926 -1.58684,-2.126 -4.61524,-3.1851 -7.19921,-3.1446 z"
     id="path4138"
     inkscape:connector-curvature="0" />
  <ellipse
     style="color:#000000;clip-rule:nonzero;display:inline;overflow:visible;visibility:visible;opacity:1;isolation:auto;mix-blend-mode:normal;color-interpolation:sRGB;color-interpolation-filters:linearRGB;solid-color:#000000;solid-opacity:1;fill:none;fill-opacity:1;fill-rule:nonzero;stroke:none;stroke-width:1.06993353px;stroke-linecap:butt;stroke-linejoin:miter;stroke-miterlimit:4;stroke-dasharray:none;stroke-dashoffset:0;stroke-opacity:1;color-rendering:auto;image-rendering:auto;shape-rendering:auto;text-rendering:auto;enable-background:accumulate"
     id="path4189"
     cx="1134.5679"
     cy="1116.6333"
     rx="1134.033"
     ry="1133.7539"
     transform="matrix(0.99987699,0.01568461,0,1,0,0)" />
</svg>
