<?xml version="1.0" encoding="UTF-8" standalone="no"?>
<svg
   xmlns:dc="http://purl.org/dc/elements/1.1/"
   xmlns:cc="http://creativecommons.org/ns#"
   xmlns:rdf="http://www.w3.org/1999/02/22-rdf-syntax-ns#"
   xmlns:svg="http://www.w3.org/2000/svg"
   xmlns="http://www.w3.org/2000/svg"
   version="1.1"
   id="svg256946"
   viewBox="0 0 171.66244 29.780627"
   height="8.4047546mm"
   width="48.446957mm">
  <defs
     id="defs256948" />
  <metadata
     id="metadata256951">
    <rdf:RDF>
      <cc:Work
         rdf:about="">
        <dc:format>image/svg+xml</dc:format>
        <dc:type
           rdf:resource="http://purl.org/dc/dcmitype/StillImage" />
        <dc:title></dc:title>
      </cc:Work>
    </rdf:RDF>
  </metadata>
  <g
     style="opacity:0.76399997"
     transform="translate(3.7355,-210.20786)"
     id="layer1">
    <g
       transform="matrix(1.875,0,0,-1.875,14.992,212.65849)"
       id="g140516">
      <path
         id="path140518"
         style="fill:#231f20;fill-opacity:1;fill-rule:nonzero;stroke:none"
         d="m 0,0 3.166,0 0,-8.508 c 0,0 -0.029,0 -0.029,-0.029 l -0.203,-0.174 0,-0.029 -3.659,-3.572 -5.691,0 0,3.107 4.18,0 0.813,0 0,0.029 c 0,0 0.029,0.03 0.058,0.03 l 1.279,1.306 c 0.028,0.029 0.057,0.059 0.057,0.088 L 0,-7.752 0,0 Z m -5.109,1.307 0,-0.029 c -0.029,0.029 -0.029,0.029 -0.058,0.029 -0.059,0 -0.059,-0.029 -0.089,-0.059 l -4.673,-4.646 c -0.029,-0.029 -0.029,-0.057 -0.029,-0.116 0,0 0,-0.028 0.029,-0.058 l -0.059,0 0,-10.946 11.323,0 0.059,-0.058 4.53,4.528 -0.059,0.059 0,11.296 -10.974,0 z" />
    </g>
    <g
       transform="matrix(1.875,0,0,-1.875,153.22751,223.65574)"
       id="g140520">
      <path
         id="path140522"
         style="fill:#231f20;fill-opacity:1;fill-rule:nonzero;stroke:none"
         d="m 0,0 0,3.077 4.441,0 0,-0.086 0.089,0 0,-0.058 0.088,0 0,-0.087 0.056,0 0,-0.174 0.175,0 0,-0.059 0.087,0 0,-0.087 0.058,0 0,-0.059 0.087,0 0,-0.174 0.058,0 0,-1.597 -0.058,0 0,-0.173 -0.087,0 0,-0.058 -0.058,0 0,-0.089 -0.087,0 0,-0.085 -0.175,0 0,-0.145 -0.056,0 0,-0.087 -0.088,0 L 4.53,0 0,0 Z m 5.139,4.616 0,0.088 -6.794,0 0,-6.33 6.969,0 0,0.145 0.086,0 0,0.058 0.059,0 0,0.087 0.088,0 0,0.088 0.173,0 0,0.144 0.059,0 0,0.087 0.085,0 0,0.087 0.059,0 0,0.058 0.088,0 0,0.088 0.086,0 0,0.058 0.088,0 0,0.087 0.057,0 0,0.086 0.087,0 0,0.088 0.088,0 0,0.058 0.059,0 0,0.088 0.144,0 0,0.173 0.059,0 0,0.058 0.086,0 0,3.165 -0.086,0 0,0.087 -0.059,0 0,0.088 -0.087,0 0,0.059 -0.057,0 0,0.086 -0.059,0 0,0.058 -0.088,0 0,0.087 -0.087,0 0,0.087 -0.057,0 0,0.058 -0.088,0 0,0.088 -0.086,0 0,0.087 -0.088,0 0,0.087 -0.059,0 0,0.087 -0.085,0 0,0.059 -0.059,0 0,0.145 -0.173,0 0,0.086 -0.088,0 0,0.087 -0.059,0 0,0.059 -0.086,0 0,0.088 -0.087,0 0,0.056 -0.088,0 z" />
    </g>
    <g
       transform="matrix(1.875,0,0,-1.875,76.67839,214.83555)"
       id="g140524">
      <path
         id="path140526"
         style="fill:#231f20;fill-opacity:1;fill-rule:nonzero;stroke:none"
         d="m 0,0 -1.51,0 0,-4.008 -0.785,-0.696 -4.732,0 0,4.704 -1.538,0 0,-6.33 6.967,0 L 0,-4.792 0,0 Z" />
    </g>
    <g
       transform="matrix(1.875,0,0,-1.875,105.80501,214.72567)"
       id="g140528">
      <path
         id="path140530"
         style="fill:#231f20;fill-opacity:1;fill-rule:nonzero;stroke:none"
         d="m 0,0 -3.396,0 -1.685,-1.308 0,-5.081 1.598,0 0,4.24 0.695,0.463 1.162,0 0,-4.703 3.483,0 1.715,1.307 0,5.082 -1.626,0 0,-4.239 L 1.249,-4.704 0,-4.704 0,0 Z" />
    </g>
    <g
       transform="matrix(1.875,0,0,-1.875,94.972375,214.72567)"
       id="g140532">
      <path
         id="path140534"
         style="fill:#231f20;fill-opacity:1;fill-rule:nonzero;stroke:none"
         d="m 0,0 -7.057,0 -1.597,-2.091 0,-1.917 1.54,-2.381 7.114,0 0,1.685 -6.272,0 -0.553,0.783 6.825,0 0,1.625 -6.825,0 0.553,0.61 6.272,0 L 0,0 Z" />
    </g>
    <g
       transform="matrix(1.875,0,0,-1.875,135.09812,214.83555)"
       id="g140536">
      <path
         id="path140538"
         style="fill:#231f20;fill-opacity:1;fill-rule:nonzero;stroke:none"
         d="m 0,0 -1.714,0 0,-4.792 1.627,-1.538 5.313,0 1.713,1.538 0,4.792 -1.626,0 0,-3.949 -0.841,-0.755 -3.689,0 L 0,-3.949 0,0 Z" />
    </g>
    <g
       transform="matrix(1.875,0,0,-1.875,127.42057,214.83555)"
       id="g140540">
      <path
         id="path140542"
         style="fill:#231f20;fill-opacity:1;fill-rule:nonzero;stroke:none"
         d="m 0,0 -5.255,0 -1.715,-1.627 0,-2.381 1.627,0 0,1.597 0.842,0.784 0.929,0 0,-4.703 1.715,0 0,4.703 1.044,0 0.813,-0.784 0,-1.597 1.685,0 0,2.381 L 0,0 Z" />
    </g>
    <g
       transform="matrix(1.875,0,0,-1.875,145.22389,233.67349)"
       id="g140544">
      <path
         id="path140546"
         style="fill:#231f20;fill-opacity:1;fill-rule:nonzero;stroke:none"
         d="m 0,0 0,0.231 -2.614,0 0,0.147 0.378,0.464 2.236,0 0,0.232 -2.323,0 -0.464,-0.61 0,-0.61 0.464,-0.696 2.323,0 0,0.233 -2.236,0 -0.378,0.551 0,0.058 L 0,0 Z" />
    </g>
    <g
       transform="matrix(1.875,0,0,-1.875,145.65964,232.63887)"
       id="g140548">
      <path
         id="path140550"
         style="fill:#231f20;fill-opacity:1;fill-rule:nonzero;stroke:none"
         d="m 0,0 0,-0.958 0.551,-0.522 2.236,0 0,1.103 -1.858,0 0,-0.175 1.684,0 0,-0.697 -1.974,0 -0.493,0.378 0,0.783 0.493,0.378 2.148,0 0,0.232 -2.236,0 L 0,0 Z" />
    </g>
    <g
       transform="matrix(1.875,0,0,-1.875,139.56419,234.43512)"
       id="g140552">
      <path
         id="path140554"
         style="fill:#231f20;fill-opacity:1;fill-rule:nonzero;stroke:none"
         d="m 0,0 0,0.638 -2.528,0 0,0.32 0.379,0.29 1.858,0 -0.263,0.232 -1.683,0 -0.552,-0.434 0,-0.64 2.556,0 0,-0.319 -0.465,-0.378 -2.091,0 0,-0.231 2.235,0 L 0,0 Z" />
    </g>
    <g
       transform="matrix(1.875,0,0,-1.875,156.65707,231.65937)"
       id="g140556">
      <path
         id="path140558"
         style="fill:#231f20;fill-opacity:1;fill-rule:nonzero;stroke:none"
         d="m 0,0 -0.232,0 0,-1.307 -0.407,-0.377 -1.509,0 -0.378,0.377 0,1.307 -0.262,0 0,-1.48 0.494,-0.436 1.828,0 L 0,-1.48 0,0 Z" />
    </g>
    <g
       transform="matrix(1.875,0,0,-1.875,157.5267,233.23942)"
       id="g140560">
      <path
         id="path140562"
         style="fill:#231f20;fill-opacity:1;fill-rule:nonzero;stroke:none"
         d="m 0,0 0,0.32 0.146,0 0,0.145 0.086,0 0,0.087 0.146,0 0,0.058 1.48,0 0,-0.058 0.147,0 0,-0.087 0.087,0 0,-0.145 0.145,0 0,-0.174 0.088,0 L 2.325,0 0,0 Z m 0,0.61 0,-0.058 -0.085,0 0,-0.087 -0.059,0 0,-0.145 -0.087,0 0,-1.393 0.231,0 0,0.842 0.378,0 0,-0.146 0.175,0 0,-0.174 0.087,0 0,-0.087 0.145,0 0,-0.144 0.144,0 0,-0.147 0.089,0 0,-0.058 0.173,0 0,-0.086 1.365,0 0,0.232 -1.336,0 0,0.059 -0.029,0 0,0.086 -0.115,0 0,0.058 -0.147,0 0,0.174 -0.086,0 0,0.087 -0.058,0 0,0.088 -0.088,0 0,0.058 1.859,0 0,0.551 -0.087,0 0,0.088 -0.088,0 0,0.144 -0.144,0 0,0.058 -0.089,0 0,0.087 -0.056,0 0,0.06 -0.146,0 0,0.086 -1.714,0 0,-0.086 -0.086,0 0,-0.06 -0.087,0 0,-0.087 -0.059,0 z" />
    </g>
    <g
       transform="matrix(1.875,0,0,-1.875,115.06282,232.20499)"
       id="g140564">
      <path
         id="path140566"
         style="fill:#231f20;fill-opacity:1;fill-rule:nonzero;stroke:none"
         d="m 0,0 0,0.059 1.567,0 0,-0.059 0.145,0 0,-0.144 0.087,0 0,-0.087 0.058,0 0,-0.088 0.087,0 0,-0.522 -2.323,0 0,0.61 0.147,0 0,0.087 0.086,0 0,0.144 L 0,0 Z m 2.206,-1.625 0,1.017 -0.116,0 0,0.521 -0.058,0 0,0.087 -0.175,0 0,0.146 -0.145,0 0,0.145 -1.858,0 0,-0.145 -0.145,0 0,-0.087 -0.088,0 0,-0.059 -0.058,0 0,-0.087 -0.085,0 0,-0.144 -0.06,0 0,-1.394 0.203,0 0,0.522 2.323,0 0,-0.522 0.262,0 z" />
    </g>
    <g
       transform="matrix(1.875,0,0,-1.875,121.759,234.81612)"
       id="g140568">
      <path
         id="path140570"
         style="fill:#231f20;fill-opacity:1;fill-rule:nonzero;stroke:none"
         d="m 0,0 0,1.451 1.857,0 0,-0.058 0.146,0 0,-0.087 0.059,0 0,-0.145 0.144,0 0,-0.958 -0.029,0 0,-0.058 -0.115,0 0,-0.086 -0.059,0 L 2.003,0 0,0 Z m -0.232,1.684 0,-1.916 2.294,0 0,0.086 0.144,0 0,0.146 0.117,0 0,0.059 0.144,0 0,1.19 -0.085,0 0,0.057 -0.059,0 0,0.087 -0.117,0 0,0.058 -0.029,0 0,0.087 -0.115,0 0,0.06 -0.059,0 0,0.086 -2.235,0 z" />
    </g>
    <g
       transform="matrix(1.875,0,0,-1.875,132.21064,232.09512)"
       id="g140572">
      <path
         id="path140574"
         style="fill:#231f20;fill-opacity:1;fill-rule:nonzero;stroke:none"
         d="m 0,0 0,0.232 -2.41,0 -0.465,-0.61 0,-0.609 0.465,-0.697 2.41,0 0,0.233 -2.264,0 -0.408,0.552 0,0.057 2.672,0 0,0.232 -2.672,0 0,0.146 L -2.264,0 0,0 Z" />
    </g>
    <g
       transform="matrix(1.875,0,0,-1.875,98.56489,232.36792)"
       id="g140576">
      <path
         id="path140578"
         style="fill:#231f20;fill-opacity:1;fill-rule:nonzero;stroke:none"
         d="m 0,0 0,0.087 0.087,0 0,0.059 1.539,0 0,-0.059 0.145,0 0,-0.087 0.117,0 0,-0.057 0.057,0 0,-0.088 0.088,0 0,-0.087 0.087,0 0,-0.871 -0.175,0 0,-0.058 -0.057,0 0,-0.086 -0.175,0 0,-0.059 -1.713,0 0,0.059 -0.146,0 0,0.144 -0.173,0 0,0.871 0.088,0 0,0.087 0.085,0 0,0.088 0.087,0 0,0.057 L 0,0 Z m 1.771,0.292 -0.058,0 0,0.086 -1.713,0 0,-0.086 -0.059,0 0,-0.06 -0.087,0 0,-0.086 -0.085,0 0,-0.059 -0.088,0 0,-0.087 -0.06,0 0,-0.057 -0.085,0 0,-0.088 -0.087,0 0,-1.016 0.087,0 0,-0.086 0.145,0 0,-0.147 0.173,0 0,-0.058 0.087,0 0,-0.086 1.947,0 0,0.086 0.057,0 0,0.058 0.088,0 0,0.088 0.087,0 0,0.059 0.029,0 0,0.086 0.086,0 0,1.016 -0.086,0 0,0.088 -0.029,0 0,0.144 -0.175,0 0,0.145 -0.174,0 0,0.06 z" />
    </g>
    <g
       transform="matrix(1.875,0,0,-1.875,94.69957,231.93217)"
       id="g140580">
      <path
         id="path140582"
         style="fill:#231f20;fill-opacity:1;fill-rule:nonzero;stroke:none"
         d="m 0,0 0.61,0 0.376,-0.465 0,-1.306 0.234,0 0,1.394 -0.465,0.523 -1.859,0 -0.464,-0.523 0,-1.394 0.232,0 0,1.306 0.465,0.465 0.638,0 0,-1.771 0.233,0 L 0,0 Z" />
    </g>
    <g
       transform="matrix(1.875,0,0,-1.875,113.48257,231.49812)"
       id="g140584">
      <path
         id="path140586"
         style="fill:#231f20;fill-opacity:1;fill-rule:nonzero;stroke:none"
         d="m 0,0 -0.202,0 0,-1.566 -0.407,-0.204 -0.698,0 0,1.77 -1.017,0 -0.463,-0.377 0,-1.625 0.261,0 0,1.394 0.378,0.377 0.61,0 0,-1.771 1.102,0 L 0,-1.711 0,0 Z" />
    </g>
    <path
       id="path140588"
       style="fill:#231f20;fill-opacity:1;fill-rule:nonzero;stroke:none"
       d="m 108.14782,231.65862 -0.435,0 0,3.5925 0.435,0 0,-3.5925 z" />
    <g
       transform="matrix(1.875,0,0,-1.875,103.51807,231.65937)"
       id="g140590">
      <path
         id="path140592"
         style="fill:#231f20;fill-opacity:1;fill-rule:nonzero;stroke:none"
         d="m 0,0 -0.174,0 0,-1.48 0.552,-0.436 1.713,0 0,0.232 -1.654,0 L 0,-1.394 0,0 Z" />
    </g>
    <g
       transform="matrix(1.875,0,0,-1.875,76.5685,230.89755)"
       id="g140594">
      <path
         id="path140596"
         style="fill:#231f20;fill-opacity:1;fill-rule:nonzero;stroke:none"
         d="m 0,0 -0.551,0 0,-1.8 0.61,-0.522 2.003,0 0,0.609 -1.771,0 L 0,-1.48 0,0 Z" />
    </g>
    <g
       transform="matrix(1.875,0,0,-1.875,69.7075,233.07292)"
       id="g140598">
      <path
         id="path140600"
         style="fill:#231f20;fill-opacity:1;fill-rule:nonzero;stroke:none"
         d="m 0,0 0,0.319 0.089,0 0,0.057 0.086,0 0,0.087 0.087,0 0,0.058 0.058,0 0,0.087 1.482,0 0,-0.145 0.174,0 0,-0.144 0.057,0 L 2.033,0 0,0 Z m 2.208,1.073 -0.088,0 0,0.087 -2.12,0 0,-0.087 -0.087,0 0,-0.087 -0.029,0 0,-0.088 -0.115,0 0,-0.058 -0.059,0 0,-0.086 -0.086,0 0,-0.086 -0.088,0 0,-0.06 -0.144,0 0,-1.77 0.608,0 0,0.522 2.033,0 0,-0.522 0.61,0 0,1.77 -0.144,0 0,0.146 -0.089,0 0,0.086 -0.088,0 0,0.058 -0.055,0 0,0.088 -0.059,0 0,0.087 z" />
    </g>
    <g
       transform="matrix(1.875,0,0,-1.875,87.56575,232.47406)"
       id="g140602">
      <path
         id="path140604"
         style="fill:#231f20;fill-opacity:1;fill-rule:nonzero;stroke:none"
         d="m 0,0 0,-0.319 -2.003,0 0,0.319 0.087,0 0,0.144 0.146,0 0,0.145 1.538,0 0,-0.145 0.146,0 L -0.086,0 0,0 Z m 0.203,0.579 0,0.088 -0.144,0 0,0.174 -2.062,0 0,-0.087 -0.087,0 0,-0.087 -0.058,0 0,-0.088 -0.087,0 0,-0.058 -0.087,0 0,-0.086 -0.088,0 0,-0.086 -0.057,0 0,-0.06 -0.146,0 0,-1.77 0.61,0 0,0.522 2.003,0 0,-0.522 0.611,0 0,1.77 -0.146,0 0,0.146 -0.086,0 0,0.086 -0.059,0 0,0.058 -0.117,0 z" />
    </g>
    <g
       transform="matrix(1.875,0,0,-1.875,81.90607,229.48042)"
       id="g140606">
      <path
         id="path140608"
         style="fill:#231f20;fill-opacity:1;fill-rule:nonzero;stroke:none"
         d="m 0,0 0.087,0 0,0.319 -0.64,0 0,-0.319 -0.056,0 0,-0.436 0.521,0 0,0.03 0.088,0 L 0,0 Z" />
    </g>
    <path
       id="path140610"
       style="fill:#231f20;fill-opacity:1;fill-rule:nonzero;stroke:none"
       d="m 81.74032,230.89737 -0.976875,0 0,4.35375 0.976875,0 0,-4.35375 z" />
    <g
       transform="matrix(1.875,0,0,-1.875,163.95194,232.20499)"
       id="g140612">
      <path
         id="path140614"
         style="fill:#231f20;fill-opacity:1;fill-rule:nonzero;stroke:none"
         d="m 0,0 0,0.059 1.511,0 0,-0.059 0.086,0 0,-0.087 0.058,0 0,-0.057 0.088,0 0,-0.087 0.086,0 0,-0.088 0.088,0 0,-0.522 -2.322,0 0,0.522 0.086,0 0,0.088 0.058,0 0,0.087 0.088,0 0,0.057 0.086,0 0,0.087 L 0,0 Z m 1.655,0.205 -0.058,0 0,0.086 -1.684,0 0,-0.086 -0.086,0 0,-0.059 -0.088,0 0,-0.087 -0.058,0 0,-0.059 -0.086,0 0,-0.087 -0.088,0 0,-0.057 -0.088,0 0,-0.087 -0.058,0 0,-1.394 0.234,0 0,0.522 2.322,0 0,-0.522 0.203,0 0,1.394 -0.058,0 0,0.087 -0.086,0 0,0.144 -0.147,0 0,0.146 -0.174,0 0,0.059 z" />
    </g>
    <g
       transform="matrix(1.875,0,0,-1.875,40.63582,214.83555)"
       id="g140616">
      <path
         id="path140618"
         style="fill:#231f20;fill-opacity:1;fill-rule:nonzero;stroke:none"
         d="m 0,0 -1.626,0 0,-4.008 -0.841,-0.696 -2.498,0 0,-1.626 3.049,0 L 0,-4.792 0,0 Z" />
    </g>
    <g
       transform="matrix(1.875,0,0,-1.875,45.537625,214.83555)"
       id="g140620">
      <path
         id="path140622"
         style="fill:#231f20;fill-opacity:1;fill-rule:nonzero;stroke:none"
         d="m 0,0 -1.628,0 0,-4.792 1.54,-1.538 5.431,0 1.625,1.538 0,4.792 -1.625,0 0,-3.949 -0.757,-0.755 -3.804,0 L 0,-3.949 0,0 Z" />
    </g>
    <g
       transform="matrix(1.875,0,0,-1.875,57.404695,234.27217)"
       id="g140624">
      <path
         id="path140626"
         style="fill:#231f20;fill-opacity:1;fill-rule:nonzero;stroke:none"
         d="m 0,0 -2.293,0 -0.262,0.319 0,0.64 0.262,0.289 2.293,0 0,0.552 -2.613,0 -0.638,-0.552 0,-1.161 0.638,-0.609 2.613,0 L 0,0 Z" />
    </g>
    <g
       transform="matrix(1.875,0,0,-1.875,57.56764,232.20499)"
       id="g140628">
      <path
         id="path140630"
         style="fill:#231f20;fill-opacity:1;fill-rule:nonzero;stroke:none"
         d="m 0,0 0,-0.783 0.609,-0.842 2.702,0 0,0.609 -2.381,0 -0.146,0.321 2.527,0 0,0.608 -2.527,0 0.146,0.233 2.381,0 0,0.551 -2.702,0 L 0,0 Z" />
    </g>
    <g
       transform="matrix(1.875,0,0,-1.875,49.62082,233.78149)"
       id="g140632">
      <path
         id="path140634"
         style="fill:#231f20;fill-opacity:1;fill-rule:nonzero;stroke:none"
         d="m 0,0 -0.319,-0.175 -0.466,0 0,1.713 -1.307,0 -0.608,-0.406 0,-1.916 0.608,0 0,1.625 0.203,0.145 0.493,0 0,-1.77 1.308,0 0.639,0.435 0,1.887 L 0,1.538 0,0 Z" />
    </g>
    <g
       transform="matrix(1.875,0,0,-1.875,67.74832,230.89755)"
       id="g140636">
      <path
         id="path140638"
         style="fill:#231f20;fill-opacity:1;fill-rule:nonzero;stroke:none"
         d="m 0,0 -0.58,0 0,-1.48 -0.378,-0.233 -0.842,0 0,-0.696 1.075,0 L 0,-1.8 0,0 Z" />
    </g>
    <g
       transform="matrix(1.875,0,0,-1.875,31.32682,231.93217)"
       id="g140640">
      <path
         id="path140642"
         style="fill:#231f20;fill-opacity:1;fill-rule:nonzero;stroke:none"
         d="m 0,0 0,-1.161 0.552,-0.61 2.641,0 0,0.523 -2.264,0 -0.29,0.319 0,0.64 0.29,0.289 2.264,0 0,0.552 -2.641,0 L 0,0 Z" />
    </g>
    <g
       transform="matrix(1.875,0,0,-1.875,42.106195,232.09512)"
       id="g140644">
      <path
         id="path140646"
         style="fill:#231f20;fill-opacity:1;fill-rule:nonzero;stroke:none"
         d="m 0,0 0.059,0 0,-0.059 0.087,0 0,-0.087 0.056,0 0,-0.144 0.089,0 0,-0.609 -0.089,0 0,-0.088 -0.143,0 0,-0.087 -1.54,0 0,0.087 -0.146,0 0,0.145 -0.144,0 0,0.552 0.057,0 0,0.088 0.087,0 0,0.143 0.146,0 0,0.146 L 0,0.087 0,0 Z m 0.291,0.552 0,0.087 -2.062,0 0,-0.087 -0.087,0 0,-0.087 -0.088,0 0,-0.088 -0.058,0 0,-0.059 -0.086,0 0,-0.086 -0.088,0 0,-0.145 -0.145,0 0,-0.087 -0.087,0 0,-1.248 0.232,0 0,-0.145 0.174,0 0,-0.058 0.058,0 0,-0.088 0.088,0 0,-0.059 0.087,0 0,-0.086 2.15,0 0,0.086 0.056,0 0,0.059 0.087,0 0,0.088 0.088,0 0,0.058 0.144,0 0,0.145 0.145,0 0,1.248 -0.057,0 0,0.087 -0.088,0 0,0.059 -0.058,0 0,0.086 -0.086,0 0,0.086 -0.088,0 0,0.059 -0.087,0 0,0.088 -0.056,0 0,0.087 -0.088,0 z" />
    </g>
  </g>
</svg>
