<?xml version="1.0" encoding="UTF-8" standalone="no"?>
<svg
   xmlns:dc="http://purl.org/dc/elements/1.1/"
   xmlns:cc="http://creativecommons.org/ns#"
   xmlns:rdf="http://www.w3.org/1999/02/22-rdf-syntax-ns#"
   xmlns:svg="http://www.w3.org/2000/svg"
   xmlns="http://www.w3.org/2000/svg"
   version="1.1"
   id="svg4411"
   viewBox="0 0 154.25079 50.933633"
   height="14.374603mm"
   width="43.533001mm">
  <defs
     id="defs4413" />
  <metadata
     id="metadata4416">
    <rdf:RDF>
      <cc:Work
         rdf:about="">
        <dc:format>image/svg+xml</dc:format>
        <dc:type
           rdf:resource="http://purl.org/dc/dcmitype/StillImage" />
        <dc:title></dc:title>
      </cc:Work>
    </rdf:RDF>
  </metadata>
  <g
     transform="translate(754.26826,130.24747)"
     id="layer1">
    <g
       transform="matrix(1.875,0,0,-1.875,-735.41138,-119.45872)"
       id="g140648"
       style="opacity:0.76399997">
      <path
         id="path140650"
         style="fill:#231f20;fill-opacity:1;fill-rule:nonzero;stroke:none"
         d="m 0,0 0,0.1 c 0,0.149 0.098,0.251 0.249,0.251 0.148,0 0.25,-0.051 0.301,-0.15 L 0.55,0 C 0.499,-0.05 0.448,-0.148 0.3,-0.148 L 0.351,-0.05 0.198,0 l 0,-0.05 -0.052,-0.098 C 0.051,-0.148 0,-0.05 0,0 M 1.1,1.8 C 2.15,1.753 2.898,1.452 3.4,1 3.3,0.899 3.249,0.802 3.151,0.752 l 0,-0.052 c 0.098,-0.05 0.2,-0.151 0.3,-0.349 L 3.551,0.3 C 3.451,0.249 3.351,0.201 3.3,0.1 3.249,0.1 3.199,0.05 3.199,0 3.05,-0.098 3,-0.199 2.95,-0.35 2.95,-0.3 2.898,-0.249 2.801,-0.148 2.75,-0.098 2.601,-0.05 2.551,0 l 0,-0.098 -0.052,-0.05 -0.2,0.05 C 2.15,-0.148 2.049,-0.199 1.999,-0.199 2.101,-0.3 2.101,-0.35 2.2,-0.401 2.299,-0.448 2.35,-0.448 2.449,-0.448 l 0,-0.051 -0.05,0 -0.1,-0.051 0.051,0 -0.051,0 0.15,-0.101 0.352,0 -0.752,-0.55 c -0.199,0 -0.35,0.1 -0.55,0.351 -0.15,-0.199 -0.45,-0.251 -0.85,-0.1 -0.298,0.1 -0.349,0.35 -0.349,0.751 0.051,0.051 0.051,0.051 0.148,0.051 0,-0.051 0.051,-0.101 0.102,-0.152 L 0.599,-0.35 C 0.697,-0.448 0.8,-0.499 0.949,-0.499 l 0,0.098 -0.1,0.101 C 1.1,-0.3 1.3,-0.3 1.3,-0.249 1.349,-0.148 1.251,-0.05 1.001,0 l 0.099,0.05 0,0.1 c -0.099,0.051 -0.251,0.051 -0.351,0 -0.052,0 -0.15,0 -0.15,-0.05 C 0.55,0.201 0.55,0.3 0.499,0.351 l 0.1,0.05 c 0.05,0.148 0.098,0.249 0.15,0.351 l -0.15,0 -0.049,0 0,0.098 C 0.749,1 0.899,1.251 1.001,1.452 1.049,1.601 1.1,1.701 1.1,1.8 M 2.049,2.703 C 2.449,2.703 2.75,2.651 2.95,2.602 3.4,2.451 3.6,2.151 3.65,1.651 3.65,1.601 3.65,1.55 3.6,1.452 3.6,1.351 3.551,1.201 3.451,1.102 3,1.55 2.2,1.85 1.1,1.9 l 0,0.302 c 0,0.15 0,0.249 -0.051,0.4 0.349,0.049 0.7,0.101 1,0.101 m -4.353,0.649 0,0.05 c 0.903,0.249 1.602,0.249 2.152,0.05 C 0.098,3.303 0.3,3.101 0.397,2.902 0.448,2.801 0.448,2.751 0.499,2.651 0.55,2.399 0.499,2.151 0.3,1.85 l -0.102,0.101 -0.1,0.051 c -0.15,0.099 -0.351,0.2 -0.599,0.25 l -0.052,0.05 c -0.449,0.149 -0.9,0.249 -1.4,0.249 l -0.05,0 0,-0.049 -0.198,0.049 c 0,0.1 0,0.25 -0.052,0.351 l -0.051,0.45 z m -7.051,-1.9 c -0.052,0.149 -0.052,0.249 -0.052,0.348 0.101,0.402 0.302,0.651 0.703,0.802 0.549,0.199 1.201,0.199 1.899,0 -0.05,-0.1 -0.099,-0.25 -0.099,-0.4 l 0,-0.251 -0.051,0 c -0.701,0.051 -1.449,-0.3 -2.2,-0.951 -0.102,0.15 -0.151,0.302 -0.2,0.452 m 3.1,1.199 c 0.052,0.1 0.052,0.15 0.1,0.251 0.099,0.199 0.302,0.401 0.601,0.55 0.5,0.199 1.252,0.199 2.152,-0.1 l 0,-0.399 -0.049,-0.402 -0.453,-0.1 0,0.051 c -0.449,0 -0.85,-0.051 -1.25,-0.2 l 0,-0.05 0,-0.101 0.1,0.051 c 0.15,0.05 0.351,0.1 0.549,0.15 l 0.152,0 c 0.15,0.047 0.299,0.047 0.449,0.047 l 0,0.052 0.453,0.051 0,-0.25 C -3.502,2.053 -3.604,1.9 -3.703,1.701 l 0,-0.05 c 0,-0.05 0.05,-0.101 0.099,-0.199 0.051,0 0.102,-0.052 0.153,-0.101 l 0.197,-0.201 0.102,0.051 c 0,-0.099 0,-0.201 0.049,-0.302 0.051,-0.049 0.051,-0.097 0.1,-0.097 0.05,0.048 0.1,0.048 0.2,0.048 0.049,-0.048 0.1,-0.048 0.1,-0.048 l 0.15,0.149 c 0,0.1 0.051,0.199 0.051,0.25 l 0.1,-0.051 0.149,0.25 0.25,0.251 0.05,0.05 c -0.151,0.199 -0.198,0.4 -0.248,0.551 l 0,0.25 0.198,0 0,-0.051 0.05,0 c 0.149,0 0.251,0 0.401,-0.052 0.099,0 0.25,-0.047 0.399,-0.047 l 0.1,-0.05 c 0.152,0 0.301,-0.05 0.451,-0.1 L -0.553,2.151 C -0.3,2.101 -0.152,2.002 0.098,1.9 l 0,-0.05 0.048,0.05 C 0.198,1.9 0.249,1.85 0.249,1.8 0.198,1.753 0.098,1.651 0,1.55 L 0.351,1.251 c 0,-0.05 0,-0.101 0.046,-0.149 C 0.3,1.102 0.249,1 0.249,0.802 L 0.098,0.85 0.051,0.899 C 0,0.752 0.051,0.65 0.098,0.549 l 0,-0.198 C 0.051,0.351 0,0.3 0,0.249 L -0.052,0.3 C -0.202,0.401 -0.3,0.452 -0.401,0.452 l -0.05,0 0,-0.101 0.05,-0.051 C -0.652,0.3 -0.752,0.249 -0.803,0.249 -0.853,0.15 -0.803,0.1 -0.702,0 c 0.05,0 0.1,-0.05 0.201,-0.05 l -0.052,-0.048 -0.099,-0.101 c 0.151,-0.05 0.301,-0.05 0.45,0 0.05,0 0.15,0.051 0.202,0.101 0.051,-0.05 0.098,-0.05 0.146,-0.101 -0.048,-0.3 -0.198,-0.502 -0.446,-0.6 l -0.201,-0.051 -0.052,0 c -0.199,0 -0.348,0.051 -0.398,0.149 -0.102,0.101 -0.202,0.202 -0.202,0.351 l -0.047,0 0,-0.051 c -0.201,-0.3 -0.502,-0.449 -0.951,-0.349 -0.301,0.049 -0.501,0.251 -0.603,0.652 l 0,0.098 c 0,0.249 -0.049,0.401 -0.099,0.401 0.05,-0.152 0.05,-0.251 0.05,-0.401 0,-0.401 -0.249,-0.701 -0.699,-0.75 -0.451,-0.1 -0.752,0 -0.951,0.4 -0.2,-0.351 -0.401,-0.55 -0.701,-0.5 -0.4,0.051 -0.651,0.3 -0.699,0.8 l -0.151,0 c 0.102,-0.5 0,-0.8 -0.302,-0.9 -0.399,-0.151 -0.699,-0.099 -0.848,0.1 -0.202,-0.251 -0.349,-0.351 -0.552,-0.351 l -0.8,0.601 c 0.151,-0.051 0.301,-0.051 0.351,-0.051 l 0.2,0.101 -0.1,0.051 -0.1,0.051 c 0.1,0 0.148,0 0.249,0.047 0.101,0.051 0.152,0.101 0.25,0.202 -0.05,0 -0.149,0.051 -0.299,0.101 l -0.2,-0.05 -0.05,0.05 0,0.098 c -0.101,-0.05 -0.199,-0.098 -0.25,-0.148 -0.102,-0.101 -0.152,-0.152 -0.199,-0.202 0,0.151 -0.05,0.252 -0.151,0.35 -0.101,0.05 -0.101,0.1 -0.101,0.1 -0.15,0.101 -0.249,0.149 -0.351,0.2 l 0.351,0.4 0,0.052 c -0.05,0.05 -0.099,0.098 -0.15,0.147 0.701,0.702 1.4,1.001 2.101,0.951 l 0.1,0 c 0.05,-0.149 0.05,-0.249 0.099,-0.398 0.103,-0.201 0.252,-0.401 0.45,-0.602 l 0,-0.098 -0.099,0 -0.099,0 c 0,-0.102 0.049,-0.203 0.149,-0.351 l 0.1,-0.101 c 0.052,0.051 0.1,0.101 0.251,0.101 l 0.102,-0.05 c 0,0.101 0.049,0.151 0.049,0.198 0.048,0.101 0.048,0.203 0.048,0.35 L -5.902,0.85 -6.004,0.802 c 0,0.198 -0.1,0.3 -0.151,0.3 0,0.048 0.051,0.099 0.099,0.149 0.052,0.1 0.102,0.149 0.154,0.201 l 0.148,0.098 c -0.051,0.101 -0.148,0.151 -0.2,0.203 0.052,0.147 0.25,0.3 0.55,0.398 -0.3,-0.098 -0.498,-0.2 -0.55,-0.351 -0.249,0.301 -0.352,0.599 -0.301,0.851 m -1.7,0.302 -0.052,0 c 0,0.05 -0.048,0.099 -0.148,0.099 -0.05,0 -0.101,-0.049 -0.101,-0.099 l 0,-0.051 -0.05,0 c 0,0.051 -0.049,0.101 -0.098,0.101 -0.102,0 -0.102,-0.05 -0.102,-0.101 l -0.101,0 c -0.047,0 -0.047,0.051 -0.097,0.051 -0.051,0 -0.101,-0.051 -0.101,-0.051 l 0,-0.05 0,-0.051 -0.101,0 c 0,0.051 0,0.101 -0.05,0.101 -0.1,0 -0.1,-0.05 -0.1,-0.151 l 0,-0.048 -0.099,0 c 0,0.048 -0.051,0.048 -0.051,0.048 -0.1,0 -0.149,-0.048 -0.149,-0.1 0,-0.049 0,-0.049 0.049,-0.1 L -9.407,2.502 c 0,0.049 -0.05,0.049 -0.05,0.049 -0.1,0 -0.1,-0.049 -0.1,-0.1 l 0,-0.052 0,-0.047 -0.098,0 c -0.049,0 -0.102,-0.05 -0.102,-0.1 l 0,-0.101 0,-0.05 -0.051,0 c -0.099,0 -0.099,-0.048 -0.099,-0.099 l 0,-0.102 0,-0.05 c -0.1,0 -0.15,0 -0.15,-0.097 0,-0.052 0.05,-0.102 0.102,-0.102 l 0,-0.05 c -0.052,0 -0.102,-0.051 -0.102,-0.101 l 0,-0.048 c 0,-0.052 0.05,-0.052 0.102,-0.101 l 0,-0.049 c -0.102,0 -0.102,-0.051 -0.102,-0.101 0,-0.099 0,-0.099 0.102,-0.15 l 0,-0.051 c -0.052,-0.049 -0.052,-0.049 0,-0.101 l 0,-0.049 c 0.048,-0.249 0.198,-0.499 0.3,-0.7 0,0 -0.049,-0.05 -0.102,-0.05 0.102,-0.05 0.2,-0.05 0.25,-0.1 l 0.1,-0.05 0,0.05 c 0.201,-0.098 0.351,-0.199 0.501,-0.3 l 0,-0.05 c -0.099,-0.051 -0.099,-0.2 0,-0.301 0.051,-0.148 0.202,-0.148 0.299,-0.05 0.452,-0.449 0.853,-0.698 1.002,-0.698 l 0.049,0 c 0.251,-0.051 0.402,0.047 0.451,0.298 0.3,-0.15 0.551,-0.15 0.799,-0.049 0.25,0.049 0.404,0.2 0.501,0.449 0.251,-0.249 0.502,-0.348 0.751,-0.348 0.25,0 0.401,0.149 0.601,0.348 0.3,-0.199 0.599,-0.3 0.9,-0.3 0.249,0.051 0.501,0.202 0.7,0.553 0.201,-0.351 0.451,-0.502 0.749,-0.553 0.3,0 0.6,0.101 0.904,0.3 0.147,-0.199 0.299,-0.348 0.598,-0.348 0.201,0 0.45,0.099 0.7,0.348 0.151,-0.249 0.299,-0.4 0.599,-0.449 0.152,-0.101 0.403,-0.101 0.752,0.049 0.05,-0.251 0.2,-0.349 0.499,-0.298 0.153,0 0.402,0.148 0.751,0.499 l 0.251,0.199 c 0.151,-0.098 0.249,-0.098 0.35,0.05 0.051,0.101 0.051,0.25 -0.051,0.301 L 3.3,-0.3 c 0.1,0.101 0.2,0.202 0.4,0.25 L 3.7,0 3.85,0 C 3.901,0.05 3.95,0.05 4.102,0.1 4.001,0.15 3.95,0.201 3.901,0.201 c 0.151,0.2 0.249,0.4 0.299,0.649 0.051,0 0.051,0.049 0.051,0.049 L 4.2,0.951 l 0.051,0.1 c 0.051,0.051 0.051,0.051 0.101,0.15 -0.05,0.05 -0.05,0.101 -0.101,0.101 l 0,0.098 0.051,0.052 0,0.048 c 0,0.05 -0.051,0.05 -0.102,0.05 l 0,0.101 c 0.051,0 0.102,0.05 0.102,0.102 C 4.302,1.85 4.251,1.85 4.15,1.85 L 4.102,1.9 c 0.048,0 0.048,0.051 0.048,0.102 0,0.051 -0.048,0.099 -0.098,0.099 l -0.051,0 0,0.05 c 0,0 0,0.051 0.051,0.101 -0.051,0.05 -0.051,0.1 -0.102,0.1 l -0.1,0 -0.049,0.047 c 0.049,0 0.049,0.052 0.049,0.052 0,0.051 -0.049,0.1 -0.1,0.1 -0.05,0 -0.1,0 -0.1,-0.049 l -0.05,0.049 0,0.1 c 0,0.052 0,0.1 -0.1,0.1 -0.049,0 -0.1,0 -0.1,-0.048 l -0.049,0 0,0.048 c 0,0.101 -0.051,0.151 -0.102,0.151 -0.098,0 -0.098,-0.05 -0.148,-0.101 l -0.051,0 0,0.051 0,0.05 c 0,0 -0.05,0.051 -0.1,0.051 -0.052,0 -0.052,-0.051 -0.098,-0.051 l -0.102,0 c 0,0.051 0,0.101 -0.1,0.101 -0.049,0 -0.099,-0.05 -0.099,-0.05 l -0.052,0 c 0,0.05 0,0.099 -0.1,0.099 -0.049,0 -0.1,-0.049 -0.1,-0.099 l -0.099,0 c 0,0.05 0,0.099 -0.099,0.099 -0.052,0 -0.102,-0.049 -0.102,-0.099 l 0,-0.051 -0.099,0 C 1.85,2.953 1.85,3.003 1.801,3.003 1.749,3.003 1.699,2.953 1.699,2.902 l -0.098,-0.05 0,0.05 c 0,0.051 -0.05,0.051 -0.102,0.051 -0.05,0 -0.05,0 -0.101,-0.051 l 0,-0.05 0,-0.051 -0.049,0 C 1.3,2.852 1.3,2.902 1.2,2.902 1.1,2.902 1.1,2.852 1.1,2.751 L 1.001,2.703 0.949,2.902 c -0.1,0.15 -0.2,0.3 -0.35,0.45 -0.049,0.05 -0.049,0.1 -0.1,0.1 l -0.051,0 L 0.3,3.503 c 0,0.1 -0.051,0.148 -0.102,0.148 -0.052,0 -0.1,-0.048 -0.1,-0.048 L 0.051,3.651 c 0,0.051 -0.051,0.101 -0.103,0.101 -0.1,0 -0.1,-0.05 -0.1,-0.05 l -0.05,0 c -0.051,0.05 -0.051,0.101 -0.149,0.101 -0.05,0 -0.1,0 -0.1,-0.051 l -0.05,0 c 0,0.051 -0.052,0.101 -0.151,0.101 -0.05,0 -0.1,0 -0.1,-0.101 l -0.051,0 0,0.051 c 0,0.099 -0.05,0.149 -0.098,0.099 -0.101,0.05 -0.152,0 -0.152,-0.099 l 0,-0.051 -0.049,0 0,0.051 c 0,0.05 -0.051,0.099 -0.098,0.099 -0.102,0 -0.152,-0.049 -0.152,-0.099 0,-0.051 0,-0.051 0.05,-0.051 l -0.099,0 c 0,0.051 -0.052,0.101 -0.103,0.101 -0.099,0 -0.148,-0.05 -0.148,-0.101 l 0,-0.05 -0.05,0 c 0,0.05 -0.051,0.101 -0.102,0.101 -0.097,0 -0.097,-0.051 -0.097,-0.101 -0.052,-0.051 -0.052,-0.051 0,-0.051 l -0.052,0 c 0,0.051 -0.05,0.101 -0.151,0.101 -0.047,0 -0.097,-0.05 -0.097,-0.101 0,-0.048 0,-0.048 0.05,-0.098 l -0.102,0 c 0,0.098 -0.051,0.149 -0.149,0.149 -0.1,0.151 -0.25,0.299 -0.352,0.35 0.252,0 0.4,0.1 0.501,0.301 0.052,0.049 0.052,0.1 0.052,0.15 l 0,0.099 0,0.05 c 0,0.349 -0.201,0.502 -0.553,0.502 l 0,0.35 0.252,0 0,0.149 -0.252,0 0,0.101 -0.149,0 0,-0.101 -0.249,0 0,-0.149 0.249,0 0,-0.35 c -0.351,0 -0.499,-0.153 -0.499,-0.502 l -0.049,0 0,-0.149 0.049,0 0,-0.15 c 0.098,-0.201 0.25,-0.301 0.499,-0.301 -0.149,-0.051 -0.3,-0.199 -0.351,-0.401 -0.05,0 -0.1,0.051 -0.148,0.051 -0.049,0 -0.1,-0.051 -0.1,-0.149 l -0.051,0 0,0.098 c 0,0.051 -0.051,0.101 -0.1,0.101 -0.1,0 -0.1,-0.05 -0.1,-0.101 l -0.101,0 c 0.051,0 0.051,0 0.051,0.051 0,0.05 -0.051,0.101 -0.101,0.101 -0.098,0 -0.15,-0.051 -0.098,-0.101 l -0.151,0 0,0.05 c 0,0.051 0,0.101 -0.101,0.101 -0.048,0 -0.149,-0.05 -0.149,-0.101 l 0,0.051 c 0,0.05 -0.05,0.099 -0.152,0.099 -0.098,0.05 -0.098,0 -0.098,-0.099 l 0,-0.051 -0.05,0 0,0.051 c 0,0.05 -0.051,0.099 -0.151,0.099 -0.05,0.05 -0.099,0 -0.099,-0.099 l 0,-0.051 -0.05,0 c 0,0.101 -0.051,0.101 -0.151,0.101 -0.05,0 -0.05,-0.05 -0.05,-0.101 l -0.099,0 c 0,0.051 -0.051,0.051 -0.101,0.051 -0.051,0 -0.101,-0.051 -0.101,-0.101 l -0.049,0 c -0.05,0 -0.099,0.05 -0.099,0.05 -0.101,0 -0.101,-0.05 -0.152,-0.101 L -5.853,3.603 c -0.049,0 -0.049,0.048 -0.101,0.048 -0.05,0 -0.102,-0.048 -0.102,-0.148 L -6.203,3.452 c -0.052,0 -0.103,-0.05 -0.103,-0.1 -0.149,-0.15 -0.347,-0.3 -0.399,-0.45 -0.051,-0.05 -0.051,-0.101 -0.051,-0.151 l -0.099,0 c 0,0.101 -0.049,0.151 -0.1,0.151 -0.05,0 -0.101,-0.05 -0.101,-0.101 l -0.098,0 0,0.101 c 0,0.051 -0.05,0.051 -0.101,0.051 -0.05,0 -0.101,0 -0.101,-0.051 l 0,-0.05 -0.097,0.05 c 0,0.051 0,0.101 -0.103,0.101 -0.1,0 -0.1,-0.05 -0.1,-0.101 l -0.05,0 0,0.051 c -0.048,0.05 -0.048,0.099 -0.149,0.099 -0.051,0 -0.1,-0.049 -0.1,-0.099" />
    </g>
    <g
       transform="matrix(1.875,0,0,-1.875,-747.23456,-119.64547)"
       id="g140652"
       style="opacity:0.76399997">
      <path
         id="path140654"
         style="fill:#231f20;fill-opacity:1;fill-rule:nonzero;stroke:none"
         d="m 0,0 0,0 -0.198,0.051 c -0.15,0.051 -0.252,0.051 -0.401,0 l 0.049,-0.101 0.1,-0.05 c -0.249,-0.049 -0.399,-0.148 -0.3,-0.249 0.051,-0.05 0.151,-0.05 0.402,-0.05 l -0.051,-0.102 0,-0.047 c 0.151,0 0.299,0.047 0.399,0.149 0.051,0.05 0.103,0.1 0.103,0.151 C 0.051,-0.197 0,-0.1 0,0" />
    </g>
    <g
       transform="matrix(1.875,0,0,-1.875,-748.7342,-118.14397)"
       id="g140656"
       style="opacity:0.76399997">
      <path
         id="path140658"
         style="fill:#231f20;fill-opacity:1;fill-rule:nonzero;stroke:none"
         d="m 0,0 c 0,0.05 -0.049,0.102 -0.099,0.102 -0.1,0 -0.152,-0.052 -0.152,-0.102 0,-0.098 0.052,-0.098 0.152,-0.098 0.05,0 0.099,0 0.099,0.098" />
    </g>
    <g
       transform="matrix(1.875,0,0,-1.875,-745.35395,-120.11609)"
       id="g140660"
       style="opacity:0.76399997">
      <path
         id="path140662"
         style="fill:#231f20;fill-opacity:1;fill-rule:nonzero;stroke:none"
         d="M 0,0 0,0.102 C -0.152,0.051 -0.302,0 -0.401,-0.102 l -0.05,-0.047 0.05,-0.102 c 0,-0.1 -0.05,-0.149 -0.101,-0.197 0.101,-0.051 0.151,-0.102 0.251,-0.102 0.149,-0.05 0.301,-0.05 0.399,0 L 0.099,-0.448 0.05,-0.4 c 0.25,0.049 0.348,0.149 0.3,0.298 -0.05,0 -0.202,0.051 -0.401,0.051 L 0,0 Z" />
    </g>
    <g
       transform="matrix(1.875,0,0,-1.875,-742.26131,-120.58484)"
       id="g140664"
       style="opacity:0.76399997">
      <path
         id="path140666"
         style="fill:#231f20;fill-opacity:1;fill-rule:nonzero;stroke:none"
         d="m 0,0 c -0.201,0 -0.3,-0.052 -0.3,-0.199 0,-0.051 0.151,-0.102 0.35,-0.153 L 0,-0.399 0,-0.501 c 0.202,0 0.3,0.051 0.45,0.149 l 0.051,0.051 0.05,0.051 C 0.501,-0.148 0.501,-0.099 0.501,0 0.45,0.05 0.399,0.1 0.35,0.1 0.202,0.201 0.05,0.201 -0.05,0.151 L 0,0.05 0,0 Z" />
    </g>
    <g
       transform="matrix(1.875,0,0,-1.875,-743.66756,-119.08522)"
       id="g140668"
       style="opacity:0.76399997">
      <path
         id="path140670"
         style="fill:#231f20;fill-opacity:1;fill-rule:nonzero;stroke:none"
         d="m 0,0 c 0,0.051 0,0.102 -0.05,0.102 -0.101,0 -0.101,-0.051 -0.101,-0.102 0,-0.101 0,-0.101 0.101,-0.15 C 0,-0.101 0,-0.101 0,0" />
    </g>
    <g
       transform="matrix(1.875,0,0,-1.875,-740.10245,-120.67822)"
       id="g140672"
       style="opacity:0.76399997">
      <path
         id="path140674"
         style="fill:#231f20;fill-opacity:1;fill-rule:nonzero;stroke:none"
         d="m 0,0 -0.051,-0.05 0,-0.098 C -0.101,-0.249 -0.15,-0.3 -0.15,-0.351 -0.101,-0.401 0,-0.449 0.1,-0.5 l 0.348,-0.051 -0.05,0.102 -0.047,0.098 c 0.25,-0.05 0.398,0.051 0.347,0.203 0,0 -0.097,0.046 -0.347,0.098 L 0.398,0 l 0,0.102 C 0.301,0.102 0.1,0.102 0,0" />
    </g>
    <g
       transform="matrix(1.875,0,0,-1.875,-737.47688,-119.08522)"
       id="g140676"
       style="opacity:0.76399997">
      <path
         id="path140678"
         style="fill:#231f20;fill-opacity:1;fill-rule:nonzero;stroke:none"
         d="M 0,0 C 0,0.051 -0.052,0.102 -0.099,0.102 -0.15,0.102 -0.2,0.051 -0.2,0 c 0,-0.101 0.05,-0.101 0.101,-0.15 C -0.052,-0.101 0,-0.101 0,0" />
    </g>
    <g
       transform="matrix(1.875,0,0,-1.875,-732.50363,-118.33447)"
       id="g140680"
       style="opacity:0.76399997">
      <path
         id="path140682"
         style="fill:#231f20;fill-opacity:1;fill-rule:nonzero;stroke:none"
         d="m 0,0 c -0.052,0 -0.102,-0.052 -0.102,-0.102 0,-0.097 0.05,-0.097 0.102,-0.097 0.05,0 0.099,0 0.148,0.097 C 0.099,-0.052 0.05,0 0,0" />
    </g>
    <g
       transform="matrix(1.875,0,0,-1.875,-745.16908,-82.786337)"
       id="g140684"
       style="opacity:0.76399997">
      <path
         id="path140686"
         style="fill:#454142;fill-opacity:1;fill-rule:nonzero;stroke:none"
         d="m 0,0 0,0.1 0.05,0 0,1.699 4.502,0 0,-1.699 0.099,0 0,-0.1 -0.099,0 0,-1.652 -4.502,0 L 0.05,0 0,0 Z m 4.552,1.951 -4.502,0 0,1.601 4.502,0 0,-1.601 z m 0.201,-0.152 4.503,0 C 9.105,1.149 8.904,0.6 8.555,0.1 l 0.049,0 0,-0.1 -0.1,0 C 8.403,-0.102 8.355,-0.149 8.305,-0.25 7.503,-1.201 6.304,-1.652 4.753,-1.652 l 0,1.652 -0.05,0 0,0.1 0.05,0 0,1.699 z m 4.553,0.753 c 0,-0.251 0,-0.403 -0.05,-0.601 l -4.503,0 0,1.601 4.553,0 0,-1 z m -4.754,1.2 -4.502,0 0,1.601 4.502,0 0,-1.601 z m 4.754,0 -4.553,0 0,1.601 4.553,0 0,-1.601 z M -3.801,0 l -0.1,0 0,0.1 c -0.352,0.5 -0.55,1.049 -0.652,1.699 l 4.454,0 0,-1.699 0.05,0 0,-0.1 -0.05,0 0,-1.652 c -1.601,0 -2.752,0.451 -3.502,1.402 -0.101,0.101 -0.151,0.148 -0.2,0.25 m -0.752,1.951 c -0.051,0.198 -0.051,0.35 -0.051,0.601 l 0,1 4.505,0 0,-1.601 -4.454,0 z m -0.051,3.402 4.505,0 0,-1.601 -4.505,0 0,1.601 z m 4.505,1.901 0.05,0 0,-0.152 -0.05,0 0,-1.55 -4.505,0 0,1.55 -0.099,0 0,0.152 0.099,0 0,8.803 6.855,0 0,-8.803 0.05,0 0,-0.102 0.051,0 0,0.102 0.049,0 0,8.803 6.905,0 0,-8.803 0.048,0 0,-0.152 -0.048,0 0,-1.55 -4.553,0 0,1.55 -0.05,0 0,0.152 -0.052,0 0,-0.152 -0.099,0 0,-1.55 -4.502,0 0,1.55 -0.05,0 0,0.152 0.05,0 c 0,0.05 0,0.05 -0.05,0 l -0.049,0 c 0,0.05 0,0.05 -0.05,0 m 9.605,-4.702 0,13.554 -0.051,0.051 c 0,0.051 0,0.051 -0.051,0.051 l -14.155,0 -0.052,-0.051 0,-0.051 0,-13.554 0,-0.601 0.052,-0.101 0.048,-0.249 0,-0.1 0,-0.051 0.15,-0.45 c 0.102,-0.35 0.25,-0.65 0.402,-0.9 0.098,-0.152 0.2,-0.3 0.399,-0.452 0.7,-0.9 1.752,-1.349 3.054,-1.45 l 5.451,-0.05 c 1.651,0 2.851,0.499 3.7,1.5 0.652,0.751 1.002,1.704 1.053,2.904" />
    </g>
    <g
       transform="matrix(1.875,0,0,-1.875,-745.26056,-96.387407)"
       id="g140688"
       style="opacity:0.76399997">
      <path
         id="path140690"
         style="fill:#231f20;fill-opacity:1;fill-rule:nonzero;stroke:none"
         d="m 0,0 -0.05,0 -4.505,0 -0.099,0 0,-0.152 0.099,0 4.505,0 0.05,0 L 0,0 Z" />
    </g>
    <g
       transform="matrix(1.875,0,0,-1.875,-750.70257,-97.885157)"
       id="g140692"
       style="opacity:0.76399997">
      <path
         id="path140694"
         style="fill:#454142;fill-opacity:1;fill-rule:nonzero;stroke:none"
         d="M 0,0 0.101,0 0.2,0.051 0.401,0 l 0.098,0 0,-0.199 c 0,0 -0.05,-0.05 -0.148,-0.05 l -0.203,0 C 0.051,-0.249 0,-0.199 0,-0.102 L 0,-0.051 0,0 Z m 0,0.35 0,0 0.449,0 0.05,0.051 L 0.6,0.35 0.652,0.401 0.752,0.35 0.702,0.101 C 0.6,0.15 0.55,0.15 0.499,0.101 L 0.401,0.051 C 0.351,0.101 0.249,0.15 0.2,0.101 l -0.099,0 -0.101,0 0,0.149 0,0.1 z m 0.449,0.351 c -0.048,0.101 0,0.149 0.05,0.149 0,0 0.051,-0.048 0.051,-0.149 l 0,-0.1 -0.051,-0.098 -0.05,0.048 0,0.15 z m 0.203,0.601 c 0.05,0 0.1,-0.051 0.1,-0.102 l 0,-0.099 -0.05,-0.099 -0.102,0 C 0.499,0.951 0.449,0.9 0.351,0.9 l -0.102,0 0,0.051 L 0,0.951 0,1.15 0,1.2 c 0.101,0.051 0.148,0.051 0.148,0.102 l 0,0.05 0.101,-0.101 0,0.051 0.351,0 0.052,0 z m 0.349,-0.452 0.049,0 0.05,-0.749 -0.099,0 C 1.05,0.051 1.1,0.051 1.1,0 l 0,-0.199 -0.398,0 -0.05,0.049 0,0.099 C 0.652,0 0.752,0 0.9,0.051 l 0.051,0 C 0.9,0.101 0.851,0.15 0.799,0.15 l 0,0.251 0.101,0.102 -0.248,0.048 0,0.15 0,0.101 0,0.048 0.248,0 0.051,0 0.05,0 z M -0.6,0.051 c 0,0 0.051,0 0.101,-0.051 l 0.398,0 0,-0.051 c 0,-0.099 0,-0.148 -0.049,-0.148 l -0.099,0 0,-0.05 -0.102,0 -0.05,0 -0.098,0 -0.05,0 c -0.151,0 -0.202,0.05 -0.202,0.099 l 0,0.15 0.151,0.051 z m 0.051,0.35 0.05,0 0.199,0 0.051,0 0.099,0 c 0,0.051 0.049,-0.051 0.049,-0.151 l -0.049,-0.1 0,-0.049 -0.099,0 -0.25,-0.05 -0.101,0.05 -0.151,0 0,0.049 0,0.2 c 0,0.051 0.102,0.102 0.202,0.051 m 0.198,0.2 -0.05,0.049 -0.051,0.051 c 0,0.101 0.051,0.149 0.152,0.149 l 0.15,-0.048 0.049,0.048 0.301,0 c 0.049,0 0.1,0 0.1,-0.048 l 0,-0.101 0.051,-0.051 0,-0.099 -0.102,-0.099 -0.498,0.051 -0.051,0 -0.051,0 0,0.098 z m -0.198,0.249 0,0.101 -0.202,0 0,0.3 0.502,0 c 0.099,0 0.099,-0.051 0.148,-0.15 0,-0.099 -0.049,-0.15 -0.148,-0.15 l -0.3,0 0.05,-0.2 0,-0.101 0,-0.147 -0.101,0 0,-0.051 -0.049,0.051 -0.102,0 0,0.248 0.102,0.051 0.1,0 0,0.048 z m 0.097,0.801 0.051,0 0,-0.05 c 0,-0.148 -0.098,-0.249 -0.199,-0.249 l -0.049,0.049 0.197,0.25 z M 1.45,1.752 C 1.45,1.702 1.399,1.651 1.3,1.651 L 1.1,1.802 1.351,1.953 C 1.45,1.852 1.45,1.752 1.45,1.752 m 0.3,0.647 c 0,0 0.05,-0.046 0.05,-0.148 l -0.149,0 -0.049,0 -0.152,0 C 1.399,2.251 1.3,2.151 1.251,2.052 1.15,2.052 1.1,2.101 1.1,2.201 l 0,0.102 0.1,0.096 0.1,0 0.099,0 0.351,0 z m 0.202,0.403 0.199,-0.05 0,-0.149 C 2.151,2.501 2.1,2.501 2.051,2.501 L 2,2.501 1.952,2.451 1.9,2.501 l -0.249,0 0,-0.05 c -0.149,0 -0.149,0.05 -0.149,0.1 l 0,0.102 0,0.149 0.45,0 z m -1.25,-1.301 0,0.049 0.097,0.202 0.152,0.1 c 0,0 0.05,-0.05 0.199,-0.15 C 1.2,1.651 1.251,1.651 1.251,1.601 L 1.2,1.453 C 1.15,1.352 1.1,1.251 1.1,1.2 L 1.1,1.002 1.001,0.951 0.951,1.002 0.9,0.951 0.799,1.2 c 0,0.102 0.052,0.152 0.101,0.152 l -0.049,0.049 -0.052,0.052 -0.047,0 -0.05,0.048 z m -0.102,0.15 0,-0.05 0.052,0 L 0.6,1.453 0.652,1.401 0.652,1.352 0.6,1.401 0.449,1.352 0.401,1.401 l 0.048,0.1 0,0.1 0.05,0.05 0.101,0 z m 0.199,0.302 0,0.049 0.401,0 0,-0.049 C 1.2,1.901 1.15,1.901 1.05,1.852 1.001,1.901 0.951,1.901 0.951,1.953 l -0.152,0 z M -0.3,1.55 c 0,0 0,0.051 0.051,0.051 l 0,0.05 0.148,0 0.35,0 0.102,-0.05 0,-0.1 c 0,-0.1 -0.102,-0.149 -0.203,-0.149 l -0.148,0 -0.101,0.049 -0.25,0 0.051,0.149 z m 0,0.302 c 0,0.101 0.051,0.15 0.15,0.15 l 0.1,0 0.05,0 0,-0.25 -0.351,0 0,0.05 0.051,0.05 z m 0.448,0 c 0,0.101 0,0.15 0.101,0.15 l 0.403,0 0.1,-0.049 -0.05,-0.101 0,-0.1 -0.152,0 -0.051,0 -0.148,-0.05 c -0.151,0 -0.203,0 -0.203,0.05 l 0,0.1 z m -0.298,0.95 0.049,0 0.051,-0.05 0,-0.149 0.05,-0.052 -0.05,-0.05 -0.051,0 -0.049,0 0,0.102 0,0.199 z M 0.499,2.353 c -0.05,0.046 0,0.046 0.153,0.046 l 0.349,0 0,-0.298 -0.15,0 L 0.702,2.052 0.652,2.101 0.6,2.052 0.499,2.101 l 0,0.252 z M 0.3,2.399 0.351,2.303 l 0,-0.152 0,-0.05 -0.501,0 -0.099,0.05 0,0.1 c 0,0.102 0.099,0.148 0.249,0.148 l 0.3,0 z m 0,0.403 0.3,0 c 0.052,0 0.102,-0.05 0.102,-0.199 0,-0.052 0,-0.102 -0.05,-0.102 l -0.153,0 -0.148,-0.05 -0.102,0.05 -0.101,0 -0.047,0.05 0,0.052 0,0.05 0,0.099 0.099,0.05 0.1,0 z m 0.499,-0.149 0,0.051 C 0.851,2.752 0.9,2.802 0.951,2.802 l 0.149,0 0.1,0 c 0.151,0 0.199,0 0.199,-0.098 l 0,-0.203 -0.548,0 0,-0.05 -0.052,0.05 0.052,0 -0.052,0.05 0,0.052 0,0.05 z M 0,3.204 l 0.148,0 0.101,0 c 0,0 0.051,-0.052 0.051,-0.102 l 0,-0.2 -0.401,0 -0.049,0.099 0,0.101 c 0,0.05 0.049,0.102 0.15,0.102 m -0.15,0.299 0.049,0.05 0.051,-0.05 0,-0.201 -0.051,0 -0.049,0.05 0,0.151 z m 0.251,-0.102 0,0.152 0.099,0 c 0.049,0 0.151,-0.05 0.201,-0.101 l 0.301,0 0,-0.15 -0.554,0 c -0.047,0 -0.097,0.05 -0.047,0.099 m -0.202,0.401 -0.049,0.051 0.1,0.099 0.05,0 0.148,0 C 0.249,3.952 0.3,3.903 0.3,3.802 L 0.249,3.702 0.101,3.651 c -0.151,0 -0.251,0.051 -0.251,0.101 l 0.049,0.05 z m 0,0.251 0,0.05 0,0.151 0.101,0 0,-0.201 -0.101,0 z m 0.249,0.201 0.101,0 0,-0.103 0,-0.098 -0.101,0 0,0.05 -0.047,0.1 0.047,0.051 z m 1.354,-0.902 0,0.1 c 0,0.101 0,0.101 0.1,0.101 l 0.148,0 0.05,0.051 0.05,-0.051 0.102,0 L 2,3.604 2,3.553 2,3.503 2,3.302 l -0.25,0 c -0.199,0 -0.248,0 -0.248,0.05 m -0.251,-0.148 0.3,0 0.1,0 C 1.7,3.204 1.75,3.152 1.75,3.102 l 0,-0.2 -0.05,0 -0.198,0 -0.352,0 0,0.25 c 0,0 0.05,0.052 0.101,0.052 m -0.3,0 0.05,0 0,-0.302 -0.502,0 -0.05,0.05 0,0.15 0.05,0.102 0.051,0 0.102,0 0.299,0 z m 0.4,0.4 0.048,-0.051 0,-0.101 0,-0.051 0,-0.099 -0.299,0 -0.149,0 -0.152,0 -0.047,0.099 0.047,0.051 0.202,0 0.149,0 0,0.101 0.101,0 0.1,0.051 z M 1.3,3.952 l 0.202,0 C 1.651,3.952 1.7,3.903 1.7,3.802 l -0.049,-0.05 0,-0.05 -0.049,0 -0.351,0 -0.051,0.05 0,0.101 c 0,0.05 0.051,0.099 0.1,0.099 M 1.251,4.254 c 0.1,0.048 0.1,0 0.1,-0.051 L 1.3,4.053 l -0.049,0 -0.051,0.05 0,0.1 0.051,0.051 z m 0.701,0 L 2,4.203 l -0.048,-0.1 0,-0.05 -0.502,0 0,0.05 0,0.1 0.052,0.051 0.45,0 z M 1.1,4.651 l 0.1,0 0.402,0 0.049,-0.05 0,-0.198 -0.1,-0.05 -0.351,0 c 0,0.1 -0.05,0.151 -0.1,0.198 l -0.05,0 -0.049,-0.047 -0.05,0.047 0,0.1 0.149,0 z m 0.151,1.303 0,0 c 0,-0.101 0,-0.101 -0.101,-0.101 l -0.1,0 0,0.049 0.1,0.102 0.05,0 0.051,-0.05 z m 0.199,0.1 0,-0.05 0,-0.05 0,-0.101 -0.099,0 0,0.201 0.099,0 z M 1.8,5.853 1.85,5.806 l 0.05,0 -0.05,-0.102 0,-0.101 0,-0.149 -0.15,0 -0.049,0.149 0,-0.101 -0.1,0 0,0.101 0.1,0.15 0,-0.15 0.049,0.05 -0.049,0.051 0,0.049 C 1.7,5.806 1.75,5.853 1.8,5.853 m -0.05,0.251 0.1,-0.05 0,-0.1 0,-0.052 -0.05,0 -0.149,-0.049 -0.1,0.101 -0.049,0 0.1,0.1 0.049,0 0.099,0.05 z m 0.301,-0.202 0,0 -0.151,0 0,0.102 0,0.05 0.052,0 0.199,-0.05 -0.1,-0.102 z M 0.3,4.601 l 0.051,0.05 0.5,0 0,-0.1 L 0.702,4.504 0.652,4.551 0.6,4.504 0.499,4.551 0.449,4.504 c -0.048,0 -0.098,0 -0.098,0.047 C 0.3,4.551 0.3,4.601 0.3,4.601 m 0.6,0.553 0,0.1 0.051,0 0.149,0 0.35,0 c 0.152,0 0.201,0 0.201,-0.051 0,0 -0.049,-0.049 -0.149,-0.049 l -0.602,0 z m -0.9,0 -0.05,0.049 0.05,0.051 0.351,0 0.249,0 c 0.052,0 0.152,0 0.199,-0.051 l -0.097,-0.049 -0.253,0 -0.098,0.049 0,-0.049 -0.351,0 z m 0.2,-0.503 0.049,0 0,-0.298 -0.399,0 0,0.349 c 0.1,0 0.201,0 0.35,-0.051 M 0.101,5.853 0.101,5.806 0,5.753 0,5.552 0,5.502 0,5.454 l -0.249,0 0,0.149 0,0.25 0.35,0 z m 0.551,-0.399 0,0.048 0,0.05 0.199,0.051 0.1,0 0.05,-0.051 0,-0.098 -0.349,0 z M 0.3,5.806 0.351,5.753 0.449,5.806 C 0.55,5.806 0.6,5.753 0.6,5.653 l -0.05,-0.101 -0.051,0 0.051,0 0.05,0 0,-0.05 0.052,-0.048 0.1,-0.052 0,-0.048 0.047,0 0,0.048 0,0.052 0.101,-0.052 0.101,0 0,0.1 0.149,0 0.101,-0.048 c 0,-0.1 -0.051,-0.15 -0.101,-0.15 l -0.351,0 0,0.05 0,-0.05 -0.047,0 -0.303,0 -0.098,0.05 0,0.048 c 0,0.052 0.05,0.1 0.098,0.15 l 0.05,0 -0.25,0 -0.101,0 -0.047,0.101 0.047,0.051 0,0.049 0,0.053 0.052,-0.053 0.049,0.053 0.051,0 z m 0.199,0.047 -0.05,0 -0.048,0.049 c 0,0.052 0,0.102 0.098,0.102 0.051,0 0.101,0 0.101,-0.05 0,-0.052 0,-0.052 -0.101,-0.101 m -0.6,0.251 0.202,0 0.047,-0.05 0.052,0.05 0.049,0 0,-0.202 -0.101,0 -0.047,0 -0.101,0 -0.05,0 -0.051,0 0,0.052 -0.049,0.05 -0.099,-0.05 0,0.05 0,0.05 0.099,0 0.049,0.05 z m 0.249,0.049 -0.047,0.05 0.047,0.151 0.101,-0.05 0,-0.151 -0.101,-0.049 0,0.049 z m -0.397,0.151 0,0.05 0.148,0 0,-0.201 -0.049,0 -0.099,0 0,0.101 0,0.05 z m 0.148,0.3 0.051,-0.05 0,-0.15 -0.25,0 0,0.2 0.15,0 0.049,0 z m -0.199,0.149 0.051,0.05 0,-0.149 -0.152,0.051 0.101,0.048 z m 0.549,-0.149 0,-0.101 -0.049,-0.099 0,-0.05 -0.2,0 0,0.25 0.249,0 z M 0,7.057 0.101,7.005 l 0,-0.202 0.047,-0.05 0,-0.099 -0.249,0 -0.049,0 -0.099,0 0,0.149 0.148,0 0,0.254 0.101,0 z m 0.449,-0.052 0.05,-0.102 -0.05,-0.1 -0.098,0 0,-0.149 -0.102,0 -0.049,0 0,0.149 0.049,0 0,0.202 0.2,0 z m 1.301,-0.802 0,0.101 0,0.05 0.202,0 L 2.051,6.304 2.1,6.153 1.952,6.104 l -0.152,0 -0.05,0 0,0.049 -0.05,0 0.05,0.05 z M 1.952,6.604 C 2,6.604 2.051,6.554 2.1,6.503 l 0,-0.099 0,-0.05 -0.2,0 -0.05,0.05 0,0.099 C 1.9,6.554 1.9,6.604 1.952,6.604 m -0.553,-0.05 0,0.05 0.051,0 0.152,-0.101 c 0,-0.099 -0.051,-0.149 -0.1,-0.149 l 0.198,0 0,-0.1 -0.049,-0.101 -0.1,0 L 1.45,6.104 1.399,6.153 1.3,6.203 l 0.099,0.101 0,0.05 0.051,0 c -0.099,0 -0.15,0.05 -0.099,0.149 l 0.048,0.051 z m -0.048,0.151 0.048,0.098 0.103,0 0.1,0 0.148,-0.098 -0.148,-0.101 -0.051,0 -0.152,0 c -0.048,0 -0.048,0.05 -0.048,0.101 m 0.048,0.198 c -0.148,0 -0.148,0 -0.148,0.102 L 1.3,7.057 c 0.099,0 0.099,-0.052 0.099,-0.154 M 1.251,7.205 C 1.251,7.153 1.3,7.153 1.399,7.153 l 0.051,0 -0.199,0 -0.101,0 c 0,0.151 0.05,0.202 0.05,0.202 l 0.051,-0.051 0,-0.099 z m 0.4,-0.302 -0.1,0 0,-0.05 -0.101,0.05 0.052,0.102 -0.052,0 0,0.052 0.101,0.047 0.349,0 0,-0.099 C 1.952,6.954 1.952,6.903 1.9,6.903 l 0,-0.05 -0.2,0 -0.049,0.05 z m -0.049,0.502 0.148,0 0.05,-0.101 0,-0.05 0.05,-0.101 0,-0.049 -0.348,0 0,0.049 0.1,0.101 0,0.151 z m -2.003,-2.251 -0.098,0.049 0.047,0.101 0.302,0 0.049,-0.05 0,-0.051 -0.148,-0.049 -0.152,0 z m 0.05,-0.151 0,0.05 0.051,0.051 0.051,0 0.099,0 1.35,0 0.1,0.05 L 1.502,5.053 1.399,4.954 1.45,4.853 l 0,-0.1 -0.099,0 L 1.3,4.805 1.251,4.902 C 1.251,4.954 1.2,5.003 1.15,4.954 l -0.1,-0.052 0,-0.049 0.05,-0.048 0,-0.103 -0.099,0 -0.05,0.103 -0.1,0.149 -0.099,0 -0.05,-0.052 0.05,-0.097 0,-0.052 L 0.702,4.702 0.6,4.853 0.499,4.954 l 0,0.049 -0.098,-0.049 0,-0.052 0.048,-0.097 0,-0.052 -0.098,0 C 0.3,4.753 0.249,4.805 0.249,4.954 0.2,5.003 0.2,5.003 0.148,5.003 l -0.047,-0.049 0,-0.101 0,-0.1 L 0,4.853 -0.101,4.902 -0.15,5.003 -0.249,4.902 -0.3,4.954 -0.351,5.003 Z m -0.198,0.399 0,0.15 0.198,0 0.051,-0.05 0.051,-0.048 0.249,0 c 0.101,0.048 0.148,0.048 0.2,0.048 l 0.049,0 0.102,0 -0.102,-0.148 0,-0.05 -0.049,0 -0.052,0 -0.148,0 -0.499,0 -0.05,0.098 z m 0.148,0.404 0.05,0 0.051,-0.102 0.051,0 0,-0.051 -0.051,-0.101 -0.199,0 -0.05,0.101 0.148,0.153 z m -0.098,1.251 0.199,0 0,-0.204 -0.199,0 0,0.204 z M 3.152,0.051 3.251,0 l 0,-0.199 0,-0.05 -0.349,0 0,0.198 c 0.049,0 0.15,0.051 0.25,0.102 M 2.303,-0.051 2.351,0 2.502,0 2.7,0.051 2.751,0 l 0,-0.15 0,-0.099 -0.101,0 -0.148,0 -0.151,0 -0.048,0.05 0.048,0.097 -0.048,0.051 z m 0,0.401 c -0.05,0.102 0,0.153 0.048,0.102 0.151,0.051 0.251,0 0.251,-0.051 l 0,-0.251 -0.051,-0.049 -0.049,0 -0.051,0 -0.05,0 -0.098,0.049 0,0.1 0,0.1 z m 0.347,0 c 0,0.051 0.05,0.051 0.152,0.051 l 0.3,0 0.05,-0.051 0.05,0.051 0.049,-0.102 0,-0.198 -0.099,0 C 3.001,0.051 2.951,0.051 2.902,0 l 0,0.051 c -0.1,0.05 -0.151,0.05 -0.151,0.05 L 2.65,0.35 Z m -0.347,0.401 0.048,0.099 0.299,0 0.101,0 0,-0.347 -0.4,0 L 2.303,0.551 2.351,0.65 2.303,0.751 Z m 0,0.399 c -0.05,0.101 0.048,0.152 0.199,0.152 l 0.1,-0.051 0,-0.199 -0.1,-0.101 -0.051,0 -0.148,0 0,0.199 z m 0.948,-0.199 0,0 -0.398,0 -0.102,0 -0.101,0 0,0.199 0.05,0.101 0.452,0 c 0.05,0 0.099,0 0.099,-0.051 l 0,-0.148 0,-0.101 z M 3.702,0.802 3.65,0.503 l -0.649,0 0,0.147 0,0.2 0.25,0 0.201,-0.048 0.25,0 z M 3.752,0 3.952,-0.051 4.153,0 l 0,-0.249 -0.201,0 L 3.901,-0.3 3.854,-0.249 3.752,-0.3 3.65,-0.249 l -0.099,0 -0.099,0 -0.051,0.198 0.051,0.051 0.05,0 0.25,0 z m 0,0.35 0.25,0 c 0.1,0 0.151,-0.051 0.151,-0.1 L 4.102,0.15 4.153,0.101 3.952,0 C 3.901,0.051 3.854,0.101 3.752,0.051 L 3.752,0 3.702,0.051 c -0.052,0.05 -0.151,0.05 -0.2,0.05 L 3.401,0.051 c 0,0.099 0,0.199 0.051,0.299 L 3.551,0.401 3.65,0.35 l 0.102,0.051 0,-0.051 z m 0.401,0.5 0,-0.099 0,-0.05 0,-0.051 0,-0.049 C 4.102,0.551 4.102,0.503 4.052,0.452 l -0.1,0.051 -0.098,-0.051 0,0.149 0,0.1 0,0.101 0.098,0.048 0,-0.048 0.05,0 0.151,0.048 z m -0.051,0.35 0.051,0 0,-0.099 0,-0.049 0,-0.101 -0.151,0 -0.55,0 c 0,0 -0.051,0.051 0,0.15 -0.051,0.099 0,0.15 0.05,0.15 l 0.399,0 0.101,-0.051 0.1,0 z m -0.501,0.451 0,0 0.049,0 c 0.052,0 0.052,0 0.052,-0.05 0.05,0 0.152,-0.051 0.199,-0.148 l 0.101,-0.101 -0.25,0 C 3.702,1.401 3.65,1.453 3.65,1.501 l -0.049,0.1 0,0.05 z m -0.65,-0.05 0,0.05 0.3,0 0.051,0 0.15,0 0,-0.05 c 0.05,-0.051 0.05,-0.1 0.05,-0.2 0,0 0,-0.049 -0.101,-0.049 l -0.249,0 -0.05,0 c -0.101,0 -0.151,0.101 -0.151,0.249 m 0.201,0.401 0.099,0 0.051,0.05 0.099,-0.05 0.15,0 0.099,-0.049 0.052,-0.151 0,-0.05 -0.301,0 -0.15,-0.05 c -0.099,0 -0.149,0.05 -0.099,0.1 l 0,0.151 0,0.049 z m -0.701,-0.25 0.051,0 0,0.05 c 0.049,0 0.1,-0.05 0.1,-0.1 L 2.751,1.601 2.751,1.453 2.602,1.401 2.351,1.352 c -0.098,0 -0.098,0.049 -0.15,0.049 l 0,0.149 L 2.1,1.601 C 2,1.651 1.952,1.702 1.952,1.752 l 0,0.1 0,-0.05 -0.102,-0.05 0,-0.05 -0.05,0.05 -0.249,0 c -0.049,0 -0.049,0.05 -0.101,0.1 l -0.051,0.15 -0.048,0.05 c 0,0.099 0.151,0.149 0.349,0.149 0.15,0 0.252,-0.05 0.252,-0.05 C 2,2.101 2,2.052 2,2.002 L 1.952,1.852 2,1.901 2.1,1.953 c 0.101,0 0.203,-0.101 0.301,-0.251 l 0.05,0.05 z m 0,0.1 c -0.05,0 -0.1,0.049 -0.1,0.101 l 0.05,0.049 0.55,0 0.05,-0.049 0,-0.201 -0.05,0 -0.098,0 -0.102,0 -0.101,0.05 C 2.602,1.852 2.602,1.901 2.551,1.901 l -0.1,-0.049 z m 0.051,0.547 0.049,-0.046 0,-0.252 -0.4,0 c 0,0 -0.051,0.05 -0.051,0.1 -0.148,0 -0.2,0.05 -0.2,0.152 l 0,0.046 0.602,0 z m 0.899,-0.046 0.051,0.046 0.05,0 c 0,0 0.049,-0.046 0.099,-0.148 l 0,-0.15 -0.149,0 c -0.051,0 -0.1,0 -0.051,0.1 l 0,0.152 z M 3.251,2.399 3.302,2.353 C 3.302,2.151 3.251,2.101 3.251,2.101 l -0.5,0 c -0.051,0 -0.101,0 -0.101,0.1 l 0.05,0.05 0,0.102 c 0,0 0.051,0.046 0.153,0.046 l 0.398,0 z m -0.349,0.305 0,-0.051 0,-0.05 0,-0.052 -0.049,-0.05 -0.55,0 -0.05,0.05 0,0.201 c 0,0.05 0.05,0.05 0.198,0.05 l 0.402,0 0.049,-0.098 z M 2.951,2.653 c 0,0.051 0.05,0.099 0.05,0.149 l 0.25,0 c 0.201,0 0.251,-0.05 0.3,-0.149 L 3.502,2.603 c 0,-0.102 0,-0.102 -0.05,-0.102 l -0.451,0 -0.05,0.152 z m -0.75,1.149 0,-0.05 -0.05,-0.05 -0.199,0 -0.102,0 -0.1,0.05 c 0,0.101 0.05,0.151 0.1,0.2 l 0.05,0 0.052,0 0.199,0 0,-0.099 0.05,-0.051 z m 0.401,-0.7 c 0,0.102 0.048,0.102 0.149,0.102 l 0.401,0 0.099,0 0,-0.302 -0.601,0 c -0.048,0 -0.048,0 -0.048,0.099 l 0,0.101 z M 2.451,3.204 c 0,0 0.051,-0.052 0.051,-0.153 l 0,-0.149 -0.249,0 -0.353,0 -0.1,0.099 0.05,0.101 -0.05,0 c 0,0.102 0.05,0.102 0.152,0.102 l 0.148,0 0.351,0 z m -0.148,0.248 0.048,0 0.1,0 0.051,0 0.249,0 0,-0.1 c 0,-0.05 -0.051,-0.05 -0.2,-0.05 l -0.298,0 c -0.052,0 -0.102,0 -0.102,0.099 l 0,0.152 0.05,0 0,-0.05 0.102,-0.051 z m -0.102,0.802 0,-0.151 -0.05,-0.05 0,0.098 -0.051,0.052 0.051,0.051 0.05,0 z m 1.35,-1.05 c 0,-0.052 0,-0.102 0.05,-0.203 C 3.551,2.952 3.551,2.902 3.502,2.902 l -0.101,0 -0.099,0 0,0.25 0.099,0.052 0.15,0 z m 0,0.349 0,-0.201 C 3.502,3.302 3.452,3.302 3.352,3.302 l -0.45,0 0,0.099 0.049,0.051 0.05,0 0.151,0.101 c 0,0.051 0.05,0.051 0.099,0.051 l 0.15,-0.051 0.15,0 z m 0,0.199 0,-0.05 -0.099,0 -0.051,0.05 0,0.05 -0.15,0 c 0,-0.05 -0.049,-0.1 -0.099,-0.1 l 0,0.05 c 0,0.101 0,0.2 0.05,0.2 l 0.1,-0.099 c 0.05,0 0.099,0.05 0.15,0.099 0.05,0 0.099,-0.049 0.099,-0.2 M 3.502,4.254 3.551,4.151 C 3.551,4.103 3.502,4.053 3.452,4.053 l -0.201,0 -0.099,0 0,0.05 0,0.151 c 0,0.048 0.05,0.048 0.099,0 l 0.251,0 z m 0.399,1.349 -0.047,-0.051 -0.102,0 c -0.05,0 -0.102,0 -0.102,0.101 l 0.102,0.1 0.102,0 0.047,-0.15 z m 0.101,0.401 0,-0.198 -0.101,0 -0.047,0.047 0,0.151 0.098,0 0.05,0 z m -0.8,-1.353 0.199,0 c 0.051,0.051 0.101,0.051 0.101,0 0,0 0,-0.05 0.049,-0.1 l 0,-0.047 -0.049,-0.101 -0.05,0 -0.051,-0.05 c -0.15,0.05 -0.249,0.05 -0.249,0.05 -0.05,0.05 -0.1,0.05 -0.05,0.148 l 0,0.1 0.1,0 z m -0.949,0 L 2.351,4.601 2.253,4.504 2.201,4.403 2.151,4.353 2.1,4.403 2,4.353 1.952,4.353 1.9,4.403 1.85,4.353 c -0.1,0.05 -0.1,0.1 -0.1,0.198 l 0,0.1 c 0.05,0.051 0.15,0.051 0.35,0 l 0.153,0 z m 0.198,-0.05 0,0.05 0.051,0 0.4,0 0.049,0 0,-0.147 -0.2,0 -0.101,0 L 2.551,4.551 2.502,4.504 2.451,4.601 Z M 2.303,6.004 c 0.048,0 0.098,-0.05 0.098,-0.102 0,-0.049 -0.05,-0.096 -0.148,-0.096 L 2.201,5.902 c 0,0.052 0.052,0.102 0.102,0.102 m 0,-0.198 c 0.098,0 0.148,-0.053 0.148,-0.153 l -0.05,-0.101 -0.098,0 -0.05,0 -0.353,0 0,0.152 0.1,0.049 0.253,0 0.05,0.053 z m 0.698,-0.053 0,0 0.25,0.053 0.051,-0.102 0.05,0 -0.05,-0.152 -0.051,0 c 0.051,-0.05 0.101,-0.05 0.15,-0.098 l 0.051,-0.052 0.149,0.052 0.049,0 0.102,0.048 0.102,0 0.047,-0.1 0,-0.098 0,-0.05 -0.149,0.05 -0.05,0 -0.052,0 0.102,-0.05 0.102,0 0.047,0 0,-0.1 -0.149,-0.05 0,-0.101 -0.102,-0.049 0,-0.052 -0.148,0.052 0,-0.052 -0.101,-0.2 -0.049,0 -0.101,0.051 0,0.052 0.051,0.097 0.05,0.052 -0.15,0 -0.05,-0.101 C 3.102,4.805 3.001,4.753 3.001,4.702 l -0.05,0 0,0.051 0,0.052 0,0.097 L 2.902,4.954 2.853,4.902 2.751,4.753 l -0.149,0 0,0.1 L 2.65,4.954 2.602,5.003 2.502,4.954 2.351,4.702 2.303,4.805 l 0,0.097 c 0,0.052 -0.05,0.101 -0.05,0.052 C 2.151,5.003 2.1,4.902 2.1,4.805 l 0,-0.052 -0.1,0 -0.048,0.052 0,0.149 -0.102,0.049 c -0.1,0 -0.1,-0.049 -0.1,-0.101 l 0,-0.149 -0.05,-0.051 -0.098,0 c 0,0.103 0,0.252 -0.1,0.402 l 0.049,0 0.65,0 -0.05,0.05 -0.051,0 -0.35,0 0,0.049 -0.05,0 0.05,0.101 0.202,0 0.048,0 -0.048,0 -0.052,0.05 -0.1,-0.05 -0.549,0 0,0.248 -0.151,0 c -0.099,0 -0.099,0.051 -0.099,0.101 l 0.099,0.1 0,0.053 0.1,-0.053 0.151,0 c 0.099,0 0.151,-0.049 0.151,-0.1 L 1.45,5.552 l -0.051,0 0.051,0 c 0,-0.05 0.052,-0.05 0.101,-0.098 l 0.249,0 0,-0.1 0.05,0 L 2,5.502 2.151,5.454 C 2.151,5.354 2.1,5.354 2,5.304 l 0.1,0 0.153,0 0.098,-0.05 0.05,0 0.05,0.05 0.1,0 -0.049,0 -0.301,0 -0.05,0.098 0,0.052 0.05,0.048 0.15,0 c 0.05,0 0.1,0 0.151,-0.048 l 0,0.048 -0.051,0.05 0.051,0.051 0.3,0 0.051,-0.051 0,-0.05 -0.051,0 -0.152,-0.048 -0.148,0 0,-0.052 0,0.052 0.049,0 0.149,-0.052 0.051,0 0.051,0.052 0.1,0.048 0.099,0 0.151,-0.048 0.099,0.048 0,0.05 -0.25,0 c -0.099,0 -0.148,0 -0.148,0.101 l 0,0.1 0.148,0 z m 0,0.201 0,-0.052 c 0,-0.049 -0.05,-0.096 -0.099,-0.096 l -0.049,0.047 0.049,0.101 0.099,0 z m 0.151,-0.052 0,0 0,0.052 0,-0.052 z m 0.2,-0.096 0.049,0.047 0.101,0 0,0.049 -0.101,0 0,0.052 c -0.049,0.1 0,0.15 0.101,0.15 0.099,0 0.148,-0.05 0.2,-0.202 l -0.2,0 C 3.601,5.902 3.65,5.853 3.65,5.753 L 3.601,5.653 3.65,5.603 3.601,5.552 c 0,-0.05 -0.05,-0.098 -0.099,-0.098 -0.101,0 -0.101,0.048 -0.101,0.098 -0.049,0 -0.049,0 0,0 l 0,0.051 0,0.05 0.051,0 -0.051,0 -0.049,0.153 z m -0.05,0.148 0.05,0 0,-0.052 -0.05,0 0,0.052 z m -0.2,0.199 -0.101,0 0.151,0.151 0.099,-0.151 -0.049,-0.049 -0.1,0.049 z m 0.05,0.401 0.099,0 0.101,-0.051 -0.05,-0.099 -0.051,0 -0.049,-0.05 -0.05,0.05 0,0.15 z m 0,0.1 0,-0.05 -0.05,0.05 -0.101,0 0,0.051 c 0.051,0 0.101,-0.051 0.151,-0.051 M 2.201,7.355 2.253,7.304 c 0,-0.099 0,-0.151 -0.102,-0.151 l -0.1,0 0.049,0.101 0.051,0.101 0.05,0 z m 0,-0.298 0,-0.052 c 0,-0.102 -0.05,-0.152 -0.15,-0.152 L 2,6.803 2.1,6.753 C 2.1,6.654 2.051,6.654 2,6.654 l -0.1,-0.05 -0.05,0 -0.05,0 0,-0.2 0.05,0 -0.1,-0.05 -0.05,0.05 -0.049,0 0,0.2 0.099,0 0,0.05 0.05,0.149 0.1,0 0.1,0 -0.048,0.1 -0.052,0 C 1.9,7.005 2,7.104 2.1,7.104 L 2.201,7.057 Z m 0.901,-0.052 0,-0.102 -0.101,-0.1 -0.099,0 0,0.202 0.2,0 z m 0.4,-0.102 0,-0.1 -0.251,0 0,0.202 0.15,0 0.101,-0.102 z m 0.148,-0.799 -0.148,0 0,0.2 0.099,0 0.049,-0.05 0,-0.15 z m 0,0.649 0.102,0 0,-0.099 -0.05,-0.05 -0.101,0 0,0.05 -0.099,-0.05 0.099,-0.05 0.049,-0.15 -0.049,-0.05 -0.05,0 c -0.099,0 -0.15,0.05 -0.15,0.149 l 0.101,0.101 -0.15,0 c -0.101,0 -0.15,0 -0.15,0.05 l 0,0.051 0.049,0.048 0.051,0 0.15,0 0.05,0 0.049,-0.099 0.05,0 0.049,0.099 z m 0.251,0.15 -0.149,-0.1 -0.102,0 0,0.1 0.102,0.154 0.149,-0.154 z m 0,0.154 -0.149,0 c -0.102,0 -0.151,-0.052 -0.151,-0.154 0,0 -0.05,0.102 -0.099,0.102 0,0.052 -0.05,0.099 -0.101,0.052 -0.15,0.047 -0.15,0 -0.199,-0.052 l 0,-0.102 -0.05,0 0,0.154 -0.201,0 -0.098,0 -0.051,0 0,-0.154 0.051,-0.15 -0.051,0.1 0.051,-0.1 0.148,-0.349 0,-0.15 0,-0.051 0,-0.05 c 0,-0.049 -0.05,-0.099 -0.05,-0.099 l -0.098,0 -0.102,-0.301 c 0,0 -0.051,-0.049 -0.149,-0.049 l -0.151,0.049 0,0.301 -0.198,0 c -0.052,0 -0.102,0.05 -0.102,0.149 l 0,0.151 0.05,0.05 -0.05,0 0.05,0.25 0,0.149 0.15,0.301 0,0.049 c 0,0.202 -0.048,0.252 -0.098,0.252 l -0.253,0 0,-0.101 -0.1,0 0,0.201 -0.398,0 0,-0.201 -0.103,0 c 0,0.101 -0.048,0.101 -0.148,0.101 l -0.101,0 c -0.05,0 -0.149,0 -0.149,-0.05 l 0,-0.251 0.25,-0.351 -0.051,-0.649 -0.199,0 0,-0.351 -0.202,0 -0.147,0.053 0,0.298 c -0.102,0 -0.153,0 -0.153,0.049 l -0.148,0 0.05,0 0,0.401 C 0.499,6.753 0.6,6.853 0.6,6.903 c 0,0.102 0,0.154 -0.05,0.154 L 0.449,7.104 c -0.098,0 -0.2,-0.047 -0.2,-0.047 0,-0.103 0,-0.154 -0.049,-0.154 l -0.052,0 0,0.102 C 0.148,7.104 0.101,7.153 0,7.104 l -0.101,0 -0.049,-0.099 0,-0.102 -0.099,0 0,0.201 -0.102,0.049 -0.05,0 c -0.098,0 -0.148,-0.049 -0.148,-0.148 l 0,-0.202 0.05,-0.149 0.098,-0.05 0,-0.2 -0.051,-0.05 0.051,-0.05 0,-0.151 -0.098,0 0,-0.049 -0.05,0 0.05,-0.05 0,-0.1 0.098,0.1 0.05,0 0.102,-0.1 -0.051,-0.101 -0.051,0 -0.148,0 c 0,-0.047 -0.05,-0.1 -0.101,-0.1 l -0.049,0.053 0,0.248 -0.102,0 0,-0.652 0.151,-0.098 0,-0.15 0.351,-0.401 -0.051,-2.15 0,-0.452 C -0.401,1.953 -0.499,1.802 -0.649,1.601 l -0.152,-0.148 0,-1.803 5.102,0 -0.05,0.901 0.05,0.099 0,0.352 -0.05,0.099 0,0.099 0,0.152 -0.149,0.049 -0.1,0.149 -0.05,0.051 C 3.901,1.651 3.854,1.702 3.854,1.752 l -0.051,0.05 c -0.051,0.05 -0.051,0.099 -0.051,0.151 0,0.049 -0.05,0.099 0,0.148 l -0.05,0 0.05,0.1 -0.102,0.152 0,0.098 0.052,0.05 -0.052,0.05 0,0.052 0.052,1.998 c 0,0.204 0.05,0.353 0.152,0.353 l 0.148,0.15 0,0.2 0,0.15 0,0.098 0,0.051 0,0.299 0,0.202 -0.25,0 0,0.3 0,0.099 0,0.051 c 0.102,0.1 0.149,0.199 0.2,0.249 L 3.901,7.057 Z" />
    </g>
    <g
       transform="matrix(1.875,0,0,-1.875,-745.0757,-96.387407)"
       id="g140696"
       style="opacity:0.76399997">
      <path
         id="path140698"
         style="fill:#231f20;fill-opacity:1;fill-rule:nonzero;stroke:none"
         d="m 0,0 -0.05,0 0,-0.152 0.05,0 0,-1.55 4.502,0 0,1.55 0.1,0 0,0.152 -2.25,0 -0.05,0 0,-0.102 -0.051,0 L 2.251,0 2.201,0 0,0 Z" />
    </g>
    <g
       transform="matrix(1.875,0,0,-1.875,-736.35076,-96.387407)"
       id="g140700"
       style="opacity:0.76399997">
      <path
         id="path140702"
         style="fill:#231f20;fill-opacity:1;fill-rule:nonzero;stroke:none"
         d="m 0,0 0,-0.152 0.05,0 4.553,0 0.048,0 L 4.651,0 4.603,0 0,0 Z" />
    </g>
    <g
       transform="matrix(1.875,0,0,-1.875,-731.00588,-109.23584)"
       id="g140704"
       style="opacity:0.76399997">
      <path
         id="path140706"
         style="fill:#231f20;fill-opacity:1;fill-rule:nonzero;stroke:none"
         d="M 0,0 0.1,0.051 0.95,-0.301 C 0.899,-0.35 0.899,-0.4 0.85,-0.502 L 0.7,-0.651 C 0.549,-0.8 0.35,-0.899 0.201,-0.95 0.05,-1.001 -0.051,-1.001 -0.149,-1.001 l -0.252,0 -0.099,0.051 0.251,0.85 c 0.147,0 0.198,0 0.249,0.1 m -0.351,0.5 0.102,0 0.1,0 C -0.102,0.5 -0.051,0.5 0,0.449 0,0.351 0.05,0.3 0.05,0.25 0.05,0.2 0.05,0.149 0,0.1 l 0,-0.049 -0.051,0 C -0.051,0 -0.149,0 -0.249,-0.05 -0.301,0 -0.401,0 -0.401,0.051 l -0.048,0.049 -0.051,0 0,0.15 c 0,0.101 0.051,0.149 0.099,0.199 L -0.351,0.5 Z M 0.251,1.401 C 0.35,1.352 0.451,1.352 0.549,1.25 L 0,0.5 c -0.051,0.051 -0.102,0.101 -0.149,0.101 l -0.1,0 -0.102,0 -0.299,0.751 c 0.15,0.099 0.299,0.149 0.501,0.149 0.098,0 0.249,-0.05 0.4,-0.1 M 0.601,1.2 C 0.601,1.2 0.65,1.1 0.7,1.1 0.95,0.85 1.051,0.551 1.102,0.25 1.051,0.051 1.051,-0.1 0.95,-0.248 L 0.1,0.1 C 0.149,0.1 0.149,0.2 0.149,0.25 0.149,0.3 0.1,0.351 0.05,0.449 L 0.601,1.2 Z M -1.4,0.25 l 0,0 0.851,-0.05 c 0,-0.051 0,-0.1 0.049,-0.149 L -0.5,0 c 0.051,-0.05 0.099,-0.1 0.199,-0.1 l -0.248,-0.85 c -0.2,0.099 -0.351,0.2 -0.501,0.299 -0.151,0.149 -0.2,0.251 -0.251,0.403 C -1.4,-0.1 -1.45,0.051 -1.4,0.25 m 0.5,1 c 0.049,0.052 0.101,0.052 0.151,0.102 L -0.401,0.551 -0.5,0.5 C -0.5,0.449 -0.549,0.351 -0.549,0.3 L -1.4,0.351 c 0,0.2 0.051,0.348 0.15,0.499 0,0.101 0.101,0.2 0.2,0.25 L -0.9,1.25 Z M -1.001,1.302 -1.099,1.151 C -1.201,1.1 -1.25,1.05 -1.301,0.951 -1.4,0.749 -1.501,0.551 -1.501,0.3 l 0,-0.05 c 0,-0.199 0,-0.35 0.101,-0.551 0.099,-0.15 0.15,-0.251 0.301,-0.399 0.148,-0.151 0.35,-0.25 0.55,-0.351 l 0.049,0 0.051,0 c 0.098,-0.049 0.2,-0.049 0.3,-0.049 0.098,0 0.249,0.049 0.35,0.049 0.199,0.101 0.4,0.2 0.55,0.351 l 0.148,0.148 C 0.95,-0.451 1.001,-0.4 1.051,-0.301 1.102,-0.151 1.15,0.051 1.15,0.25 1.15,0.601 1.001,0.9 0.751,1.151 0.7,1.25 0.65,1.25 0.601,1.302 0.502,1.352 0.4,1.451 0.251,1.501 0.149,1.551 0,1.551 -0.149,1.551 c -0.202,0 -0.4,-0.05 -0.6,-0.1 C -0.851,1.401 -0.9,1.352 -1.001,1.302" />
    </g>
    <g
       transform="matrix(1.875,0,0,-1.875,-738.03901,-109.70459)"
       id="g140708"
       style="opacity:0.76399997">
      <path
         id="path140710"
         style="fill:#231f20;fill-opacity:1;fill-rule:nonzero;stroke:none"
         d="m 0,0 0,-0.15 c 0,-0.049 0.05,-0.049 0.1,-0.1 0,-0.05 0.049,-0.05 0.148,-0.1 L 0,-1.2 c -0.201,0.099 -0.352,0.2 -0.5,0.35 -0.102,0.098 -0.202,0.2 -0.25,0.352 C -0.852,-0.35 -0.852,-0.15 -0.852,0 l 0,0.05 L 0,0 Z m -0.702,0.65 c 0.05,0.103 0.1,0.15 0.202,0.2 L -0.352,1 c 0.051,0.052 0.101,0.102 0.151,0.102 l 0.35,-0.801 -0.049,0 0,-0.051 -0.05,0 C 0,0.25 0,0.149 0,0.05 l -0.852,0.051 c 0,0.2 0.052,0.398 0.15,0.549 M 1.401,-0.701 1.249,-0.85 C 1.102,-1 0.9,-1.101 0.749,-1.2 c -0.15,0 -0.249,-0.051 -0.35,-0.051 -0.151,0 -0.198,0 -0.25,0.051 l -0.049,0 0.249,0.85 c 0.101,0 0.151,0.05 0.25,0.1 l 0.05,0.051 0.85,-0.352 C 1.452,-0.6 1.452,-0.65 1.401,-0.701 M 0.599,0 l 0,-0.15 -0.099,0 0,-0.049 C 0.5,-0.25 0.399,-0.25 0.349,-0.25 l -0.049,0 c -0.052,0 -0.151,0.051 -0.151,0.051 L 0.1,-0.15 c 0,0.049 -0.05,0.1 0,0.15 0,0.101 0,0.199 0.049,0.199 L 0.201,0.25 c 0.047,0.051 0.047,0.051 0.148,0 l 0.05,0 c 0.051,0 0.101,0 0.101,-0.051 l 0.049,0 C 0.599,0.149 0.599,0.101 0.599,0 m 0.15,1.201 C 0.9,1.151 1,1.102 1.102,1 L 0.549,0.301 C 0.5,0.351 0.45,0.351 0.399,0.351 l -0.05,0 -0.148,0 -0.304,0.751 C 0,1.201 0.201,1.251 0.399,1.251 c 0.101,0 0.25,0 0.35,-0.05 M 1.148,0.95 C 1.199,0.95 1.199,0.901 1.249,0.85 1.499,0.6 1.6,0.351 1.65,0 1.6,-0.15 1.6,-0.35 1.499,-0.498 l -0.8,0.348 0,0.15 c 0,0.101 0,0.149 -0.05,0.25 l 0.499,0.7 z M 1.3,0.95 1.148,1.052 C 1,1.151 0.95,1.251 0.8,1.251 0.699,1.301 0.5,1.352 0.399,1.352 0.201,1.352 0,1.301 -0.201,1.201 c -0.1,0 -0.151,-0.099 -0.201,-0.149 L -0.552,0.95 C -0.602,0.85 -0.702,0.8 -0.75,0.701 -0.852,0.549 -0.902,0.301 -0.952,0.05 l 0,-0.05 c -0.049,-0.15 0.05,-0.35 0.1,-0.551 0.102,-0.099 0.2,-0.251 0.3,-0.399 0.15,-0.151 0.351,-0.25 0.552,-0.301 l 0.1,-0.05 0.299,0 c 0.101,0 0.25,0 0.35,0.05 0.201,0.051 0.399,0.15 0.551,0.301 l 0.152,0.198 C 1.499,-0.701 1.548,-0.6 1.6,-0.551 1.65,-0.35 1.701,-0.199 1.701,0 1.701,0.351 1.6,0.701 1.3,0.95" />
    </g>
    <g
       transform="matrix(1.875,0,0,-1.875,-736.35076,-103.60541)"
       id="g140712"
       style="opacity:0.76399997">
      <path
         id="path140714"
         style="fill:#231f20;fill-opacity:1;fill-rule:nonzero;stroke:none"
         d="m 0,0 c -0.101,0.153 -0.151,0.301 -0.151,0.502 l 0.901,-0.05 0,-0.101 0,-0.05 c 0,0 0.051,0 0.051,-0.05 C 0.852,0.202 0.898,0.202 1,0.153 L 0.75,-0.698 C 0.552,-0.6 0.349,-0.5 0.248,-0.397 0.1,-0.249 0.05,-0.148 0,0 M 0.248,1.353 0.349,1.5 c 0.1,0.05 0.152,0.101 0.203,0.101 L 0.852,0.802 0.801,0.751 c 0,-0.05 -0.051,-0.1 -0.051,-0.198 l -0.901,0.048 c 0,0.201 0.099,0.401 0.201,0.551 0.05,0.099 0.1,0.15 0.198,0.201 m 0.803,-1.2 0.049,0 c 0.098,0 0.15,0.049 0.25,0.098 l 0,0.05 0.9,-0.351 C 2.2,-0.099 2.15,-0.148 2.102,-0.249 L 2,-0.397 C 1.85,-0.5 1.649,-0.6 1.502,-0.698 c -0.152,0 -0.252,-0.05 -0.402,-0.05 -0.049,0 -0.151,0 -0.248,0.05 L 1.051,0.153 Z M 0.949,0.751 c 0,0.051 0.051,0.051 0.151,0 0.098,0 0.15,0 0.15,-0.05 l 0.051,0 C 1.35,0.651 1.35,0.553 1.35,0.502 l 0,-0.101 0,-0.05 -0.049,-0.05 -0.051,0 c 0,-0.05 -0.1,-0.05 -0.15,-0.05 l -0.049,0 c -0.102,0 -0.153,0.05 -0.199,0.05 l 0,0.05 c -0.051,0.05 -0.051,0.101 -0.051,0.151 0,0.099 0.051,0.149 0.051,0.199 l 0.097,0.05 z M 2.351,0.502 C 2.351,0.301 2.351,0.153 2.25,0 L 1.4,0.351 c 0.05,0.05 0.05,0.101 0.05,0.151 0,0.051 -0.05,0.149 -0.1,0.199 l 0.5,0.752 c 0.049,0 0.1,-0.051 0.15,-0.1 0.25,-0.201 0.351,-0.5 0.351,-0.851 M 1.55,1.702 C 1.601,1.651 1.752,1.601 1.85,1.5 L 1.301,0.802 C 1.25,0.853 1.198,0.853 1.1,0.853 l -0.151,0 -0.35,0.798 c 0.202,0.051 0.35,0.103 0.501,0.103 0.15,0 0.3,0 0.45,-0.052 m -0.998,0 C 0.449,1.651 0.349,1.601 0.299,1.55 L 0.201,1.453 C 0.1,1.353 0.05,1.302 0,1.203 -0.151,1.002 -0.201,0.802 -0.201,0.553 l 0,-0.051 c 0,-0.201 0.05,-0.349 0.1,-0.552 C 0,-0.199 0.05,-0.299 0.201,-0.448 0.349,-0.6 0.552,-0.698 0.75,-0.8 l 0.102,0 c 0.097,0 0.199,0 0.248,-0.05 0.15,0 0.25,0.05 0.402,0.05 0.199,0.102 0.348,0.2 0.55,0.352 L 2.2,-0.299 c 0.05,0.1 0.102,0.151 0.151,0.249 0.05,0.152 0.098,0.351 0.098,0.552 0,0.351 -0.147,0.65 -0.397,0.951 C 2,1.5 1.95,1.55 1.899,1.55 1.801,1.651 1.701,1.702 1.55,1.754 1.45,1.802 1.301,1.852 1.1,1.802 0.898,1.802 0.75,1.754 0.552,1.702" />
    </g>
    <g
       transform="matrix(1.875,0,0,-1.875,-735.88556,-101.54722)"
       id="g140716"
       style="opacity:0.76399997">
      <path
         id="path140718"
         style="fill:#231f20;fill-opacity:1;fill-rule:nonzero;stroke:none"
         d="m 0,0 c 0,-0.052 0.051,-0.052 0.101,-0.102 0.203,-0.251 0.35,-0.549 0.35,-0.9 0,-0.149 -0.052,-0.301 -0.1,-0.448 l -0.85,0.346 c 0,0 0,0.051 0.05,0.102 0,0.101 -0.05,0.199 -0.101,0.249 L 0,0 Z m -0.849,-1.353 c 0.1,0 0.201,0.05 0.249,0.151 l 0.05,0 0.854,-0.35 c 0,0 -0.051,-0.102 -0.103,-0.151 0,-0.048 -0.1,-0.048 -0.1,-0.15 -0.199,-0.151 -0.349,-0.251 -0.55,-0.299 -0.101,-0.05 -0.199,-0.05 -0.351,-0.05 l -0.249,0 -0.05,0.05 0.25,0.799 z M -1.2,-1.002 c 0,-0.051 0.052,-0.102 0.052,-0.149 l 0,-0.051 c 0.099,-0.05 0.149,-0.101 0.201,-0.101 l -0.201,-0.849 c -0.251,0.048 -0.403,0.148 -0.5,0.299 l -0.052,0 c -0.101,0.15 -0.198,0.249 -0.248,0.352 -0.052,0.198 -0.103,0.35 -0.103,0.499 l 0,0.051 0.851,-0.051 z m 0.351,0.3 0.049,0 c 0.051,0 0.102,-0.051 0.152,-0.051 l 0,-0.05 c 0.048,-0.05 0.098,-0.098 0.098,-0.199 0,0 0,-0.051 -0.05,-0.102 l -0.048,-0.047 c -0.05,-0.051 -0.101,-0.101 -0.201,-0.101 l -0.051,0 c -0.047,0.05 -0.099,0.05 -0.149,0.101 l 0,0.047 c -0.05,0.051 -0.099,0.102 -0.05,0.102 l 0,0.051 c 0,0.05 0.05,0.148 0.05,0.198 l 0.05,0.051 0.15,0 z m -0.45,0.849 c 0.151,0.101 0.352,0.151 0.499,0.101 0.152,0.05 0.301,0 0.401,-0.05 0.099,0 0.201,-0.099 0.301,-0.149 l -0.55,-0.751 c 0,0.051 -0.05,0.1 -0.152,0.1 l -0.049,0 c -0.051,0 -0.051,0 -0.098,-0.049 L -1.299,0.147 Z M -1.551,0.049 c 0.051,0.05 0.102,0.05 0.152,0.098 l 0.35,-0.798 -0.099,-0.051 c 0,-0.051 0,-0.101 -0.052,-0.199 l -0.851,0.048 c 0,0.202 0.051,0.353 0.153,0.551 0.047,0.051 0.148,0.101 0.25,0.2 L -1.551,0 l 0,0.049 z M -1.598,0.099 -1.7,-0.052 c -0.101,-0.05 -0.198,-0.149 -0.198,-0.25 -0.153,-0.15 -0.203,-0.4 -0.251,-0.599 l 0,-0.101 c 0,-0.149 0.048,-0.351 0.149,-0.499 0.052,-0.153 0.149,-0.302 0.3,-0.401 0.149,-0.153 0.301,-0.25 0.552,-0.351 l 0.099,0 c 0.05,-0.05 0.149,-0.05 0.249,-0.05 0.152,0 0.25,0.05 0.401,0.05 0.201,0.101 0.352,0.198 0.5,0.351 l 0.203,0.151 c 0.047,0.097 0.047,0.147 0.095,0.199 0.103,0.199 0.103,0.401 0.154,0.55 0,0.4 -0.154,0.7 -0.452,0.95 C 0.051,0.049 0,0.049 0,0.099 -0.148,0.147 -0.248,0.248 -0.399,0.298 -0.499,0.35 -0.648,0.35 -0.8,0.35 -0.999,0.35 -1.2,0.298 -1.399,0.248 -1.449,0.198 -1.551,0.147 -1.598,0.099" />
    </g>
    <g
       transform="matrix(1.875,0,0,-1.875,-730.91251,-100.04216)"
       id="g140720"
       style="opacity:0.76399997">
      <path
         id="path140722"
         style="fill:#231f20;fill-opacity:1;fill-rule:nonzero;stroke:none"
         d="m 0,0 0.05,0 c 0,-0.05 0.05,-0.099 0.05,-0.199 0,0 0,-0.051 -0.05,-0.102 L 0,-0.349 c -0.05,-0.05 -0.101,-0.1 -0.199,-0.1 -0.1,0 -0.152,0.05 -0.201,0.1 l 0,0.048 c -0.051,0 -0.051,0.051 -0.051,0.102 0,0.1 0.051,0.149 0.051,0.199 l 0.101,0.05 c 0,0.051 0.05,0.051 0.1,0.051 l 0.048,0 C -0.101,0.101 -0.05,0.05 0,0 M 0.951,-0.749 C 0.951,-0.801 0.9,-0.852 0.85,-0.9 0.85,-0.948 0.8,-1 0.752,-1.05 0.551,-1.201 0.401,-1.301 0.201,-1.35 0.1,-1.399 -0.05,-1.399 -0.151,-1.45 -0.249,-1.399 -0.299,-1.399 -0.4,-1.399 l -0.051,0 0.252,0.849 c 0.098,0 0.149,0.05 0.249,0.101 l 0.05,0.05 0.851,-0.35 z m -2.349,0.55 0,0.051 0.848,-0.051 c 0,-0.051 0,-0.102 0.051,-0.15 0,-0.05 0.048,-0.05 0.048,-0.1 0.051,0 0.1,-0.051 0.152,-0.101 l -0.251,-0.8 c -0.15,0.049 -0.35,0.149 -0.501,0.3 -0.097,0.102 -0.148,0.249 -0.249,0.352 -0.051,0.148 -0.098,0.349 -0.098,0.499 M -0.9,0.803 c 0.051,0.049 0.101,0.098 0.2,0.098 l 0.3,-0.75 -0.051,-0.05 C -0.499,0.05 -0.55,-0.05 -0.55,-0.148 l -0.848,0.049 c 0.047,0.2 0.098,0.402 0.199,0.549 0,0.102 0.099,0.152 0.148,0.251 L -0.9,0.803 Z m 1.55,0 c 0,-0.052 0.051,-0.102 0.102,-0.102 0.199,-0.251 0.349,-0.55 0.349,-0.9 0,-0.15 -0.049,-0.301 -0.1,-0.448 l -0.85,0.346 c 0,0 0,0.051 0.05,0.102 0,0.1 -0.05,0.149 -0.101,0.249 l 0.55,0.753 z m -1.3,0.147 c 0.151,0.101 0.351,0.101 0.499,0.101 0.151,0 0.302,0 0.402,-0.05 0.15,-0.051 0.248,-0.1 0.3,-0.149 L 0.05,0.101 c -0.1,0.05 -0.1,0.05 -0.201,0.05 l -0.048,0 c -0.05,0.05 -0.1,0.05 -0.1,0 L -0.65,0.95 Z m 0.499,0.202 c -0.2,0 -0.399,-0.051 -0.549,-0.151 -0.099,0 -0.2,-0.051 -0.25,-0.1 L -1.051,0.751 C -1.148,0.701 -1.199,0.602 -1.3,0.501 c -0.098,-0.15 -0.15,-0.4 -0.15,-0.6 l 0,-0.1 c -0.05,-0.15 0,-0.351 0.099,-0.499 l 0,-0.051 C -1.3,-0.852 -1.199,-1 -1.051,-1.1 -0.9,-1.301 -0.7,-1.399 -0.499,-1.45 l 0.099,-0.05 0.249,0 c 0.101,0 0.251,0 0.352,0.05 0.251,0.051 0.4,0.149 0.599,0.35 l 0.151,0.152 c 0.05,0.048 0.101,0.147 0.101,0.199 0.099,0.199 0.148,0.4 0.148,0.55 0,0.4 -0.148,0.7 -0.4,0.95 C 0.701,0.803 0.701,0.852 0.65,0.852 0.551,0.95 0.401,1.051 0.3,1.051 0.151,1.101 0,1.152 -0.151,1.152" />
    </g>
    <path
       id="path140724"
       style="opacity:0.76399997;fill:#231f20;fill-opacity:1;fill-rule:nonzero;stroke:none"
       d="m -753.80138,-89.822087 8.44687,0 0,-3.00188 -8.44687,0 0,3.00188 z" />
    <g
       transform="matrix(1.875,0,0,-1.875,-752.4842,-82.786337)"
       id="g140726"
       style="opacity:0.76399997">
      <path
         id="path140728"
         style="fill:#231f20;fill-opacity:1;fill-rule:nonzero;stroke:none"
         d="m 0,0 0.101,0 3.702,0 0.05,0 0,0.1 -0.05,0 0,1.699 -4.454,0 C -0.55,1.149 -0.352,0.6 0,0.1 L 0,0 Z" />
    </g>
    <path
       id="path140730"
       style="opacity:0.76399997;fill:#231f20;fill-opacity:1;fill-rule:nonzero;stroke:none"
       d="m -727.72013,-92.822087 -8.53688,0 0,3.00187 8.53688,0 0,-3.00187 z" />
    <g
       transform="matrix(1.875,0,0,-1.875,-727.81426,-86.159087)"
       id="g140732"
       style="opacity:0.76399997">
      <path
         id="path140734"
         style="fill:#231f20;fill-opacity:1;fill-rule:nonzero;stroke:none"
         d="m 0,0 -4.503,0 0,-1.699 -0.05,0 0,-0.1 0.05,0 3.751,0 0.101,0 0,0.1 -0.05,0 C -0.352,-1.199 -0.15,-0.649 0,0" />
    </g>
    <path
       id="path140736"
       style="opacity:0.76399997;fill:#231f20;fill-opacity:1;fill-rule:nonzero;stroke:none"
       d="m -736.63388,-89.445217 -8.44125,0 0,3.00188 8.44125,0 0,-3.00188 z" />
    <g
       transform="matrix(1.875,0,0,-1.875,-745.16908,-82.973087)"
       id="g140738"
       style="opacity:0.76399997">
      <path
         id="path140740"
         style="fill:#231f20;fill-opacity:1;fill-rule:nonzero;stroke:none"
         d="m 0,0 0,-0.1 0.05,0 0,-1.652 4.502,0 0,1.652 0.099,0 0,0.1 L 4.552,0 0.05,0 0,0 Z" />
    </g>
    <g
       transform="matrix(1.875,0,0,-1.875,-731.94338,-116.54909)"
       id="g140742"
       style="opacity:0.76399997">
      <path
         id="path140744"
         style="fill:#231f20;fill-opacity:1;fill-rule:nonzero;stroke:none"
         d="m 0,0 c 0,0 -0.049,0 -0.101,0.051 -0.7,0.199 -1.398,0.3 -2.2,0.35 -0.601,0.05 -1.45,0.05 -2.401,0.05 -0.95,0 -1.801,0 -2.401,-0.05 -0.751,-0.05 -1.452,-0.151 -2.2,-0.35 L -9.353,0 c -0.102,0 -0.102,-0.05 -0.052,-0.101 0,-0.046 0.052,-0.096 0.152,-0.096 l 0,-0.052 0.149,-0.55 c -0.05,-0.05 -0.05,-0.1 0,-0.15 l 0.05,-0.1 0.05,-0.201 c 0,-0.051 0.099,-0.102 0.35,-0.149 0.399,-0.151 1.05,-0.201 1.9,-0.251 l 1.251,0 c -1.6,0.05 -2.652,0.251 -3.102,0.503 1.001,0.248 2.302,0.348 3.903,0.348 1.551,0 2.751,-0.05 3.701,-0.25 0,0.05 0.051,0.05 0.2,0 0.051,0 0.1,-0.051 0.051,-0.098 0,-0.052 0,-0.052 -0.099,-0.052 C -1.3,-1.449 -2.301,-1.6 -3.903,-1.65 l 1.301,0 c 0.85,0.05 1.501,0.1 1.901,0.251 0.2,0.098 0.301,0.098 0.35,0.149 l 0,0.201 0.102,0.1 c 0,0.05 0,0.1 -0.05,0.15 l 0.149,0.55 0.049,0 0,0.052 C -0.049,-0.197 0,-0.147 0,-0.101 0.051,-0.05 0.051,-0.05 0,0" />
    </g>
    <g
       transform="matrix(1.875,0,0,-1.875,-706.08526,-113.20204)"
       id="g140746"
       style="opacity:0.76399997">
      <path
         id="path140748"
         style="fill:#231f20;fill-opacity:1;fill-rule:nonzero;stroke:none"
         d="m 0,0 -0.55,1.593 c -0.123,0.36 -0.205,0.689 -0.287,1.01 l -0.017,0 C -0.936,2.282 -1.018,1.938 -1.133,1.601 L -1.675,0 0,0 Z m -1.822,-0.559 -0.574,-1.74 -0.74,0 1.889,5.533 0.853,0 1.888,-5.533 -0.763,0 -0.591,1.74 -1.962,0 z" />
    </g>
    <g
       transform="matrix(1.875,0,0,-1.875,-701.64113,-116.34227)"
       id="g140750"
       style="opacity:0.76399997">
      <path
         id="path140752"
         style="fill:#231f20;fill-opacity:1;fill-rule:nonzero;stroke:none"
         d="M 0,0 0.861,-2.349 C 0.96,-2.611 1.059,-2.923 1.124,-3.161 l 0.017,0 c 0.074,0.238 0.156,0.542 0.255,0.829 L 2.184,0 2.947,0 1.863,-2.833 C 1.346,-4.195 0.993,-4.885 0.5,-5.32 0.14,-5.624 -0.205,-5.747 -0.386,-5.779 l -0.18,0.598 c 0.18,0.058 0.418,0.173 0.631,0.354 0.198,0.155 0.435,0.434 0.608,0.805 0.033,0.073 0.057,0.13 0.057,0.171 0,0.041 -0.016,0.099 -0.057,0.189 L -0.788,0 0,0 Z" />
    </g>
    <g
       transform="matrix(1.875,0,0,-1.875,-688.65713,-110.93872)"
       id="g140754"
       style="opacity:0.76399997">
      <path
         id="path140756"
         style="fill:#231f20;fill-opacity:1;fill-rule:nonzero;stroke:none"
         d="m 0,0 c 0,-0.419 0.009,-0.78 0.033,-1.092 l -0.64,0 -0.041,0.649 -0.017,0 c -0.181,-0.321 -0.607,-0.739 -1.314,-0.739 -0.624,0 -1.371,0.353 -1.371,1.741 l 0,2.323 0.723,0 0,-2.193 c 0,-0.754 0.238,-1.272 0.887,-1.272 0.484,0 0.821,0.337 0.952,0.665 0.041,0.099 0.065,0.23 0.065,0.369 l 0,2.431 L 0,2.882 0,0 Z" />
    </g>
    <g
       transform="matrix(1.875,0,0,-1.875,-686.41426,-114.32441)"
       id="g140758"
       style="opacity:0.76399997">
      <path
         id="path140760"
         style="fill:#231f20;fill-opacity:1;fill-rule:nonzero;stroke:none"
         d="m 0,0 c 0,0.419 -0.009,0.747 -0.033,1.076 l 0.64,0 0.041,-0.657 0.017,0 c 0.196,0.369 0.656,0.739 1.314,0.739 0.549,0 1.403,-0.329 1.403,-1.691 l 0,-2.364 -0.723,0 0,2.29 C 2.659,0.033 2.422,0.566 1.74,0.566 1.272,0.566 0.902,0.23 0.771,-0.172 0.738,-0.263 0.722,-0.386 0.722,-0.509 l 0,-2.388 L 0,-2.897 0,0 Z" />
    </g>
    <g
       transform="matrix(1.875,0,0,-1.875,-676.30669,-118.12747)"
       id="g140762"
       style="opacity:0.76399997">
      <path
         id="path140764"
         style="fill:#231f20;fill-opacity:1;fill-rule:nonzero;stroke:none"
         d="m 0,0 0,-0.952 1.034,0 0,-0.551 -1.034,0 0,-2.143 c 0,-0.492 0.14,-0.771 0.542,-0.771 0.196,0 0.312,0.017 0.418,0.05 l 0.033,-0.551 c -0.139,-0.049 -0.361,-0.098 -0.64,-0.098 -0.336,0 -0.608,0.115 -0.78,0.304 -0.197,0.222 -0.279,0.574 -0.279,1.042 l 0,2.167 -0.616,0 0,0.551 0.616,0 0,0.738 L 0,0 Z" />
    </g>
    <g
       transform="matrix(1.875,0,0,-1.875,-668.92388,-112.69297)"
       id="g140766"
       style="opacity:0.76399997">
      <path
         id="path140768"
         style="fill:#231f20;fill-opacity:1;fill-rule:nonzero;stroke:none"
         d="m 0,0 c -0.788,0.017 -1.683,-0.123 -1.683,-0.895 0,-0.476 0.312,-0.689 0.673,-0.689 0.526,0 0.863,0.328 0.978,0.665 C -0.008,-0.837 0,-0.755 0,-0.689 L 0,0 Z m 0.698,-1.075 c 0,-0.345 0.017,-0.682 0.058,-0.952 l -0.649,0 -0.057,0.501 -0.026,0 c -0.221,-0.313 -0.648,-0.591 -1.214,-0.591 -0.804,0 -1.215,0.566 -1.215,1.14 0,0.961 0.853,1.487 2.388,1.478 l 0,0.082 c 0,0.32 -0.089,0.92 -0.902,0.911 -0.378,0 -0.764,-0.106 -1.043,-0.295 l -0.164,0.485 c 0.328,0.205 0.813,0.344 1.313,0.344 1.215,0 1.511,-0.829 1.511,-1.617 l 0,-1.486 z" />
    </g>
    <g
       transform="matrix(1.875,0,0,-1.875,-665.43395,-114.32441)"
       id="g140770"
       style="opacity:0.76399997">
      <path
         id="path140772"
         style="fill:#231f20;fill-opacity:1;fill-rule:nonzero;stroke:none"
         d="m 0,0 c 0,0.419 -0.017,0.747 -0.033,1.076 l 0.632,0 0.033,-0.648 0.024,0 c 0.222,0.377 0.591,0.73 1.256,0.73 0.534,0 0.944,-0.329 1.117,-0.797 l 0.016,0 c 0.123,0.231 0.288,0.395 0.452,0.518 0.237,0.181 0.492,0.279 0.87,0.279 0.533,0 1.314,-0.345 1.314,-1.724 l 0,-2.331 -0.706,0 0,2.241 c 0,0.771 -0.287,1.222 -0.863,1.222 -0.419,0 -0.73,-0.303 -0.861,-0.648 -0.033,-0.106 -0.058,-0.23 -0.058,-0.361 l 0,-2.454 -0.706,0 0,2.38 c 0,0.632 -0.279,1.083 -0.829,1.083 -0.443,0 -0.78,-0.36 -0.895,-0.721 C 0.722,-0.254 0.706,-0.386 0.706,-0.509 l 0,-2.388 L 0,-2.897 0,0 Z" />
    </g>
    <path
       id="path140774"
       style="opacity:0.76399997;fill:#231f20;fill-opacity:1;fill-rule:nonzero;stroke:none"
       d="m -652.60576,-116.34209 1.35375,0 0,7.45125 -1.35375,0 0,-7.45125 z m 1.5075,-2.0925 c 0,0.46125 -0.32249,0.83062 -0.86062,0.83062 -0.49313,0 -0.8175,-0.36937 -0.8175,-0.83062 0,-0.46125 0.33937,-0.84563 0.8475,-0.84563 0.49312,0 0.83062,0.36938 0.83062,0.84563" />
    <g
       transform="matrix(1.875,0,0,-1.875,-644.2817,-113.33929)"
       id="g140776"
       style="opacity:0.76399997">
      <path
         id="path140778"
         style="fill:#231f20;fill-opacity:1;fill-rule:nonzero;stroke:none"
         d="M 0,0 C 0.009,0.452 -0.188,1.166 -1.001,1.166 -1.74,1.166 -2.052,0.501 -2.109,0 L 0,0 Z m -2.117,-0.517 c 0.015,-0.977 0.632,-1.379 1.362,-1.379 0.518,0 0.837,0.09 1.1,0.206 l 0.132,-0.518 c -0.255,-0.115 -0.699,-0.254 -1.331,-0.254 -1.222,0 -1.954,0.813 -1.954,2.011 0,1.198 0.706,2.135 1.865,2.135 1.304,0 1.641,-1.133 1.641,-1.865 0,-0.147 -0.009,-0.254 -0.024,-0.336 l -2.791,0 z" />
    </g>
    <g
       transform="matrix(1.875,0,0,-1.875,-641.29877,-114.32441)"
       id="g140780"
       style="opacity:0.76399997">
      <path
         id="path140782"
         style="fill:#231f20;fill-opacity:1;fill-rule:nonzero;stroke:none"
         d="m 0,0 c 0,0.419 -0.009,0.747 -0.033,1.076 l 0.64,0 0.041,-0.657 0.017,0 c 0.196,0.369 0.656,0.739 1.314,0.739 0.549,0 1.403,-0.329 1.403,-1.691 l 0,-2.364 -0.723,0 0,2.29 C 2.659,0.033 2.421,0.566 1.74,0.566 1.272,0.566 0.902,0.23 0.771,-0.172 0.738,-0.263 0.722,-0.386 0.722,-0.509 l 0,-2.388 L 0,-2.897 0,0 Z" />
    </g>
    <g
       transform="matrix(1.875,0,0,-1.875,-631.19326,-118.12747)"
       id="g140784"
       style="opacity:0.76399997">
      <path
         id="path140786"
         style="fill:#231f20;fill-opacity:1;fill-rule:nonzero;stroke:none"
         d="m 0,0 0,-0.952 1.034,0 0,-0.551 -1.034,0 0,-2.143 c 0,-0.492 0.14,-0.771 0.542,-0.771 0.196,0 0.312,0.017 0.418,0.05 l 0.033,-0.551 c -0.139,-0.049 -0.361,-0.098 -0.64,-0.098 -0.336,0 -0.608,0.115 -0.78,0.304 -0.197,0.222 -0.279,0.574 -0.279,1.042 l 0,2.167 -0.616,0 0,0.551 0.616,0 0,0.738 L 0,0 Z" />
    </g>
    <g
       transform="matrix(1.875,0,0,-1.875,-626.97995,-112.60129)"
       id="g140788"
       style="opacity:0.76399997">
      <path
         id="path140790"
         style="fill:#231f20;fill-opacity:1;fill-rule:nonzero;stroke:none"
         d="m 0,0 c 0,-0.87 0.492,-1.527 1.198,-1.527 0.69,0 1.207,0.648 1.207,1.544 0,0.672 -0.337,1.518 -1.19,1.518 C 0.369,1.535 0,0.747 0,0 m 3.145,0.041 c 0,-1.47 -1.027,-2.109 -1.979,-2.109 -1.067,0 -1.905,0.788 -1.905,2.044 0,1.321 0.879,2.101 1.97,2.101 1.141,0 1.914,-0.829 1.914,-2.036" />
    </g>
    <g
       transform="matrix(1.875,0,0,-1.875,-611.04058,-113.31004)"
       id="g140792"
       style="opacity:0.76399997">
      <path
         id="path140794"
         style="fill:#231f20;fill-opacity:1;fill-rule:nonzero;stroke:none"
         d="m 0,0 c 0,0.09 -0.009,0.213 -0.033,0.304 -0.107,0.451 -0.501,0.829 -1.043,0.829 -0.746,0 -1.19,-0.657 -1.19,-1.528 0,-0.804 0.403,-1.469 1.174,-1.469 0.485,0 0.928,0.329 1.059,0.862 C -0.009,-0.903 0,-0.805 0,-0.69 L 0,0 Z m 0.714,3.472 0,-4.802 c 0,-0.354 0.016,-0.756 0.033,-1.026 l -0.641,0 -0.033,0.689 -0.024,0 c -0.213,-0.443 -0.69,-0.779 -1.338,-0.779 -0.961,0 -1.708,0.812 -1.708,2.018 -0.008,1.323 0.821,2.127 1.782,2.127 0.615,0 1.018,-0.288 1.198,-0.599 l 0.017,0 0,2.372 0.714,0 z" />
    </g>
    <g
       transform="matrix(1.875,0,0,-1.875,-602.72026,-113.33929)"
       id="g140796"
       style="opacity:0.76399997">
      <path
         id="path140798"
         style="fill:#231f20;fill-opacity:1;fill-rule:nonzero;stroke:none"
         d="M 0,0 C 0.009,0.452 -0.188,1.166 -1.001,1.166 -1.74,1.166 -2.052,0.501 -2.109,0 L 0,0 Z m -2.117,-0.517 c 0.015,-0.977 0.632,-1.379 1.362,-1.379 0.518,0 0.837,0.09 1.1,0.206 l 0.132,-0.518 c -0.255,-0.115 -0.699,-0.254 -1.331,-0.254 -1.222,0 -1.954,0.813 -1.954,2.011 0,1.198 0.706,2.135 1.865,2.135 1.304,0 1.641,-1.133 1.641,-1.865 0,-0.147 -0.009,-0.254 -0.024,-0.336 l -2.791,0 z" />
    </g>
    <g
       transform="matrix(1.875,0,0,-1.875,-700.96558,-94.988467)"
       id="g140800"
       style="opacity:0.76399997">
      <path
         id="path140802"
         style="fill:#231f20;fill-opacity:1;fill-rule:nonzero;stroke:none"
         d="m 0,0 c -0.041,0.771 -0.091,1.708 -0.091,2.389 l -0.016,0 C -0.304,1.749 -0.525,1.051 -0.805,0.287 l -0.977,-2.683 -0.541,0 -0.904,2.634 c -0.262,0.788 -0.476,1.494 -0.631,2.151 l -0.017,0 C -3.892,1.699 -3.933,0.78 -3.981,-0.058 l -0.149,-2.372 -0.681,0 0.386,5.534 0.911,0 0.944,-2.677 c 0.23,-0.681 0.411,-1.288 0.558,-1.864 l 0.017,0 c 0.147,0.559 0.345,1.166 0.591,1.864 l 0.985,2.677 0.911,0 0.345,-5.534 -0.706,0 L 0,0 Z" />
    </g>
    <g
       transform="matrix(1.875,0,0,-1.875,-696.4502,-94.142467)"
       id="g140804"
       style="opacity:0.76399997">
      <path
         id="path140806"
         style="fill:#231f20;fill-opacity:1;fill-rule:nonzero;stroke:none"
         d="m 0,0 c 0,-0.87 0.492,-1.527 1.198,-1.527 0.69,0 1.207,0.648 1.207,1.544 0,0.672 -0.337,1.518 -1.19,1.518 C 0.369,1.535 0,0.747 0,0 m 3.145,0.041 c 0,-1.47 -1.027,-2.109 -1.979,-2.109 -1.067,0 -1.905,0.788 -1.905,2.044 0,1.321 0.879,2.101 1.97,2.101 1.141,0 1.914,-0.829 1.914,-2.036" />
    </g>
    <path
       id="path140808"
       style="opacity:0.76399997;fill:#231f20;fill-opacity:1;fill-rule:nonzero;stroke:none"
       d="m -688.85138,-101.36084 1.35375,0 0,10.927503 -1.35375,0 0,-10.927503 z" />
    <path
       id="path140810"
       style="opacity:0.76399997;fill:#231f20;fill-opacity:1;fill-rule:nonzero;stroke:none"
       d="m -685.21951,-97.882717 1.35375,0 0,7.45125 -1.35375,0 0,-7.45125 z m 1.50563,-2.09437 c 0,0.46312 -0.3225,0.8325 -0.86063,0.8325 -0.49125,0 -0.81562,-0.36938 -0.81562,-0.8325 0,-0.461253 0.3375,-0.845633 0.8475,-0.845633 0.49312,0 0.82875,0.37125 0.82875,0.845633" />
    <g
       transform="matrix(1.875,0,0,-1.875,-681.62231,-95.865587)"
       id="g140812"
       style="opacity:0.76399997">
      <path
         id="path140814"
         style="fill:#231f20;fill-opacity:1;fill-rule:nonzero;stroke:none"
         d="m 0,0 c 0,0.419 -0.009,0.747 -0.033,1.076 l 0.64,0 0.041,-0.657 0.017,0 c 0.196,0.369 0.656,0.739 1.314,0.739 0.549,0 1.403,-0.329 1.403,-1.691 l 0,-2.364 -0.723,0 0,2.29 C 2.659,0.033 2.421,0.566 1.74,0.566 1.272,0.566 0.902,0.23 0.771,-0.172 0.738,-0.263 0.722,-0.386 0.722,-0.509 l 0,-2.388 L 0,-2.897 0,0 Z" />
    </g>
    <g
       transform="matrix(1.875,0,0,-1.875,-669.16013,-94.233967)"
       id="g140816"
       style="opacity:0.76399997">
      <path
         id="path140818"
         style="fill:#231f20;fill-opacity:1;fill-rule:nonzero;stroke:none"
         d="m 0,0 c -0.788,0.017 -1.683,-0.123 -1.683,-0.895 0,-0.475 0.312,-0.689 0.673,-0.689 0.526,0 0.863,0.328 0.978,0.665 C -0.008,-0.837 0,-0.755 0,-0.689 L 0,0 Z m 0.698,-1.075 c 0,-0.345 0.017,-0.682 0.058,-0.952 l -0.649,0 -0.057,0.501 -0.026,0 c -0.22,-0.313 -0.648,-0.591 -1.214,-0.591 -0.804,0 -1.215,0.566 -1.215,1.14 0,0.961 0.853,1.487 2.388,1.478 l 0,0.082 c 0,0.32 -0.089,0.92 -0.902,0.911 -0.378,0 -0.764,-0.106 -1.043,-0.295 l -0.164,0.485 c 0.328,0.205 0.813,0.344 1.313,0.344 1.215,0 1.511,-0.829 1.511,-1.617 l 0,-1.486 z" />
    </g>
    <g
       transform="matrix(1.875,0,0,-1.875,-657.32963,-94.851037)"
       id="g140820"
       style="opacity:0.76399997">
      <path
         id="path140822"
         style="fill:#231f20;fill-opacity:1;fill-rule:nonzero;stroke:none"
         d="m 0,0 c 0,0.09 -0.009,0.213 -0.033,0.304 -0.107,0.451 -0.501,0.829 -1.043,0.829 -0.746,0 -1.19,-0.657 -1.19,-1.528 0,-0.804 0.403,-1.469 1.174,-1.469 0.485,0 0.928,0.329 1.059,0.862 C -0.009,-0.903 0,-0.805 0,-0.69 L 0,0 Z m 0.714,3.472 0,-4.802 c 0,-0.354 0.016,-0.756 0.033,-1.026 l -0.641,0 -0.033,0.689 -0.024,0 c -0.213,-0.443 -0.69,-0.779 -1.338,-0.779 -0.961,0 -1.708,0.812 -1.708,2.018 -0.008,1.323 0.821,2.127 1.782,2.127 0.615,0 1.018,-0.288 1.198,-0.599 l 0.017,0 0,2.372 0.714,0 z" />
    </g>
    <g
       transform="matrix(1.875,0,0,-1.875,-649.0112,-94.880467)"
       id="g140824"
       style="opacity:0.76399997">
      <path
         id="path140826"
         style="fill:#231f20;fill-opacity:1;fill-rule:nonzero;stroke:none"
         d="M 0,0 C 0.009,0.452 -0.188,1.166 -1.001,1.166 -1.74,1.166 -2.052,0.501 -2.109,0 L 0,0 Z m -2.117,-0.517 c 0.015,-0.977 0.632,-1.379 1.362,-1.379 0.518,0 0.837,0.09 1.1,0.206 l 0.132,-0.518 c -0.255,-0.115 -0.699,-0.254 -1.331,-0.254 -1.222,0 -1.954,0.813 -1.954,2.011 0,1.198 0.706,2.135 1.865,2.135 1.304,0 1.641,-1.133 1.641,-1.865 0,-0.147 -0.008,-0.254 -0.024,-0.336 l -2.791,0 z" />
    </g>
    <g
       transform="matrix(1.875,0,0,-1.875,-642.89176,-92.064217)"
       id="g140828"
       style="opacity:0.76399997">
      <path
         id="path140830"
         style="fill:#231f20;fill-opacity:1;fill-rule:nonzero;stroke:none"
         d="m 0,0 c 0.32,-0.205 0.78,-0.361 1.272,-0.361 0.732,0 1.159,0.385 1.159,0.944 0,0.509 -0.296,0.813 -1.043,1.092 -0.904,0.328 -1.461,0.804 -1.461,1.576 0,0.862 0.714,1.502 1.789,1.502 0.558,0 0.977,-0.131 1.215,-0.271 L 2.734,3.899 C 2.562,4.006 2.192,4.162 1.691,4.162 0.937,4.162 0.649,3.711 0.649,3.333 0.649,2.815 0.985,2.562 1.749,2.266 2.685,1.904 3.152,1.453 3.152,0.641 3.152,-0.213 2.529,-0.96 1.224,-0.96 0.69,-0.96 0.107,-0.796 -0.188,-0.6 L 0,0 Z" />
    </g>
    <g
       transform="matrix(1.875,0,0,-1.875,-630.36751,-94.880467)"
       id="g140832"
       style="opacity:0.76399997">
      <path
         id="path140834"
         style="fill:#231f20;fill-opacity:1;fill-rule:nonzero;stroke:none"
         d="M 0,0 C 0.009,0.452 -0.188,1.166 -1.001,1.166 -1.74,1.166 -2.052,0.501 -2.109,0 L 0,0 Z m -2.117,-0.517 c 0.015,-0.977 0.632,-1.379 1.362,-1.379 0.518,0 0.837,0.09 1.1,0.206 l 0.132,-0.518 c -0.255,-0.115 -0.699,-0.254 -1.331,-0.254 -1.222,0 -1.954,0.813 -1.954,2.011 0,1.198 0.706,2.135 1.865,2.135 1.304,0 1.641,-1.133 1.641,-1.865 0,-0.147 -0.008,-0.254 -0.024,-0.336 l -2.791,0 z" />
    </g>
    <g
       transform="matrix(1.875,0,0,-1.875,-622.36933,-94.942717)"
       id="g140836"
       style="opacity:0.76399997">
      <path
         id="path140838"
         style="fill:#231f20;fill-opacity:1;fill-rule:nonzero;stroke:none"
         d="m 0,0 c 0,0.123 -0.008,0.229 -0.041,0.32 -0.131,0.427 -0.476,0.772 -1.01,0.772 -0.689,0 -1.181,-0.583 -1.181,-1.502 0,-0.78 0.401,-1.429 1.173,-1.429 0.452,0 0.854,0.279 1.001,0.739 C -0.017,-0.977 0,-0.837 0,-0.714 L 0,0 Z m 0.723,-1.822 c 0,-0.92 -0.189,-1.47 -0.567,-1.823 -0.394,-0.353 -0.952,-0.476 -1.453,-0.476 -0.476,0 -1.002,0.115 -1.321,0.328 l 0.18,0.559 c 0.262,-0.173 0.673,-0.321 1.166,-0.321 0.739,0 1.281,0.386 1.281,1.396 l 0,0.435 -0.017,0 c -0.214,-0.37 -0.648,-0.665 -1.264,-0.665 -0.986,0 -1.692,0.837 -1.692,1.938 0,1.346 0.879,2.101 1.798,2.101 0.69,0 1.06,-0.353 1.24,-0.681 l 0.017,0 0.024,0.599 0.64,0 C 0.73,1.289 0.723,0.961 0.723,0.484 l 0,-2.306 z" />
    </g>
    <g
       transform="matrix(1.875,0,0,-1.875,-612.55501,-92.479907)"
       id="g140840"
       style="opacity:0.76399997">
      <path
         id="path140842"
         style="fill:#231f20;fill-opacity:1;fill-rule:nonzero;stroke:none"
         d="m 0,0 c 0,-0.419 0.009,-0.78 0.033,-1.092 l -0.64,0 -0.041,0.649 -0.017,0 c -0.181,-0.321 -0.607,-0.739 -1.314,-0.739 -0.624,0 -1.371,0.353 -1.371,1.741 l 0,2.323 0.723,0 0,-2.193 c 0,-0.754 0.238,-1.272 0.887,-1.272 0.484,0 0.821,0.337 0.952,0.665 0.041,0.099 0.065,0.23 0.065,0.369 l 0,2.431 L 0,2.882 0,0 Z" />
    </g>
    <g
       transform="matrix(1.875,0,0,-1.875,-610.31196,-95.557907)"
       id="g140844"
       style="opacity:0.76399997">
      <path
         id="path140846"
         style="fill:#231f20;fill-opacity:1;fill-rule:nonzero;stroke:none"
         d="m 0,0 c 0,0.468 -0.009,0.87 -0.033,1.24 l 0.632,0 0.033,-0.788 0.024,0 c 0.181,0.533 0.624,0.87 1.109,0.87 0.074,0 0.131,-0.009 0.197,-0.016 l 0,-0.682 C 1.888,0.641 1.813,0.641 1.716,0.641 1.206,0.641 0.846,0.263 0.747,-0.279 0.73,-0.377 0.722,-0.5 0.722,-0.615 l 0,-2.118 L 0,-2.733 0,0 Z" />
    </g>
    <g
       transform="matrix(1.875,0,0,-1.875,-601.43496,-94.233967)"
       id="g140848"
       style="opacity:0.76399997">
      <path
         id="path140850"
         style="fill:#231f20;fill-opacity:1;fill-rule:nonzero;stroke:none"
         d="m 0,0 c -0.788,0.017 -1.683,-0.123 -1.683,-0.895 0,-0.475 0.312,-0.689 0.673,-0.689 0.526,0 0.863,0.328 0.978,0.665 C -0.008,-0.837 0,-0.755 0,-0.689 L 0,0 Z m 0.698,-1.075 c 0,-0.345 0.017,-0.682 0.058,-0.952 l -0.649,0 -0.057,0.501 -0.026,0 c -0.221,-0.313 -0.648,-0.591 -1.214,-0.591 -0.804,0 -1.215,0.566 -1.215,1.14 0,0.961 0.853,1.487 2.388,1.478 l 0,0.082 c 0,0.32 -0.089,0.92 -0.902,0.911 -0.378,0 -0.764,-0.106 -1.043,-0.295 l -0.164,0.485 c 0.328,0.205 0.813,0.344 1.313,0.344 1.215,0 1.511,-0.829 1.511,-1.617 l 0,-1.486 z" />
    </g>
  </g>
</svg>
