<?xml version="1.0" encoding="UTF-8" standalone="no"?>
<!-- Created with Inkscape (http://www.inkscape.org/) -->

<svg
   xmlns:dc="http://purl.org/dc/elements/1.1/"
   xmlns:cc="http://creativecommons.org/ns#"
   xmlns:rdf="http://www.w3.org/1999/02/22-rdf-syntax-ns#"
   xmlns:svg="http://www.w3.org/2000/svg"
   xmlns="http://www.w3.org/2000/svg"
   xmlns:sodipodi="http://sodipodi.sourceforge.net/DTD/sodipodi-0.dtd"
   xmlns:inkscape="http://www.inkscape.org/namespaces/inkscape"
   id="svg2"
   version="1.1"
   inkscape:version="0.91 r13725"
   width="2268.8567"
   height="2268.8572"
   viewBox="0 0 2268.8567 2268.8572"
   sodipodi:docname="muerta.svg">
  <metadata
     id="metadata8">
    <rdf:RDF>
      <cc:Work
         rdf:about="">
        <dc:format>image/svg+xml</dc:format>
        <dc:type
           rdf:resource="http://purl.org/dc/dcmitype/StillImage" />
        <dc:title />
      </cc:Work>
    </rdf:RDF>
  </metadata>
  <defs
     id="defs6" />
  <sodipodi:namedview
     pagecolor="#d6d6d6"
     bordercolor="#666666"
     borderopacity="1"
     objecttolerance="10"
     gridtolerance="10"
     guidetolerance="10"
     inkscape:pageopacity="0"
     inkscape:pageshadow="2"
     inkscape:window-width="1920"
     inkscape:window-height="1017"
     id="namedview4"
     showgrid="false"
     inkscape:zoom="0.40255864"
     inkscape:cx="1538.2653"
     inkscape:cy="1334.1764"
     inkscape:window-x="-8"
     inkscape:window-y="-8"
     inkscape:window-maximized="1"
     inkscape:current-layer="svg2"
     fit-margin-top="0"
     fit-margin-left="0"
     fit-margin-right="0"
     fit-margin-bottom="0" />
  <path
     style="color:#000000;clip-rule:nonzero;display:inline;overflow:visible;visibility:visible;opacity:1;isolation:auto;mix-blend-mode:normal;color-interpolation:sRGB;color-interpolation-filters:linearRGB;solid-color:#000000;solid-opacity:1;fill:#ffffff;fill-opacity:1;fill-rule:nonzero;stroke:none;stroke-width:1.06993353px;stroke-linecap:butt;stroke-linejoin:miter;stroke-miterlimit:4;stroke-dasharray:none;stroke-dashoffset:0;stroke-opacity:1;color-rendering:auto;image-rendering:auto;shape-rendering:auto;text-rendering:auto;enable-background:accumulate"
     d="m 897.79376,172.18045 c -36.7151,0.29651 -39.569,22.62735 -39.9609,166.0586 -0.2007,73.35383 1.8236,142.04698 4.4961,152.65039 l 4.8574,19.27929 -42.1934,-0.59375 c -57.6209,-0.81108 -69.7073,7.26241 -83.5683,55.82813 -6.351,22.25301 -17.2025,46.82121 -24.1153,54.59375 -6.9129,7.77253 -14.8932,25.08878 -17.7324,38.48242 -4.5197,21.32166 -2.6968,26.31832 14.6406,40.14258 16.567,13.2101 18.3398,17.55087 10.8496,26.57617 -5.9235,7.1374 -15.6769,9.4419 -28.8242,6.8125 -15.6682,-3.1337 -20.8163,-0.98928 -24.3476,10.13672 -2.4631,7.7605 -10.7332,15.74524 -18.377,17.74414 -7.8528,2.0535 -13.8984,9.65431 -13.8984,17.47461 0,19.4097 -26.6022,51.07617 -42.9082,51.07617 -11.6193,0 -13.6192,5.15183 -13.6192,35.08203 0,39.0451 5.2579,44.32724 52.6446,52.89844 15.3524,2.7768 31.2508,9.49223 35.33,14.92383 4.0791,5.4317 20.1347,14.19973 35.6797,19.48243 31.4543,10.689 35.0624,15.3891 176.7715,230.3203 59.00213,89.4888 81.16113,129.0053 81.22663,144.8515 0.1208,29.2118 -36.4152,395.4879 -39.82433,399.2422 -1.4755,1.6251 -10.792,-1.3851 -20.7031,-6.6894 -15.1242,-8.0943 -30.1686,-8.154 -93.6133,-0.3711 -132.6325,16.27 -166.3448,17.0563 -208.3144,4.8554 -52.4185,-15.2384 -90.8319,-14.2907 -149.9395,3.6992 -35.6927,10.8634 -77.7437,16.2665 -151.2324,19.4317 l -97.6875,4.207 a 1142.7523,1124.9649 44.999936 0 0 937.80674,513.0586 1142.7523,1124.9649 44.999936 0 0 965.2089,-527.7812 c -6.1793,5.6581 -12.2657,6.5321 -18.1621,-0.5762 -6.2385,-0.9768 -14.077,-3.1379 -24.1562,-6.5723 -32.6039,-11.1093 -75.5846,-10.693 -147.1406,1.4278 -23.293,3.9455 -27.2275,2.435 -34.3438,-13.1836 -12.1886,-26.751 -30.3299,-31.9496 -128.877,-36.9414 -87.7424,-4.4446 -90.7257,-4.1257 -94.4492,10.1132 -3.4747,13.2872 -9.0384,14.6917 -57.7812,14.5879 -29.6654,-0.063 -89.7075,6.8287 -133.4258,15.3145 -43.7184,8.4859 -80.8042,14.1022 -82.4141,12.4805 -8.1192,-8.1783 -18.4049,-231.1605 -14.1269,-306.2676 5.3898,-94.6288 6.0061,-96.1072 69.0547,-165.8067 18.9557,-20.9552 40.9266,-52.7086 48.8242,-70.5625 25.1451,-56.8447 74.1837,-129.3284 96.8027,-143.0839 12.0355,-7.3191 23.6363,-18.854 25.7793,-25.6328 8.8131,-27.8769 55.9746,-127.22289 72.1797,-152.04689 l 17.4082,-26.66406 -12.332,-72.25782 c -19.1464,-112.198 -15.272,-104.05664 -49.5,-104.05664 -38.556,0 -47.8439,10.77638 -68.586,79.58399 -13.8146,45.8267 -22.9698,61.8155 -55.6425,97.1582 -38.8894,42.0673 -39.3315,42.30274 -78.9434,42.30274 -34.1403,0 -44.2058,-3.32492 -70.4141,-23.25782 -36.4418,-27.7161 -74.7389,-83.48435 -81.0136,-117.97265 -2.4835,-13.651 -18.1859,-55.39691 -34.8926,-92.76953 l -30.375,-67.95118 -2.2109,-119.77343 -2.211,-119.77539 19.875,-28.80665 c 15.7607,-22.84404 19.4162,-35.14134 17.6641,-59.41796 -4.0274,-55.80525 -48.2185,-58.5777 -86.7969,-5.44532 -9.5698,13.18003 -22.5323,30.95406 -28.8066,39.49805 -29.1852,39.74307 -58.674,227.82478 -46.2539,295.01172 9.0912,49.17868 10.0888,95.74805 2.0507,95.74805 -15.0754,0 -52.1083,-52.31558 -77.5293,-109.52344 -31.77731,-71.51194 -40.47101,-113.64071 -51.75581,-250.79297 -4.3146,-52.43806 -11.4837,-106.49222 -15.9317,-120.12109 -7.3462,-22.50885 -10.8025,-24.97837 -37.70313,-26.9336 -4.5576,-0.33125 -8.7175,-0.53654 -12.5156,-0.50586 z m -53.3809,389.79297 c 1.3236,0.076 2.7975,0.9698 4.2344,2.70117 4.502,5.42449 10.2128,6.26526 18.2832,2.69532 l 7.5313,-3.33008 2.1464,11.70703 c 1.1808,6.43892 7.6805,28.39976 14.4434,48.80273 13.7611,41.51697 19.2695,69.31697 19.2695,97.23047 0,22.1495 -2.4277,31.29915 -10.5839,39.87305 -5.8741,6.1751 -7.4064,6.86212 -15.1973,6.82812 -7.0609,-0.031 -12.0971,-1.85033 -27.2129,-9.83203 -12.8789,-6.8006 -19.3275,-9.31371 -21.0957,-8.22461 -2.0146,1.241 -3.5462,-1.22709 -7.3379,-11.80859 -2.6363,-7.3569 -9.7572,-26.69491 -15.8242,-42.97461 -10.3403,-27.74683 -10.8485,-29.80208 -8.1172,-32.82031 4.2454,-4.69096 3.6066,-16.01649 -1.5371,-27.25195 -3.6115,-7.88829 -4.1119,-10.61489 -2.6504,-14.45899 0.9907,-2.60589 1.8008,-8.67868 1.8008,-13.49414 0,-7.61163 0.5748,-9.01635 4.3926,-10.75586 2.4153,-1.1005 5.612,-3.86537 7.1054,-6.14453 1.4934,-2.27915 4.179,-4.14453 5.9668,-4.14453 3.7548,0 18.6125,-15.20164 20.418,-20.89063 0.8101,-2.55223 2.2632,-3.80478 3.9648,-3.70703 z m -90.2304,210.16992 c 3.5079,0.0332 5.0271,4.91274 8.4101,18.89844 2.5264,10.4444 5.8163,25.79804 7.3125,34.11914 2.6258,14.6043 2.5946,15.41675 -0.9394,23.40625 l -3.6621,8.27735 -12.3614,0 c -6.7995,0 -20.2856,-1.31573 -29.9687,-2.92383 -21.4428,-3.5611 -27.2772,-2.10109 -26.0137,6.50781 0.4237,2.8871 0.3125,5.15557 -0.248,5.04297 -0.5603,-0.1127 -2.6097,-0.55492 -4.5528,-0.98242 -5.6274,-1.2383 -13.248,-4.44568 -13.248,-5.57618 0,-0.56979 2.8096,-3.91444 6.2441,-7.43164 3.9821,-4.078 6.6328,-8.7874 7.3164,-13 0.9773,-6.0225 0.4095,-7.2813 -6.4297,-14.25 l -7.5019,-7.64453 3.7187,-3.71875 c 2.0453,-2.0452 5.9353,-3.71875 8.6446,-3.71875 2.7093,0 7.8675,-1.49883 11.4629,-3.33203 5.9436,-3.0301 7.1995,-3.10587 13.8164,-0.82617 4.0028,1.3791 8.8515,2.00778 10.7773,1.39648 4.6114,-1.4635 8.4785,-11.05499 8.4785,-21.02929 0,-7.1062 0.4466,-8.01276 3.9746,-8.06836 2.186,-0.034 5.9618,-1.19939 8.3907,-2.58789 2.7782,-1.5881 4.7844,-2.5737 6.3789,-2.5586 z m 1477.87304,66.08985 c 1.0752,3.8639 2.1273,7.73593 3.1641,11.61523 a 1142.7523,1124.9649 44.999936 0 0 -3.1641,-11.61523 z M 2256.325,944.198 a 1142.7523,1124.9649 44.999936 0 1 3.5547,20.6074 c -0.4657,-2.8051 -0.9185,-5.5609 -1.4179,-8.4921 -0.6894,-4.046 -1.4066,-8.0827 -2.1368,-12.1153 z m -91.6972,680.2344 c -11.1025,24.024 -22.2626,46.9161 -31.9688,65.4648 0.1468,-0.1424 0.2903,-0.275 0.4375,-0.4199 a 1142.7523,1124.9649 44.999936 0 0 7.5254,-13.0352 c 4.271,-8.5578 8.4999,-16.5967 12.6543,-23.0605 a 1142.7523,1124.9649 44.999936 0 0 12.8652,-28.6426 c -0.4604,-0.1286 -0.9836,-0.2208 -1.5136,-0.3066 z"
     id="path4189-4"
     inkscape:connector-curvature="0" />
  <path
     style="fill:#000000"
     d="m 910.02539,184.39844 c -15.39784,0.70294 -34.16492,2.97572 -43.01758,17.4375 -5.66218,10.96186 -9.89879,23.0813 -9.75781,35.52929 -1.69471,40.01549 0.18699,80.11473 -3.46281,120.0261 -1.48279,35.94193 3.30057,71.667 4.16737,107.5368 0.5968,18.24481 3.08205,36.33771 5.22513,54.42734 0.72818,3.6225 -2.74593,6.61384 -1.17383,10.125 -8.25421,-5.83384 -20.15216,-9.25363 -29.01563,-2.67383 -3.12412,3.74266 -5.83681,-1.91722 -9.16601,-2.69922 -7.92641,-4.4741 -17.8994,-4.48363 -25.70703,0.2207 -7.87416,2.23975 -16.34507,-1.97184 -24.0293,0.52149 -5.94957,6.10473 -14.30663,9.52545 -19.81777,15.7736 -12.65976,18.85826 -16.15113,42.02297 -19.83248,63.80448 -1.55207,7.99974 -4.38221,15.8169 -10.86147,21.127 -8.34891,9.64726 -19.48287,18.25872 -23.29492,30.91992 -1.02646,4.29007 -0.84941,9.16694 1.73828,12.89453 -8.78305,6.07195 -11.21515,20.46211 -2.77148,27.83008 7.65223,9.42293 19.60196,14.10175 27.53515,23.07226 3.86065,5.95491 7.00796,12.55671 9.89258,18.87891 -4.57218,-4.18065 -10.86266,-1.42912 -14.74609,2.26172 -4.29652,4.1539 -9.9739,6.37725 -15.91602,5.09375 -8.51124,-0.18403 -15.96798,-6.77446 -24.51758,-5.25781 -9.4466,2.75788 -10.57991,14.0689 -13.76601,21.77592 -1.76101,2.5046 -0.35685,8.89407 -4.92722,7.48586 -8.40583,-0.54056 -18.97915,0.138 -23.55091,8.41986 -5.79777,7.63869 -1.54155,17.53118 -1.11718,25.85937 -11.4775,11.73122 -17.66127,29.92147 -34.70313,34.97266 -5.23294,2.23191 -10.98714,0.81088 -16.27734,1.27344 -7.05524,3.3345 -6.59171,12.69426 -7.41497,19.28631 -0.23327,5.24365 0.79512,11.03454 4.8134,14.7547 -5.47374,10.39152 -4.89324,24.32588 3.27149,33.20313 5.13026,7.21273 13.5008,11.64895 22.39453,11.43945 8.98275,0.38283 18.03801,1.73117 26.0625,6 11.07718,3.94963 23.82609,3.35834 33.54297,10.37109 1.74304,4.45588 1.38576,9.33782 2.28711,13.97461 4.89648,1.3131 10.95298,-0.79774 15.12305,1.93946 4.33475,6.59552 13.40471,4.98718 19.848,7.899 10.95549,2.59115 23.34783,4.9268 31.32973,13.52287 4.93617,11.28747 14.25546,20.34403 20.89911,30.70192 19.28845,30.5927 43.0784,58.313 60.11833,90.2419 10.62617,19.8964 24.08964,37.9767 36.81362,56.523 30.37136,45.2404 58.60584,91.9092 90.66894,136.0234 5.29969,8.4327 13.6343,15.037 17.25781,24.3906 1.751,10.4259 -0.0293,21.038 0.0156,31.5567 -3.95971,56.5448 -11.96135,112.865 -17.3391,169.3516 -7.5876,74.1136 -13.5583,148.3866 -20.79567,222.5273 -10.82303,-1.7369 -22.34191,-4.7986 -30.00195,-13.2031 -7.5584,-3.1613 -15.91213,0.2912 -23.78573,-0.63 -30.47867,1.3269 -61.30048,0.5737 -91.56826,4.7176 -36.53712,10.2693 -74.14328,15.5193 -112.14406,14.9514 -23.28527,0.6937 -46.3423,-3.2697 -68.46986,-10.3506 -13.12202,-3.4062 -25.3444,-9.5743 -38.54381,-12.5634 -11.06167,-1.1045 -22.09468,0.4161 -33.11914,-0.334 -26.57595,-0.1746 -52.00985,8.3251 -77.23285,15.6288 -28.42463,8.5611 -56.62626,20.4498 -86.79264,20.2268 -51.18986,1.6937 -102.59109,0.587 -153.80264,3.1366 -5.32058,0.4785 -6.95943,9.2971 -1.01757,10.2597 43.96978,2.4783 88.04215,0.6001 132.05468,1.3162 21.08412,-0.121 42.50988,0.2668 62.91602,-5.8611 36.98861,-9.8363 73.02541,-23.9528 110.95312,-29.3574 12.79745,-1.2836 25.81533,-2.2567 38.78711,-1.25 14.42299,3.891 28.33674,9.7428 42.71925,13.9333 23.51297,7.7381 48.11471,12.5636 72.96044,11.678 31.74431,0.9122 63.43891,-2.8247 94.33075,-10.0473 8.98354,-1.6107 20.25686,-5.8693 28.00909,-4.5796 -4.51912,6.0318 -7.17175,13.6241 -14.0039,17.6211 -6.77853,4.9066 -16.91581,9.9526 -16.01953,19.7168 -0.10375,4.7989 -5.76876,8.8691 -2.33789,13.6093 2.09182,4.6884 9.76896,6.7617 12.39453,2.6153 7.5065,6.4901 14.40485,13.8415 23.39648,18.3691 4.67127,2.8524 1.99472,9.0061 3.9082,13.3867 0.58253,2.4919 1.35859,4.9397 2.33204,7.3067 -6.68231,2.862 -13.79223,4.5083 -20.63868,6.9082 -14.69292,-6.8708 -28.1232,-17.4171 -44.07745,-21.1201 -7.16588,-1.1677 -15.62801,-0.8316 -20.41864,5.4912 -11.33603,7.7078 -26.00091,7.9704 -39.22775,7.3422 -10.87187,-0.4796 -22.20725,-3.1514 -32.991,-0.8129 -6.40888,3.3177 -2.82796,14.2156 4.41211,13.0976 9.99931,0.4221 19.98563,0.8833 29.83008,1.6738 15.75988,0.23 31.06233,-4.1262 46.22656,-7.6308 15.38955,-0.1354 27.24333,10.9918 40.65905,16.9387 7.35169,4.5012 16.72985,7.8301 24.94056,3.4285 11.49185,-3.7254 21.88763,-13.6859 34.67969,-10.9785 4.69182,0.7363 9.51951,-1.0171 12.34179,-4.8516 2.24326,-1.5332 5.25483,-3.6963 7.39649,-4.4043 -1.5457,5.5945 4.26591,8.9982 9.00812,9.6215 18.68041,6.083 39.47932,5.6039 56.96833,14.9853 12.59818,9.6148 20.1674,26.4903 36.27355,31.0651 7.37542,1.245 15.08736,0.7312 22.01172,3.8945 3.02003,0.7044 6.37404,-1.1734 8.71679,-1.6563 0.41082,1.3551 4.64331,2.549 1.69336,2.7872 -10.60853,2.2488 -20.76662,8.8695 -24.33984,19.5429 -3.91501,8.3047 -5.73964,20.6091 -16.18555,22.9942 -11.07554,4.0523 -21.50389,10.6685 -28.60351,20.2304 0.0899,10.7805 2.25496,21.5841 1.87695,32.2032 -6.63963,15.8501 -20.20754,27.7116 -33.86133,37.5273 -10.55658,7.0215 -23.47031,10.5169 -33.05078,18.8848 -4.19839,5.9039 2.7378,14.933 9.55274,11.998 12.81389,-3.5855 25.083,-8.8401 37.51562,-13.4687 21.28154,-10.2278 39.95644,-25.2803 61.95508,-34.1094 7.15878,-3.4765 11.64157,-10.8136 11.99655,-18.6701 1.95308,-7.2016 1.89347,-16.3374 7.95462,-21.4783 7.82579,-2.7935 19.21768,0.3839 24.14063,-8.211 5.97498,-12.9627 20.42598,-17.9549 32.64448,-22.9805 5.3366,-3.0826 8.9845,-8.2855 12.0215,-13.5058 5.5386,0.6405 9.6896,-3.7555 14.9453,-4.6309 7.382,-1.7109 9.7309,-10.6211 16.8692,-12.3965 5.6308,2.735 11.2161,-2.2465 12.3555,-7.7128 2.1468,-10.1487 7.1518,-21.2443 18.0996,-24.1934 8.7745,-1.0844 17.175,-4.0882 25.9863,-4.9668 -4.9265,6.7779 -12.5085,15.5989 -8.2031,24.4668 5.2721,8.4589 16.0484,10.1995 23.2988,16.3672 5.5386,1.4616 6.5643,7.7598 6.8125,12.6445 -1.4452,10.423 -11.431,16.6794 -17.8496,24.1231 -3.7918,3.8079 -8.5703,10.6276 -3.207,15.1875 8.498,6.0001 19.667,5.8126 28.5136,11.2773 -0.084,19.6173 5.4918,38.7418 11.1153,57.332 5.2589,10.1495 16.8817,14.2413 24.0925,22.7128 4.102,4.3078 9.0501,7.6831 14.4426,10.3361 3.9478,1.9265 8.18,-1.5345 6.3242,-5.7207 -7.5257,-11.8582 -18.0531,-21.716 -28.9961,-30.4922 -6.7247,-9.9847 -6.3614,-22.6522 -10.207,-33.7227 -1.2185,-9.5256 -1.3119,-19.5306 -1.9941,-29.3125 -6.5262,-5.2983 -14.43,-8.5166 -22.3809,-11.0117 6.7407,-8.4947 15.9322,-17.0744 16.6758,-28.5332 -0.5378,-11.2579 -6.018,-23.0188 -16.3817,-28.3319 -5.1723,-3.6062 -12.1552,-6.0546 -15.6535,-11.2951 0.1675,-3.6294 2.4798,-8.1436 5.1563,-9.664 6.5202,6.2616 13.545,13.3641 23.2519,13.5976 14.9698,1.8347 31.1595,-3.3654 44.9258,4.8164 9.961,4.1525 19.3212,12.2624 30.8406,10.0598 7.9776,-0.139 15.9552,-0.2781 23.9329,-0.4172 -9.3115,10.4346 -21.676,20.4628 -24.0411,35.0586 -0.049,10.1523 10.6051,15.0304 18.8186,17.7261 9.0841,3.6751 18.8707,6.1415 28.3748,7.6567 1.7824,8.2381 -2.3284,19.3113 5.4863,25.293 9.1017,4.8344 20.4053,2.7779 28.7519,9.559 14.2679,8.244 29.5268,15.2769 45.8751,17.9644 17.3152,6.8774 32.4061,18.4433 49.7096,25.1939 9.6281,4.4184 18.4879,11.2104 28.8626,13.7065 6.5546,0.2082 9.2427,-9.2183 3.6368,-12.6972 -9.8023,-8.9573 -22.9799,-12.8768 -34.3575,-19.3653 -17.0176,-9.0796 -34.2308,-17.8999 -51.2189,-26.9546 -12.1933,-8.3667 -26.3437,-14.7347 -36.2107,-26.0005 -4.8763,-7.4517 -8.7901,-17.249 -4.6895,-25.8945 1.8269,-5.7482 2.0777,-13.0916 -2.8242,-17.3594 5.3048,-3.1487 10.4655,-8.4702 9.0019,-15.207 -0.2971,-3.3403 -1.4841,-7.2329 -1.4629,-10.2012 6.5103,0.9521 13.0514,-0.082 19.4844,0.2266 5.3434,6.9881 2.7028,18.9429 10.8164,24.2324 10.634,5.0938 20.6464,-5.123 31.3773,-4.2628 17.2325,-1.0089 34.608,-0.1741 51.9216,-0.6395 0.7127,-7.7029 6.2697,-13.3477 10.9394,-18.9297 1.7349,-4.0807 2.6202,-9.1538 7.7441,-10.1582 4.8467,-2.2744 8.2873,-6.7038 10.9727,-10.8965 6.5271,-6.3535 14.0065,-11.75 21.8613,-16.2852 1.6868,0.6002 -1.7132,3.2653 0.1504,4.9649 3.1038,4.7462 9.8686,2.8762 14.2891,5.4375 16.1251,3.0873 29.7,13.167 43.5208,21.5095 10.232,7.5519 22.3814,12.5134 31.6315,21.3206 8.5746,9.174 15.905,19.8593 26.9765,26.301 10.8868,8.0065 17.8876,21.9919 31.4474,25.9744 9.5545,1.2505 19.1872,-1.8427 27.0761,-7.0762 14.2404,-1.8385 28.6315,0.4657 42.8888,1.1113 16.3917,1.4879 32.4547,6.371 48.8983,7.2461 5.4711,-1.3686 11.6803,-0.1067 16.7247,-2.666 5.4263,-3.5988 2.2003,-14.0835 -4.7657,-11.9004 -3.7695,1.3284 -7.1292,4.5749 -11.3379,2.4718 -24.2107,-3.6339 -48.5636,-8.2326 -73.0815,-8.6547 -8.9947,0.1213 -18.9605,-3.2964 -26.8492,2.4031 -5.0594,2.3155 -13.1242,6.0739 -16.4492,-0.4766 -3.1807,-4.3013 -8.1447,-9.1161 -10.2021,-13.3295 18.8051,-5.0991 37.559,-16.6028 57.6465,-11.9668 12.6479,2.5501 23.8649,10.7423 36.8984,11.2656 11.1267,-0.85 21.0743,-7.4122 32.48,-6.7328 19.5085,-2.0126 38.8604,-5.0877 58.4686,-5.7952 6.9412,-1.0411 14.8266,-0.5322 21.0338,-3.6517 3.6438,-4.2017 -2.6219,-8.6998 -6.7363,-7.6777 -35.4489,-1.3689 -70.9041,1.0855 -106.2109,4.0527 -13.1079,-5.2806 -27.3788,-14.2871 -42.1188,-9.4639 -21.0575,4.3478 -40.4019,14.8354 -61.2054,19.6397 -16.2189,-6.9024 -22.0023,-26.0517 -37.3633,-34.2949 -14.9397,-9.0357 -30.7397,-16.7134 -47.5528,-21.5762 -6.142,-1.8913 -11.5377,-5.003 -16.6269,-8.7656 -3.4502,-1.7092 -8.803,-0.876 -11.2832,-3.0293 1.6182,-1.6553 1.7781,-4.0942 4.5508,-2.6817 12.6581,-0.2773 25.247,-2.6155 37.8633,-3.8515 11.7652,-1.4225 23.5365,-3.385 34.8632,-6.7344 15.1798,-0.9504 22.3661,15.9932 36.5703,18.2226 10.4291,1.739 21.0818,0.3597 31.5112,2.4671 31.8169,4.6382 64.098,10.6699 96.3424,7.0251 4.3671,-2.3826 2.0206,-8.1263 -1.9864,-9.2988 -10.447,-3.0865 -21.7255,-2.4508 -32.5169,-3.644 -26.5043,-1.6494 -53.3149,-4.302 -78.8092,-11.9146 -15.4411,-3.8782 -25.1957,-19.06 -40.9736,-22.5646 -15.0994,-3.0353 -28.3932,8.0331 -43.1632,9.0158 -13.6986,2.4238 -27.5798,3.7194 -41.2168,6.5039 -0.4851,-12.1178 3.0724,-23.8764 5.0215,-35.6621 -0.9258,-8.6934 -11.1727,-14.6796 -19.3342,-12.2033 -9.9019,0.7648 -20.2331,1.2252 -29.8748,0.7287 -0.4043,-3.7686 -0.2391,-7.4564 2.9336,-10.0196 3.5647,-5.4181 9.7552,-12.2789 6.3887,-19.0546 -6.0767,-8.4888 -18.4897,-5.4842 -26.2246,-11.6231 -6.3801,-5.6788 -15.5151,-7.6531 -20.7559,-14.7246 29.4116,-3.6876 58.6566,-9.0332 87.1126,-17.3762 37.0569,-7.359 74.987,-4.0747 112.5142,-5.2136 6.6471,0.5806 14.1907,-1.269 20.2971,0.7773 8.6527,8.1183 19.2115,16.1932 31.8105,15.1035 17.601,0.4037 35.5929,0.3839 52.0078,7.4395 30.5637,10.0329 63.1662,3.4609 94.3887,8.1054 6.0758,0.7937 12.3767,3.8942 18.4414,0.7852 8.0108,-2.5668 14.4374,-8.4329 22.3027,-11.1289 18.1011,-0.3936 36.5406,2.1529 54.6075,-0.4629 11.2796,-2.6508 20.7619,-10.4415 31.9427,-12.9775 26.6248,0.8375 54.8539,0.4014 79.147,12.7637 14.7946,6.0916 28.7779,16.9823 45.42,17.413 6.8916,-0.532 10.1722,-7.508 12.92,-12.8555 1.5665,-5.2451 -5.0928,-6.4409 -8.8287,-6.478 -19.4495,-3.0609 -37.0139,-14.4323 -56.649,-17.9382 -25.0816,-5.7986 -50.9728,-5.3311 -76.5165,-5.6638 -14.0755,7.2942 -27.7014,17.4112 -44.5,16.2129 -10.3918,0.2149 -20.7258,-0.7187 -31.1269,-1.3145 -4.532,-5.3468 -7.5948,-11.9496 -7.8184,-18.9062 -4.8723,-9.8896 -14.6936,-16.0518 -22.9746,-22.8321 -5.7217,-4.7797 -13.2636,-5.7665 -20.4155,-4.8831 -28.3917,-0.6541 -57.009,1.4164 -85.1817,-2.0307 -25.2967,-4.7626 -51.3244,-2.7771 -76.6977,-3.4456 -6.1756,-0.086 -15.0214,2.0184 -14.8711,9.7032 0.052,4.9326 -0.3749,10.9871 -4.625,14.0195 -9.1757,1.1113 -18.6516,-0.3847 -27.9392,0.043 -33.5192,-0.1868 -67.3928,-0.9224 -100.514,4.934 -21.7176,5.7003 -42.6696,12.7112 -64.9382,15.8437 -21.4537,3.5146 -42.8961,7.271 -64.5325,9.4043 -4.2407,0.016 -8.2622,-0.3824 -12.5136,-0.789 -8.3224,-82.3648 -10.7536,-165.2872 -17.5332,-247.834 -1.2064,-17.483 2.1209,-34.9788 7.0837,-51.7838 4.6086,-17.3317 7.4327,-35.8772 2.2875,-53.4051 -1.2424,-12.2128 -2.8415,-24.9374 0.6315,-36.7877 16.8876,-24.0438 33.34,-48.5548 52.9885,-70.4374 13.3458,-11.1113 26.5038,-22.7086 36.4033,-37.131 8.6214,-12.4407 16.0348,-25.7127 23.332,-38.9257 3.3269,-7.1128 1.3977,-15.338 5.4135,-22.2765 7.9894,-18.2215 21.9796,-32.8942 31.2876,-50.4005 12.2458,-18.9517 25.3854,-37.5057 34.3497,-58.3289 3.0544,-6.6749 10.9921,-8.1105 16.6277,-11.9181 12.9456,-6.5988 29.0411,-12.8074 34.6985,-27.4354 1.6433,-8.0247 2.1408,-16.2465 6.4271,-23.543 9.0003,-19.25505 20.3932,-37.41782 27.1256,-57.69138 7.3953,-16.66361 14.1106,-33.98842 23.4004,-49.79883 9.5228,-15.40333 20.7303,-29.98836 29.0469,-46.09961 3.2876,-13.2187 -2.0216,-26.52057 -3.3953,-39.64005 -4.5438,-22.98863 -9.672,-45.9102 -13.1819,-68.972 -4.8944,-18.10237 -5.0432,-37.34641 -8.7431,-55.73951 -3.0061,-9.32412 -12.608,-17.02446 -22.7373,-14.4789 -12.2581,1.18048 -25.3779,0.80757 -36.8448,5.69374 -7.4178,5.92804 -16.866,10.19232 -20.6894,19.47461 -5.5746,12.02487 -8.327,25.13298 -13.8784,37.1905 -6.3388,17.9758 -12.2684,36.26341 -16.02,54.94817 -0.8893,5.75923 1.5788,12.69373 -1.7657,17.6543 -5.222,3.01877 -11.6567,4.27212 -15.2597,9.6582 -17.7268,19.26744 -28.3214,45.00997 -49.6911,60.73499 -8.4052,5.81842 -16,14.2559 -26.7855,14.5072 -19.6223,2.52649 -39.8008,2.28156 -59.5254,-0.31641 -28.0729,-5.70168 -50.567,-25.33463 -71.4741,-43.85894 -17.7151,-19.59029 -28.0374,-44.20834 -41.714,-66.53805 -7.5931,-14.1646 -10.0576,-30.39086 -11.8842,-46.10496 -2.6898,-14.46375 -10.8064,-26.98443 -16.1816,-40.48438 -5.6331,-11.12579 -10.7023,-22.47962 -15.2862,-34.03647 -7.9259,-13.99655 -12.8864,-29.38981 -20.3636,-43.63099 -7.2767,-15.23268 -13.0471,-31.78669 -12.2458,-48.98128 -2.5385,-64.69544 -3.7385,-129.47544 -4.0731,-194.23016 0.1531,-8.73322 5.2696,-16.39291 5.2695,-25.20508 -0.3876,-3.01108 4.0594,-3.63242 3.875,-7.04297 1.3978,-7.80036 8.8029,-13.05118 13.207,-19.35352 8.0288,-9.80459 13.5737,-21.36979 17.0786,-33.51484 3.2497,-4.45176 4.0328,-10.05732 3.3882,-15.49687 0.7472,-11.35156 -3.4894,-22.25328 -4.6406,-33.39063 -1.548,-4.95912 -6.7645,-6.74119 -10.9336,-8.60547 -3.4939,-4.03577 -9.6994,-10.23213 -15.0117,-5.18164 -1.6662,3.40724 -2.1388,-2.63024 -3.8184,-3.64453 -2.4678,-3.9286 -7.9247,-4.49288 -10.6758,-0.55664 -3.2434,3.79261 -6.5684,8.51714 -12.2519,7.74219 -5.81,0.005 -12.1072,2.24059 -14.2106,8.16545 -9.3235,15.3932 -18.3396,31.03113 -29.9769,44.84041 -4.2234,6.37758 -10.4684,10.8338 -16.1446,15.65039 -7.4548,8.16731 -11.5426,18.84205 -13.3339,29.57226 -9.5446,21.50601 -9.1621,45.56759 -16.8709,67.572 -7.3881,22.89753 -9.2434,46.93297 -11.9319,70.66042 -0.8966,13.20265 0.3806,26.53412 -2.6133,39.34766 -10.7246,17.1573 -8.4039,38.622 -5.8457,57.70508 2.8916,11.83959 5.6511,23.58829 6.9805,35.63672 5.463,28.99078 4.0873,58.56661 7.0313,87.88476 -7.0788,1.66527 -16.3982,4.98787 -21.459,-2.36718 -21.2239,-19.38464 -38.4258,-43.11196 -49.3149,-69.77041 -12.5493,-27.84386 -24.9771,-55.80577 -40.07965,-82.37998 -3.21119,-8.25333 -1.89359,-17.40024 -3.7537,-26.02047 -4.01313,-35.24896 -9.87483,-70.42877 -20.9006,-104.22953 -3.78028,-13.53115 -1.50177,-27.58051 -2.43992,-41.58777 -0.50332,-19.42257 0.40797,-39.13241 -2.87258,-58.32044 -3.25168,-15.43859 -2.26957,-31.74332 -5.26426,-47.3709 -1.45355,-20.50618 -0.56393,-42.90861 -11.94863,-61.08027 -1.22494,-2.50043 -5.08435,-2.00755 -6.26172,-2.13086 0.14723,-7.19521 -7.54909,-10.567 -13.70898,-10.76758 -3.04017,-0.36989 -6.10975,-0.38992 -9.16797,-0.35351 z m 5.10156,12.87695 c 3.45873,-0.92196 0.15307,3.14711 1.3711,4.86719 2.10237,18.51831 2.314,37.69599 1.02148,56.14844 -4.44087,2.15064 -0.44771,-4.72765 -0.75195,-6.99805 2.26132,-9.53648 1.50977,-19.79069 -3.66992,-28.2832 -3.98405,-6.2242 -2.23938,-13.41936 -1.01172,-20.15039 0.80798,-2.53422 -1.02892,-6.59258 3.04101,-5.58399 z m -24.93164,2.56641 c -0.86228,7.86653 1.67757,15.55034 2.41016,23.29492 0.78269,3.50253 4.63812,5.39771 7.51953,5.69336 -0.18453,3.29738 -0.47298,8.98138 3.46484,10.0293 1.33195,0.052 2.42108,-1.92455 2.1211,0.79492 1.27075,6.89604 4.76191,13.07292 7.18554,19.58398 -11.79619,0.60861 -24.06083,1.16477 -35.57421,2.25977 2.60349,-5.89027 0.98202,-12.75999 1.56445,-19.04688 0.0875,-12.23866 -1.28566,-25.08133 4.97851,-36.13086 0.64612,-3.57168 2.38103,-6.39057 6.36329,-6.67578 l -0.0332,0.19727 z m 41.49219,10.81054 c 5.3509,25.35557 4.20211,51.54669 8.20471,77.11373 3.23573,35.95634 1.85528,72.28005 4.60193,108.30815 2.0429,5.22349 5.40923,9.82518 5.91759,15.59041 10.01892,35.71177 17.59325,72.40307 19.86952,109.47014 -4.79695,10.49407 3.43802,21.0626 7.67969,30.29492 14.988,28.78757 26.04406,59.7049 42.25896,87.91922 9.896,13.90973 18.6324,28.57861 27.8097,42.93634 9.7616,12.98105 22.4053,24.02475 36.5934,31.85342 7.6304,2.11904 13.2826,-5.20975 19.5977,-8.06836 4.4788,-2.19766 5.5785,-6.78821 4.8471,-11.41199 0.7726,-29.99386 3.7933,-60.39483 -1.9485,-90.17269 -1.971,-16.76568 -6.5847,-32.99158 -9.5337,-49.41005 -2.5924,-15.82853 0.074,-31.77682 4.6976,-46.83144 3.632,-18.38729 5.1305,-37.1501 7.5215,-55.69922 2.2419,-29.24682 11.962,-57.2425 15.0709,-86.47331 2.9179,-21.31037 8.5198,-43.19834 23.7256,-59.25489 6.5895,-8.02529 13.1364,-16.68564 20.0707,-24.055 11.2591,3.84313 23.7741,0.24411 34.6347,5.77148 4.3965,1.67347 9.7503,0.0673 11.1465,-4.74414 6.3431,-9.1615 15.2139,-16.40133 20.6055,-26.27148 1.2311,14.9191 -0.2942,30.23854 -5.2969,44.38281 -5.9708,10.72209 -16.0035,18.5945 -22.7642,28.64109 -4.9685,5.45245 -9.8269,11.83452 -8.8973,19.71206 -4.6115,55.34735 -3.2943,111.06465 -0.4635,166.39099 0.4941,34.78803 -0.9531,70.99053 12.9529,103.70287 6.3265,15.76745 12.3822,31.76669 18.111,47.65629 14.1026,27.57384 29.5467,55.49321 32.8596,86.87815 1.7664,15.17625 6.859,29.739 14.8578,42.75222 10.4005,18.40689 20.8346,36.88674 32.7011,54.38156 13.9048,17.74015 32.2429,31.55499 51.0433,43.6637 21.4455,10.90924 40.5612,25.82767 62.3161,36.19177 6.2474,2.33636 13.2211,5.83968 19.9707,4.25 5.4526,-2.44881 3.7206,-11.33334 -2.4082,-11.44336 -6.6272,-2.70875 -11.5213,-8.32801 -17.9805,-11.35351 13.6614,0.0535 27.2672,1.74194 39.889,7.16298 11.3068,3.11097 23.7037,7.41547 35.361,3.81944 3.0849,-1.74711 3.2632,-6.58456 0.4532,-8.67187 16.3673,4.0415 33.1399,8.29894 49.7285,10.04492 4.9897,-2.10566 2.4524,-9.91125 -2.5703,-9.74805 -4.107,-1.07985 -8.4573,-2.20897 -12.4473,-3.20703 10.7406,1.04217 21.4675,4.84645 32.2813,3.99023 4.4182,-1.67103 2.2853,-8.5843 -2.045,-8.59765 -16.8523,-4.9757 -34.7672,-7.00296 -52.2441,-5.72071 -3.8471,0.26997 -3.5057,6.48612 -7.5859,3.98438 -5.6365,-0.14503 -11.8806,-3.46865 -17.2754,-1.15234 -1.9595,1.31144 -1.8492,4.2052 -0.3926,5.8496 -4.2996,-1.08611 -8.6686,-1.85908 -13.0215,-2.69335 4.7262,-3.8397 9.6615,-7.26431 15.4883,-9.1543 7.4442,-4.82858 14.3854,-10.25718 20.6973,-16.49024 9.9088,-9.97034 16.0599,-22.89427 24.9492,-33.58593 6.4141,-6.8701 15.7654,-11.93789 19.8281,-20.5293 1.9186,-5.08061 8.4812,-6.2707 12.2031,-9.83203 11.8586,-7.70749 25.3756,-12.05147 38.3731,-17.23828 3.9896,-2.90228 1.2759,-9.54676 -3.5801,-9.18164 -11.702,-2.33049 -22.9604,6.2601 -32.6504,9.26953 0.2952,-14.81424 6.9427,-28.41494 10.1133,-42.67774 4.0019,-10.78766 8.3987,-21.32057 12.8086,-31.91601 4.3625,-11.01414 5.9183,-24.55274 15.8457,-32.19727 9.9918,-4.46523 21.2784,-3.03987 31.8817,-5.16644 5.0301,-1.15988 11.3459,-0.28703 13.4445,5.07465 -8.0089,3.12547 -17.583,4.93064 -23.7618,11.37304 -4.4997,7.19682 -1.6635,16.1442 -2.785,24.09566 -0.1486,16.36187 -0.9522,32.79561 0.8866,49.0977 6.503,6.82707 17.0338,6.41123 24.1269,12.49024 5.0294,3.75512 11.4246,8.11103 17.9629,5.54101 2.4008,10.82829 4.6204,22.09171 5.9375,32.81446 -12.5515,-7.22231 -26.5274,-11.73268 -39.7695,-17.54102 -5.7964,-2.75502 -8.8962,5.91 -3.2344,8.1582 13.8522,7.56981 28.2489,15.31928 43.1602,20.00391 2.8665,-2.1164 1.9924,3.29031 2.543,4.92969 -1.4725,9.48737 -9.1844,16.40432 -13.382,24.7367 -12.2615,18.26464 -23.4642,37.33369 -31.7018,57.76034 -6.6279,13.88323 -11.1778,28.63561 -18.1471,42.36568 -3.8395,9.68842 -8.7289,18.98955 -15.4352,26.98493 -5.8025,9.04819 -5.5348,20.80749 -11.0811,29.70239 -15.5202,11.8886 -33.0934,20.9381 -48.8017,32.4168 -3.4778,4.8548 -1.8159,11.5284 -5.5463,16.364 -10.0973,22.1585 -25.9903,41.0135 -36.8658,62.7668 -8.9339,13.8118 -18.3121,27.5083 -23.8887,43.1133 -2.939,8.3286 -5.8095,16.5684 -10.7004,23.9765 -5.1317,10.9298 -10.4672,21.8238 -18.8788,30.6735 -6.115,6.807 -11.3224,14.8044 -20.2254,18.1117 -15.0012,9.2696 -21.6056,26.4887 -32.6564,39.4925 -11.5743,16.1668 -24.7318,31.6445 -33.1874,49.7497 -1.919,5.2844 0.02,11.6794 -4.2226,15.8105 -2.1008,6.7459 0.7414,13.6914 1.1326,20.5073 3.7047,18.9069 4.7406,39.0938 -1.2878,57.5324 -3.2732,11.7398 -6.7232,23.8959 -6.4347,36.0736 -8.3943,5.575 -12.7442,15.3038 -18.9316,22.9532 -1.4885,1.5253 -4.6962,8.8447 -3.6914,2.9785 -0.1037,-6.744 1.146,-14.8746 -3.0235,-20.5371 -4.8301,-3.5011 -10.2648,2.6749 -9.3867,7.6035 -1.7103,20.7626 1.2902,42.4009 -10.0643,61.0807 -11.4419,24.7187 -24.0143,50.4603 -23.715,78.349 -0.9554,-28.5763 -1.4616,-57.63 -8.1367,-85.6329 -1.9824,-22.1523 3.8124,-44.1182 7.6719,-65.9726 2.8389,-23.9789 1.4721,-48.4652 -3.211,-72.1055 -0.3155,-2.9309 -3.6698,-8.224 -6.6172,-4.5644 -2.9383,6.88 0.5213,14.5073 -0.055,21.7265 0.3568,19.5331 0.7159,39.5719 -3.3985,58.7793 -4.0694,14.5877 -8.2304,29.3806 -7.6836,44.6846 -0.9907,12.7048 0.115,25.4927 3.4395,37.7686 5.3754,38.235 2.1237,77.4927 11.4317,115.3017 3.8893,16.3766 5.192,33.5449 10.7148,49.3994 1.5248,4.8017 -2.2815,9.2437 -1.9898,14.1894 -2.569,32.8347 -7.2917,65.9486 -2.8249,98.8578 0.3039,11.5405 2.8216,22.7991 4.5861,34.1286 0.8062,8.4676 -1.0703,19.752 7.6817,24.7559 3.9983,2.5935 7.2313,-1.9428 6.6543,-5.8262 -1.4377,-20.9578 -6.6103,-41.5482 -8.2266,-62.4297 -1.0389,-27.6027 -0.1089,-55.4872 0.7344,-83.1797 5.587,14.7984 10.6714,29.561 12.4685,45.3007 2.6963,10.2445 4.0327,20.7031 5.195,31.1849 0.9128,6.6947 3.3051,13.0674 6.5181,18.9871 4.7011,-15.3076 6.1624,-31.8635 1.8224,-47.4254 -4.0138,-36.7017 -22.5116,-69.9707 -27.211,-106.4477 -3.8842,-19.3412 -7.8444,-38.848 -9.3555,-58.4843 2.1737,3.7289 7.5067,2.2102 7.832,-1.9024 3.1383,-30.067 18.719,-56.4332 31.3989,-83.2936 1.0914,-3.5726 4.9823,-8.3037 3.8486,-11.1459 -0.449,-1.9384 3.5263,-4.6693 3.6588,-7.58 1.0339,-14.2773 14.0405,-22.9088 20.8398,-34.4512 1.823,50.3569 5.7156,100.5866 7.9512,150.918 1.7022,31.8513 4.5193,63.6555 7.2168,95.4121 -0.7827,5.5806 -0.3094,11.2472 2.078,16.3421 2.2263,8.9746 4.6526,18.375 2.2384,27.3688 0.9445,9.8819 5.4354,19.0917 7.7221,28.7114 6.6811,22.6306 11.9411,45.643 17.4654,68.5738 -9.7352,-4.9303 -22.6302,-7.7984 -31.9071,-0.3187 -12.6585,5.7035 -25.5192,11.1947 -38.007,17.1234 -5.6294,0.1387 -12.6765,3.7701 -11.4082,10.4258 0.1654,5.2649 3.0672,10.3634 3.3047,15.3496 -1.8445,2.0117 -4.7277,4.5718 -6.1836,0.7011 -4.9781,-4.7106 -11.0253,-9.9798 -10.5371,-17.4765 -3.3472,-6.9352 -13.0064,-5.0921 -19.2383,-5.8262 -18.2352,-0.144 -37.6138,-0.6872 -53.6504,-10.6465 -12.6518,-6.5001 -26.9796,-9.5364 -41.1561,-8.0763 -7.3612,-0.3665 -16.6684,2.1715 -21.5791,-5.0728 -7.6418,-7.1295 -16.8201,-17.0408 -28.436,-14.0493 -12.2926,1.9602 -25.0379,4.1503 -36.1081,10.0324 -11.4879,7.1275 -19.2567,18.8986 -23.6816,31.4473 -2.8282,5.5667 -10.445,8.4486 -15.5566,8.0839 0.5529,-6.1459 2.9756,-15.1776 -4.0801,-18.6445 -4.2504,-0.8727 -9.1741,-0.9667 -11.4629,-5.3476 -3.9742,-4.0938 -10.491,-8.2145 -8.4024,-14.8204 0.7601,-13.4902 -5.6857,-25.7579 -10.7207,-37.7773 -8.1,-13.2059 -24.27708,-17.7201 -34.38081,-29.0078 -5.27149,-4.3917 -6.1342,-13.3852 -13.91992,-14.5879 -10.74185,-1.4624 -21.66231,0.4577 -32.40625,-0.3008 5.8504,-5.9214 1.70506,-14.4996 2.52477,-21.6502 0.17284,-32.5451 5.71111,-64.8722 8.30211,-97.3538 10.64366,-104.9829 23.54632,-209.7571 33.31934,-314.8327 1.20241,-17.5192 3.23765,-35.3086 1.46901,-52.7883 -2.79285,-6.7546 -10.73904,-9.2391 -13.94755,-15.788 -24.2776,-29.9699 -42.72238,-64.0434 -64.488,-95.7706 -18.16266,-30.4056 -39.49319,-58.7254 -59.45312,-87.8281 -12.24806,-18.875 -22.13353,-39.1662 -36.36953,-56.757 -18.05242,-22.7826 -33.21441,-47.61166 -50.5836,-70.89339 -7.05177,-11.61656 -18.49657,-19.76758 -29.96289,-26.52149 -8.85106,-3.5427 -19.40401,-0.97132 -27.65234,-5.9375 -0.173,-1.64673 -2.7414,-4.20916 -2.44922,-4.8457 7.5255,-3.42108 15.48183,0.63615 22.97656,2.33594 5.50233,2.33489 12.67526,2.38635 16.06641,7.8418 4.57106,3.53931 11.03656,3.46195 15.69922,7.10937 8.40002,4.68691 14.32957,12.43216 21.04101,19.02539 3.6914,2.43586 8.50844,1.85858 11.13739,6.05422 13.79006,12.25225 24.8035,27.88706 40.21222,38.17236 3.90745,1.8981 8.48922,-2.8981 5.26172,-6.4024 -19.21322,-19.66803 -36.03909,-41.62732 -55.92445,-60.61749 -15.36243,-13.58761 -36.48566,-17.26088 -55.24742,-22.652 4.47086,-1.2515 4.20093,-7.50653 0.0859,-9.08594 -2.02262,-0.98693 -4.59945,-1.24706 -2.72265,-3.83984 0.89226,-3.75419 -0.28497,-7.76181 -2.48047,-10.85156 5.35081,-2.94316 8.54035,-8.72168 7.6543,-14.83594 -0.0312,-3.34737 -0.3769,-6.69357 -0.16602,-10.04102 14.76874,3.69743 30.39212,6.32268 45.50977,3.35352 7.66388,-2.55635 10.89115,-11.26056 12.94531,-18.37891 1.88083,-8.96437 -3.68168,-17.25072 -3.42188,-26.23242 -1.00216,-16.53497 -0.98393,-33.29962 -5.4082,-49.40234 3.95504,4.73108 9.0479,11.71777 15.99414,10.81054 2.64445,-0.24583 4.04466,-4.253 6.33008,-4.07226 1.71186,3.26283 7.66052,6.30133 9.11523,1.29492 0.89256,-2.47933 -0.99716,-5.36402 -1.14648,-7.30664 3.79201,-0.49919 6.76286,-3.77129 7.60742,-7.39258 4.92189,2.2419 11.84831,-0.13033 12.46094,-6.02539 5.40151,4.11157 13.63032,7.32653 19.61133,2.70898 3.77957,2.91502 8.48413,3.68204 12.75586,5.58594 -6.26922,-0.53935 -12.49366,0.95506 -18.24415,3.37695 12.10407,7.02785 26.42763,7.31682 39.15507,12.73748 8.29702,2.49236 16.71563,7.67649 25.38986,7.27815 5.26252,-2.68307 0.95359,-9.53694 -3.31836,-10.57813 -5.07799,-2.78034 -11.89969,-4.92807 -16.40625,-6.76171 6.93015,-0.55492 14.82647,1.5712 20.53515,-3.79883 14.67671,-9.9961 20.33241,-28.31142 20.71875,-45.31055 0.81002,-8.66616 -1.5276,-17.14774 -4.47175,-25.13319 -3.36856,-20.61677 -5.12077,-41.71495 -12.97415,-61.3007 -12.243,-36.78173 -23.85793,-74.26223 -26.79238,-113.04853 -2.17793,-12.14629 -5.33365,-23.90503 -4.68359,-36.29492 -1.70381,-22.31697 -3.57897,-44.57989 -4.97852,-66.91392 -2.30618,-17.02858 -4.4308,-34.01914 -2.61563,-51.19233 0.76876,-23.04826 4.5302,-46.0795 5.96524,-68.99336 10.25611,2.52822 20.90511,-0.0232 31.33399,0.76953 10.29279,-0.42687 22.48159,-2.29343 28.99414,-11.03711 1.81867,-5.04927 -5.33597,-8.43378 -8.75977,-4.77344 -14.70619,7.8387 -31.63179,6.95551 -47.96484,7.97461 -2.10536,0.19998 -4.44231,2.14535 -4.82031,-1.0332 -3.73208,-6.5511 -1.22557,-14.41877 -1.86223,-21.68359 0.55011,-7.26695 -2.40182,-14.34373 -2.39363,-21.33594 3.28394,5.84314 11.66439,2.39782 16.89446,3.25663 13.08485,-0.3548 26.58527,0.47796 39.31843,-2.93437 8.43248,-4.69451 6.50023,-16.13952 7.21085,-24.17754 0.39106,-11.48679 -0.3931,-23.37818 -0.9296,-34.58027 0.86865,-0.12643 1.1784,-1.6582 1.25195,0.50195 z m -62.97266,33.13868 c 0.64579,6.11485 -0.36144,13.3512 2.86133,18.61718 1.44627,1.08759 -3.39281,0.99832 -3.23437,2.92578 -1.21986,2.90499 -0.25528,-5.52023 -0.51732,-6.94492 0.1226,-5.12541 0.4589,-10.13698 0.8806,-15.23086 l 0.01,0.63282 z m 337.74216,3.08007 c -2.8131,4.22025 -5.6579,12.20633 0.6153,14.83985 6.6937,2.24864 11.3496,-4.55252 15.7441,-8.29688 -2.2816,3.172 -4.0501,7.699 -8.4609,7.61328 -3.9863,1.39119 -7.0487,6.29697 -5.1367,10.25977 -1.8231,2.35281 -4.6735,6.6508 -7.9297,3.64648 -8.512,-2.05778 -17.3502,-2.11049 -26.0547,-1.82031 5.4252,-7.22521 7.9021,-16.79346 14.5508,-22.9043 5.2744,-2.82238 11.4389,-2.7538 17.1191,-4.24414 l -0.4426,0.89674 -0,0.01 z m -296.25973,52.31836 c -4.41428,-0.49537 -8.5193,6.14727 -3.36915,8.30078 4.54983,0.87635 13.10611,2.43707 14.17774,-4.22265 -1.52037,-4.8099 -6.99565,-3.54449 -10.80859,-4.07813 z m 249.46873,37.84961 c -4.5667,-0.13186 -8.8486,1.34564 -12.9629,3.19532 9.6105,7.6047 22.5146,4.42334 33.2832,8.22851 5.9792,-0.43779 4.2307,-8.73688 -0.498,-9.75781 -6.5259,-0.97848 -13.1918,-1.83382 -19.8223,-1.66602 z m 51.1289,1.65625 c 3.0437,0.23769 -1.6506,8.07725 0,0 z m -64.8379,8.94336 c -4.0832,-0.41643 -11.871,0.2535 -10.455,6.2461 3.6609,5.16747 11.8627,4.32358 17.625,5.08203 9.2999,0.2424 19.4171,3.65187 28.3222,-0.13477 4.5559,-3.88824 -0.8914,-9.66887 -5.5195,-9.57422 -9.9453,-1.17123 -19.9552,-1.59473 -29.9727,-1.61914 z M 935.29297,498.07422 c -17.44177,1.09156 -37.12409,0.25563 -51.62305,11.89258 -4.02559,1.68505 -5.58591,8.98086 -0.0391,9.62695 7.62441,-1.19039 13.44929,-8.84298 21.79883,-7.93945 11.43718,-1.80322 23.95776,0.0921 34.64258,-4.80078 3.7819,-3.51242 -0.41575,-9.06177 -4.7793,-8.7793 z m -11.72852,21.33984 c -5.47386,1.53212 -11.30894,1.91352 -16.27734,5.13672 -4.69275,-2.1768 -10.36484,5.02582 -5.13086,8.06445 4.14846,2.42363 8.40838,-1.36261 12.66602,-1.46289 3.56579,-1.2887 6.63032,-3.24992 10.47461,-2.90625 4.63569,-0.12164 6.08994,-6.97749 1.35156,-8.36328 -0.98137,-0.36134 -2.04127,-0.50313 -3.08399,-0.46875 z m 237.80665,2.35938 c -13.1814,1.17552 -27.153,-0.22039 -39.7285,4.43359 -4.7644,3.42908 0.8353,9.995 5.4804,8.32813 12.6402,-1.87728 26.3336,-0.39419 38.6016,-4.65235 4.1346,-3.18598 -0.1792,-8.52718 -4.3535,-8.10937 z M 946.5,529.87891 c -11.7386,3.39371 -22.21975,11.51934 -34.96887,10.67673 -7.88278,0.15068 -16.81817,-0.19174 -23.47449,5.20413 11.17756,5.81369 24.24626,3.96566 36.25977,2.83789 9.7224,-1.95759 19.53048,-5.92813 26.98242,-12.40039 1.52371,-3.04664 -1.45567,-6.99167 -4.79883,-6.31836 z m -136.875,4.30859 c 7.65223,3.24225 13.10435,13.37112 22.71875,11.72656 6.27546,-0.27963 10.96057,-9.02627 17.23633,-4.29101 7.11681,3.51706 13.59968,9.14366 18.11523,15.41211 0.91335,3.99079 -4.82453,4.46342 -6.46093,7.50586 -4.01714,4.26303 -8.64236,-1.7381 -13.02344,-2.54297 -2.37954,-1.77298 -7.64263,10e-6 -7.13867,-4.1836 -0.50969,-4.44694 -4.76991,-10.60809 -9.70313,-7.46484 -7.74343,6.19215 -2.02906,17.4573 -6.2168,25.01758 -1.90326,2.96799 -5.15761,7.48997 -8.6914,6.99023 -3.15287,-9.52862 0.16481,-19.78527 -0.74805,-29.47851 0.19233,-5.9481 1.75111,-13.69993 -4.49414,-17.20118 -0.034,-0.17638 -1.96717,-1.52645 -1.59375,-1.49023 z m -24.74805,5.58203 c 7.65679,-0.13253 16.44108,5.12866 15.18555,13.79883 0.33352,11.34841 -3.76718,23.73668 1.86133,34.64258 1.20413,2.59499 0.16449,5.56581 -2.94141,5.54101 -2.60857,1.62946 -3.59518,1.44503 -2.70898,-1.83789 1.3425,-5.62815 -2.79574,-14.19161 -9.49024,-11.68164 -6.90462,3.46179 -3.65353,12.75058 -6.77343,18.49024 -3.72654,11.4858 -3.0908,23.98848 -1.41064,35.76232 2.35936,10.33786 10.87848,18.2824 12.74657,28.63025 -1.67054,6.27263 -8.6413,8.61326 -12.375,13.48438 -0.62541,-9.11191 2.81427,-20.62456 -4.64258,-27.80273 -7.24302,-5.26606 -17.67832,-5.92462 -25.3789,-1.25196 -0.57877,-7.04631 1.70198,-13.76863 3.62695,-20.33789 -1.19131,-2.77446 2.82794,-3.83466 3.07617,-6.6875 8.79225,-23.5401 20.37063,-46.35201 25.73243,-71.01367 0.56158,-4.28357 -5.67895,-6.95018 -7.60938,-2.57031 -3.95206,6.67565 -4.60866,14.74326 -8.33102,21.58645 -5.94718,12.6524 -9.34208,26.5006 -14.48929,39.25144 -1.47877,-1.851 -5.62825,0.9819 -3.84829,-2.29446 5.04,-17.82123 5.25981,-38.33454 17.75063,-52.97898 6.45579,-4.41963 11.8819,-11.57969 20.01953,-12.73047 z m 56.2461,35.27344 c 5.39038,2.4799 8.41616,9.76058 15.36914,8.66601 5.16417,-0.0938 9.99951,-2.45089 14.10937,-5.42773 5.72772,33.17552 19.04871,64.31675 28.90625,96.31445 3.06159,16.87129 5.72018,33.88246 7.07227,50.97461 0.5706,16.65042 1.53417,36.38898 -11.4082,49.07031 -5.37918,4.7265 -13.28798,4.00992 -20.00977,4.04493 -5.84611,-1.69963 -10.54989,-6.16887 -16.53125,-7.91016 -6.95962,-2.2553 -12.78664,-6.67208 -18.78906,-10.54101 -2.79821,-1.60747 -7.05805,0.86211 -8.37696,1.47851 -0.49571,-8.82155 -6.30212,-16.17971 -8.50167,-24.58294 -7.53141,-19.37775 -14.1804,-39.06299 -21.72489,-58.45222 9.06453,-7.51833 7.3572,-21.46643 1.55664,-30.51171 -2.61912,-2.771 -2.22763,-7.06773 -4.83203,-9.76368 4.92089,-7.98032 2.89054,-17.58942 3.41797,-26.40429 4.8606,-1.4917 9.75361,-4.23792 11.2832,-9.36914 3.99178,-2.70341 9.6571,-2.43602 12.91406,-6.59961 6.79118,-5.58502 12.05944,-13.19309 15.54493,-20.98633 z m -46.41211,25.23047 c 3.33777,4.51671 -5.68732,2.61734 -0.67774,-0.0234 l 0.55078,-0.006 0.12696,0.0293 z m 333.13866,6.48242 c -5.0411,1.14747 -9.1713,9.98039 -3.5586,12.78125 6.0939,1.03023 11.1179,-9.35631 5.4375,-12.5332 -0.5908,-0.23847 -1.2469,-0.33968 -1.8789,-0.24805 z m -394.73241,32.48242 c -1.3421,5.52485 -4.93055,11.2192 -4.03321,16.89649 2.0204,4.37494 8.53362,1.59021 8.75391,-2.54102 1.35486,-4.17075 0.83066,2.94968 -0.375,4.30859 -7.01713,4.19451 -15.77989,6.58068 -23.61133,6.36524 -4.11698,-3.81881 0.19652,-8.48484 2.86914,-11.57617 4.57147,-6.18325 10.90967,-10.61924 16.98633,-15.10938 l -0.33549,0.94204 -0.25435,0.71421 z m 29.67578,21.54883 c 2.15207,1.24126 0.28607,5.42827 1.1543,7.44531 0.43234,9.94432 -0.61329,20.18599 1.18945,30.11914 -4.33231,-6.13246 -6.9366,-13.51676 -11.69727,-19.26562 -3.8008,-3.43007 -8.96666,2.2056 -6.2832,6.16015 6.30247,9.54672 10.84936,20.16189 16.71289,30.01172 -2.8087,-3.2808 -5.09208,-12.3249 -10.83594,-9.15234 -4.06797,4.50651 1.5856,10.0504 3.25889,14.16544 10.32126,19.46503 22.69449,39.38016 29.66885,59.68417 -12.3435,-15.56619 -19.65569,-34.5163 -33.10601,-49.31206 -7.28083,-9.10867 -10.41126,-21.50032 -20.71626,-27.977 -7.19236,-5.48036 -15.57155,-9.73476 -21.17969,-17.03516 5.01344,-5.30945 13.27672,-3.72863 19.70118,-6.23828 10.6179,-2.28178 19.33607,-9.25034 26.36914,-17.17969 1.64584,-1.52149 3.76364,-1.14537 5.76367,-1.42578 z m 31.94922,24.92969 c -0.28727,2.38586 4.10667,7.2714 -0.20117,6.88672 -4.80164,3.31799 -0.17965,9.97301 0.67924,14.16443 4.28074,12.85021 8.70116,25.65924 13.55708,38.30432 -10.85519,-13.69864 -21.00436,-28.31579 -28.08984,-44.31641 -1.57275,-3.86777 -1.68167,-8.97986 3.10742,-10.32227 2.91958,-0.79983 9.68912,-7.81942 10.94727,-4.71679 z m 859.09761,19.77148 c 1.7705,2.65113 3.5111,5.21319 2.3629,8.63058 -0.738,18.0132 4.6216,35.43796 5.8071,53.29911 0.3425,4.0576 1.7099,9.44561 1.707,12.58398 -7.5498,-4.84952 -17.1515,-6.92988 -24.75,-10.31445 -1.6048,-18.82922 -1.0161,-38.05459 -0.4922,-56.875 5.0158,-2.31548 10.1043,-6.5881 15.3652,-7.32422 z m -699.59957,0.67188 c -5.26497,0.21745 -4.97621,6.78893 -2.51171,9.94922 8.04442,20.14892 17.14384,39.88137 25.8496,59.75976 -2.38663,3.53132 -2.27416,11.12753 -8.12695,9.74609 -7.42439,0.0548 -15.27551,-6.21163 -22.41211,-2.26367 -4.29292,3.93056 -3.76997,11.15261 -1.97656,16.06641 1.40611,2.5291 5.17961,-0.29025 5.45117,2.94726 3.86242,8.39001 10.4537,15.18381 17.23438,21.09961 3.81372,9.23818 4.05974,19.55304 8.31857,28.69729 4.12541,11.18182 7.14417,23.43219 14.64627,32.88865 1.72567,1.55912 4.3344,1.97887 6.34766,2.3457 -0.42402,23.74876 -13.12985,46.13539 -10.44922,70.0586 1.14385,4.18312 5.16541,7.49707 9.52929,7.42578 0.85579,13.14686 8.48558,25.03941 13.53578,36.99164 7.3134,13.81 9.7462,29.2822 12.3334,44.4224 1.1634,6.1434 5.8119,11.6432 12.3632,11.8867 3.6548,0.8943 9.5541,-1.3009 9.1007,4.496 1.6589,6.5854 3.7844,13.513 5.3134,19.8829 -5.3049,-0.8494 -5.4792,6.221 -2.8652,9.2012 1.8364,4.4531 5.8767,8.6463 6.3008,13.25 -3.0309,5.6423 1.276,11.9997 1.9921,17.7422 3.597,10.8978 8.1855,22.2043 16.0079,30.6602 7.245,5.3714 13.1357,14.2272 23.0898,14.3222 7.0675,3.6232 8.9233,13.5168 17.5176,15.2422 6.0547,3.7692 10.2474,9.973 16.5117,13.4551 5.8342,6.1222 9.2186,14.201 14.168,20.8984 1.2167,8.7288 2.4261,17.4738 5.9765,25.6407 2.0329,7.4576 8.421,13.7026 16.5469,13.2343 6.6834,0.3653 12.1696,4.2695 18.0742,6.7207 6.6243,1.9566 14.1084,0.6098 20.2578,4.0274 3.5007,10.9161 0.785,24.2677 8.9981,33.4453 3.4873,3.7492 9.5366,1.0057 10.0996,-3.8086 2.5065,-9.0889 1.6696,-20.1423 9.541,-26.8223 5.8427,-4.3756 13.7492,-1.33 20.4395,-2.5683 6.9845,-0.207 14.5481,-0.4484 20.0781,4.414 2.7442,2.0569 6.6682,2.5178 9.4199,3.8262 1.7475,5.9394 0.023,13.3834 5.502,17.8145 4.3527,8.9068 2.3982,19.4004 3.6271,28.9734 1.6232,17.0847 5.1289,34.6896 13.7869,49.6203 16.8981,20.4819 11.371,50.3167 26.5977,71.5918 4.0859,3.8435 10.3556,-1.6629 8.4316,-6.4726 -2.1198,-12.2545 -8.1395,-23.6292 -8.1679,-36.293 -1.145,-16.9009 -1.4703,-34.4302 -7.8706,-50.4844 -5.8121,-17.9225 -12.5258,-36.1565 -10.9552,-55.3511 -0.1761,-6.1716 -1.1515,-14.1698 1.1656,-19.2329 1.7981,6.749 2.8616,13.8216 5.6699,20.2676 1.4337,5.3506 9.0564,5.6593 11.3203,0.8145 3.2686,-8.0343 1.9558,-17.0446 3.9849,-25.4201 1.705,-12.3736 3.0085,-27.0484 5.4585,-37.9686 1.5775,5.3245 7.9161,11.9092 13.4101,7.2148 6.189,-6.8368 2.4948,-17.3112 2.5217,-25.4116 -1.871,-19.2905 -2.4139,-38.7885 -4.9689,-57.9673 -1.8297,-4.4451 -6.6221,-7.715 -5.3613,-13.0312 -1.307,-6.7941 -3.778,-13.3657 -5.5215,-20.002 -6.4023,-13.6086 -17.1189,-25.5455 -31.0703,-31.5996 -15.508,-8.5329 -23.6782,-26.331 -39.6641,-34.1543 -4.5382,-1.7295 -10.0145,0.8272 -14.0176,0.049 -1.7888,-6.4986 -9.2766,-8.3604 -12.3457,-14.0703 -5.9821,-7.855 -13.7449,-15.9716 -24.2051,-16.5625 -4.1024,-4.0829 -2.6835,-11.0075 -4.8498,-16.1435 -1.1225,-7.0003 -6.6133,-14.56709 -14.4842,-13.38382 -10.3543,-0.81352 -16.5093,-10.59616 -25.4941,-14.61328 -7.6781,-4.64041 -9.4217,-14.2346 -15.0605,-20.76953 -11.7707,-16.20971 -24.0918,-34.59337 -44.1563,-41.0625 -2.9573,-1.31449 -0.5836,-6.43644 0.1035,-8.5957 4.5818,-5.44899 0.202,-12.06078 -4.25,-15.80079 -7.6546,-8.10508 -9.7713,-21.79238 -21.1328,-26.06445 -2.1519,-0.76424 -5.0972,0.73398 -6.5625,0.37695 2.7226,-10.09507 0.3232,-20.40248 -1.498,-30.36436 -1.5199,-14.09418 0.7518,-29.32135 -5.5899,-42.47157 -5.3848,-7.42861 -15.219,-9.01308 -22.3965,-14.05664 -4.7885,-2.39784 -10.2006,-4.89525 -15.5605,-4.26172 -2.2366,-7.0461 -12.5059,-5.81279 -15.2754,-12.62696 -5.2274,-7.09911 -14.9214,-9.285 -23.00781,-6.28125 -4.9192,1.33944 -9.27123,4.1225 -13.4336,6.97852 -6.96307,-20.20626 -16.84158,-39.30002 -26.44921,-58.31641 -1.26554,-1.68394 -2.81723,-3.80457 -4.93165,-4.14843 z m 257.86327,9.34375 c -6.5312,2.01026 -4.1687,10.37905 -4.9101,15.37695 -0.7413,4.03347 3.8893,9.18755 7.5937,5.57031 4.3368,-5.58767 5.1536,-15.26492 -0.1855,-20.39844 -0.756,-0.41425 -1.6371,-0.62349 -2.4981,-0.54882 z m -70.6172,0.22656 c -4.2782,0.31598 -12.0344,-1.27036 -12.7343,4.85937 1.7448,10.14049 -2.3916,21.64903 2.9082,30.98047 5.7404,2.8586 6.7711,9.50865 8.1074,14.99024 3.5444,5.03255 11.5758,-0.68356 8.8554,-5.82227 -2.9334,-9.04477 -8.8778,-17.64704 -6.9375,-27.625 -0.1244,-3.56919 -1.3536,-8.25105 2.6817,-9.85351 2.6856,-2.63547 1.272,-7.74993 -2.8809,-7.5293 z m -361.56052,27 c 4.63598,6.51488 7.53365,14.36016 12.66016,20.43164 2.85067,3.2592 8.60712,0.41651 7.06445,-3.85156 -2.58557,-5.52258 -5.43729,-10.91662 -8.42969,-16.22852 6.0193,8.07617 13.60908,15.41775 19.06055,23.57227 -0.11671,2.20971 -3.31719,-0.7972 -4.93555,-0.0137 -4.06915,-0.15054 -7.00784,3.50035 -8.80273,6.32032 -3.89541,-3.34112 -4.64706,-9.4657 -7.83178,-13.52148 -3.40518,-6.46745 -6.82589,-12.92676 -10.35377,-19.32813 0.52279,0.87305 1.04557,1.74609 1.56836,2.61914 z m -49.43555,13.08594 c 3.24523,4.19156 9.26124,6.57105 14.1543,5.90234 0.42684,3.23223 1.25225,7.77498 -3.30338,7.90663 -6.74393,2.99713 -14.18714,5.68789 -19.80404,10.26915 -3.65448,6.03721 -0.40792,14.17694 -2.13867,20.03906 -2.46169,-1.13979 -7.70693,0.62257 -6.71875,-3.73047 -0.28255,-7.8603 -6.73728,-13.07875 -12.50977,-17.3496 -3.84436,-3.70924 -7.63901,-8.26153 -13.14648,-9.39063 2.6691,-3.2599 5.21004,-9.95721 10.4375,-7.55273 10.9718,2.27119 23.62365,2.22666 32.39844,-5.7793 0.18192,-0.025 0.42392,-0.37146 0.63085,-0.31445 z m 471.43357,14.40039 c -7.942,3.0493 -1.8247,13.46105 -2.9316,19.46875 1.7154,23.02606 2.5035,46.16071 2.9902,69.28711 -4.6999,-2.47255 -9.3188,-6.2902 -14.7949,-6.55469 -4.1867,1.30517 -3.7092,6.75449 -0.1484,8.46875 4.7026,2.17059 8.5578,6.67833 13.8711,7.1914 3.3169,0.22542 0.2765,7.90068 1.43,10.68807 0.5557,25.63712 0.4075,51.3942 1.8102,76.95647 0.8923,4.61966 8.3221,5.48386 8.7617,0.13672 2.0129,-43.30454 1.1318,-86.6964 0.2356,-130.01849 -0.9723,-17.83145 -2.1123,-36.00167 -7.0852,-53.19441 -0.8317,-1.45381 -2.3935,-2.62118 -4.1387,-2.42968 z m -193.375,5.85937 c 2.3548,4.55653 6.4475,7.66604 9.2071,11.86914 10.3191,27.34257 18.4222,55.80663 27.3022,83.78853 14.2027,44.89816 27.123,90.3562 45.3013,133.85796 2.0879,3.891 3.9945,10.5446 8.1269,11.375 -3.4382,4.5983 1.1352,10.3696 2.9219,14.75 7.3175,13.2691 22.1233,21.2789 37.1582,21.168 12.0546,1.2708 26.9697,1.6357 35.4219,-8.6309 2.5771,-3.4997 3.789,-7.9116 5.1445,-11.8359 7.8299,7.2049 19.8532,9.5124 25.5879,18.8418 6.5296,14.0314 3.0689,29.9708 6.3901,44.8168 3.6861,29.6597 8.7936,59.9943 15.3033,88.6656 -6.0333,-3.8784 -12.3604,-9.0774 -12.3379,-16.9492 -5.593,-22.6635 -12.9199,-44.892 -17.5957,-67.7754 -1.7067,-6.0844 -5.444,-11.8684 -6.7403,-17.8047 3.7569,-4.5487 -0.014,-12.7003 -6.2304,-11.54 -17.2402,0.1437 -35.5163,-0.5214 -51.5469,6.749 -3.1496,2.7588 -7.4472,3.635 -10.7207,5.4863 -4.1475,5.7649 -0.6621,13.3804 -0.8032,19.7995 0.722,7.5685 3.0152,16.144 3.9145,22.8939 -7.0203,-0.093 -15.0015,0.5723 -21.2109,2.8398 -1.5876,-2.9443 -5.0343,-4.3614 -8.2383,-4.5644 -6.565,-17.5408 -9.9594,-36.0613 -15.2212,-54.0248 -11.6218,-45.5348 -22.6861,-91.35438 -34.7397,-136.74282 -1.1458,-3.9107 -2.0031,-7.81398 -2.711,-11.9043 -0.6659,-3.9855 -5.1352,-9.14748 -8.6152,-4.79883 -2.6297,4.84367 0.6359,10.61866 2.1406,15.36719 4.9993,22.24785 10.5831,44.82647 16.1232,67.1338 2.7897,10.14466 1.0194,5.51336 -1.4379,-1.4734 -4.9969,-12.88377 -9.1442,-26.4707 -16.3357,-38.25415 -2.7605,-2.88907 -7.1753,0.71782 -6.4687,4.14258 -1.5435,-1.73144 -4.8136,1.97018 -4.2149,-0.69727 -0.8116,-11.05157 -10.4039,-20.56989 -6.6246,-31.96946 3.1344,-12.69468 3.413,-25.7183 2.7707,-38.70775 0.054,-5.80708 -0.508,-13.03177 -0.1285,-18.01029 2.881,3.43191 8.5848,1.07972 7.6172,-3.45898 -1.4946,-8.305 -5.7109,-15.93482 -8.2254,-23.99019 -8.0626,-21.71644 -17.5804,-43.5937 -24.57148,-65.27349 4.53041,-2.8069 8.76868,-5.5231 14.28708,-5.13867 z m -253.37107,9.86719 c 6.33861,21.71126 11.00879,43.93751 13.9375,66.39258 -2.74111,3.93247 -4.3406,8.41506 -5.51953,12.92187 -4.46377,3.82489 -11.20535,1.56861 -16.59765,2.10352 -15.37728,-0.35277 -30.44138,-6.79844 -45.92969,-5.20117 -5.68799,0.63187 -9.50094,7.50615 -6.375,12.49023 -5.409,-1.06009 -12.75532,-1.58979 -16.41211,-5.88086 7.1871,-5.92792 15.9082,-13.47798 14.44727,-23.91797 -0.32741,-8.26803 -10.07395,-9.90706 -13.33985,-16.1875 0.72605,-5.24266 6.8944,-7.42052 11.62305,-6.86328 5.99735,-0.4569 11.3352,-3.95065 16.30469,-6.6289 7.02381,2.18097 16.12023,7.31084 22.6582,1.23437 5.93788,-7.4494 4.17621,-18.62656 6.08594,-26.35547 6.91042,1.32276 12.311,-4.30365 18.4414,-6.37109 0.22526,0.75455 0.45052,1.50911 0.67578,2.26367 z m -78.27148,-1.27539 c 4.92873,-0.72257 8.47763,2.52128 11.36719,5.96289 2.6468,2.36305 8.37623,5.06397 7.5332,8.7207 -6.64939,-4.04706 -13.16016,3.54561 -17.81641,7.36328 -7.28456,6.79862 -16.92357,16.22651 -13.46289,27.21875 2.10703,6.99446 8.98508,10.61385 13.95899,15.02539 -0.0669,4.56397 -5.21257,8.16667 -7.61914,10.7461 -3.50184,-5.62278 -4.07661,-13.28676 -8.95508,-17.94727 -7.77188,-5.86006 -18.51569,-3.32629 -25.56445,2.40625 -3.48352,1.75732 -7.20976,2.89442 -10.78321,4.43555 5.77188,-9.81344 15.36133,-17.62886 20.14063,-28.00586 -0.25447,-4.8882 5.75356,-6.75875 7.81491,-10.71038 5.7732,-6.30261 9.63316,-13.9435 15.58353,-20.04157 1.99622,-1.87993 1.07894,-6.40904 4.84142,-5.1251 0.98684,-0.0272 1.97391,-0.0585 2.96131,-0.0487 z m 463.42385,0.88476 c -8.1654,2.82055 -1.4318,13.21064 -1.2877,18.84402 10.7748,45.52054 14.4871,92.25238 21.8189,138.2888 1.8333,7.16388 3.3027,15.30517 8.3653,20.91015 4.3051,2.66041 9.019,-3.07378 6.3655,-7.10798 -7.9134,-33.78616 -9.169,-68.79405 -15.6507,-103.03069 -3.9269,-22.50984 -7.8894,-45.49329 -16.6387,-66.62695 -0.7513,-0.81493 -1.8382,-1.40543 -2.9726,-1.27735 z m -490.50588,1.60938 c -2.34465,3.45442 -1.37648,1.45351 0,0 z m 386.04298,2.24414 c 1.814,1.72631 -2.0626,3.48071 -1.5918,5.75195 -0.3592,1.41929 0.3201,4.56588 -0.6992,0.97147 -0.2699,-2.57792 -4.3998,-7.14589 0.2148,-6.82498 0.761,-0.0121 1.701,-1.26713 2.0762,0.10156 z m -49.20509,3.33203 c 5.41077,15.74895 11.40262,31.29178 17.49409,46.78711 -8.61103,-14.04624 -18.30736,-28.42952 -28.09175,-41.08984 4.429,-0.24947 8.29242,-3.07389 10.14063,-7.04102 l 0.322,0.94674 0.13503,0.39701 z m -21.6875,5.11328 c 2.37876,-0.40578 1.28628,2.85901 2.32812,3.94922 -0.003,-0.42979 -4.22732,-4.50602 -2.32812,-3.94922 z m 84.76369,0.84571 c 4.8781,3.69199 13.0854,5.01619 13.0097,12.49414 3.014,15.15221 -0.3121,31.9539 6.9649,46.19336 1.2809,2.85007 6.1138,3.3778 3.2129,7.05664 -1.5514,6.15384 -4.2646,14.39127 0.623,19.64453 3.378,2.65092 7.8215,0.87791 11.6504,1.07031 3.4094,7.90016 8.7235,14.91424 12.3809,22.60156 -4.5481,10.66083 0.6788,22.2785 7.3105,30.73438 3.2547,7.65671 3.7062,17.46379 11.5742,22.24804 5.773,6.89589 6.428,16.46757 9.5422,24.64713 2.3479,9.41308 4.882,22.16204 5.3524,29.83724 -1.4418,-2.4302 -5.5994,-1.5414 -6.3906,-0.035 0.4923,-7.4258 -1.3334,-15.1425 -3.6153,-22.12309 1.2784,-4.75225 -5.4547,-8.60084 -8.1601,-3.97657 -1.2087,0.71997 -1.7175,-5.37642 -2.7301,-7.18159 -4.5686,-13.45621 -8.2562,-27.43985 -14.7055,-40.11137 -1.8088,-3.23133 -6.9117,-2.74 -7.6328,0.66992 -1.5935,-5.64375 -4.4494,-10.74468 -5.2461,-16.53711 -0.94,-3.3284 -5.7419,-5.35603 -8.0195,-2.1211 -12.6629,-40.98503 -25.898,-83.21932 -39.6016,-123.00781 3.5417,4.92285 11.7478,2.66685 14.0469,-2.4082 l 0.4336,0.30469 z m -193.54103,4.26953 c -4.56973,0.13967 -5.14007,6.25871 -1.46289,8.20898 11.26796,5.15105 23.34848,8.83998 35.03573,13.09411 8.40325,2.35188 16.99523,6.15171 25.63419,6.39417 5.41589,-2.02095 1.3447,-9.00329 -3.06641,-9.11914 -18.47683,-6.80488 -36.94474,-14.14608 -56.14062,-18.57812 z m -63.3086,1.57812 c -5.56853,2.49123 -2.06889,9.36922 0.5293,12.75586 19.47001,32.83729 39.40436,65.54654 59.8457,97.78125 3.85886,3.37992 9.07217,-2.9528 5.85547,-6.50586 -17.7646,-34.18328 -37.43114,-67.43575 -58.74023,-99.50781 -1.8836,-2.10815 -4.44071,-4.95213 -7.49024,-4.52344 z m 767.89843,1.46094 c 2.8634,3.08765 -2.5179,2.51472 -0.2031,-0.0195 l 0.2031,0.0195 z m 43.5723,12.16992 c -5.0453,1.01501 -3.5488,7.59016 0.2285,9.27539 8.1304,3.61611 14.1118,10.30558 19.4062,17.21094 9.9506,9.943 23.012,17.46528 36.8379,19.86523 2.528,-0.52841 2.8538,-3.85161 4.7472,-4.59291 0.6312,-1.70094 0.5117,-3.69508 -0.4894,-5.23131 5.2261,1.91326 8.143,-5.3686 4.25,-8.48242 -3.2238,-2.70627 -7.8611,-2.77921 -11.0468,-5.83776 -6.5206,-3.82767 -12.6796,-9.93492 -20.2852,-10.93372 -4.8876,1.74155 -2.7445,7.81288 0.9024,9.63281 4.5418,3.38746 9.0168,6.87063 13.6582,10.12305 -17.0723,-6.47737 -27.0118,-23.95359 -44.0567,-30.30078 -1.3353,-0.31748 -2.7969,-1.01131 -4.1523,-0.72852 z m -728.98831,8.02734 c -4.59736,1.76551 -2.38774,7.67626 1.51758,8.72852 12.91063,4.31323 25.13803,11.66997 38.70899,13.56055 5.13279,-0.76673 3.94434,-7.62958 -0.15821,-8.98242 -13.16318,-4.3343 -25.80874,-10.47588 -39.375,-13.6836 l -0.69336,0.37695 z m 110.50782,3.84766 c 5.84976,10.64361 11.71124,21.30141 18.92769,31.07227 2.0262,3.20469 1.3789,8.58267 1.2032,11.18359 -3.2177,-0.80105 -7.62883,-0.16226 -7.76484,-4.76055 C 993.18007,854.72023 988.60962,841.82207 985,828.5293 l 0.5002,0.8659 0.37871,0.65558 z m 571.21879,10.35742 c -3.9238,-0.46575 -8.9285,4.43458 -4.6856,7.58399 10.2711,2.9443 21.4091,3.7332 32.1445,4.85351 7.5423,0.12383 15.8422,1.41995 22.8809,-1.16992 4.0395,-3.63353 -1.5854,-8.68597 -5.6895,-7.83594 -14.8194,-1.91583 -29.7522,-2.79451 -44.6503,-3.43164 z m -712.64653,0.30469 c -4.88757,0.99594 -2.63838,7.69236 -0.79297,10.56055 33.15654,65.36823 65.00046,131.50201 99.23633,196.33396 1.48763,3.4192 6.92256,8.3385 8.60352,2.8067 1.94223,-6.5415 -4.41476,-11.7625 -5.84146,-17.7595 -27.5601,-59.06224 -56.40925,-117.57413 -87.54972,-174.8269 -3.63674,-5.73149 -6.51267,-13.43345 -12.12249,-16.982 -0.51111,-0.0143 -1.01711,-0.17682 -1.53321,-0.13281 z m 28.84961,2.77344 c -4.52247,1.37432 -3.33136,7.45612 0.70313,8.62109 16.1675,6.42611 32.18155,15.65701 49.94726,16.23633 5.45177,-0.99894 3.42529,-9.17156 -1.41992,-9.32813 -16.52673,-4.0984 -32.19307,-11.88424 -48.90039,-15.64257 l -0.33008,0.11328 z m -270.85547,9.75976 c -1.70347,1.8379 -1.59235,5.08982 -2.29297,6.7793 -2.91715,1.28014 -7.16751,0.35486 -6.22265,-3.66797 -0.83934,-3.81306 4.52463,-1.52668 6.43957,-2.85448 0.41313,0.0664 2.27149,-0.69067 2.07605,-0.25685 z m 47.77735,0.4043 c 3.42696,6.80499 5.88524,14.11073 10.35351,20.30664 5.71793,6.38334 14.29611,9.09873 21.69727,13.01172 6.84176,3.2386 15.1084,4.18844 22.08789,4.16211 -7.58184,2.28138 -9.57886,11.50723 -6.99024,18.20312 -1.56408,0.97228 -6.64825,-2.05015 -9.58659,-2.55898 -16.17133,-5.79597 -33.12659,-8.6472 -49.77711,-12.55381 -11.60889,-2.85014 -21.9597,-13.01472 -21.17731,-25.61963 6.07414,-3.25067 10.97758,-8.83122 18.23633,-9.53125 5.55264,-0.33146 10.49202,-2.7714 14.97265,-5.76172 l 0.1836,0.3418 z m 635.86524,0.0703 c -6.831,1.40437 -4.0079,10.10676 -4.7149,14.85157 -1.4107,4.7131 6.1132,9.47667 8.1329,3.78711 0.3806,-5.72746 2.3374,-13.25542 -1.7422,-18.16211 -0.4956,-0.32182 -1.0823,-0.50471 -1.6758,-0.47657 z m 269.7285,3.82813 c -7.6071,0.0998 -15.2902,1.21477 -22.0937,4.83398 16.2138,8.32028 34.8679,4.84067 52.1738,7.94336 5.2029,0.13558 12.6748,2.40132 16.2285,-2.15039 1.9212,-5.72281 -5.5805,-7.26305 -9.623,-7.63672 -12.1302,-1.90677 -24.4007,-3.01542 -36.6856,-2.99023 z m -294.3223,9.20898 c -6.4043,0.43394 -6.3233,8.71731 -3.749,12.90202 3.6716,11.05856 8.8112,21.71377 15.7471,31.05892 3.1596,10.89071 -0.6525,22.00178 0.7959,33.17538 -0.069,2.34759 -0.1363,4.77983 0.6904,7.01798 -9.0536,-13.22325 -20.6673,-24.54624 -28.0176,-38.9375 -8.0652,-11.71366 -11.1588,-25.6393 -17.8769,-37.92578 -1.7292,-4.03303 -8.6939,-6.61019 -10.0059,-1.03516 -0.099,4.9384 4.5185,8.53184 4.8131,13.53697 6.9633,23.67237 19.5297,45.36078 35.5111,64.06069 12.5321,17.36495 23.7881,36.52463 40.1836,50.79887 14.3345,7.9515 26.4006,19.3182 41.043,26.8593 8.6649,4.9392 15.3282,12.7077 18.8418,22.041 11.2162,20.9232 25.9036,39.8119 39.0371,59.4454 4.184,3.2486 8.327,-3.2816 5.7012,-6.8418 -4.2289,-15.133 -10.5333,-29.7989 -20.436,-42.117 -8.3326,-11.2575 -12.8616,-25.2328 -22.9136,-35.1682 -10.7914,-10.2363 -26.0962,-14.2065 -36.3008,-25.0937 -8.8703,-6.42441 -20.6236,-9.15019 -26.666,-18.89848 -7.1267,-8.52537 -14.4688,-18.7543 -20.1953,-27.08008 3.7206,1.61153 6.5073,-4.13089 6.1054,-7.67578 -0.2211,-13.37046 2.6219,-26.95971 0.3555,-40.33203 -6.7489,-11.27133 -11.9394,-23.07187 -16.6523,-35.22461 -1.137,-2.32759 -3.2479,-4.5638 -6.0118,-4.56641 z m -355.27144,2.59375 c -5.25562,0.72809 -3.99102,7.76399 0.0937,9.23438 3.24655,2.48065 8.96316,0.87051 8.5957,-3.76563 -0.43248,-3.70378 -5.46566,-5.58691 -8.68945,-5.46875 z m 13.75,5 c -5.25562,0.72809 -3.99102,7.76399 0.0937,9.23438 3.24655,2.48065 8.96316,0.87051 8.5957,-3.76563 -0.43248,-3.70378 -5.46566,-5.58691 -8.68945,-5.46875 z m 626.35934,1.10352 c -3.9875,-0.54088 -9.2373,4.52881 -4.8613,7.7168 4.4515,2.11036 10.6868,1.23818 15.0078,0.33789 2.3439,3.42557 7.5965,2.2173 10.6524,1.59961 3.2313,2.62297 8.6629,2.47026 12.3359,0.72851 3.5975,-2.57077 1.0193,-7.85161 -3.1172,-7.58008 -2.6674,-0.44267 -6.0137,-0.25375 -8.1094,0.70313 -2.5716,-2.60616 -7.9924,-3.11959 -10.8496,-0.61328 -2.1535,-3.94989 -7.5066,-2.14271 -11.0586,-2.89258 z m -938.1777,7.62304 c 1.65491,4.6853 4.49508,9.1148 8.70508,11.88086 -4.07326,-2.39727 -11.10353,-5.06985 -9.00196,-11.10937 0.16035,-0.14201 -0.19011,-2.8507 0.29688,-0.77149 z m 917.4746,6.375 c -7.8126,0.31132 -16.9195,-1.36193 -23.625,4.27149 11.6225,6.93031 25.8127,3.78391 38.3359,5.78125 10.5155,0.79586 21.7527,4.94308 32.1993,3.0332 3.8993,-2.78918 0.5296,-7.8785 -3.3926,-8.19336 -14.2931,-3.06715 -28.8525,-5.22315 -43.5176,-4.89258 z m -867.89062,19.6543 c 13.08327,3.16697 26.30392,6.68147 38.35547,12.75781 -13.77794,-4.32563 -27.55401,-8.77385 -41.25195,-13.42187 0.96549,0.22135 1.93099,0.44271 2.89648,0.66406 z m 349.29882,13.20899 c -1.4862,8.3546 -4.2298,17.24052 -0.6426,25.47265 -2.1051,-0.63859 -5.4113,0.19632 -3.98,-3.12446 0.6893,-7.43993 2.9673,-16.09521 4.6226,-22.34819 z m -136.85155,11.01367 c -5.74729,1.06571 -4.12939,8.29011 -1.54102,11.67187 25.37225,47.31939 49.36388,95.51295 72.14994,144.17395 13.45331,26.822 25.96195,54.4413 42.31881,79.578 6.78407,4.0147 8.08461,-6.3251 4.62912,-10.1848 -16.24736,-43.3661 -37.62992,-84.5427 -57.06181,-126.4941 -16.41416,-33.26749 -33.70139,-66.41212 -55.58489,-96.44023 -1.25838,-1.36524 -2.9968,-2.41392 -4.91015,-2.30469 z m -76.04102,5.99414 c -4.99379,0.43177 -4.79297,6.69715 -1.9043,9.51172 11.01208,16.42311 20.42017,34.52436 34.67188,48.41601 3.78613,2.64178 6.72851,-2.51099 4.79687,-5.71484 -6.2594,-10.71498 -13.70892,-20.86564 -20.44254,-31.36899 -5.23431,-6.91288 -9.54831,-15.16706 -16.14535,-20.69156 -0.3071,-0.10318 -0.65113,-0.18454 -0.97656,-0.15234 z m 325.16207,3.07031 c 6.4046,4.76145 11.5467,10.96399 16.2539,17.35156 -4.2733,-5.43946 -10.0188,-9.44968 -15.1679,-13.83984 -0.477,-0.66548 -3.1302,-5.56316 -1.086,-3.51172 z m -107.2871,20.55078 c 0.52,2.311 0.538,4.05222 0,0 z m 82.9024,1.3125 c 2.1512,6.6524 1.793,5.60666 0,0 z m -69.8692,11.57813 c 7.5188,18.2873 12.0979,37.78846 21.1543,55.42186 1.2346,3.7859 5.3978,7.9759 9.4278,5.043 4.9937,-3.598 -0.7277,-9.2116 -2.0863,-13.1292 -0.9599,-2.6891 -3.6702,-6.8046 -3.2419,-8.6716 2.2676,0.051 4.1654,-1.9575 4.4278,-4.1309 3.1819,12.985 6.823,26.705 9.7715,39.1993 -6.6611,-7.1971 -18.7652,-8.762 -21.9512,-18.9942 -2.2447,-6.9957 -4.4333,-13.9252 -6.5215,-20.9961 -4.1603,-11.34253 -8.7442,-22.47382 -11.1797,-34.34568 l 0.1992,0.60352 z m 137.3535,19.87304 c 2.5442,1.63456 6.9971,2.86225 8.0723,5.43162 -0.9552,1.2315 -3.9364,-2.93784 -5.5703,-3.43621 -0.613,-0.47644 -2.2698,-1.70742 -2.502,-1.99541 z m -19.0664,0.67774 c 2.4815,3.59871 6.6237,5.72258 8.627,9.86718 3.0427,4.7856 9.4327,4.7922 12.4375,9.6895 5.1284,5.1499 1.746,12.6388 0.4492,18.6836 -2.3719,5.964 -10.2508,3.399 -15.209,4.3632 -2.0789,-0.648 -8.2396,1.4552 -8,-0.7734 2.1879,-8.7323 0.3813,-18.3995 0.5606,-26.8535 3.9283,-1.8978 3.029,-7.0702 1.5176,-10.2149 -0.068,-1.58143 -0.2289,-3.27542 -0.3829,-4.76168 z m -37.539,5.06638 c 2.3886,6.3038 2.7141,13.6906 6.1914,19.4473 2.5328,2.517 7.1863,0.5498 7.5332,-2.7168 1.5741,0.8249 4.5233,-0.9563 4.5137,-0.9863 -2.2046,4.3363 2.2637,11.9221 7.0351,7.7129 1.2371,-0.92 1.4897,-5.3642 1.7265,-1.8275 1.0588,5.1828 1.0581,10.812 3.0294,15.6849 -13.5025,2.2987 -25.514,-8.8567 -29.9649,-20.8516 -0.3559,-2.0752 -3.7957,-2.3341 -4.125,-2.9023 2.6283,-4.7656 -3.1515,-11.1648 -2.3613,-14.6016 2.4265,0.9353 5.1388,-1.07009 5.1231,-3.63476 0.4329,1.5586 0.8658,3.11719 1.2988,4.67576 z m 74.5801,6.1953 c 4.3497,4.461 10.7596,5.6279 16.414,6.6602 1.5592,4.5214 2.254,9.2729 3.4942,13.8809 -8.2552,-4.8378 -16.875,-12.2781 -21.9082,-19.1719 0.7926,-0.2242 1.4897,-0.7622 2,-1.3692 z m -86.3711,30.334 c -4.9437,0.3209 -4.8765,6.614 -1.6407,9.1348 6.4198,6.3956 10.9823,14.8558 18.8926,19.6738 4.3102,0.5213 6.3025,-4.6031 3.6504,-7.6172 -6.3074,-7.2676 -11.7925,-15.955 -20.0644,-21.1074 -0.2797,-0.026 -0.5522,-0.177 -0.8379,-0.084 z m 124.5527,6.9434 c 6.056,3.4397 10.015,9.3631 14.9375,14.1152 -6.9938,-1.4971 -12.2929,-8.1562 -14.9375,-14.1152 z m -164.7715,10.1562 c 6.3545,4.0629 7.7154,11.7528 7.3086,18.7188 -0.4095,8.4197 -1.0682,17.6511 4.2774,24.8125 2.1348,4.4966 4.5581,8.8482 6.7343,13.3242 -6.079,-6.8802 -9.9507,-14.4556 -11.046,-23.5781 -2.3288,-10.9312 -5.1228,-22.9753 -7.2743,-33.2774 z m 197.2051,15.1446 c 3.3677,1.2332 7.1398,5.0995 10.8184,2.0586 1.3774,-2.6268 3.7819,-0.334 4.7929,1.2539 -1.9466,6.2453 6.2382,9.073 8.4219,13.9511 1.0871,2.632 -5.2454,-2.4473 -7.3017,-3.375 -6.4544,-4.2553 -12.2456,-9.4218 -18.1026,-14.4492 l 0.9256,0.3784 0.4455,0.1822 z m -30.5781,-0.2383 c 6.6961,3.1864 13.9546,5.4506 19.0917,11.1365 5.5886,5.1129 13.3021,9.1155 16.6426,16.0217 5.2394,26.213 3.6591,53.7318 4.7504,80.6706 -0.2832,5.8015 0.949,13.7458 -0.2132,18.302 -6.6145,-2.8004 -13.9507,-1.5682 -20.9083,-1.7851 -1.0902,-6.2488 -3.6721,-14.1907 -3.6777,-19.4356 6.0314,0.3407 6.3193,-7.954 3.7949,-11.6543 0.8344,-3.0903 -0.028,-7.062 -2.1289,-8.9511 1.8255,-3.1175 1.5929,-7.8669 -1.164,-10.1446 1.9044,-3.1248 1.0237,-7.3718 -0.6993,-9.9726 1.2577,-2.9159 0.1547,-6.3982 -1.1914,-8.6797 1.5029,-3.1158 -0.7563,-6.3681 -0.9765,-9.127 1.1847,-3.5927 -2.4755,-6.1796 -1.127,-9.6152 0.3048,-4.7746 -6.9464,-6.6771 -8.5527,-1.9199 -1.4516,-11.5815 -2.8149,-23.2807 -3.6406,-34.8457 z m -146.666,15.3594 c 0.5668,2.2578 2.6262,9.27 0.4531,3.3027 -1.1143,-2.0062 -2.1862,-10.8703 -0.7557,-4.4776 l 0.2494,0.9684 0.053,0.2065 z m 98.7695,-0.7852 c 8.1559,0.055 9.2322,9.9341 11.4043,15.7773 3.9789,16.1742 3.5166,33.2032 7.0156,49.4786 0.1164,2.0254 0.3213,4.2406 0.6621,6.1347 -7.9294,-4.4454 -18.1093,-3.6534 -25.8125,-7.4492 1.5672,-7.2745 -1.8417,-14.6161 -2.2668,-21.8833 -1.4879,-10.6986 -3.8787,-21.538 -7.4871,-31.564 2.295,-4.6863 -4.4592,-9.4979 -7.625,-5.0078 -2.3167,2.9197 -0.2849,6.7469 0.4805,9.3477 -4.3386,-1.9764 -6.6139,2.8396 -6.291,6.5918 -0.9345,4.4891 2.2523,8.3023 0.8925,12.5469 0.8549,8.3058 3.4155,16.3589 4.6856,24.6152 -5.409,-1.7201 -7.5702,-7.2462 -7.6375,-12.4254 -2.8806,-11.868 -5.5753,-24.0951 -7.0168,-36.0043 9.6567,-10.8748 26.0135,-8.9746 38.9961,-10.1582 z m 113.9765,9.9199 c 6.6378,6.818 14.7292,12.0528 23.2969,15.9238 8.7316,6.8925 16.1582,16.5637 17.2891,27.9063 1.0487,3.8433 2.7625,7.7885 3.2226,11.6133 -3.268,-9.1812 -8.2312,-18.8876 -16.8554,-23.7949 -2.6743,-5.7639 -6.5313,-10.9625 -10.5957,-15.8204 -2.2913,-1.9837 -5.3809,-2.1677 -5.9707,-5.5996 -2.787,-3.9696 -8.0369,-7.1622 -10.7442,-10.1054 0.1418,-0.046 0.205,-0.4726 0.3574,-0.1231 z m -45.6562,2.9512 c -5.6604,0.022 -5.1675,7.1956 -3.5117,10.875 3.62,24.6335 3.1424,49.4172 5.0273,74.2617 0.3736,4.1166 1.8041,11.5922 7.3789,8.9629 5.3662,-4.2404 1.8535,-12.3397 2.5274,-18.0312 -0.9572,-23.7524 -3.0617,-47.7162 -7.2715,-70.9727 0.097,-2.4892 -1.3439,-5.1797 -4.1504,-5.0957 z m 29.7578,5.8496 c 5.4383,3.6486 13.6241,6.4753 14.6172,13.8887 1.9642,4.6657 5.9647,8.0007 9.6934,11.2363 -7.3551,4.6691 -16.4973,9.6714 -19.1758,18.4297 0.2403,5.6266 8.0138,4.3588 9.7754,0.3398 4.2211,-4.255 8.859,-8.4141 14.2031,-11.08 2.3711,4.8234 9.1169,7.4003 9.5547,12.7304 -6.6077,6.3663 -15.813,9.7217 -22.002,16.8653 -4.6836,4.2744 -9.1837,8.8395 -12.6914,14.1504 -0.1761,-25.7633 -0.2926,-51.7111 -4.9336,-77.1407 l 0.8557,0.5176 0.1033,0.062 z m -45.625,8.4356 c 0.6089,0.2973 -0.2937,2.0804 0,0 z m -73.5488,1.3828 c 0.5871,2.5429 1.2143,5.2615 -0.1817,1.6601 -1.1336,-0.5953 -0.011,-4.362 0.1817,-1.6601 z m 74.5312,5.3984 c 1.4454,1.5461 -0.4367,3.8888 -0.053,-0.017 l -0.014,-0.096 0.066,0.1133 z m -160.4472,4.6348 c 6.7822,10.2742 14.8873,23.6743 28.6132,24.6562 6.7263,1.1439 13.1359,-5.8943 19.4161,-1.5625 13.0946,12.9717 25.8255,27.988 43.6953,34.4121 7.3992,-0.4124 13.6995,3.6414 18.3672,9.0039 6.1394,6.9327 13.5484,14.8889 23.6601,14.752 5.7363,1.4408 11.3157,-3.3125 16.6348,-0.016 3.9254,1.7217 9.2377,3.2714 12.0683,5.5722 -2.5064,5.6186 3.9157,9.6534 8.7168,10.2617 4.1669,-0.1258 7.4234,2.1057 10.793,3.8555 3.5205,1.2744 8.3462,-0.7497 10.9551,0.1719 -0.3925,4.4135 4.8064,8.9257 8.5156,5.1269 3.3221,-2.9679 2.9768,-10.1813 8.8731,-9.1445 9.4544,-2.3687 18.1672,-7.1416 26.9648,-11.1308 2.9383,-1.8245 4.972,-6.5789 8.8262,-4.3126 6.9505,1.164 12.212,-4.5188 17.4004,-7.8417 4.4898,-1.4972 7.6826,-5.5211 9.1816,-9.8868 1.2538,7.6467 1.9814,15.6633 2.6016,23.1914 -4.79,-2.8434 -10.1359,1.3423 -10.7776,6.3646 -5.0709,14.3964 -5.4621,30.4935 -8.4607,44.7936 -2.1663,-4.7558 -8.5884,-5.4628 -11.7813,-1.3652 -8.3977,6.964 -10.2384,18.2692 -9.9566,28.5838 0.2897,6.245 -0.4074,1.6904 -1.1403,-1.811 -1.974,-8.4557 -4.6018,-18.6679 -12.8132,-23.0404 -5.4216,-0.9311 -9.8475,-3.9127 -14.5391,-6.4941 -10.6326,-3.6125 -22.0794,-0.9822 -33.0586,-1.543 -8.324,-0.1177 -16.5772,3.8511 -20.4902,11.4278 -1.7683,4.1842 -1.5468,-2.4272 -2.6699,-4.1934 -1.7804,-6.6288 -7.7941,-11.2231 -14.6465,-11.2559 -11.2931,0.1042 -20.8286,-6.3445 -31.4883,-8.955 -6.9357,0.054 -7.8714,-7.6137 -9.2894,-12.8785 -1.7857,-10.3665 -3.4128,-21.4168 -10.5856,-29.6489 -5.2533,-8.6017 -11.2205,-17.5989 -20.9238,-21.5312 -4.7777,-4.0633 -10.2354,-7.0904 -15.5586,-10.2344 -5.7681,-5.3345 -11.1753,-12.6715 -19.7774,-12.9356 -5.5643,-2.8495 -9.8852,-7.6617 -14.5683,-11.789 -6.0318,-6.4235 -10.2413,-14.2967 -13.8731,-22.2559 l 0.5595,0.8289 0.5558,0.8235 z m 161.7168,3.5918 c 1.6183,0.455 -0.1519,4.4808 0.09,1.3261 0.3159,0.5093 -0.6118,-2.4024 -0.09,-1.3261 z m 1.2714,8.7597 c 1.8795,1.3856 -0.5778,3.7289 0,0 z m 1.5586,9.1582 c 2.3241,1.2113 -0.9504,3.5958 0,0 z m 229.1094,1.2188 c -15.2468,5.1456 -29.9051,12.0911 -44.6855,18.4277 -4.2474,1.6004 -2.8792,9.0903 1.9629,7.6621 11.4519,-2.1223 21.5963,-8.4909 32.5522,-12.225 4.9774,-2.5168 11.6189,-4.1085 14.5982,-9.0093 0.5812,-2.5753 -1.8397,-5.1364 -4.4278,-4.8555 z m -227.0605,9.5195 c 1.1225,1.0822 -1.1161,0.4806 0,0 z m -76.7969,4.7676 c 4.2689,1.4518 4.7482,1.9625 0,0 z m 157.3301,0.3164 c 5.108,0.8173 -1.7506,4.1045 -2.7969,6.1758 -7.8637,7.7022 -16.3848,14.7128 -24.6738,21.9199 -3.5083,3.8674 -5.6082,8.9332 -10.0684,11.8945 0.085,-2.9052 -2.1561,-7.586 1.8399,-8.0742 4.3452,-4.1622 6.4082,-10.2734 11.1269,-14.2558 6.7908,-7.4291 14.8756,-14.3615 24.5723,-17.6602 z m -133.3985,7.1699 c 7.4125,2.7532 11.0017,10.6704 17.4649,14.9746 1.2668,0.38 4.2007,4.1134 1.3496,1.9785 -6.6564,-5.1551 -11.8728,-12.3208 -18.8145,-16.9531 z m 135.2012,7.8828 c 0.233,1.3439 -4.4088,5.3086 -3.2027,3.0403 1.0753,-0.9855 2.2287,-2.1184 3.2027,-3.0403 z m 138.7129,0.01 c -4.0139,0.6676 -7.5139,3.0485 -11.2637,4.3204 -5.3309,3.2566 -14.0085,2.3865 -16.8066,9.1718 1.7987,5.7437 8.6291,3.9471 12.4765,1.6856 4.495,-2.1187 9.3941,-3.1241 13.8848,-5.2207 4.6674,-0.1263 8.8215,-7.1734 3.5313,-9.6016 -0.5737,-0.2436 -1.1982,-0.3745 -1.8223,-0.3555 z m -9.1289,19.8946 c -19.8306,6.5215 -39.2447,14.6172 -58.1172,23.373 -3.5337,3.3832 1.6823,9.2221 5.6074,6.6465 19.0088,-6.4442 38.2868,-12.9304 55.8887,-22.6152 3.2687,-2.9018 1.1502,-8.2667 -3.3789,-7.4043 z m -12.1836,31.4629 c -19.6446,5.0854 -38.8597,11.707 -58.459,16.9531 -3.8141,1.1159 -10.7466,4.1056 -7.3867,8.9805 5.3606,4.1954 12.3323,-1.4649 17.991,-1.8464 17.0498,-4.6346 35.0044,-7.9181 50.7082,-16.3392 3.5325,-2.6426 1.8022,-8.3626 -2.8535,-7.748 z m -62.8477,58.8945 c -15.2801,4.1232 -24.5761,18.7079 -31.4082,31.9062 -2.3226,4.1676 -1.9787,12.3765 4.0235,12.4825 6.1503,-1.3407 5.3757,-9.1446 9.0351,-13.0235 5.7332,-9.8861 15.0655,-16.962 22.834,-25.0742 1.5457,-3.0717 -1.0036,-6.9626 -4.4844,-6.291 z m -64.5136,44.6348 c 2.996,11.4943 8.2139,24.5269 10.4648,34.8203 -6.771,-9.4214 -8.2405,-21.5757 -10.3242,-32.6465 7e-4,-0.3673 -0.8834,-5.4824 -0.1406,-2.1738 z m -224.2071,30.7949 c -5.8832,0.9054 -4.6226,8.2137 -3.3261,12.2558 7.5227,26.7775 8.2133,55.2002 15.2309,82.3437 4.2293,17.8534 10.8014,35.0779 17.8179,51.9356 2.4124,7.7086 2.2298,17.1926 7.5215,23.4219 4.5051,2.1712 7.2474,-3.4251 5.9414,-7.1523 -2.2811,-23.4127 -12.1656,-45.0723 -18.709,-67.3482 -6.3403,-24.1356 -8.347,-49.0788 -13.3965,-73.4311 -2.1362,-7.4292 -3.5786,-16.2298 -9.3613,-21.6739 -0.5398,-0.2344 -1.1298,-0.3633 -1.7188,-0.3515 z m -9.7343,121.8906 c -2.9446,11.8814 2.6022,23.1848 8.3811,33.1667 7.8148,16.0737 23.724,25.9874 32.3591,41.5247 8.4427,12.7126 20.1323,22.9424 28.6387,35.5078 8.8658,16.8689 12.8437,35.8549 19.2715,53.8284 4.8844,14.4202 7.0295,29.5819 6.6464,44.8455 0.605,25.4303 -2.2148,51.4571 5.2539,76.2011 2.1389,7.1324 3.9969,15.6675 9.6368,20.6133 5.3606,1.7415 6.7315,-5.7672 4.2011,-9.0996 -9.3909,-24.8526 -8.664,-51.5893 -7.455,-77.6133 0.8807,-23.2151 -0.2397,-47.1361 -8.8639,-68.9112 -5.526,-16.2018 -8.8212,-33.6179 -17.7553,-48.3837 -9.788,-12.9835 -22.4569,-23.6763 -30.2488,-38.1404 -12.6816,-17.4277 -30.9352,-30.6421 -39.7551,-50.8381 -2.9485,-6.5235 -6.0783,-12.9626 -9.6992,-19.1446 -0.2038,2.1478 -0.4076,4.2956 -0.6113,6.4434 z m -51.0703,83.2852 c -2.8561,0.05 -5.003,3.1553 -4.2696,5.8672 -7.2662,3.8503 -13.7935,10.3693 -14.293,19.0214 -2.39303,10.6533 0.5993,22.2448 8.6153,29.8243 3.7509,4.5669 9.4365,6.8647 14.8965,8.2539 4.2633,3.9591 10.43,3.2524 14.9765,0.2265 9.4272,-4.261 16.8083,-14.8366 13.9946,-25.2485 -1.264,-10.0583 -1.0891,-23.6681 -11.268,-29.4351 -3.9241,-2.6482 -9.4608,-1.2083 -12.3066,-5.2011 -2.9953,-2.0944 -6.7379,-3.0693 -10.3457,-3.3086 z m 2.6738,14.9902 c 2.6499,1.1477 -3.1251,3.2099 -0.9707,5.9102 1.4461,4.5863 7.7792,5.0497 8.2109,10.2539 0.6669,3.9456 5.5132,7.9916 8.582,3.832 3.6365,-6.1276 -1.7946,-13.0535 -6.4062,-16.916 4.0851,-0.3302 7.2362,2.003 7.6348,6.1543 1.3641,6.9228 2.0622,14.5261 0.125,21.3867 -1.3022,2.328 -4.7205,5.39 -6.9903,2.5879 -5.3212,-3.0076 -12.8356,-3.0102 -15.125,-9.8945 -3.7201,-7.7802 -2.2692,-18.1114 4.9395,-23.3145 z m 70.4512,22.8008 c -5.64,-0.4688 -12.9981,2.9064 -11.9356,9.6191 -0.4591,5.5274 0.7565,11.3102 1.1211,16.5703 -4.2837,3.6046 -13.7421,5.2596 -12.4258,12.3516 0.5189,8.9195 -2.3705,20.6171 5.4551,27.1426 6.8895,4.0728 15.5143,2.959 23.084,2.1718 8.6757,-2.4486 11.7668,-13.543 7.111,-20.8546 -1.6949,-4.6713 -4.9373,-9.958 -5.9743,-14.0731 5.9041,0.3142 15.5355,0.825 16.6953,-6.8965 1.6851,-7.4911 1.7108,-18.0891 -5.8516,-22.3632 -4.0378,-1.3501 -8.4287,-1.3187 -12.1621,-3.375 -1.6862,-0.3107 -3.4086,-0.3192 -5.1171,-0.293 z m 2.8808,12.3613 c 2.6873,0.8778 7.0967,2.3656 5.7285,5.4297 -1.9022,-0.4263 -7.1302,2.12 -5.8105,-1.5059 0.2597,-1.0286 -0.553,-3.7727 0.082,-3.9238 z m -54.1074,15.3848 c -7.4348,0.3928 -12.9273,6.0461 -19.1641,9.3808 1.4603,10.7089 -2.7576,23.2619 3.2676,33.1621 5.0912,5.971 13.4587,3.0986 19.9258,2.0274 -1.5781,2.2194 0.3676,5.6857 0.1836,7.2226 -9.0316,3.9508 -13.1802,14.2519 -12.0469,23.6446 -0.044,7.5138 3.8229,15.4823 11.4277,17.7656 4.6934,3.6766 10.976,9.7494 17.3106,5.6973 8.451,-2.5417 17.9268,-8.5583 19.584,-17.2539 4.467,2.5642 8.3926,5.7315 11.4023,9.8964 7.0104,6.4709 20.8459,5.1097 23.961,-4.7851 3.9776,-7.7581 2.6639,-16.9771 -2.1719,-24.0215 -5.9983,-10.0054 -16.6382,-19.0084 -28.7793,-18.9687 -4.1394,0.5316 -7.1514,4.2508 -7.7266,8.0644 -1.9787,1.9921 -2.3243,4.9733 -2.3281,7.6445 -3.2869,-8.8761 -10.0694,-18.8307 -20.6641,-18.3964 -3.7442,0.5453 1.6804,-2.2243 1.7617,-3.9727 7.2333,-10.618 4.8705,-26.746 -6.0878,-33.918 -2.9186,-1.8788 -6.3346,-3.2681 -9.8555,-3.1894 z m 46.2617,12.4785 c 2.0524,5.0018 4.525,10.5928 6.8027,15.084 -4.3358,1.2951 -9.5236,1.2169 -14.039,0.5586 -2.6395,-1.7573 -0.3043,-5.9161 -1.4785,-8.5996 -0.4408,-3.5718 4.7347,-3.1829 6.4367,-5.6671 0.6517,-0.266 1.7643,-1.7187 2.2781,-1.3759 z m -45.166,3.2363 c 5.5064,4.479 2.7008,15.0554 -4.6719,15.2969 -1.727,0.4795 -5.5387,2.8902 -4.6348,-1.0391 -0.2253,-3.9856 -2.1627,-10.146 3.1195,-11.5725 1.8682,-1.0333 4.0277,-2.8856 6.1872,-2.6853 z m 15.8476,40.2813 c 4.2666,2.4654 3.9603,8.243 6.6817,11.9863 1.5186,3.8381 3.7154,9.2231 1.459,12.8066 -3.5689,0.8408 -7.5793,5.5883 -10.2871,1.1739 -2.5464,-2.8611 -8.2511,-2.9687 -7.3516,-7.7461 -1.498,-5.3944 0.3704,-11.1327 5.7187,-13.4434 1.6861,-1.1481 3.1846,-3.0784 3.7793,-4.7773 z m 28.6055,2.0683 c 8.0516,2.0407 16.0024,8.1144 15.8555,17.1328 0.5673,2.1023 1.1371,6.1444 -2.0606,3.1211 -3.9743,-2.7289 -8.437,-4.8734 -12.7089,-6.8086 -2.6992,-4.0339 -1.1208,-9.0507 -1.4864,-13.5605 l 0.4004,0.1152 z m 600.4317,11 c 23.0044,-0.3355 45.6106,4.573 68.3561,7.2484 27.1834,1.5231 54.4447,0.7304 81.636,1.279 1.1718,1.3272 6.127,3.148 5,4.1015 -8.6122,2.7061 -15.2524,10.393 -24.8554,10.0879 -16.7195,0.9852 -33.5911,-2.0395 -49.9125,-5.7741 -19.2704,-6.1148 -39.6521,-5.9366 -59.4352,-8.3841 -8.018,-0.5572 -14.7906,-4.8976 -21.7129,-8.5527 l 0.9102,-0.01 0.014,0 z m -20.127,6.5098 c 8.9462,3.4735 16.314,10.0279 24.7031,14.3281 -2.6274,3.4733 -5.1246,10.4025 -10.6914,7.9356 -7.7318,-1.1664 -14.2354,-6.0564 -19.9961,-11.0313 1.9215,-3.7544 3.7089,-7.7885 5.9844,-11.2324 z m 41.5352,12.5723 c 21.2336,0.3476 42.1813,3.3944 62.4241,9.6493 17.5205,2.7322 34.7841,7.4858 52.6794,6.2784 1.4988,3.2098 4.7944,7.4977 5.6328,9.9062 -25.1154,-2.0503 -50.4519,-0.8704 -75.4649,-3.2793 -17.81,-5.6238 -36.006,-13.0886 -55.0898,-10.6445 -4.6132,0.3985 1.1929,-3.306 1.3652,-5.2402 1.8123,-3.0838 4.364,-6.9181 8.4532,-6.6699 z m 143.3554,2.082 c 4.777,5.6253 10.3242,10.6384 14.3594,16.8613 -7.1995,1.8692 -14.8265,6.2589 -21.9023,6.1582 -1.8037,-5.1567 -7.2305,-8.5127 -9.6778,-12.7793 4.7964,-2.2424 9.0563,-5.3789 13.9727,-7.457 1.2242,-0.7368 2.3543,-1.7071 3.248,-2.7832 z m -1314.93161,12.3203 c -6.34459,0.9132 -16.00233,-0.9272 -19.51172,6.0645 -0.60553,3.6476 -2.25631,6.8596 -5.92188,8.1425 -14.06603,8.731 -31.54441,7.9547 -46.0664,15.6739 -5.04547,2.6325 -11.83148,5.5142 -11.21875,12.2129 -1.60869,6.8878 -10.73759,7.1406 -16.41602,8.1035 -7.6554,0.9435 -15.89096,0.704 -23.03906,3.8418 -4.50943,2.7834 -1.45032,9.1782 3.23242,9.4414 12.10748,0.8562 24.31652,0.7192 36.39948,2.4214 5.3781,2.6657 12.91127,-2.6554 9.20208,-8.3257 -1.32365,-2.1007 -3.99967,-2.2489 -6.17968,-2.7285 3.80682,-2.3412 6.29675,-6.3043 8.01367,-10.1993 10.44303,-7.9364 23.70867,-10.4578 36.38086,-11.3984 11.4485,-2.2574 23.451,-8.2998 29.02343,-18.9375 -0.22201,-4.5269 6.02735,-2.9211 8.64649,-3.7715 5.00254,0.8053 11.31013,-5.6846 5.91601,-9.4238 -2.5462,-1.4743 -5.65897,-0.988 -8.46093,-1.1172 z m 343.55859,3.959 c 6.01889,-0.8663 10.33878,3.288 14.99805,6.1777 4.10964,1.2794 4.20012,2.4519 0.24609,4.1114 -7.33076,3.7866 -13.87171,11.6085 -11.39062,20.33 1.73374,10.373 4.54624,21.0135 10.02539,30.0313 2.63727,3.202 8.77454,3.1277 10.75,5.5722 -4.55274,1.3873 -10.21775,3.5366 -13.6211,-1.1425 -15.27676,-13.1965 -24.96774,-31.4831 -39.33993,-45.6744 -5.86524,-6.8738 -12.34879,-14.0385 -21.38272,-16.5307 16.64194,0.1087 33.16867,-1.4711 49.71484,-2.875 z m 183.85552,8.3105 c -3.8937,-0.3024 -6.667,3.5579 -7.2911,6.6856 -8.2577,0.3136 -18.4622,-2.7109 -25.1855,3.4433 -7.4962,10.95 -8.8261,24.7727 -10.5625,37.5821 -0.9502,7.1741 2.7314,14.0515 8.8203,17.8203 8.3497,7.254 20.4313,14.5437 31.5918,9.3984 13.4874,-8.0363 15.9155,-25.3217 17.9467,-39.4539 1.0837,-9.1102 3.9383,-20.4396 -3.6401,-27.6183 -3.1916,-3.3009 -7.1363,-6.8349 -11.6796,-7.8575 z m -247.13091,5.8301 c -6.54007,4.5435 -16.63477,7.6943 -18.69531,16.3652 -0.65899,3.2261 1.39268,8.4502 -3.6211,8.2012 -4.80832,1.1272 -9.7351,1.7505 -14.67187,1.8731 8.57305,-7.2663 19.12991,-13.5702 23.35547,-24.543 4.19241,-1.9408 9.57618,-1.5136 14.21875,-2.2754 l -0.58594,0.3789 z m 106.93945,0.3965 c 3.94691,2.2569 0.65699,8.2175 1.54966,11.8633 -0.3436,7.6023 1.34767,15.8495 -1.04184,23.0449 -1.71205,1.603 -3.29675,5.3976 -5.0918,5.7129 -4.22906,-4.7064 -11.31029,-7.6948 -11.54883,-14.9336 -1.35513,-4.7482 -5.19158,-11.0887 0.6973,-14.4082 4.53316,-4.1147 9.05102,-9.7918 15.03941,-11.3126 l 0.3961,0.033 z m 490.31246,6.3906 c 2.9707,0.8776 3.8704,4.4759 5.5508,6.6836 -4.1264,1.5469 -5.5827,6.9766 -9.5898,8.0899 -4.7889,-2.0857 -9.5028,-4.4205 -14.8067,-5.1485 -5.1123,-1.2758 -10.3413,-2.2703 -15.6289,-2.2715 0.344,-1.8243 -2.4809,-7.2298 1.1036,-5.5761 11.1485,1.8342 22.244,-2.593 33.371,-1.7774 z m -579.58199,4.3281 c 10.5948,4.8182 16.50002,15.6741 24.65039,23.627 6.72191,7.9824 13.14101,16.5511 21.90235,22.4473 -6.93661,0.4263 -13.99549,4.0957 -20.85547,2.2031 -7.13766,-5.568 -19.99931,-4.9389 -22.73274,-15.1738 -2.57634,-6.5647 -6.44535,-13.3659 -12.945,-16.6289 2.41895,-2.9035 0.52201,-7.1362 -2.25976,-9.002 3.92625,-2.6897 7.85976,-5.6312 12.24023,-7.4727 z m 229.89649,0.9434 c 2.5116,5.361 -1.2304,11.3077 -0.7427,17.0002 -1.1241,9.1318 -2.3188,20.4411 -10.3725,25.951 -7.2921,0.1186 -12.1906,-6.1562 -17.3614,-10.3438 2.766,-10.3044 2.2057,-21.8771 8.3711,-30.8672 6.1763,-2.813 13.781,-1.1253 20.1055,-1.7402 z m 362.9219,14.541 c 7.1696,0.4975 14.5662,4.7371 21.6445,1.5664 4.6399,1.7819 9.0967,4.2969 14.0938,4.9571 -2.0028,2.0727 -2.7804,6.5014 -5.0899,8.0371 -11.6581,-4.3258 -25.1456,-1.3882 -36.4434,-7.2461 1.1569,-2.5692 1.1401,-9.453 5.795,-7.3145 z m -44.9258,2.9258 c 8.4155,2.367 17.2866,3.6709 25.8398,4.5488 -1.5669,9.608 8.6578,15.7867 16.7383,17.6465 3.1075,0.9227 7.6178,1.413 9.8692,2.041 -4.9656,0.881 -9.5911,4.3518 -14.4415,4.8028 -7.5829,-8.3607 -20.4352,-6.7262 -30.5039,-9.7481 -6.2422,-0.3648 -5.1177,-8.0538 -6.5371,-12.4844 -0.3627,-2.2624 -0.6703,-4.5382 -0.9648,-6.8066 z m -10.9883,1.4102 c 2.8669,3.0929 -2.5201,2.4839 -0.2031,-0.02 l 0.2031,0.02 z m -578.47655,11.6933 c 8.29508,1.1898 17.74807,-0.6569 25.15234,3.1055 3.77662,6.9155 5.11353,16.6607 13.65625,19.6133 5.2683,1.829 5.678,3.6516 0.12846,5.6469 -4.22726,2.0411 -9.17336,5.6555 -13.77299,4.9527 -4.00949,-5.9895 -0.27568,-15.0373 -6.39649,-20.1934 -3.80552,-5.7414 -10.25437,-8.1567 -16.31835,-10.5234 -1.06908,-0.8843 -8.23766,-3.5292 -2.44922,-2.6016 z m 157.99023,9.4356 c 4.09112,0.4667 10.77855,-1.1366 11.3711,4.5527 2.29697,13.0493 8.24764,24.9156 14.27734,36.5781 3.08446,6.2777 4.96234,13.5939 1.22434,20.0774 -2.27428,5.2446 -2.48852,11.2063 -2.37083,16.657 -7.169,-5.8869 -17.23874,-4.1424 -25.20117,-7.7207 -12.60905,-7.8939 -19.32998,-24.2244 -34.90762,-27.476 -18.94248,-5.9157 -38.46426,-9.8727 -58.13925,-12.3795 20.40491,-5.5805 43.3972,-4.8354 62.80664,-14.916 5.58482,-3.9091 9.64716,-9.5133 13.38281,-15.1191 5.88941,0.2724 11.72163,-0.2904 17.55664,-0.2539 z m 441.43942,12.9218 c 4.3133,1.3516 9.6735,2.2439 13.2364,4.5664 -0.6825,7.3433 6.4177,12.2396 8.1992,18.9356 1.2128,2.6913 3.014,5.6764 -0.2012,7.3887 -4.6983,7.2516 1.7355,15.4053 1.4609,22.8984 -1.2208,3.7351 -6.6755,7.8051 -9.0722,7.9941 2.2936,-7.0751 -2.8188,-13.9096 -4.543,-20.5527 -3.2457,-9.0604 -8.5919,-18.4839 -9.8828,-27.6523 4.1677,-4.0298 -0.8666,-9.6063 -1.3516,-14.1211 0.7181,0.181 1.4362,0.362 2.1543,0.5429 z m 81.7246,1.1954 c -7.3142,4.8384 -14.2813,10.1357 -22.8886,12.5273 -2.8544,0.6822 -4.3015,5.6947 -7.0013,2.6567 -6.0326,-3.6634 -12.2298,-7.0479 -18.4968,-10.2915 15.6061,-5.1621 32.2373,-4.3918 48.3867,-4.8925 z m 28.1231,1.6914 c -1.7548,4.8788 -4.7963,9.3976 -4.7949,14.8378 -0.8377,6.8971 0.296,14.0576 -1.9102,20.7579 -9.7242,7.4459 -20.521,13.6842 -28.9277,22.7207 -6.3311,-10.2817 -3.4261,-23.5286 -9.5586,-33.918 3.4219,-6.4895 12.1771,-4.9462 17.7383,-8.6133 8.9787,-5.5509 20.2258,-7.8572 27.4531,-15.7851 z m -511.84181,5.9101 c 7.72119,1.8588 14.49931,8.081 14.39061,16.5254 3.6674,11.434 12.6436,21.68 10.6387,34.3906 0.2488,6.6933 5.4866,11.5758 9.5684,16.295 -10.2201,1.0458 -20.5934,-3.3884 -28.40825,-9.5196 -2.86908,-9.1485 5.55975,-17.2532 4.36135,-26.5488 -0.4013,-11.3163 -6.20208,-21.4227 -11.03713,-31.3418 l 0.48632,0.1992 z m 438.81841,14.3555 c 6.4391,4.4819 17.3281,6.3617 17.0703,16.2305 0.6749,8.8791 -0.6232,19.0494 5.5136,26.4179 0.6476,1.6681 5.1521,5.9831 1.5528,5.3965 -4.0392,-4.8523 -11.3838,-2.6452 -16.8729,-3.2608 -3.7855,0.043 -7.6005,0.1319 -11.3498,-0.4833 3.8492,-4.854 6.8298,-10.4688 6.9531,-16.7559 1.7456,-9.393 -0.4104,-18.9822 -3.3652,-27.8965 l 0.4981,0.3516 z m -809.25395,22.8535 c -20.45294,3.9825 -41.88116,-0.03 -61.94922,6.2637 -3.85136,2.792 -0.9937,8.1319 3.24805,8.0937 22.9243,1.8292 46.78941,-1.2965 68.93359,3.877 -1.88766,5.3131 -9.03736,11.3124 -4.22852,17.039 6.59521,3.9608 15.11718,2.5484 22.54681,3.0913 11.32714,-0.3091 23.73945,1.1334 32.54499,9.2525 4.04956,3.3978 9.22033,4.8699 14.27148,5.4375 5.81151,3.676 11.58094,8.1135 18.71037,8.3584 12.03586,2.3216 23.76044,8.0605 36.0826,7.9599 6.15806,-2.3043 12.44229,-4.1365 19.09921,-3.3916 16.42621,-0.6018 33.439,1.8582 49.47306,-2.5673 4.30705,-2.0559 0.69887,-6.8346 -2.61133,-7.5469 -14.0699,-5.176 -29.55082,-2.1857 -44.14648,-2.4707 -12.80553,0.5949 -25.50597,6.2912 -38.26954,2.1113 -8.19677,-2.3565 -16.63082,-4.2566 -24.67187,-6.9551 -5.2478,-3.4944 -10.88431,-6.9904 -17.28125,-7.2754 -8.66083,-4.8583 -16.75275,-11.0411 -26.69768,-13.1531 -7.09882,-2.0921 -14.45788,-3.2259 -21.83748,-3.675 2.75545,-7.3373 2.68074,-18.9165 -5.91796,-22.0879 -5.49872,-2.0951 -11.49066,-2.2674 -17.29883,-2.3613 z m 751.84765,30.8379 c 9.3977,3.4701 19.5984,7.0011 29.6367,3.9648 9.8558,-2.1872 18.4074,4.7581 28.1406,4.7578 2.8411,0.3041 6.0175,0.2892 8.6875,0.2852 -5.4883,2.7005 -6.6844,9.0353 -10.1621,13.3438 -18.5984,1.5632 -38.5231,-0.441 -56.1875,7.0136 -4.7868,1.0977 -4.1814,-6.1288 -5.7162,-8.8314 -1.7314,-6.3704 -3.683,-13.8618 -9.8306,-17.3678 5.0186,-1.0569 10.3518,-3.5913 15.4316,-3.166 z m -852.32812,1.584 c -9.79621,2.0086 -19.10673,6.9238 -29.40039,5.5566 -13.68243,-0.7775 -27.22474,-7.673 -41.12891,-4.1289 -7.54883,0.5334 -15.68955,-0.035 -22.83789,2.9297 -3.41884,0.4613 -10.8173,-3.1904 -9.74219,2.623 0.3206,7.1714 -2.52781,13.7008 -3.57812,20.543 1.01901,12.5074 14.92988,16.7082 23.05523,23.7192 10.57722,7.8853 18.95412,18.2563 28.28657,27.3687 3.32763,2.3735 7.55828,1.2526 10.5996,-0.5977 22.53401,-1.1342 44.87258,3.9815 66.45414,10.414 16.6236,4.7494 33.98043,3.7758 51.02243,3.9923 6.77001,0.037 14.57398,-2.0543 17.04883,-9.166 1.42881,-3.876 5.69289,-6.6543 5.20507,-11.3692 -0.71983,-9.6412 -9.52073,-16.6105 -10.63086,-26.2793 -2.14393,-7.1526 -3.20434,-15.8277 -8.92578,-21.1347 -16.79512,-7.0762 -35.37121,-8.1731 -53.27734,-5.9531 -5.36102,0.5137 -7.53209,-5.3752 -10.65039,-8.6582 -2.80977,-3.919 -5.9094,-9.9815 -11.5,-9.8594 z m 518.45702,14.0742 c 1.7607,4.0694 -1.6659,7.1616 -5.4883,7.7461 -6.4134,2.8607 -5.6719,13.2495 -13.7676,13.209 -11.6501,3.0312 -22.62045,9.2068 -31.34761,17.4843 -2.55255,2.8841 -4.45157,6.4156 -8.83398,6.4082 -8.9499,2.3038 -21.23458,3.1594 -25.6543,12.627 -4.24824,10.5888 -4.5109,22.2596 -9.50195,32.5781 -6.24064,3.7222 -15.20369,9.4419 -19.88086,12 5.03396,-3.9735 9.29538,-9.3471 8.75195,-16.1211 0.002,-8.7387 -2.33398,-17.7003 -0.25586,-26.2929 7.20999,-6.7769 18.48584,-6.4106 26.44532,-11.9668 6.71249,-6.7095 8.90386,-16.4007 13.46594,-24.4982 2.19137,-5.2365 4.95342,-11.5515 11.58016,-11.7627 10.52808,-3.2313 21.44689,-4.9745 32.14919,-6.6571 6.2759,-5.1902 14.7475,-5.6082 22.3379,-7.4414 0,0.8958 0,1.7917 0,2.6875 z m -583.41991,-1.0762 c 15.97158,1.1938 32.07196,8.2846 48.4541,4.7514 5.20768,-0.5362 10.64406,-3.0893 15.37012,-3.808 5.90347,8.1418 12.95727,18.9304 24.4055,18.3122 14.78192,0.7446 30.24743,-0.7379 44.41481,3.7015 1.46842,5.6735 3.81094,11.1719 4.29492,17.0625 -23.24393,-0.8498 -46.48348,-4.0687 -69.85051,-3.7979 -17.7395,-0.9461 -36.22264,-2.3997 -52.64754,-9.5693 -11.34377,-7.8691 -21.7394,-17.0105 -32.61328,-25.5137 6.03866,-0.5699 12.09818,-1.2512 18.17188,-1.1387 z m -28.28125,6.2285 c 13.94085,9.9922 25.75185,22.7308 40.2832,31.9336 -0.36747,3.5577 -0.42281,7.1433 -0.90625,10.6895 -12.16435,-11.2671 -24.54242,-22.5342 -38.72266,-31.1797 -2.79312,-3.3244 -2.16304,-8.0358 -1.41601,-11.9805 l 0.76172,0.5371 z m 853.83596,7.1289 c 2.28,9.2763 10.2449,15.3894 17.8535,20.2032 2.702,3.4873 6.6024,6.1286 9.8418,8.6972 -2.4494,8.5451 2.121,16.8819 4.9397,24.7558 1.8043,4.1942 3.9208,8.2546 6.324,12.1368 -4.0192,-2.0161 -8.8822,-1.9536 -12.8379,-3.2324 -1.2956,-8.6357 2.8508,-18.6097 -2.1817,-26.5859 -7.8052,-8.7592 -20.9644,-5.3682 -30.625,-10.461 -2.6083,-1.1474 -7.0765,-1.4652 -8.4785,-3.6055 4.2905,-7.7051 9.1099,-16.0254 15.1641,-21.9082 z m -799.53518,31.4004 c 20.5352,5.1084 42.54931,4.2496 62.94531,6.75 0.29657,7.8737 10.31189,15.4366 17.12109,9.5645 2.63872,-2.1271 3.91562,-5.641 3.70704,-8.9766 11.47087,1.3384 23.80742,-0.088 34.67187,3.791 2.18695,2.1608 -2.49748,2.9338 -2.23828,5.3145 -0.64314,1.7327 -1.01665,5.0854 -3.69531,3.4551 -24.07732,0.893 -47.97902,-0.7742 -71.26367,-6.8086 -14.47996,-2.328 -29.11457,-3.5492 -43.75586,-4.2637 0.80341,-2.3749 -1.31424,-10.7076 2.50781,-8.8262 z M 1348.041,2065.582 c -12.0662,0.344 -26.778,-0.3278 -35.3808,9.7403 -2.4827,7.6886 -4.8365,15.2415 -9.0332,22.2461 -5.9101,12.3543 -11.2473,25.6353 -10.7774,39.5839 11.6327,7.5212 22.3786,16.8005 35.5524,21.7679 15.6981,8.6235 33.3617,17.4175 51.8031,14.8845 7.3603,-5.8532 17.229,-3.9768 25.7969,-6.6035 8.4396,-2.2119 17.3879,-2.6961 25.6933,-5.1719 5.1652,-2.9363 3.0335,-9.5265 1.7539,-13.9609 -1.1465,-10.4406 0.031,-21.5924 -5.3554,-31.1114 -3.4287,-7.1863 -4.3132,-15.8542 -8.8907,-22.289 -3.7167,-2.3878 -8.5084,-2.4113 -11.6758,-5.7696 -6.1156,-3.0406 -13.9668,-0.8644 -18.9765,-6.4062 -10.3239,-6.1087 -21.0007,-11.9023 -32.0918,-16.3867 -2.7633,-0.5917 -5.6082,-0.5474 -8.418,-0.5235 z m -0.791,20.1934 c 9.6891,0.2276 17.7982,6.3893 26.5312,9.8262 6.231,2.876 10.5202,9.6651 18.0298,9.1178 6.7532,-0.1763 14.0844,1.3215 17.9468,7.4115 7.9767,10.4648 7.8979,24.5449 13.6172,35.9355 -15.0068,-1.5414 -29.3746,7.0646 -44.2793,3.7734 -8.1965,-2.0546 -12.0308,-10.0193 -16.3164,-16.4218 -6.179,-7.9384 -16.0772,-11.5587 -23.9992,-16.9759 -5.6553,-8.542 -10.6292,-17.9393 -15.241,-27.1921 6.5847,-5.4 15.7459,-4.7142 23.7109,-5.4746 z m 3.8027,15.9101 c -4.5934,0.6098 -4.4945,6.6655 -0.7968,8.5079 9.9738,7.5093 23.9246,11.3447 28.8183,24.0058 6.731,10.844 21.0545,10.7414 32.2868,10.497 8.0047,1.623 4.107,-2.007 0.2132,-5.4853 -5.064,-5.2787 -11.7508,-8.8185 -18.6953,-10.5761 -5.4404,-5.1096 -8.4742,-14.1342 -17.0078,-14.9024 -8.7492,-2.9366 -16.139,-9.4001 -24.8184,-12.0469 z m -33.5859,1.2012 c 3.7527,8.4051 7.205,16.9403 10.791,25.416 -1.7211,4.0143 -3.6256,8.122 -6.8691,11.1504 -5.1409,-3.3107 -10.1128,-7.0077 -15.7949,-9.3691 3.1966,-9.5546 6.7297,-18.9772 11.582,-27.8379 l 0.291,0.6406 z M 1339.2246,2140 c 7.0823,3.308 10.8138,10.5278 15.2363,16.541 -7.4191,-2.6678 -14.5447,-6.0868 -21.4921,-9.7988 2.0332,-1.8548 3.6444,-6.5851 6.2558,-6.7422 z"
     id="path4168"
     inkscape:connector-curvature="0" />
  <ellipse
     style="color:#000000;clip-rule:nonzero;display:inline;overflow:visible;visibility:visible;opacity:1;isolation:auto;mix-blend-mode:normal;color-interpolation:sRGB;color-interpolation-filters:linearRGB;solid-color:#000000;solid-opacity:1;fill:none;fill-opacity:1;fill-rule:nonzero;stroke:none;stroke-width:1.06993353px;stroke-linecap:butt;stroke-linejoin:miter;stroke-miterlimit:4;stroke-dasharray:none;stroke-dashoffset:0;stroke-opacity:1;color-rendering:auto;image-rendering:auto;shape-rendering:auto;text-rendering:auto;enable-background:accumulate"
     id="path4189"
     cx="1134.5679"
     cy="1116.6334"
     rx="1134.033"
     ry="1133.7539"
     transform="matrix(0.99987699,0.01568461,0,1,0,0)" />
</svg>
